<svg fill="none" viewBox="0 0 53 80" xmlns="http://www.w3.org/2000/svg">
  <path fill="#de5833" fill-rule="evenodd" d="M26.5 53C41.136 53 53 41.136 53 26.5S41.136 0 26.5 0 0 11.864 0 26.5 11.864 53 26.5 53z" clip-rule="evenodd"/>
  <path fill="#ddd" fill-rule="evenodd" d="M30.227 46.272c0-.207.05-.255-.608-1.566-1.749-3.503-3.507-8.44-2.707-11.625.146-.579-1.648-21.425-2.915-22.097-1.41-.75-3.143-1.942-4.728-2.207-.805-.128-1.86-.067-2.684.044-.147.02-.153.283-.013.33.542.184 1.2.502 1.587.984.073.09-.026.234-.142.239-.366.013-1.028.166-1.902.908-.101.086-.017.246.113.22 1.878-.372 3.797-.189 4.927.84.073.066.035.185-.06.211-9.811 2.667-7.87 11.2-5.257 21.674 2.213 8.875 3.113 12.028 3.433 13.103a.606.606 0 0 0 .366.398c3.438 1.29 10.59 1.316 10.59-.939z" clip-rule="evenodd"/>
  <path fill="#fff" d="M31.572 48.238c-1.19.466-3.52.673-4.865.673-1.973 0-4.814-.31-5.849-.776-.639-1.968-2.552-8.066-4.442-15.811-.061-.254-.123-.506-.185-.757l-.001-.006c-2.246-9.174-4.08-16.667 5.974-19.021.091-.022.136-.131.076-.204-1.154-1.368-3.315-1.817-6.048-.874-.112.039-.209-.074-.14-.17.536-.739 1.584-1.307 2.1-1.556.107-.051.101-.208-.012-.243a11.54 11.54 0 0 0-1.562-.372c-.153-.025-.167-.288-.013-.309 3.874-.52 7.92.642 9.95 3.2.018.024.046.04.076.047 7.434 1.596 7.966 13.347 7.11 13.882-.17.106-.71.045-1.424-.035-2.893-.323-8.62-.964-3.893 7.846.047.087-.015.202-.113.217-2.665.415.75 8.767 3.261 14.27z"/>
  <path fill="#3ca82b" d="M34.897 37.555c-.566-.263-2.742 1.298-4.186 2.496-.302-.427-.87-.738-2.154-.515-1.124.196-1.744.467-2.021.934-1.773-.672-4.757-1.71-5.478-.708-.787 1.095.197 6.277 1.244 6.95.546.351 3.16-1.328 4.524-2.487.22.31.575.488 1.303.471 1.102-.025 2.89-.282 3.167-.795a.569.569 0 0 0 .044-.11c1.403.524 3.871 1.08 4.423.996 1.437-.216-.2-6.924-.866-7.232z"/>
  <path fill="#4cba3c" d="M30.844 40.204c.06.106.107.218.148.332.2.56.525 2.338.28 2.778-.247.439-1.847.651-2.835.668s-1.209-.344-1.409-.903c-.16-.447-.238-1.5-.237-2.101-.04-.894.286-1.208 1.795-1.452 1.116-.18 1.707.03 2.047.39 1.585-1.184 4.23-2.853 4.488-2.548 1.286 1.521 1.448 5.143 1.17 6.6-.091.476-4.35-.472-4.35-.986 0-2.133-.553-2.718-1.097-2.778zm-9.329-.666c.349-.552 3.177.135 4.73.825 0 0-.32 1.446.189 3.149.148.498-3.572 2.715-4.058 2.334-.561-.441-1.594-5.148-.861-6.308z"/>
  <path fill="#fc3" fill-rule="evenodd" d="M22.885 28.325c.228-.995 1.295-2.87 5.101-2.825 1.925-.008 4.315-.001 5.9-.181a21.212 21.212 0 0 0 5.27-1.282c1.648-.628 2.233-.488 2.438-.112.225.413-.04 1.127-.616 1.784-1.1 1.255-3.077 2.228-6.57 2.516s-5.805-.648-6.8.877c-.43.658-.098 2.208 3.279 2.696 4.563.659 8.311-.793 8.774.084.463.877-2.204 2.661-6.775 2.698-4.57.038-7.426-1.6-8.438-2.414-1.285-1.033-1.86-2.539-1.563-3.841z" clip-rule="evenodd"/>
  <g fill="#14307e" opacity=".8">
    <path d="M28.706 17.443c.255-.417.82-.74 1.745-.74s1.36.369 1.662.78c.061.083-.032.181-.127.14l-.07-.03c-.338-.148-.753-.33-1.465-.34-.761-.01-1.241.18-1.544.344-.101.056-.262-.055-.201-.154zm-10.416.534c.898-.375 1.604-.327 2.103-.208.105.024.178-.089.094-.156-.387-.313-1.254-.7-2.385-.28-1.01.377-1.485 1.159-1.487 1.672-.001.122.248.132.312.03.174-.278.464-.682 1.362-1.058z"/>
    <path fill-rule="evenodd" d="M31.237 23.154c-.794 0-1.438-.642-1.438-1.433s.644-1.433 1.438-1.433c.794 0 1.438.642 1.438 1.433s-.644 1.433-1.438 1.433zm1.013-1.908a.372.372 0 0 0-.745 0 .372.372 0 0 0 .745 0zm-10.544 1.467c0 .923-.75 1.671-1.676 1.671a1.675 1.675 0 0 1-1.677-1.67c0-.924.752-1.672 1.677-1.672.924 0 1.676.748 1.676 1.671zm-.494-.554a.434.434 0 1 0-.867.002.434.434 0 0 0 .867-.002z" clip-rule="evenodd"/>
  </g>
  <path fill="#fff" fill-rule="evenodd" d="M26.5 48.756c12.292 0 22.256-9.964 22.256-22.256S38.792 4.244 26.5 4.244 4.244 14.208 4.244 26.5 11.864 48.756 26.5 48.756zm0 2.07c13.435 0 24.326-10.891 24.326-24.326S39.935 2.174 26.5 2.174 2.174 13.065 2.174 26.5 13.065 50.826 26.5 50.826z" clip-rule="evenodd"/>
  <path fill="#fff" fill-rule="evenodd" d="M26.497 48.438c12.118 0 21.941-9.823 21.941-21.94S38.615 4.555 26.498 4.555 4.555 14.38 4.555 26.497s9.824 21.941 21.941 21.941zm24.292-21.94c0 13.415-10.876 24.29-24.292 24.29S2.206 39.914 2.206 26.499 13.08 2.205 26.497 2.205 50.79 13.08 50.79 26.497z" clip-rule="evenodd"/>
  <text x="26.5" y="70" text-anchor="middle" fill="#333" font-family="var(--Font-Family-Display, 'DuckSans Display')" font-size="12" font-weight="700">DuckDuckGo</text>
</svg>
