<svg fill="none" viewBox="0 0 96 96" xmlns="http://www.w3.org/2000/svg">
  <path fill="url(#Fire-96_svg__a)" d="M42.648 18c5.292 3.52 5.632 9.4 7.136 15 .255.949 1.628 5 6.216 5 4.078 0 5.765-2.729 6.274-4s.765-3.998 1.02-3.771S72.2 39.865 72.2 56.136C72.2 68.339 62.02 76 48 76s-26-7.661-26-19.864C22 39.865 35.765 35.796 42.648 18"/>
  <path fill="url(#Fire-96_svg__b)" d="M72 56.136c0-10.645-4.737-18.185-7.704-21.866a7 7 0 0 1-.165.474C63.455 36.43 61.212 40 56 40c-2.98 0-5.001-1.352-6.266-2.86a9.8 9.8 0 0 1-1.882-3.621c-.387-1.442-.706-2.93-1.02-4.275-.323-1.378-.651-2.657-1.078-3.85-.557-1.555-1.271-2.927-2.323-4.1-3.532 7.789-8.325 12.933-12.138 17.61C27.077 44.073 24 48.704 24 56.135l.005.391C24.2 64.733 30.552 71.871 39.6 74.72c2.63.828 5.466 1.28 8.4 1.28s5.77-.452 8.4-1.28C65.59 71.826 72 64.505 72 56.136m3.994.494c-.245 10.344-8.178 18.688-18.393 21.904A32 32 0 0 1 48 80c-3.345 0-6.584-.516-9.6-1.466-10.215-3.216-18.149-11.56-18.394-21.904L20 56.136c0-8.84 3.805-14.38 8.192-19.76 4.385-5.378 9.29-10.565 12.59-19.098l.093-.205a2 2 0 0 1 2.88-.738c3.112 2.07 4.735 4.837 5.764 7.71.508 1.418.878 2.879 1.208 4.288.337 1.443.624 2.79.989 4.148.09.336.399 1.273 1.084 2.09.633.755 1.59 1.429 3.2 1.429 2.944 0 4.074-1.887 4.418-2.744.167-.417.323-1.189.499-2.088.074-.379.162-.825.255-1.16.036-.128.125-.445.3-.744.062-.108.328-.563.895-.841a2.04 2.04 0 0 1 2.08.17l.177.141.006.006C65.012 29.083 76 38.994 76 56.136z"/>
  <path fill="#fc3" d="M48 51c5.333 5.459 12 11.373 12 17.173C60 74.428 56 80 48 80s-12-5.572-12-11.827S42.667 56.459 48 51"/>
  <defs>
    <linearGradient id="Fire-96_svg__a" x1="47.366" x2="53.23" y1="29.6" y2="70.978" gradientUnits="userSpaceOnUse">
      <stop stop-color="#fa8b38"/>
      <stop offset=".52" stop-color="#e72a57"/>
      <stop offset="1" stop-color="#cc165b"/>
    </linearGradient>
    <linearGradient id="Fire-96_svg__b" x1="48" x2="48" y1="16" y2="80" gradientUnits="userSpaceOnUse">
      <stop stop-color="#ff862d"/>
      <stop offset="1" stop-color="#b40b4a"/>
    </linearGradient>
  </defs>
</svg>
