<svg fill="none" viewBox="0 0 96 64" xmlns="http://www.w3.org/2000/svg">
  <path fill="#888" d="m78.55 27.8 1.35-.35c.25-.05.5-.3.55-.55l.35-1.35c.1-.35.4-.55.7-.55.35 0 .65.25.7.55l.35 1.35c.05.25.3.5.55.55l1.35.35c.35.1.55.4.55.7 0 .35-.25.65-.55.7l-1.35.35c-.25.05-.5.3-.55.55l-.35 1.35c-.1.35-.4.55-.7.55-.35 0-.65-.25-.7-.55l-.35-1.35c-.05-.25-.3-.5-.55-.55l-1.35-.35c-.35-.1-.55-.4-.55-.7 0-.35.25-.65.55-.7m-66.843-3.2 1.736-.45c.321-.064.643-.386.707-.707l.45-1.736a.946.946 0 0 1 .9-.707c.45 0 .836.321.9.707l.45 1.736c.064.321.386.643.707.707l1.736.45c.45.129.707.514.707.9 0 .45-.321.836-.707.9l-1.736.45c-.321.064-.643.386-.707.707l-.45 1.736a.946.946 0 0 1-.9.707c-.45 0-.836-.321-.9-.707l-.45-1.736c-.064-.321-.386-.643-.707-.707l-1.736-.45a.946.946 0 0 1-.707-.9c0-.45.321-.836.707-.9M.55 40.8l1.35-.35c.25-.05.5-.3.55-.55l.35-1.35c.1-.35.4-.55.7-.55.35 0 .65.25.7.55l.35 1.35c.05.25.3.5.55.55l1.35.35c.35.1.55.4.55.7 0 .35-.25.65-.55.7l-1.35.35c-.25.05-.5.3-.55.55l-.35 1.35c-.1.35-.4.55-.7.55-.35 0-.65-.25-.7-.55l-.35-1.35c-.05-.25-.3-.5-.55-.55L.55 42.2c-.35-.1-.55-.4-.55-.7 0-.35.25-.65.55-.7M94.5 40c-.825 0-1.5-.675-1.5-1.5s.675-1.5 1.5-1.5 1.5.675 1.5 1.5-.675 1.5-1.5 1.5m-75 10c-.825 0-1.5-.675-1.5-1.5s.675-1.5 1.5-1.5 1.5.675 1.5 1.5-.675 1.5-1.5 1.5" opacity=".2"/>
  <path fill="url(#Fire-Burn-96_svg__a)" fill-rule="evenodd" d="M45.09 53.655a14 14 0 0 0 3.04.345c2.58 0 3.976-.367 3.986-.37a17.3 17.3 0 0 0 11.738-9.695 23.1 23.1 0 0 0 1.067-11.889 16.86 16.86 0 0 1 1.327-8.195 11.07 11.07 0 0 0-5.768 4.761 13.8 13.8 0 0 0-1.587 4.473 15.3 15.3 0 0 0-1.326-6.435c-.782-2.076-1.522-3.508-2.174-4.77-.672-1.301-1.252-2.423-1.691-3.887A11.03 11.03 0 0 1 55.144 10a22.05 22.05 0 0 0-8.24 3.484 22.1 22.1 0 0 0-6.18 6.471c-1.316 2.375-2.017 4.44-2.366 6.143a16 16 0 0 0-.169.97c-.401 2.84.198 4.43.198 4.43a11.2 11.2 0 0 1-2.538-3.463 9 9 0 0 1-.663-3.982 17.09 17.09 0 0 0-3.634 16.65 19.4 19.4 0 0 0 12.084 12.523s.548.223 1.454.429m-2.498 2.384A22.38 22.38 0 0 1 28.69 41.603a20.09 20.09 0 0 1 4.274-19.566 3 3 0 0 1 3.71-.589c.387-.936.856-1.92 1.425-2.946l.08-.136A25.07 25.07 0 0 1 54.56 7.057a3 3 0 0 1 3.133 4.525 8.03 8.03 0 0 0-1.076 5.686c.343 1.096.787 1.97 1.44 3.234l.009.015c.54 1.047 1.18 2.283 1.856 3.928a14.1 14.1 0 0 1 5.31-3.417A3 3 0 0 1 69 25.045a13.86 13.86 0 0 0-1.1 6.621 26.1 26.1 0 0 1-1.229 13.3 3 3 0 0 1-.084.206 20.31 20.31 0 0 1-13.753 11.371l-.01.002a9 9 0 0 1-.373.083c-.23.047-.548.104-.95.16a25 25 0 0 1-3.37.212c-1.586 0-2.952-.236-3.923-.47a15 15 0 0 1-1.526-.457z" clip-rule="evenodd"/>
  <path fill="url(#Fire-Burn-96_svg__b)" d="M43.636 53.226a19.38 19.38 0 0 1-12.084-12.523 17.09 17.09 0 0 1 3.634-16.65 9 9 0 0 0 .663 3.982 11.2 11.2 0 0 0 2.538 3.463s-1.644-4.358 2.336-11.543A22.07 22.07 0 0 1 55.144 10a11.03 11.03 0 0 0-1.442 7.993c.865 2.886 2.278 4.444 3.865 8.657a15.3 15.3 0 0 1 1.326 6.435 13.8 13.8 0 0 1 1.587-4.473 11.08 11.08 0 0 1 5.768-4.761 16.86 16.86 0 0 0-1.327 8.195 23.1 23.1 0 0 1-1.067 11.889 17.31 17.31 0 0 1-11.738 9.695 8.65 8.65 0 0 0 5.48-8.512 9.32 9.32 0 0 0-2.885-5.598c-1.009 5.453-3.893 6.088-3.893 6.088a22.1 22.1 0 0 0 2.048-7.473c.156-1.64 0-3.295-.462-4.877a11.54 11.54 0 0 0-4.47-7.07 11.35 11.35 0 0 1-2.538 8.484c-2.337 3.636-6.288 6.32-6.115 11.744a8.2 8.2 0 0 0 4.355 6.81"/>
  <path fill="url(#Fire-Burn-96_svg__c)" d="M56.23 50.26a8.65 8.65 0 0 1-4.114 3.37s-1.398.37-3.986.37-4.494-.774-4.494-.774a8.19 8.19 0 0 1-4.355-6.81c-.173-5.425 3.778-8.108 6.114-11.744a11.34 11.34 0 0 0 2.539-8.484 11.54 11.54 0 0 1 4.47 7.07 13 13 0 0 1 .461 4.877 22.1 22.1 0 0 1-2.047 7.473s2.884-.634 3.893-6.088a9.32 9.32 0 0 1 2.885 5.598 8.66 8.66 0 0 1-1.367 5.141Z"/>
  <defs>
    <linearGradient id="Fire-Burn-96_svg__a" x1="48.5" x2="48.5" y1="10" y2="54" gradientUnits="userSpaceOnUse">
      <stop stop-color="#d7320f"/>
      <stop offset="1" stop-color="#ef4926"/>
    </linearGradient>
    <linearGradient id="Fire-Burn-96_svg__b" x1="42.599" x2="56.918" y1="9.068" y2="54.217" gradientUnits="userSpaceOnUse">
      <stop stop-color="#ffaa2c" stop-opacity=".8"/>
      <stop offset="1" stop-color="#ffaf38"/>
    </linearGradient>
    <linearGradient id="Fire-Burn-96_svg__c" x1="45.394" x2="56.146" y1="25.594" y2="53.06" gradientUnits="userSpaceOnUse">
      <stop stop-color="#ffe565" stop-opacity=".9"/>
      <stop offset="1" stop-color="#ffe565"/>
    </linearGradient>
  </defs>
</svg>
