<?xml version="1.0" standalone="no"?>
<!DOCTYPE svg PUBLIC "-//W3C//DTD SVG 1.1//EN" "http://www.w3.org/Graphics/SVG/1.1/DTD/svg11.dtd" >
<svg xmlns="http://www.w3.org/2000/svg" xmlns:xlink="http://www.w3.org/1999/xlink" version="1.1">
<metadata>
Created by Christoph Koeberlin (http://christoph.koe.berlin)
Copyright (c) 2020-2025 Fontwerk GmbH. All rights reserved.
</metadata>
<defs>
<font id="Font" horiz-adv-x="0" >
  <font-face 
    font-family="Font"
    font-weight="500"
    font-stretch="normal"
    units-per-em="1050"
    panose-1="2 11 6 4 5 1 1 1 1 4"
    ascent="830"
    descent="-220"
    x-height="510"
    cap-height="700"
    bbox="-480 -322 1258 1120"
    underline-thickness="81"
    underline-position="-140"
    unicode-range="U+000D-1F16F"
  />
<missing-glyph horiz-adv-x="818" 
d="M684 810v-920h-549v920h549zM235 -11h348v722h-348v-722z" />
    <glyph glyph-name="f_f" unicode="ff" horiz-adv-x="730" 
d="M156.5 714.5q41.5 43.5 116.5 43.5h63v-93h-51q-62 0 -62 -73v-82h113v-88h-113v-422h-108v422h-79v88h79v86q0 75 41.5 118.5zM521.5 714.5q41.5 43.5 116.5 43.5h63v-93h-51q-62 0 -62 -73v-82h113v-88h-113v-422h-108v422h-79v88h79v86q0 75 41.5 118.5z" />
    <glyph glyph-name="fi" unicode="fi" horiz-adv-x="614" 
d="M156.5 714.5q41.5 43.5 116.5 43.5h63v-93h-51q-62 0 -62 -73v-82h113v-88h-113v-422h-108v422h-79v88h79v86q0 75 41.5 118.5zM543 0h-107v510h107v-510zM439 607q-20 19 -20 49q0 31 20 50t51 19t51.5 -19t20.5 -50q0 -30 -20.5 -49t-51.5 -19t-51 19z" />
    <glyph glyph-name="fl" unicode="fl" horiz-adv-x="615" 
d="M156.5 714.5q41.5 43.5 116.5 43.5h63v-93h-51q-62 0 -62 -73v-82h113v-88h-113v-422h-108v422h-79v88h79v86q0 75 41.5 118.5zM544 0h-108v750h108v-750z" />
    <glyph glyph-name=".notdef" horiz-adv-x="818" 
d="M684 810v-920h-549v920h549zM235 -11h348v722h-348v-722z" />
    <glyph glyph-name="NULL" 
 />
    <glyph glyph-name="nonmarkingreturn" unicode="&#xd;" horiz-adv-x="233" 
 />
    <glyph glyph-name="space" unicode=" " horiz-adv-x="233" 
 />
    <glyph glyph-name="A" unicode="A" horiz-adv-x="688" 
d="M289 700h110l270 -700h-121l-71 193h-268l-71 -193h-118zM442 288l-71 195q-26 71 -26 92h-4q0 -21 -26 -92l-71 -195h198z" />
    <glyph glyph-name="Aacute" unicode="&#xc1;" horiz-adv-x="688" 
d="M289 700h110l270 -700h-121l-71 193h-268l-71 -193h-118zM442 288l-71 195q-26 71 -26 92h-4q0 -21 -26 -92l-71 -195h198zM267 790l106 137h120l-121 -137h-105z" />
    <glyph glyph-name="Abreve" unicode="&#x102;" horiz-adv-x="688" 
d="M289 700h110l270 -700h-121l-71 193h-268l-71 -193h-118zM442 288l-71 195q-26 71 -26 92h-4q0 -21 -26 -92l-71 -195h198zM229 823.5q-45 37.5 -49 103.5h93q6 -64 72 -64q65 0 71 64h93q-4 -66 -49 -103.5t-115 -37.5q-71 0 -116 37.5z" />
    <glyph glyph-name="uni1EAE" unicode="&#x1eae;" horiz-adv-x="688" 
d="M289 700h110l270 -700h-121l-71 193h-268l-71 -193h-118zM442 288l-71 195q-26 71 -26 92h-4q0 -21 -26 -92l-71 -195h198zM229 811.5q-45 37.5 -49 103.5h93q6 -65 71 -65q66 0 72 65h93q-4 -67 -49 -104t-116 -37q-70 0 -115 37.5zM344 1051h120l-86 -108h-102z" />
    <glyph glyph-name="uni1EB6" unicode="&#x1eb6;" horiz-adv-x="688" 
d="M289 700h110l270 -700h-121l-71 193h-268l-71 -193h-118zM442 288l-71 195q-26 71 -26 92h-4q0 -21 -26 -92l-71 -195h198zM229 823.5q-45 37.5 -49 103.5h93q6 -64 72 -64q65 0 71 64h93q-4 -66 -49 -103.5t-115 -37.5q-71 0 -116 37.5zM293.5 -177.5
q-20.5 18.5 -20.5 48.5q0 31 20.5 50t51.5 19t51.5 -19t20.5 -50q0 -30 -20.5 -48.5t-51.5 -18.5t-51.5 18.5z" />
    <glyph glyph-name="uni1EB0" unicode="&#x1eb0;" horiz-adv-x="688" 
d="M289 700h110l270 -700h-121l-71 193h-268l-71 -193h-118zM442 288l-71 195q-26 71 -26 92h-4q0 -21 -26 -92l-71 -195h198zM229 811.5q-45 37.5 -49 103.5h93q6 -65 71 -65q66 0 72 65h93q-4 -67 -49 -104t-116 -37q-70 0 -115 37.5zM226 1051h121l68 -108h-102z" />
    <glyph glyph-name="uni1EB2" unicode="&#x1eb2;" horiz-adv-x="688" 
d="M289 700h110l270 -700h-121l-71 193h-268l-71 -193h-118zM442 288l-71 195q-26 71 -26 92h-4q0 -21 -26 -92l-71 -195h198zM230 811.5q-45 37.5 -49 103.5h93q6 -65 71 -65q66 0 72 65h93q-4 -67 -49 -104t-116 -37q-70 0 -115 37.5zM341.5 989.5q8.5 15.5 8.5 27.5
q0 11 -7 17.5t-20 6.5q-22 0 -40 -22l-56 49q35 52 104 52q46 0 76.5 -25t30.5 -60q0 -40 -38 -85h-86q19 24 27.5 39.5z" />
    <glyph glyph-name="uni1EB4" unicode="&#x1eb4;" horiz-adv-x="688" 
d="M289 700h110l270 -700h-121l-71 193h-268l-71 -193h-118zM442 288l-71 195q-26 71 -26 92h-4q0 -21 -26 -92l-71 -195h198zM368 961.5q-18 6.5 -41 19.5q-10 6 -20 10.5t-18 4.5q-13 0 -20.5 -9.5t-7.5 -27.5h-87q0 52 31 84t73 32q27 0 46 -7t40 -20q10 -6 20 -10.5
t19 -4.5q12 0 20 10t8 27h87q0 -52 -31.5 -83.5t-73.5 -31.5q-27 0 -45 6.5zM230 811.5q-45 37.5 -49 103.5h93q6 -65 71 -65q66 0 72 65h93q-4 -67 -49 -104t-116 -37q-70 0 -115 37.5z" />
    <glyph glyph-name="uni01CD" unicode="&#x1cd;" horiz-adv-x="688" 
d="M289 700h110l270 -700h-121l-71 193h-268l-71 -193h-118zM442 288l-71 195q-26 71 -26 92h-4q0 -21 -26 -92l-71 -195h198zM169 927h114l21 -25q36 -40 40 -49h3q5 10 42 51l19 23h115l-129 -137h-97z" />
    <glyph glyph-name="Acircumflex" unicode="&#xc2;" horiz-adv-x="688" 
d="M289 700h110l270 -700h-121l-71 193h-268l-71 -193h-118zM442 288l-71 195q-26 71 -26 92h-4q0 -21 -26 -92l-71 -195h198zM297 928h97l128 -138h-114l-20 23q-35 38 -41 51h-3q-3 -4 -33 -41q-14 -16 -28 -33h-115z" />
    <glyph glyph-name="uni1EA4" unicode="&#x1ea4;" horiz-adv-x="688" 
d="M289 700h110l270 -700h-121l-71 193h-268l-71 -193h-118zM442 288l-71 195q-26 71 -26 92h-4q0 -21 -26 -92l-71 -195h198zM298 913h97l128 -138h-114l-20 23q-35 38 -41 51h-3q-7 -12 -43 -53l-18 -21h-115zM534 999h116l-87 -122h-97z" />
    <glyph glyph-name="uni1EAC" unicode="&#x1eac;" horiz-adv-x="688" 
d="M289 700h110l270 -700h-121l-71 193h-268l-71 -193h-118zM442 288l-71 195q-26 71 -26 92h-4q0 -21 -26 -92l-71 -195h198zM293.5 -177.5q-20.5 18.5 -20.5 48.5q0 31 20.5 50t51.5 19t51.5 -19t20.5 -50q0 -30 -20.5 -48.5t-51.5 -18.5t-51.5 18.5zM297 928h97l128 -138
h-114l-20 23q-35 38 -41 51h-3q-3 -4 -33 -41q-14 -16 -28 -33h-115z" />
    <glyph glyph-name="uni1EA6" unicode="&#x1ea6;" horiz-adv-x="688" 
d="M289 700h110l270 -700h-121l-71 193h-268l-71 -193h-118zM442 288l-71 195q-26 71 -26 92h-4q0 -21 -26 -92l-71 -195h198zM297 913h97l128 -138h-114l-20 23q-35 38 -41 51h-3q-7 -12 -43 -53l-18 -21h-115zM406 999h116l68 -122h-97z" />
    <glyph glyph-name="uni1EA8" unicode="&#x1ea8;" horiz-adv-x="688" 
d="M289 700h110l270 -700h-121l-71 193h-268l-71 -193h-118zM442 288l-71 195q-26 71 -26 92h-4q0 -21 -26 -92l-71 -195h198zM297 912h96l129 -137h-115l-20 23q-35 38 -41 51h-3q-7 -12 -43 -53l-18 -21h-114zM490 952q0 11 -7 17.5t-20 6.5q-10 0 -20.5 -6t-18.5 -16
l-57 49q18 26 45 39t59 13q47 0 77 -25t30 -60q0 -40 -38 -85h-85q35 45 35 67z" />
    <glyph glyph-name="uni1EAA" unicode="&#x1eaa;" horiz-adv-x="688" 
d="M289 700h110l270 -700h-121l-71 193h-268l-71 -193h-118zM442 288l-71 195q-26 71 -26 92h-4q0 -21 -26 -92l-71 -195h198zM297 913h97l128 -138h-114l-20 23q-35 38 -41 51h-3q-5 -10 -42 -51l-19 -23h-115zM368.5 961q-19.5 7 -39.5 19q-10 6 -20 10.5t-19 4.5
q-13 0 -20.5 -10t-7.5 -27h-87q0 52 31.5 84t73.5 32q27 0 46.5 -7t39.5 -19q10 -6 20 -10.5t19 -4.5q12 0 20 10t8 27h87q0 -52 -31.5 -84t-73.5 -32q-27 0 -46.5 7z" />
    <glyph glyph-name="uni0200" unicode="&#x200;" horiz-adv-x="688" 
d="M289 700h110l270 -700h-121l-71 193h-268l-71 -193h-118zM442 288l-71 195q-26 71 -26 92h-4q0 -21 -26 -92l-71 -195h198zM86 927h120l108 -137h-103zM288 927h114l104 -137h-102z" />
    <glyph glyph-name="Adieresis" unicode="&#xc4;" horiz-adv-x="688" 
d="M289 700h110l270 -700h-121l-71 193h-268l-71 -193h-118zM442 288l-71 195q-26 71 -26 92h-4q0 -21 -26 -92l-71 -195h198zM187 815q-19 18 -19 48q0 29 19 47t47 18q29 0 48 -18t19 -47q0 -30 -19 -48t-48 -18q-28 0 -47 18zM408 815q-19 18 -19 48q0 29 19 47t48 18
q28 0 47 -18t19 -47q0 -30 -19 -48t-47 -18q-29 0 -48 18z" />
    <glyph glyph-name="uni01DE" unicode="&#x1de;" horiz-adv-x="688" 
d="M289 700h110l270 -700h-121l-71 193h-268l-71 -193h-118zM442 288l-71 195q-26 71 -26 92h-4q0 -21 -26 -92l-71 -195h198zM186 795.5q-19 17.5 -19 47.5t19 47.5t48 17.5t47.5 -17.5t18.5 -47.5t-18.5 -47.5t-47.5 -17.5t-48 17.5zM407.5 795.5q-18.5 17.5 -18.5 47.5
t18.5 47.5t47.5 17.5t48 -17.5t19 -47.5t-19 -47.5t-48 -17.5t-47.5 17.5zM184 1048h322v-86h-322v86z" />
    <glyph glyph-name="uni0226" unicode="&#x226;" horiz-adv-x="688" 
d="M289 700h110l270 -700h-121l-71 193h-268l-71 -193h-118zM442 288l-71 195q-26 71 -26 92h-4q0 -21 -26 -92l-71 -195h198zM294 817.5q-20 18.5 -20 49.5q0 30 20 49t51 19t51.5 -19t20.5 -49q0 -31 -20.5 -49.5t-51.5 -18.5t-51 18.5z" />
    <glyph glyph-name="uni1EA0" unicode="&#x1ea0;" horiz-adv-x="688" 
d="M289 700h110l270 -700h-121l-71 193h-268l-71 -193h-118zM442 288l-71 195q-26 71 -26 92h-4q0 -21 -26 -92l-71 -195h198zM293.5 -177.5q-20.5 18.5 -20.5 48.5q0 31 20.5 50t51.5 19t51.5 -19t20.5 -50q0 -30 -20.5 -48.5t-51.5 -18.5t-51.5 18.5z" />
    <glyph glyph-name="uni01E0" unicode="&#x1e0;" horiz-adv-x="688" 
d="M289 700h110l270 -700h-121l-71 193h-268l-71 -193h-118zM442 288l-71 195q-26 71 -26 92h-4q0 -21 -26 -92l-71 -195h198zM293.5 795.5q-20.5 18.5 -20.5 49.5q0 30 20.5 49t51.5 19t51 -19t20 -49q0 -31 -20 -49.5t-51 -18.5t-51.5 18.5zM184 1048h322v-87h-322v87z
" />
    <glyph glyph-name="Agrave" unicode="&#xc0;" horiz-adv-x="688" 
d="M289 700h110l270 -700h-121l-71 193h-268l-71 -193h-118zM442 288l-71 195q-26 71 -26 92h-4q0 -21 -26 -92l-71 -195h198zM197 928h120l106 -138h-105z" />
    <glyph glyph-name="uni1EA2" unicode="&#x1ea2;" horiz-adv-x="688" 
d="M289 700h110l270 -700h-121l-71 193h-268l-71 -193h-118zM442 288l-71 195q-26 71 -26 92h-4q0 -21 -26 -92l-71 -195h198zM350.5 802.5q8.5 15.5 8.5 27.5q0 11 -7 17.5t-20 6.5q-22 0 -40 -22l-56 49q35 52 104 52q46 0 76 -25t30 -60q0 -40 -38 -85h-85
q19 24 27.5 39.5z" />
    <glyph glyph-name="uni0202" unicode="&#x202;" horiz-adv-x="688" 
d="M289 700h110l270 -700h-121l-71 193h-268l-71 -193h-118zM442 288l-71 195q-26 71 -26 92h-4q0 -21 -26 -92l-71 -195h198zM456 895q44 -38 48 -103h-93q-3 31 -20.5 47t-45.5 16q-29 0 -46.5 -16t-20.5 -47h-93q4 67 48 104t112 37q67 0 111 -38z" />
    <glyph glyph-name="uni2C6D" unicode="&#x2c6d;" horiz-adv-x="791" 
d="M202 34.5q-71 45.5 -111 127.5t-40 188t40 188t111 127.5t160 45.5q77 0 137.5 -35t98.5 -100v124h112v-700h-112v124q-38 -65 -98.5 -100t-137.5 -35q-89 0 -160 45.5zM496 124.5q49 30.5 76.5 88.5t27.5 137t-27.5 137t-76.5 88.5t-111 30.5q-63 0 -112 -30.5
t-76.5 -88.5t-27.5 -137t28 -137t77 -88.5t111 -30.5t111 30.5z" />
    <glyph glyph-name="uni2C70" unicode="&#x2c70;" horiz-adv-x="791" 
d="M292.5 23.5q-60.5 34.5 -98.5 98.5v-122h-113v700h113v-122q38 64 98.5 98.5t136.5 34.5q89 0 160.5 -45.5t111.5 -127.5t40 -188t-40 -188t-111.5 -127.5t-160.5 -45.5q-76 0 -136.5 34.5zM518 124.5q49 30.5 76.5 88.5t27.5 137t-27.5 137t-76.5 88.5t-111 30.5
q-63 0 -111.5 -30.5t-76 -88.5t-27.5 -137t27.5 -137t76 -88.5t111.5 -30.5q62 0 111 30.5z" />
    <glyph glyph-name="Amacron" unicode="&#x100;" horiz-adv-x="688" 
d="M289 700h110l270 -700h-121l-71 193h-268l-71 -193h-118zM442 288l-71 195q-26 71 -26 92h-4q0 -21 -26 -92l-71 -195h198zM184 903h322v-86h-322v86z" />
    <glyph glyph-name="Aogonek" unicode="&#x104;" horiz-adv-x="688" 
d="M289 700h110l270 -700h-4l-27 -30q-15 -17 -15 -32q0 -10 7.5 -16t20.5 -6h32v-91h-62q-45 0 -70.5 22t-25.5 55q0 41 38 76l24 22h-39l-71 193h-268l-71 -193h-118zM442 288l-71 195q-26 71 -26 92h-4q0 -21 -26 -92l-71 -195h198z" />
    <glyph glyph-name="Aring" unicode="&#xc5;" horiz-adv-x="688" 
d="M289 700h110l270 -700h-121l-71 193h-268l-71 -193h-118zM442 288l-71 195q-26 71 -26 92h-4q0 -21 -26 -92l-71 -195h198zM252.5 800.5q-35.5 30.5 -35.5 77.5q0 46 36 76.5t93 30.5t93 -30.5t36 -76.5q0 -47 -36 -77.5t-93 -30.5q-58 0 -93.5 30.5zM387.5 846
q14.5 12 14.5 32t-14.5 32t-41.5 12t-41.5 -12t-14.5 -32t14.5 -32t41.5 -12t41.5 12z" />
    <glyph glyph-name="Aringacute" unicode="&#x1fa;" horiz-adv-x="688" 
d="M275 662q-27 14 -43 38t-16 54q0 47 36 77.5t94 30.5q57 0 92.5 -30.5t35.5 -77.5q0 -31 -15.5 -55t-44.5 -38l255 -661h-121l-71 193h-268l-71 -193h-118zM387 722q14 12 14 32t-14 32t-41 12t-41.5 -12t-14.5 -32t14.5 -32t41.5 -12t41 12zM268 889l106 138h121
l-122 -138h-105zM442 288l-71 195q-26 71 -26 92h-4q0 -21 -26 -92l-71 -195h198z" />
    <glyph glyph-name="uni1E00" unicode="&#x1e00;" horiz-adv-x="688" 
d="M289 700h110l270 -700h-121l-71 193h-268l-71 -193h-118zM442 288l-71 195q-26 71 -26 92h-4q0 -21 -26 -92l-71 -195h198zM251.5 -246q-35.5 30 -35.5 77t36 77.5t93 30.5t93 -30.5t36 -77.5t-36 -77t-93 -30q-58 0 -93.5 30zM386.5 -201q14.5 12 14.5 32t-14.5 32
t-41.5 12t-41.5 -12t-14.5 -32t14.5 -32t41.5 -12t41.5 12z" />
    <glyph glyph-name="uni023A" unicode="&#x23a;" horiz-adv-x="688" 
d="M289 700h110l26 -66l61 219h92l-101 -356l192 -497h-121l-71 193h-85l-99 -351h-92l99 351h-91l-71 -193h-118zM442 288l-71 195q-26 71 -26 92h-4q0 -21 -26 -92l-71 -195h198z" />
    <glyph glyph-name="Atilde" unicode="&#xc3;" horiz-adv-x="688" 
d="M289 700h110l270 -700h-121l-71 193h-268l-71 -193h-118zM442 288l-71 195q-26 71 -26 92h-4q0 -21 -26 -92l-71 -195h198zM369.5 799.5q-19.5 8.5 -40.5 23.5q-13 9 -21.5 13.5t-17.5 4.5q-12 0 -20 -11.5t-8 -33.5h-87q0 60 32.5 95t76.5 35q27 0 46.5 -9t39.5 -24
q13 -9 21.5 -13.5t17.5 -4.5q13 0 20.5 11.5t7.5 34.5h87q0 -60 -32.5 -95t-76.5 -35q-26 0 -45.5 8.5z" />
    <glyph glyph-name="uni2C6F" unicode="&#x2c6f;" horiz-adv-x="688" 
d="M399 0h-110l-270 700h121l71 -193h268l71 193h118zM317 217q26 -71 26 -92h4q0 21 26 92l71 195h-198z" />
    <glyph glyph-name="AE" unicode="&#xc6;" horiz-adv-x="996" 
d="M466 700h476v-102h-334v-192h294v-100h-294v-204h334v-102h-447v173h-252l-114 -173h-124zM365 268h130v198q0 83 6 105l-3 1q-6 -18 -54 -91l-106 -162q-33 -48 -46 -56l1 -2q15 7 72 7z" />
    <glyph glyph-name="AEacute" unicode="&#x1fc;" horiz-adv-x="996" 
d="M466 700h476v-102h-334v-192h294v-100h-294v-204h334v-102h-447v173h-252l-114 -173h-124zM365 268h130v198q0 83 6 105l-3 1q-6 -18 -54 -91l-106 -162q-33 -48 -46 -56l1 -2q15 7 72 7zM615 790l106 137h120l-121 -137h-105z" />
    <glyph glyph-name="uni01E2" unicode="&#x1e2;" horiz-adv-x="996" 
d="M466 700h476v-102h-334v-192h294v-100h-294v-204h334v-102h-447v173h-252l-114 -173h-124zM365 268h130v198q0 83 6 105l-3 1q-6 -18 -54 -91l-106 -162q-33 -48 -46 -56l1 -2q15 7 72 7zM532 903h322v-86h-322v86z" />
    <glyph glyph-name="B" unicode="B" horiz-adv-x="658" 
d="M81 700h261q111 0 172.5 -47t61.5 -139q0 -50 -26 -87.5t-71 -56.5q62 -19 97 -64t35 -108q0 -96 -65 -147t-182 -51h-283v700zM360 99q65 0 99.5 25.5t34.5 82.5q0 109 -134 109h-166v-217h166zM334 410q61 0 93 21.5t32 73.5t-32.5 74t-92.5 22h-140v-191h140z" />
    <glyph glyph-name="uni1E02" unicode="&#x1e02;" horiz-adv-x="658" 
d="M81 700h261q111 0 172.5 -47t61.5 -139q0 -50 -26 -87.5t-71 -56.5q62 -19 97 -64t35 -108q0 -96 -65 -147t-182 -51h-283v700zM360 99q65 0 99.5 25.5t34.5 82.5q0 109 -134 109h-166v-217h166zM334 410q61 0 93 21.5t32 73.5t-32.5 74t-92.5 22h-140v-191h140z
M273 817.5q-20 18.5 -20 49.5q0 30 20 49t51 19t51.5 -19t20.5 -49q0 -31 -20.5 -49.5t-51.5 -18.5t-51 18.5z" />
    <glyph glyph-name="uni1E04" unicode="&#x1e04;" horiz-adv-x="658" 
d="M81 700h261q111 0 172.5 -47t61.5 -139q0 -50 -26 -87.5t-71 -56.5q62 -19 97 -64t35 -108q0 -96 -65 -147t-182 -51h-283v700zM360 99q65 0 99.5 25.5t34.5 82.5q0 109 -134 109h-166v-217h166zM334 410q61 0 93 21.5t32 73.5t-32.5 74t-92.5 22h-140v-191h140z
M271.5 -177.5q-20.5 18.5 -20.5 48.5q0 31 20.5 50t51.5 19t51.5 -19t20.5 -50q0 -30 -20.5 -48.5t-51.5 -18.5t-51.5 18.5z" />
    <glyph glyph-name="uniA7B4" unicode="&#xa7b4;" horiz-adv-x="658" 
d="M81 700h261q111 0 172.5 -47t61.5 -139q0 -50 -26 -87.5t-71 -56.5q62 -19 97 -64t35 -108q0 -96 -65 -147t-182 -51h-110v99h106q65 0 99.5 25.5t34.5 82.5q0 109 -134 109h-80v94h54q61 0 93 21.5t32 73.5t-32.5 74t-92.5 22h-140v-768h-113v867z" />
    <glyph glyph-name="uni0181" unicode="&#x181;" horiz-adv-x="830" 
d="M254 598h-30q-34 0 -56 -19t-22 -53q0 -32 31 -67l-86 -60q-59 68 -59 133q0 77 50.5 122.5t132.5 45.5h300q111 0 172.5 -47.5t61.5 -138.5q0 -50 -26 -87.5t-72 -56.5q63 -19 98 -64t35 -108q0 -96 -65 -147t-183 -51h-282v598zM532 99q65 0 99.5 25.5t34.5 82.5
q0 109 -134 109h-165v-217h165zM507 410q60 0 92 21.5t32 73.5t-32 74t-92 22h-140v-191h140z" />
    <glyph glyph-name="uni1E06" unicode="&#x1e06;" horiz-adv-x="658" 
d="M81 700h261q111 0 172.5 -47t61.5 -139q0 -50 -26 -87.5t-71 -56.5q62 -19 97 -64t35 -108q0 -96 -65 -147t-182 -51h-283v700zM360 99q65 0 99.5 25.5t34.5 82.5q0 109 -134 109h-166v-217h166zM334 410q61 0 93 21.5t32 73.5t-32.5 74t-92.5 22h-140v-191h140zM162 -77
h323v-86h-323v86z" />
    <glyph glyph-name="uni0243" unicode="&#x243;" horiz-adv-x="692" 
d="M115 164h-77v93h77v443h262q111 0 172 -46t61 -135q0 -49 -26 -86t-71 -55q63 -20 98 -65t35 -108q0 -100 -65 -152.5t-183 -52.5h-283v164zM392 94q136 0 136 116t-136 116h-163v-73h148v-86h-148v-73h163zM366 415q61 0 94 21.5t33 72.5t-33 72.5t-94 21.5h-137v-188
h137z" />
    <glyph glyph-name="C" unicode="C" horiz-adv-x="704" 
d="M214 34q-77 45 -120 127t-43 189t43 189t120 127t175 45q96 0 169.5 -44.5t113.5 -127.5l-97 -58q-27 60 -75 92.5t-111 32.5t-113 -30.5t-78 -88t-28 -137.5t28 -137.5t78 -88t113 -30.5t111 32.5t75 92.5l97 -57q-40 -83 -113.5 -128t-169.5 -45q-98 0 -175 45z" />
    <glyph glyph-name="Cacute" unicode="&#x106;" horiz-adv-x="704" 
d="M214 34q-77 45 -120 127t-43 189t43 189t120 127t175 45q96 0 169.5 -44.5t113.5 -127.5l-97 -58q-27 60 -75 92.5t-111 32.5t-113 -30.5t-78 -88t-28 -137.5t28 -137.5t78 -88t113 -30.5t111 32.5t75 92.5l97 -57q-40 -83 -113.5 -128t-169.5 -45q-98 0 -175 45z
M311 790l106 137h120l-121 -137h-105z" />
    <glyph glyph-name="Ccaron" unicode="&#x10c;" horiz-adv-x="704" 
d="M214 34q-77 45 -120 127t-43 189t43 189t120 127t175 45q96 0 169.5 -44.5t113.5 -127.5l-97 -58q-27 60 -75 92.5t-111 32.5t-113 -30.5t-78 -88t-28 -137.5t28 -137.5t78 -88t113 -30.5t111 32.5t75 92.5l97 -57q-40 -83 -113.5 -128t-169.5 -45q-98 0 -175 45z
M213 927h114l21 -25q36 -40 40 -49h3q5 10 42 51l19 23h115l-129 -137h-97z" />
    <glyph glyph-name="Ccedilla" unicode="&#xc7;" horiz-adv-x="704" 
d="M308 -84h56q13 0 20.5 6t7.5 16q0 15 -15 32l-18 20q-91 7 -160.5 53.5t-108.5 125.5t-39 181q0 107 43 189t120 127t175 45q96 0 169.5 -44.5t113.5 -127.5l-97 -58q-27 60 -75 92.5t-111 32.5t-113 -30.5t-78 -88t-28 -137.5t28 -137.5t78 -88t113 -30.5t111 32.5
t75 92.5l97 -57q-35 -72 -95.5 -116t-139.5 -54l15 -14q38 -35 38 -76q0 -32 -25.5 -54.5t-70.5 -22.5h-86v91z" />
    <glyph glyph-name="uni1E08" unicode="&#x1e08;" horiz-adv-x="704" 
d="M308 -84h56q13 0 20.5 6t7.5 16q0 15 -15 32l-18 20q-91 7 -160.5 53.5t-108.5 125.5t-39 181q0 107 43 189t120 127t175 45q96 0 169.5 -44.5t113.5 -127.5l-97 -58q-27 60 -75 92.5t-111 32.5t-113 -30.5t-78 -88t-28 -137.5t28 -137.5t78 -88t113 -30.5t111 32.5
t75 92.5l97 -57q-35 -72 -95.5 -116t-139.5 -54l15 -14q38 -35 38 -76q0 -32 -25.5 -54.5t-70.5 -22.5h-86v91zM311 790l106 137h120l-121 -137h-105z" />
    <glyph glyph-name="Ccircumflex" unicode="&#x108;" horiz-adv-x="704" 
d="M214 34q-77 45 -120 127t-43 189t43 189t120 127t175 45q96 0 169.5 -44.5t113.5 -127.5l-97 -58q-27 60 -75 92.5t-111 32.5t-113 -30.5t-78 -88t-28 -137.5t28 -137.5t78 -88t113 -30.5t111 32.5t75 92.5l97 -57q-40 -83 -113.5 -128t-169.5 -45q-98 0 -175 45z
M341 928h97l128 -138h-114l-20 23q-35 38 -41 51h-3q-3 -4 -33 -41q-14 -16 -28 -33h-115z" />
    <glyph glyph-name="Cdotaccent" unicode="&#x10a;" horiz-adv-x="704" 
d="M214 34q-77 45 -120 127t-43 189t43 189t120 127t175 45q96 0 169.5 -44.5t113.5 -127.5l-97 -58q-27 60 -75 92.5t-111 32.5t-113 -30.5t-78 -88t-28 -137.5t28 -137.5t78 -88t113 -30.5t111 32.5t75 92.5l97 -57q-40 -83 -113.5 -128t-169.5 -45q-98 0 -175 45z
M338 817.5q-20 18.5 -20 49.5q0 30 20 49t51 19t51.5 -19t20.5 -49q0 -31 -20.5 -49.5t-51.5 -18.5t-51 18.5z" />
    <glyph glyph-name="uniA7B3" unicode="&#xa7b3;" horiz-adv-x="655" 
d="M263 272l-244 428h131l123 -214q49 -86 53 -116h4q2 15 17 48t35 68l125 214h130l-244 -427l250 -440h-131l-131 227q-20 35 -35 67.5t-17 47.5h-4q-2 -15 -17 -47t-36 -68l-132 -227h-129z" />
    <glyph glyph-name="uni0187" unicode="&#x187;" horiz-adv-x="723" 
d="M213.5 34q-76.5 45 -119.5 127t-43 189t42 189t115 127t165 45t148 -47q-14 25 -14 54q0 60 38.5 94.5t99.5 34.5q81 0 133 -54l-59 -77q-23 26 -56 26q-22 0 -36 -13.5t-14 -37.5q0 -19 10 -46t30 -69l18 -38l-96 -57q-27 60 -75.5 92.5t-111.5 32.5t-112.5 -30.5
t-77.5 -88t-28 -137.5t28 -137.5t77.5 -88t112.5 -30.5t111.5 32.5t75.5 92.5l97 -57q-40 -83 -114 -128t-170 -45q-98 0 -174.5 45z" />
    <glyph glyph-name="uni023B" unicode="&#x23b;" horiz-adv-x="704" 
d="M336 -7l-42 -151h-91l48 174q-93 39 -146.5 126.5t-53.5 207.5q0 107 43 189t120 127t175 45q33 0 58 -4l41 146h92l-49 -172q93 -44 141 -142l-97 -58q-27 60 -75 92.5t-111 32.5t-113 -30.5t-78 -88t-28 -137.5t28 -137.5t78 -88t113 -30.5t111 32.5t75 92.5l97 -57
q-40 -83 -113.5 -128t-169.5 -45q-29 0 -53 4z" />
    <glyph glyph-name="D" unicode="D" horiz-adv-x="733" 
d="M81 700h257q102 0 180 -42.5t121 -122t43 -185.5t-43 -185.5t-121 -122t-180 -42.5h-257v700zM332 102q113 0 172 65t59 183t-59 183t-172 65h-138v-496h138z" />
    <glyph glyph-name="uni01F1" unicode="&#x1f1;" horiz-adv-x="1302" 
d="M81 700h257q102 0 180 -42.5t121 -122t43 -185.5t-43 -185.5t-121 -122t-180 -42.5h-257v700zM332 102q113 0 172 65t59 183t-59 183t-172 65h-138v-496h138zM753 88l322 458q32 46 49 57l-1 3q-19 -8 -76 -8h-286v102h495v-88l-322 -458q-14 -20 -28 -36t-22 -21l1 -3
q19 8 76 8h297v-102h-505v88z" />
    <glyph glyph-name="uni01C4" unicode="&#x1c4;" horiz-adv-x="1302" 
d="M81 700h257q102 0 180 -42.5t121 -122t43 -185.5t-43 -185.5t-121 -122t-180 -42.5h-257v700zM332 102q113 0 172 65t59 183t-59 183t-172 65h-138v-496h138zM753 88l322 458q32 46 49 57l-1 3q-19 -8 -76 -8h-286v102h495v-88l-322 -458q-14 -20 -28 -36t-22 -21l1 -3
q19 8 76 8h297v-102h-505v88zM831 927h114l21 -25q36 -40 40 -49h3q5 10 42 51l19 23h115l-129 -137h-97z" />
    <glyph glyph-name="uni0189" unicode="&#x189;" horiz-adv-x="762" 
d="M370 307h-146v-205h137q113 0 172.5 65t59.5 183t-59.5 183t-172.5 65h-137v-199h146v-92zM111 307h-79v92h79v301h256q102 0 180 -42.5t121 -122t43 -185.5t-43 -185.5t-121 -122t-180 -42.5h-256v307z" />
    <glyph glyph-name="Dcaron" unicode="&#x10e;" horiz-adv-x="733" 
d="M81 700h257q102 0 180 -42.5t121 -122t43 -185.5t-43 -185.5t-121 -122t-180 -42.5h-257v700zM332 102q113 0 172 65t59 183t-59 183t-172 65h-138v-496h138zM166 927h114l21 -25q36 -40 40 -49h3q5 10 42 51l19 23h115l-129 -137h-97z" />
    <glyph glyph-name="uni1E10" unicode="&#x1e10;" horiz-adv-x="733" 
d="M81 700h257q102 0 180 -42.5t121 -122t43 -185.5t-43 -185.5t-121 -122t-180 -42.5h-257v700zM332 102q113 0 172 65t59 183t-59 183t-172 65h-138v-496h138zM290 -228l45 61q-22 4 -34.5 18t-12.5 33q0 24 18.5 39.5t48.5 15.5t49 -15.5t19 -40.5q0 -30 -25 -65l-53 -77
z" />
    <glyph glyph-name="uni1E12" unicode="&#x1e12;" horiz-adv-x="733" 
d="M81 700h257q102 0 180 -42.5t121 -122t43 -185.5t-43 -185.5t-121 -122t-180 -42.5h-257v700zM332 102q113 0 172 65t59 183t-59 183t-172 65h-138v-496h138zM532 -211h-115l-21 25q-36 40 -40 49h-3q-5 -10 -42 -51l-19 -23h-114l129 137h96z" />
    <glyph glyph-name="Dcroat" unicode="&#x110;" horiz-adv-x="762" 
d="M370 307h-146v-205h137q113 0 172.5 65t59.5 183t-59.5 183t-172.5 65h-137v-199h146v-92zM111 307h-79v92h79v301h256q102 0 180 -42.5t121 -122t43 -185.5t-43 -185.5t-121 -122t-180 -42.5h-256v307z" />
    <glyph glyph-name="uni1E0A" unicode="&#x1e0a;" horiz-adv-x="733" 
d="M81 700h257q102 0 180 -42.5t121 -122t43 -185.5t-43 -185.5t-121 -122t-180 -42.5h-257v700zM332 102q113 0 172 65t59 183t-59 183t-172 65h-138v-496h138zM291 817.5q-20 18.5 -20 49.5q0 30 20 49t51 19t51.5 -19t20.5 -49q0 -31 -20.5 -49.5t-51.5 -18.5t-51 18.5z
" />
    <glyph glyph-name="uni1E0C" unicode="&#x1e0c;" horiz-adv-x="733" 
d="M81 700h257q102 0 180 -42.5t121 -122t43 -185.5t-43 -185.5t-121 -122t-180 -42.5h-257v700zM332 102q113 0 172 65t59 183t-59 183t-172 65h-138v-496h138zM303.5 -177.5q-20.5 18.5 -20.5 48.5q0 31 20.5 50t51.5 19t51.5 -19t20.5 -50q0 -30 -20.5 -48.5t-51.5 -18.5
t-51.5 18.5z" />
    <glyph glyph-name="uni018A" unicode="&#x18a;" horiz-adv-x="905" 
d="M254 598h-30q-34 0 -56 -19t-22 -53q0 -32 31 -67l-86 -60q-59 68 -59 133q0 77 50.5 122.5t132.5 45.5h295q102 0 180 -42.5t121 -122t43 -185.5t-43 -185.5t-121 -122t-180 -42.5h-256v598zM504 102q113 0 172.5 65t59.5 183t-59.5 183t-172.5 65h-137v-496h137z" />
    <glyph glyph-name="uni1E0E" unicode="&#x1e0e;" horiz-adv-x="733" 
d="M81 700h257q102 0 180 -42.5t121 -122t43 -185.5t-43 -185.5t-121 -122t-180 -42.5h-257v700zM332 102q113 0 172 65t59 183t-59 183t-172 65h-138v-496h138zM193 -77h323v-86h-323v86z" />
    <glyph glyph-name="uni01F2" unicode="&#x1f2;" horiz-adv-x="1230" 
d="M81 700h257q102 0 180 -42.5t121 -122t43 -185.5t-43 -185.5t-121 -122t-180 -42.5h-257v700zM332 102q113 0 172 65t59 183t-59 183t-172 65h-138v-496h138zM776 78l226 288q39 47 53 55l-1 3q-17 -7 -77 -7h-191v93h393v-80l-221 -285q-38 -47 -53 -56l1 -3q17 7 76 7
h203v-93h-409v78z" />
    <glyph glyph-name="uni01C5" unicode="&#x1c5;" horiz-adv-x="1230" 
d="M81 700h257q102 0 180 -42.5t121 -122t43 -185.5t-43 -185.5t-121 -122t-180 -42.5h-257v700zM332 102q113 0 172 65t59 183t-59 183t-172 65h-138v-496h138zM776 78l226 288q39 47 53 55l-1 3q-17 -7 -77 -7h-191v93h393v-80l-221 -285q-38 -47 -53 -56l1 -3q17 7 76 7
h203v-93h-409v78zM808 737h114l21 -25q36 -40 40 -49h3q5 10 42 51l19 23h115l-129 -137h-97z" />
    <glyph glyph-name="Eth" unicode="&#xd0;" horiz-adv-x="762" 
d="M370 307h-146v-205h137q113 0 172.5 65t59.5 183t-59.5 183t-172.5 65h-137v-199h146v-92zM111 307h-79v92h79v301h256q102 0 180 -42.5t121 -122t43 -185.5t-43 -185.5t-121 -122t-180 -42.5h-256v307z" />
    <glyph glyph-name="E" unicode="E" horiz-adv-x="604" 
d="M550 598h-356v-192h316v-100h-316v-204h356v-102h-469v700h469v-102z" />
    <glyph glyph-name="Eacute" unicode="&#xc9;" horiz-adv-x="604" 
d="M550 598h-356v-192h316v-100h-316v-204h356v-102h-469v700h469v-102zM241 790l106 137h120l-121 -137h-105z" />
    <glyph glyph-name="Ebreve" unicode="&#x114;" horiz-adv-x="604" 
d="M550 598h-356v-192h316v-100h-316v-204h356v-102h-469v700h469v-102zM203 823.5q-45 37.5 -49 103.5h93q6 -64 72 -64q65 0 71 64h93q-4 -66 -49 -103.5t-115 -37.5q-71 0 -116 37.5z" />
    <glyph glyph-name="Ecaron" unicode="&#x11a;" horiz-adv-x="604" 
d="M550 598h-356v-192h316v-100h-316v-204h356v-102h-469v700h469v-102zM143 927h114l21 -25q36 -40 40 -49h3q5 10 42 51l19 23h115l-129 -137h-97z" />
    <glyph glyph-name="uni0228" unicode="&#x228;" horiz-adv-x="604" 
d="M550 598h-356v-192h316v-100h-316v-204h356v-102h-192l24 -22q38 -35 38 -76q0 -32 -25.5 -54.5t-70.5 -22.5h-86v91h56q13 0 20.5 6t7.5 16q0 15 -15 32l-27 30h-199v700h469v-102z" />
    <glyph glyph-name="uni1E1C" unicode="&#x1e1c;" horiz-adv-x="604" 
d="M550 598h-356v-192h316v-100h-316v-204h356v-102h-192l24 -22q38 -35 38 -76q0 -32 -25.5 -54.5t-70.5 -22.5h-86v91h56q13 0 20.5 6t7.5 16q0 15 -15 32l-27 30h-199v700h469v-102zM203 823.5q-45 37.5 -49 103.5h93q6 -64 72 -64q65 0 71 64h93q-4 -66 -49 -103.5
t-115 -37.5q-71 0 -116 37.5z" />
    <glyph glyph-name="Ecircumflex" unicode="&#xca;" horiz-adv-x="604" 
d="M550 598h-356v-192h316v-100h-316v-204h356v-102h-469v700h469v-102zM271 928h97l128 -138h-114l-20 23q-35 38 -41 51h-3q-3 -4 -33 -41q-14 -16 -28 -33h-115z" />
    <glyph glyph-name="uni1EBE" unicode="&#x1ebe;" horiz-adv-x="604" 
d="M550 598h-356v-192h316v-100h-316v-204h356v-102h-469v700h469v-102zM272 913h97l128 -138h-114l-20 23q-35 38 -41 51h-3q-7 -12 -43 -53l-18 -21h-115zM508 999h116l-87 -122h-97z" />
    <glyph glyph-name="uni1E18" unicode="&#x1e18;" horiz-adv-x="604" 
d="M550 598h-356v-192h316v-100h-316v-204h356v-102h-469v700h469v-102zM496 -211h-115l-21 25q-36 40 -40 49h-3q-5 -10 -42 -51l-19 -23h-114l129 137h96z" />
    <glyph glyph-name="uni1EC6" unicode="&#x1ec6;" horiz-adv-x="604" 
d="M550 598h-356v-192h316v-100h-316v-204h356v-102h-469v700h469v-102zM267.5 -177.5q-20.5 18.5 -20.5 48.5q0 31 20.5 50t51.5 19t51.5 -19t20.5 -50q0 -30 -20.5 -48.5t-51.5 -18.5t-51.5 18.5zM271 928h97l128 -138h-114l-20 23q-35 38 -41 51h-3q-3 -4 -33 -41
q-14 -16 -28 -33h-115z" />
    <glyph glyph-name="uni1EC0" unicode="&#x1ec0;" horiz-adv-x="604" 
d="M550 598h-356v-192h316v-100h-316v-204h356v-102h-469v700h469v-102zM271 913h97l128 -138h-114l-20 23q-35 38 -41 51h-3q-7 -12 -43 -53l-18 -21h-115zM380 999h116l68 -122h-97z" />
    <glyph glyph-name="uni1EC2" unicode="&#x1ec2;" horiz-adv-x="604" 
d="M550 598h-356v-192h316v-100h-316v-204h356v-102h-469v700h469v-102zM271 912h96l129 -137h-115l-20 23q-35 38 -41 51h-3q-7 -12 -43 -53l-18 -21h-114zM464 952q0 11 -7 17.5t-20 6.5q-10 0 -20.5 -6t-18.5 -16l-57 49q18 26 45 39t59 13q47 0 77 -25t30 -60
q0 -40 -38 -85h-85q35 45 35 67z" />
    <glyph glyph-name="uni1EC4" unicode="&#x1ec4;" horiz-adv-x="604" 
d="M550 598h-356v-192h316v-100h-316v-204h356v-102h-469v700h469v-102zM271 913h97l128 -138h-114l-20 23q-35 38 -41 51h-3q-5 -10 -42 -51l-19 -23h-115zM342.5 961q-19.5 7 -39.5 19q-10 6 -20 10.5t-19 4.5q-13 0 -20.5 -10t-7.5 -27h-87q0 52 31.5 84t73.5 32
q27 0 46.5 -7t39.5 -19q10 -6 20 -10.5t19 -4.5q12 0 20 10t8 27h87q0 -52 -31.5 -84t-73.5 -32q-27 0 -46.5 7z" />
    <glyph glyph-name="uni0204" unicode="&#x204;" horiz-adv-x="604" 
d="M550 598h-356v-192h316v-100h-316v-204h356v-102h-469v700h469v-102zM60 927h120l108 -137h-103zM262 927h114l104 -137h-102z" />
    <glyph glyph-name="Edieresis" unicode="&#xcb;" horiz-adv-x="604" 
d="M550 598h-356v-192h316v-100h-316v-204h356v-102h-469v700h469v-102zM161 815q-19 18 -19 48q0 29 19 47t47 18q29 0 48 -18t19 -47q0 -30 -19 -48t-48 -18q-28 0 -47 18zM382 815q-19 18 -19 48q0 29 19 47t48 18q28 0 47 -18t19 -47q0 -30 -19 -48t-47 -18
q-29 0 -48 18z" />
    <glyph glyph-name="Edotaccent" unicode="&#x116;" horiz-adv-x="604" 
d="M550 598h-356v-192h316v-100h-316v-204h356v-102h-469v700h469v-102zM268 817.5q-20 18.5 -20 49.5q0 30 20 49t51 19t51.5 -19t20.5 -49q0 -31 -20.5 -49.5t-51.5 -18.5t-51 18.5z" />
    <glyph glyph-name="uni1EB8" unicode="&#x1eb8;" horiz-adv-x="604" 
d="M550 598h-356v-192h316v-100h-316v-204h356v-102h-469v700h469v-102zM267.5 -177.5q-20.5 18.5 -20.5 48.5q0 31 20.5 50t51.5 19t51.5 -19t20.5 -50q0 -30 -20.5 -48.5t-51.5 -18.5t-51.5 18.5z" />
    <glyph glyph-name="Egrave" unicode="&#xc8;" horiz-adv-x="604" 
d="M550 598h-356v-192h316v-100h-316v-204h356v-102h-469v700h469v-102zM171 928h120l106 -138h-105z" />
    <glyph glyph-name="uni1EBA" unicode="&#x1eba;" horiz-adv-x="604" 
d="M550 598h-356v-192h316v-100h-316v-204h356v-102h-469v700h469v-102zM324.5 802.5q8.5 15.5 8.5 27.5q0 11 -7 17.5t-20 6.5q-22 0 -40 -22l-56 49q35 52 104 52q46 0 76 -25t30 -60q0 -40 -38 -85h-85q19 24 27.5 39.5z" />
    <glyph glyph-name="uni0206" unicode="&#x206;" horiz-adv-x="604" 
d="M550 598h-356v-192h316v-100h-316v-204h356v-102h-469v700h469v-102zM430 895q44 -38 48 -103h-93q-3 31 -20.5 47t-45.5 16q-29 0 -46.5 -16t-20.5 -47h-93q4 67 48 104t112 37q67 0 111 -38z" />
    <glyph glyph-name="Emacron" unicode="&#x112;" horiz-adv-x="604" 
d="M550 598h-356v-192h316v-100h-316v-204h356v-102h-469v700h469v-102zM158 903h322v-86h-322v86z" />
    <glyph glyph-name="uni1E16" unicode="&#x1e16;" horiz-adv-x="604" 
d="M550 598h-356v-192h316v-100h-316v-204h356v-102h-469v700h469v-102zM158 866h322v-86h-322v86zM241 923l106 137h120l-121 -137h-105z" />
    <glyph glyph-name="uni1E14" unicode="&#x1e14;" horiz-adv-x="604" 
d="M550 598h-356v-192h316v-100h-316v-204h356v-102h-469v700h469v-102zM158 867h322v-86h-322v86zM180 1060h120l106 -138h-105z" />
    <glyph glyph-name="Eogonek" unicode="&#x118;" horiz-adv-x="604" 
d="M550 598h-356v-192h316v-100h-316v-204h356v-102h-50l-27 -30q-15 -17 -15 -32q0 -10 7.5 -16t20.5 -6h32v-91h-62q-45 0 -70.5 22t-25.5 55q0 41 38 76l24 22h-341v700h469v-102z" />
    <glyph glyph-name="uni0190" unicode="&#xa72a;" horiz-adv-x="630" 
d="M191.5 10.5q-63.5 21.5 -102.5 67t-39 114.5q0 64 39 108.5t110 61.5q-58 17 -91.5 57.5t-33.5 95.5q0 58 31.5 102.5t88.5 69t131 24.5q98 0 166.5 -48.5t97.5 -135.5l-94 -42q-23 62 -65 92.5t-100 30.5q-63 0 -100.5 -27t-37.5 -74q0 -51 37.5 -76.5t106.5 -25.5h81
v-98h-83q-78 0 -121.5 -26.5t-43.5 -82.5q0 -54 45 -80t114 -26q60 0 108 34t70 104l96 -39q-27 -102 -101.5 -152t-172.5 -50q-73 0 -136.5 21.5z" />
    <glyph glyph-name="uni0190" unicode="&#x510;" horiz-adv-x="630" 
d="M191.5 10.5q-63.5 21.5 -102.5 67t-39 114.5q0 64 39 108.5t110 61.5q-58 17 -91.5 57.5t-33.5 95.5q0 58 31.5 102.5t88.5 69t131 24.5q98 0 166.5 -48.5t97.5 -135.5l-94 -42q-23 62 -65 92.5t-100 30.5q-63 0 -100.5 -27t-37.5 -74q0 -51 37.5 -76.5t106.5 -25.5h81
v-98h-83q-78 0 -121.5 -26.5t-43.5 -82.5q0 -54 45 -80t114 -26q60 0 108 34t70 104l96 -39q-27 -102 -101.5 -152t-172.5 -50q-73 0 -136.5 21.5z" />
    <glyph glyph-name="uni0190" unicode="&#x190;" horiz-adv-x="630" 
d="M191.5 10.5q-63.5 21.5 -102.5 67t-39 114.5q0 64 39 108.5t110 61.5q-58 17 -91.5 57.5t-33.5 95.5q0 58 31.5 102.5t88.5 69t131 24.5q98 0 166.5 -48.5t97.5 -135.5l-94 -42q-23 62 -65 92.5t-100 30.5q-63 0 -100.5 -27t-37.5 -74q0 -51 37.5 -76.5t106.5 -25.5h81
v-98h-83q-78 0 -121.5 -26.5t-43.5 -82.5q0 -54 45 -80t114 -26q60 0 108 34t70 104l96 -39q-27 -102 -101.5 -152t-172.5 -50q-73 0 -136.5 21.5z" />
    <glyph glyph-name="uni018E" unicode="&#x18e;" horiz-adv-x="604" 
d="M54 102h355v204h-315v100h315v192h-355v102h469v-700h-469v102z" />
    <glyph glyph-name="uni01A9" unicode="&#x1a9;" horiz-adv-x="575" 
d="M43 88l223 264l-214 260v88h477v-102h-259q-61 0 -79 7l-1 -3q16 -8 56 -57l144 -177v-28l-152 -185q-42 -49 -57 -57l1 -3q18 7 80 7h268v-102h-487v88z" />
    <glyph glyph-name="uni0246" unicode="&#x246;" horiz-adv-x="604" 
d="M435 853h92l-43 -153h66v-102h-356v-192h316v-100h-316v-204h356v-102h-264l-45 -158h-92l45 158h-113v700h311z" />
    <glyph glyph-name="uni1EBC" unicode="&#x1ebc;" horiz-adv-x="604" 
d="M550 598h-356v-192h316v-100h-316v-204h356v-102h-469v700h469v-102zM343.5 799.5q-19.5 8.5 -40.5 23.5q-13 9 -21.5 13.5t-17.5 4.5q-12 0 -20 -11.5t-8 -33.5h-87q0 60 32.5 95t76.5 35q27 0 46.5 -9t39.5 -24q13 -9 21.5 -13.5t17.5 -4.5q13 0 20.5 11.5t7.5 34.5h87
q0 -60 -32.5 -95t-76.5 -35q-26 0 -45.5 8.5z" />
    <glyph glyph-name="uni1E1A" unicode="&#x1e1a;" horiz-adv-x="604" 
d="M550 598h-356v-192h316v-100h-316v-204h356v-102h-469v700h469v-102zM337.5 -188q-19.5 9 -39.5 24q-13 9 -21.5 13.5t-17.5 4.5q-13 0 -20.5 -12t-7.5 -34h-87q0 60 32.5 95t76.5 35q27 0 46.5 -9t39.5 -24q13 -9 21.5 -13.5t17.5 -4.5q13 0 20.5 12t7.5 34h87
q0 -60 -32.5 -95t-76.5 -35q-27 0 -46.5 9z" />
    <glyph glyph-name="uni018F" unicode="&#x18f;" horiz-adv-x="755" 
d="M200 31q-73 42 -113 120t-40 181q0 21 3 45h535q-5 72 -35 123.5t-79.5 79t-111.5 27.5q-64 0 -115.5 -32t-84.5 -94l-85 67q44 76 119.5 119.5t165.5 43.5q100 0 178.5 -44.5t122.5 -126t44 -190.5q0 -108 -44 -190t-120.5 -126.5t-170.5 -44.5q-96 0 -169 42z
M229.5 142q53.5 -49 139.5 -49q78 0 136 50.5t75 138.5h-414q10 -91 63.5 -140z" />
    <glyph glyph-name="uni01B7" unicode="&#x1b7;" horiz-adv-x="605" 
d="M129 27.5q-70 38.5 -108 117.5l89 58q30 -55 74 -82t107 -27q66 0 108 30.5t42 87.5q0 53 -39 81t-107 28h-109v81l141 143q50 50 64 57l-2 3q-18 -7 -83 -7h-239v102h461v-90l-204 -202q68 -1 121 -25.5t83 -69t30 -102.5q0 -69 -34 -119t-95 -76.5t-139 -26.5
q-91 0 -161 38.5z" />
    <glyph glyph-name="uni01EE" unicode="&#x1ee;" horiz-adv-x="605" 
d="M129 27.5q-70 38.5 -108 117.5l89 58q30 -55 74 -82t107 -27q66 0 108 30.5t42 87.5q0 53 -39 81t-107 28h-109v81l141 143q50 50 64 57l-2 3q-18 -7 -83 -7h-239v102h461v-90l-204 -202q68 -1 121 -25.5t83 -69t30 -102.5q0 -69 -34 -119t-95 -76.5t-139 -26.5
q-91 0 -161 38.5zM123 927h114l21 -25q36 -40 40 -49h3q5 10 42 51l19 23h115l-129 -137h-97z" />
    <glyph glyph-name="uni01B8" unicode="&#x1b8;" horiz-adv-x="605" 
d="M176 15.5q-61 26.5 -95 76.5t-34 119q0 58 30 102.5t83 69t121 25.5l-204 202v90h461v-102h-239q-65 0 -83 7l-2 -3q14 -7 64 -57l141 -143v-81h-108q-68 0 -107.5 -28t-39.5 -81q0 -57 42 -87.5t108 -30.5q63 0 107 27t74 82l89 -58q-38 -79 -107.5 -117.5t-160.5 -38.5
q-79 0 -140 26.5z" />
    <glyph glyph-name="F" unicode="F" horiz-adv-x="585" 
d="M81 700h464v-102h-351v-210h309v-101h-309v-287h-113v700z" />
    <glyph glyph-name="uniA798" unicode="&#xa798;" horiz-adv-x="617" 
d="M113 287h-80v101h80v312h463v-102h-350v-210h308v-101h-308v-287h-113v287z" />
    <glyph glyph-name="uni1E1E" unicode="&#x1e1e;" horiz-adv-x="585" 
d="M81 700h464v-102h-351v-210h309v-101h-309v-287h-113v700zM265 817.5q-20 18.5 -20 49.5q0 30 20 49t51 19t51.5 -19t20.5 -49q0 -31 -20.5 -49.5t-51.5 -18.5t-51 18.5z" />
    <glyph glyph-name="uni0191" unicode="&#x191;" horiz-adv-x="585" 
d="M-89 -131l59 77q23 -26 57 -26q24 0 39 16t15 48v716h464v-102h-351v-210h309v-101h-309v-307q-1 -79 -44 -121.5t-114 -42.5q-78 0 -125 53z" />
    <glyph glyph-name="G" unicode="G" horiz-adv-x="755" 
d="M216.5 33.5q-76.5 44.5 -121 126.5t-44.5 190t43.5 190t120.5 126.5t175 44.5q88 0 164.5 -42t120.5 -121l-92 -58q-32 59 -82 87.5t-112 28.5q-63 0 -113 -30t-78.5 -88t-28.5 -138q0 -79 29 -137t78.5 -88.5t110.5 -30.5q88 0 140 48t63 140h-204v95h320q2 -28 2 -42
q0 -107 -41.5 -185.5t-114.5 -119.5t-165 -41q-94 0 -170.5 44.5z" />
    <glyph glyph-name="G.ss10" horiz-adv-x="757" 
d="M210 33.5q-74 44.5 -116.5 127t-42.5 189.5q0 108 43 190t118.5 126.5t171.5 44.5q87 1 161.5 -40t119.5 -122l-90 -61q-32 59 -80 88.5t-108 29.5q-63 0 -112.5 -30.5t-77.5 -88.5t-28 -138q0 -78 28.5 -136t78.5 -88.5t111 -30.5q85 0 137 51t54 137h-191v95h214
q40 0 61.5 -22t21.5 -62v-293h-104v88q-73 -99 -206 -99q-90 0 -164 44.5z" />
    <glyph glyph-name="uni01F4" unicode="&#x1f4;" horiz-adv-x="755" 
d="M216.5 33.5q-76.5 44.5 -121 126.5t-44.5 190t43.5 190t120.5 126.5t175 44.5q88 0 164.5 -42t120.5 -121l-92 -58q-32 59 -82 87.5t-112 28.5q-63 0 -113 -30t-78.5 -88t-28.5 -138q0 -79 29 -137t78.5 -88.5t110.5 -30.5q88 0 140 48t63 140h-204v95h320q2 -28 2 -42
q0 -107 -41.5 -185.5t-114.5 -119.5t-165 -41q-94 0 -170.5 44.5zM308 790l106 137h120l-121 -137h-105z" />
    <glyph glyph-name="uni01F4.ss10" horiz-adv-x="757" 
d="M210 33.5q-74 44.5 -116.5 127t-42.5 189.5q0 108 43 190t118.5 126.5t171.5 44.5q87 1 161.5 -40t119.5 -122l-90 -61q-32 59 -80 88.5t-108 29.5q-63 0 -112.5 -30.5t-77.5 -88.5t-28 -138q0 -78 28.5 -136t78.5 -88.5t111 -30.5q85 0 137 51t54 137h-191v95h214
q40 0 61.5 -22t21.5 -62v-293h-104v88q-73 -99 -206 -99q-90 0 -164 44.5zM308 790l106 137h120l-121 -137h-105z" />
    <glyph glyph-name="Gbreve" unicode="&#x11e;" horiz-adv-x="755" 
d="M216.5 33.5q-76.5 44.5 -121 126.5t-44.5 190t43.5 190t120.5 126.5t175 44.5q88 0 164.5 -42t120.5 -121l-92 -58q-32 59 -82 87.5t-112 28.5q-63 0 -113 -30t-78.5 -88t-28.5 -138q0 -79 29 -137t78.5 -88.5t110.5 -30.5q88 0 140 48t63 140h-204v95h320q2 -28 2 -42
q0 -107 -41.5 -185.5t-114.5 -119.5t-165 -41q-94 0 -170.5 44.5zM270 823.5q-45 37.5 -49 103.5h93q6 -64 72 -64q65 0 71 64h93q-4 -66 -49 -103.5t-115 -37.5q-71 0 -116 37.5z" />
    <glyph glyph-name="Gbreve.ss10" horiz-adv-x="757" 
d="M210 33.5q-74 44.5 -116.5 127t-42.5 189.5q0 108 43 190t118.5 126.5t171.5 44.5q87 1 161.5 -40t119.5 -122l-90 -61q-32 59 -80 88.5t-108 29.5q-63 0 -112.5 -30.5t-77.5 -88.5t-28 -138q0 -78 28.5 -136t78.5 -88.5t111 -30.5q85 0 137 51t54 137h-191v95h214
q40 0 61.5 -22t21.5 -62v-293h-104v88q-73 -99 -206 -99q-90 0 -164 44.5zM270 823.5q-45 37.5 -49 103.5h93q6 -64 72 -64q65 0 71 64h93q-4 -66 -49 -103.5t-115 -37.5q-71 0 -116 37.5z" />
    <glyph glyph-name="Gcaron" unicode="&#x1e6;" horiz-adv-x="755" 
d="M216.5 33.5q-76.5 44.5 -121 126.5t-44.5 190t43.5 190t120.5 126.5t175 44.5q88 0 164.5 -42t120.5 -121l-92 -58q-32 59 -82 87.5t-112 28.5q-63 0 -113 -30t-78.5 -88t-28.5 -138q0 -79 29 -137t78.5 -88.5t110.5 -30.5q88 0 140 48t63 140h-204v95h320q2 -28 2 -42
q0 -107 -41.5 -185.5t-114.5 -119.5t-165 -41q-94 0 -170.5 44.5zM210 927h114l21 -25q36 -40 40 -49h3q5 10 42 51l19 23h115l-129 -137h-97z" />
    <glyph glyph-name="Gcaron.ss10" horiz-adv-x="757" 
d="M210 33.5q-74 44.5 -116.5 127t-42.5 189.5q0 108 43 190t118.5 126.5t171.5 44.5q87 1 161.5 -40t119.5 -122l-90 -61q-32 59 -80 88.5t-108 29.5q-63 0 -112.5 -30.5t-77.5 -88.5t-28 -138q0 -78 28.5 -136t78.5 -88.5t111 -30.5q85 0 137 51t54 137h-191v95h214
q40 0 61.5 -22t21.5 -62v-293h-104v88q-73 -99 -206 -99q-90 0 -164 44.5zM210 927h114l21 -25q36 -40 40 -49h3q5 10 42 51l19 23h115l-129 -137h-97z" />
    <glyph glyph-name="Gcircumflex" unicode="&#x11c;" horiz-adv-x="755" 
d="M216.5 33.5q-76.5 44.5 -121 126.5t-44.5 190t43.5 190t120.5 126.5t175 44.5q88 0 164.5 -42t120.5 -121l-92 -58q-32 59 -82 87.5t-112 28.5q-63 0 -113 -30t-78.5 -88t-28.5 -138q0 -79 29 -137t78.5 -88.5t110.5 -30.5q88 0 140 48t63 140h-204v95h320q2 -28 2 -42
q0 -107 -41.5 -185.5t-114.5 -119.5t-165 -41q-94 0 -170.5 44.5zM338 928h97l128 -138h-114l-20 23q-35 38 -41 51h-3q-3 -4 -33 -41q-14 -16 -28 -33h-115z" />
    <glyph glyph-name="Gcircumflex.ss10" horiz-adv-x="757" 
d="M210 33.5q-74 44.5 -116.5 127t-42.5 189.5q0 108 43 190t118.5 126.5t171.5 44.5q87 1 161.5 -40t119.5 -122l-90 -61q-32 59 -80 88.5t-108 29.5q-63 0 -112.5 -30.5t-77.5 -88.5t-28 -138q0 -78 28.5 -136t78.5 -88.5t111 -30.5q85 0 137 51t54 137h-191v95h214
q40 0 61.5 -22t21.5 -62v-293h-104v88q-73 -99 -206 -99q-90 0 -164 44.5zM338 928h97l128 -138h-114l-20 23q-35 38 -41 51h-3q-3 -4 -33 -41q-14 -16 -28 -33h-115z" />
    <glyph glyph-name="uni0122" unicode="&#x122;" horiz-adv-x="755" 
d="M216.5 33.5q-76.5 44.5 -121 126.5t-44.5 190t43.5 190t120.5 126.5t175 44.5q88 0 164.5 -42t120.5 -121l-92 -58q-32 59 -82 87.5t-112 28.5q-63 0 -113 -30t-78.5 -88t-28.5 -138q0 -79 29 -137t78.5 -88.5t110.5 -30.5q88 0 140 48t63 140h-204v95h320q2 -28 2 -42
q0 -107 -41.5 -185.5t-114.5 -119.5t-165 -41q-94 0 -170.5 44.5zM322 -228l45 61q-22 4 -34.5 18t-12.5 33q0 24 18.5 39.5t48.5 15.5t49 -15.5t19 -40.5q0 -30 -25 -65l-53 -77z" />
    <glyph glyph-name="uni0122.ss10" horiz-adv-x="757" 
d="M210 33.5q-74 44.5 -116.5 127t-42.5 189.5q0 108 43 190t118.5 126.5t171.5 44.5q87 1 161.5 -40t119.5 -122l-90 -61q-32 59 -80 88.5t-108 29.5q-63 0 -112.5 -30.5t-77.5 -88.5t-28 -138q0 -78 28.5 -136t78.5 -88.5t111 -30.5q85 0 137 51t54 137h-191v95h214
q40 0 61.5 -22t21.5 -62v-293h-104v88q-73 -99 -206 -99q-90 0 -164 44.5zM322 -228l45 61q-22 4 -34.5 18t-12.5 33q0 24 18.5 39.5t48.5 15.5t49 -15.5t19 -40.5q0 -30 -25 -65l-53 -77z" />
    <glyph glyph-name="Gdotaccent" unicode="&#x120;" horiz-adv-x="755" 
d="M216.5 33.5q-76.5 44.5 -121 126.5t-44.5 190t43.5 190t120.5 126.5t175 44.5q88 0 164.5 -42t120.5 -121l-92 -58q-32 59 -82 87.5t-112 28.5q-63 0 -113 -30t-78.5 -88t-28.5 -138q0 -79 29 -137t78.5 -88.5t110.5 -30.5q88 0 140 48t63 140h-204v95h320q2 -28 2 -42
q0 -107 -41.5 -185.5t-114.5 -119.5t-165 -41q-94 0 -170.5 44.5zM335 817.5q-20 18.5 -20 49.5q0 30 20 49t51 19t51.5 -19t20.5 -49q0 -31 -20.5 -49.5t-51.5 -18.5t-51 18.5z" />
    <glyph glyph-name="Gdotaccent.ss10" horiz-adv-x="757" 
d="M210 33.5q-74 44.5 -116.5 127t-42.5 189.5q0 108 43 190t118.5 126.5t171.5 44.5q87 1 161.5 -40t119.5 -122l-90 -61q-32 59 -80 88.5t-108 29.5q-63 0 -112.5 -30.5t-77.5 -88.5t-28 -138q0 -78 28.5 -136t78.5 -88.5t111 -30.5q85 0 137 51t54 137h-191v95h214
q40 0 61.5 -22t21.5 -62v-293h-104v88q-73 -99 -206 -99q-90 0 -164 44.5zM335 817.5q-20 18.5 -20 49.5q0 30 20 49t51 19t51.5 -19t20.5 -49q0 -31 -20.5 -49.5t-51.5 -18.5t-51 18.5z" />
    <glyph glyph-name="uni01A2" unicode="&#x1a2;" horiz-adv-x="1132" 
d="M215 34q-78 45 -121.5 127t-43.5 189t43.5 189t121.5 127t178 45q96 0 171.5 -40.5t119.5 -115.5q16 80 69 118t117 38q82 0 134.5 -55.5t52.5 -161.5v-661h-113v646q0 127 -99 127q-48 0 -78.5 -38.5t-30.5 -100.5v-121q-1 -107 -44.5 -188t-121 -125t-177.5 -44
t-178 45zM509 124.5q51 30.5 80 88t29 137.5t-29 137.5t-80 88t-116 30.5t-115.5 -30.5t-79.5 -88t-29 -137.5t29 -137.5t79.5 -88t115.5 -30.5t116 30.5z" />
    <glyph glyph-name="uni0193" unicode="&#x193;" horiz-adv-x="761" 
d="M216.5 33.5q-76.5 44.5 -121 126.5t-44.5 190q0 109 41 190.5t114 126t166 44.5q46 0 85 -12.5t67 -35.5q-13 26 -13 55q0 60 38.5 94.5t99.5 34.5q81 0 133 -54l-59 -77q-23 26 -56 26q-22 0 -36.5 -15t-14.5 -40q0 -36 39 -102l20 -37l-92 -58q-31 57 -80.5 86.5
t-115.5 29.5q-63 0 -112.5 -30t-77.5 -88t-28 -138q0 -79 29 -137t78.5 -88.5t110.5 -30.5q88 0 140 48t63 140h-204v95h320q2 -28 2 -42q0 -107 -41.5 -185.5t-114.5 -119.5t-165 -41q-94 0 -170.5 44.5z" />
    <glyph glyph-name="uni0193.ss10" horiz-adv-x="765" 
d="M210 34q-74 45 -116.5 127t-42.5 189q0 109 41 190.5t114 126t166 44.5q46 0 85 -12.5t67 -35.5q-14 28 -14 55q0 60 38.5 94.5t99.5 34.5q82 0 133 -54l-58 -77q-23 26 -56 26q-22 0 -36 -14.5t-14 -40.5q0 -34 45 -124l29 -60l-100 -49q-28 75 -80 113.5t-124 38.5
q-62 0 -111.5 -30.5t-78 -88.5t-28.5 -137q0 -82 30 -139.5t79.5 -87t108.5 -29.5q85 0 137 51t54 137h-191v95h214q40 0 61.5 -22t21.5 -62v-293h-104v88q-73 -99 -206 -99q-90 0 -164 45z" />
    <glyph glyph-name="uni0241" unicode="&#x241;" horiz-adv-x="564" 
d="M467 657.5q66 -53.5 66 -144.5q0 -45 -14.5 -78t-35.5 -55t-54 -50l-16 -14q-29 -26 -45.5 -45t-27.5 -47t-11 -65v-159h-113v175q0 54 16.5 93.5t38.5 65t59 57.5q33 29 47.5 42.5t26 34t11.5 45.5q0 45 -35 70.5t-94 25.5q-57 0 -101.5 -31.5t-67.5 -96.5l-94 39
q30 89 97 140t167 51q114 0 180 -53.5z" />
    <glyph glyph-name="uni1E20" unicode="&#x1e20;" horiz-adv-x="755" 
d="M216.5 33.5q-76.5 44.5 -121 126.5t-44.5 190t43.5 190t120.5 126.5t175 44.5q88 0 164.5 -42t120.5 -121l-92 -58q-32 59 -82 87.5t-112 28.5q-63 0 -113 -30t-78.5 -88t-28.5 -138q0 -79 29 -137t78.5 -88.5t110.5 -30.5q88 0 140 48t63 140h-204v95h320q2 -28 2 -42
q0 -107 -41.5 -185.5t-114.5 -119.5t-165 -41q-94 0 -170.5 44.5zM225 903h322v-87h-322v87z" />
    <glyph glyph-name="uni1E20.ss10" horiz-adv-x="757" 
d="M210 33.5q-74 44.5 -116.5 127t-42.5 189.5q0 108 43 190t118.5 126.5t171.5 44.5q87 1 161.5 -40t119.5 -122l-90 -61q-32 59 -80 88.5t-108 29.5q-63 0 -112.5 -30.5t-77.5 -88.5t-28 -138q0 -78 28.5 -136t78.5 -88.5t111 -30.5q85 0 137 51t54 137h-191v95h214
q40 0 61.5 -22t21.5 -62v-293h-104v88q-73 -99 -206 -99q-90 0 -164 44.5zM225 903h322v-87h-322v87z" />
    <glyph glyph-name="uniA7AC" unicode="&#xa7ac;" horiz-adv-x="775" 
d="M209 -154.5q-69 29.5 -119 86.5l70 77q39 -41 90 -64.5t107 -23.5q99 0 162.5 52t63.5 148v92q-34 -60 -91.5 -95t-136.5 -35q-86 0 -156 40.5t-110 112.5t-40 161q0 90 40 161.5t110 112t156 40.5q79 0 136 -35t92 -96v120h113v-574q0 -98 -43.5 -168t-120.5 -106
t-175 -36q-79 0 -148 29.5zM485 214.5q48 26.5 74.5 74t26.5 108.5t-27 108.5t-74.5 74t-107.5 26.5t-108 -26.5t-74.5 -74t-26.5 -108.5t26.5 -108.5t74.5 -74t108 -26.5t108 26.5z" />
    <glyph glyph-name="uni01E4" unicode="&#x1e4;" horiz-adv-x="783" 
d="M216.5 33.5q-76.5 44.5 -121 126.5t-44.5 190t43.5 190t120.5 126.5t175 44.5q88 0 164.5 -42t120.5 -121l-92 -58q-32 59 -82 87.5t-112 28.5q-63 0 -113 -30t-78.5 -88t-28.5 -138q0 -82 29.5 -142.5t80 -92t112.5 -31.5q107 0 156 68h-161v75h194q7 29 10 63h-204v87
h320q2 -28 2 -42q0 -52 -11 -101h57v-92h-91q-40 -74 -112.5 -113.5t-163.5 -39.5q-94 0 -170.5 44.5z" />
    <glyph glyph-name="uni01E4.ss10" horiz-adv-x="785" 
d="M386 230h190q5 23 7 57h-197v90h215q40 0 61.5 -22t21.5 -62v-59h70v-92h-70v-142h-104v88q-73 -99 -206 -99q-90 0 -164 44.5t-116.5 127t-42.5 189.5q0 108 43 190t118.5 126.5t171.5 44.5q99 0 179.5 -53.5t118.5 -154.5l-98 -49q-58 152 -200 152q-62 0 -110.5 -30.5
t-76.5 -88.5t-28 -138q0 -81 28.5 -141t78.5 -92t111 -32q47 0 85.5 16.5t64.5 47.5h-151v82z" />
    <glyph glyph-name="uni021C" unicode="&#x21c;" horiz-adv-x="605" 
d="M129 27.5q-70 38.5 -108 117.5l89 58q30 -55 74 -82t107 -27q66 0 108 30.5t42 87.5q0 53 -39 81t-107 28h-109v81l141 143q50 50 64 57l-2 3q-18 -7 -83 -7h-239v102h461v-90l-204 -202q68 -1 121 -25.5t83 -69t30 -102.5q0 -69 -34 -119t-95 -76.5t-139 -26.5
q-91 0 -161 38.5z" />
    <glyph glyph-name="H" unicode="H" horiz-adv-x="720" 
d="M526 302h-332v-302h-113v700h113v-296h332v296h113v-700h-113v302z" />
    <glyph glyph-name="Hbar" unicode="&#x126;" horiz-adv-x="780" 
d="M556 302h-332v-302h-113v498h-74v90h74v112h113v-112h332v112h112v-112h75v-90h-75v-498h-112v302zM556 404v94h-332v-94h332z" />
    <glyph glyph-name="uni1E2A" unicode="&#x1e2a;" horiz-adv-x="720" 
d="M526 302h-332v-302h-113v700h113v-296h332v296h113v-700h-113v302zM244 -182q-45 37 -49 104h93q6 -65 72 -65q65 0 71 65h93q-4 -66 -49 -103.5t-115 -37.5q-71 0 -116 37z" />
    <glyph glyph-name="uni021E" unicode="&#x21e;" horiz-adv-x="720" 
d="M526 302h-332v-302h-113v700h113v-296h332v296h113v-700h-113v302zM184 927h114l21 -25q36 -40 40 -49h3q5 10 42 51l19 23h115l-129 -137h-97z" />
    <glyph glyph-name="uni1E28" unicode="&#x1e28;" horiz-adv-x="720" 
d="M526 302h-332v-302h-35l24 -22q38 -35 38 -76q0 -32 -25.5 -54.5t-70.5 -22.5h-86v91h56q13 0 20.5 6t7.5 16q0 15 -15 32l-27 30v700h113v-296h332v296h113v-700h-113v302z" />
    <glyph glyph-name="Hcircumflex" unicode="&#x124;" horiz-adv-x="720" 
d="M526 302h-332v-302h-113v700h113v-296h332v296h113v-700h-113v302zM312 928h97l128 -138h-114l-20 23q-35 38 -41 51h-3q-3 -4 -33 -41q-14 -16 -28 -33h-115z" />
    <glyph glyph-name="uni1E26" unicode="&#x1e26;" horiz-adv-x="720" 
d="M526 302h-332v-302h-113v700h113v-296h332v296h113v-700h-113v302zM201.5 815.5q-18.5 17.5 -18.5 47.5t18.5 47.5t47.5 17.5t48 -17.5t19 -47.5t-19 -47.5t-48 -17.5t-47.5 17.5zM423 815.5q-19 17.5 -19 47.5t19 47.5t48 17.5t47.5 -17.5t18.5 -47.5t-18.5 -47.5
t-47.5 -17.5t-48 17.5z" />
    <glyph glyph-name="uni1E22" unicode="&#x1e22;" horiz-adv-x="720" 
d="M526 302h-332v-302h-113v700h113v-296h332v296h113v-700h-113v302zM309 817.5q-20 18.5 -20 49.5q0 30 20 49t51 19t51.5 -19t20.5 -49q0 -31 -20.5 -49.5t-51.5 -18.5t-51 18.5z" />
    <glyph glyph-name="uni1E24" unicode="&#x1e24;" horiz-adv-x="720" 
d="M526 302h-332v-302h-113v700h113v-296h332v296h113v-700h-113v302zM308.5 -177.5q-20.5 18.5 -20.5 48.5q0 31 20.5 50t51.5 19t51.5 -19t20.5 -50q0 -30 -20.5 -48.5t-51.5 -18.5t-51.5 18.5z" />
    <glyph glyph-name="uniA726" unicode="&#xa726;" horiz-adv-x="720" 
d="M355 -131l60 77q23 -26 57 -26q24 0 39 16t15 48v318h-332v-302h-113v700h113v-296h332v296h113v-719q0 -80 -44 -122.5t-115 -42.5q-77 0 -125 53z" />
    <glyph glyph-name="uniA7AA" unicode="&#xa7aa;" horiz-adv-x="892" 
d="M698 302h-332v-302h-112v598h-30q-34 0 -56 -19t-22 -53q0 -32 31 -67l-86 -60q-59 68 -59 133q0 77 50.5 122.5t132.5 45.5h151v-296h332v296h113v-700h-113v302z" />
    <glyph glyph-name="uniA78D" unicode="&#xa78d;" horiz-adv-x="689" 
d="M495 302h-426v398h113v-296h313v296h113v-700h-113v302z" />
    <glyph glyph-name="I" unicode="I" horiz-adv-x="276" 
d="M194 0h-113v700h113v-700z" />
    <glyph glyph-name="IJ" unicode="&#x132;" horiz-adv-x="803" 
d="M194 0h-113v700h113v-700zM375.5 29q-52.5 40 -79.5 108l92 47q15 -40 44 -65t71 -25q52 0 81.5 32.5t29.5 95.5v478h113v-484q0 -108 -60.5 -167.5t-160.5 -59.5q-78 0 -130.5 40z" />
    <glyph glyph-name="Iacute" unicode="&#xcd;" horiz-adv-x="276" 
d="M194 0h-113v700h113v-700zM59 790l106 137h120l-121 -137h-105z" />
    <glyph glyph-name="Ibreve" unicode="&#x12c;" horiz-adv-x="276" 
d="M194 0h-113v700h113v-700zM21 823.5q-45 37.5 -49 103.5h93q6 -64 72 -64q65 0 71 64h93q-4 -66 -49 -103.5t-115 -37.5q-71 0 -116 37.5z" />
    <glyph glyph-name="uni01CF" unicode="&#x1cf;" horiz-adv-x="276" 
d="M194 0h-113v700h113v-700zM-39 927h114l21 -25q36 -40 40 -49h3q5 10 42 51l19 23h115l-129 -137h-97z" />
    <glyph glyph-name="Icircumflex" unicode="&#xce;" horiz-adv-x="276" 
d="M194 0h-113v700h113v-700zM89 928h97l128 -138h-114l-20 23q-35 38 -41 51h-3q-3 -4 -33 -41q-14 -16 -28 -33h-115z" />
    <glyph glyph-name="uni0208" unicode="&#x208;" horiz-adv-x="276" 
d="M194 0h-113v700h113v-700zM-122 927h120l108 -137h-103zM80 927h114l104 -137h-102z" />
    <glyph glyph-name="Idieresis" unicode="&#xcf;" horiz-adv-x="276" 
d="M194 0h-113v700h113v-700zM-21 815q-19 18 -19 48q0 29 19 47t47 18q29 0 48 -18t19 -47q0 -30 -19 -48t-48 -18q-28 0 -47 18zM200 815q-19 18 -19 48q0 29 19 47t48 18q28 0 47 -18t19 -47q0 -30 -19 -48t-47 -18q-29 0 -48 18z" />
    <glyph glyph-name="uni1E2E" unicode="&#x1e2e;" horiz-adv-x="276" 
d="M194 0h-113v700h113v-700zM164 1093h121l-102 -138h-105zM-21 795.5q-19 17.5 -19 47.5t19 47.5t48 17.5t47.5 -17.5t18.5 -47.5t-18.5 -47.5t-47.5 -17.5t-48 17.5zM200.5 795.5q-18.5 17.5 -18.5 47.5t18.5 47.5t47.5 17.5t47.5 -17.5t18.5 -47.5t-18.5 -47.5
t-47.5 -17.5t-47.5 17.5z" />
    <glyph glyph-name="Idotaccent" unicode="&#x130;" horiz-adv-x="276" 
d="M194 0h-113v700h113v-700zM86 817.5q-20 18.5 -20 49.5q0 30 20 49t51 19t51.5 -19t20.5 -49q0 -31 -20.5 -49.5t-51.5 -18.5t-51 18.5z" />
    <glyph glyph-name="uni1ECA" unicode="&#x1eca;" horiz-adv-x="276" 
d="M194 0h-113v700h113v-700zM86.5 -177.5q-20.5 18.5 -20.5 48.5q0 31 20.5 50t51.5 19t51.5 -19t20.5 -50q0 -30 -20.5 -48.5t-51.5 -18.5t-51.5 18.5z" />
    <glyph glyph-name="Igrave" unicode="&#xcc;" horiz-adv-x="276" 
d="M194 0h-113v700h113v-700zM-11 928h120l106 -138h-105z" />
    <glyph glyph-name="uni1EC8" unicode="&#x1ec8;" horiz-adv-x="276" 
d="M194 0h-113v700h113v-700zM142.5 802.5q8.5 15.5 8.5 27.5q0 11 -7 17.5t-20 6.5q-22 0 -40 -22l-56 49q35 52 104 52q46 0 76 -25t30 -60q0 -40 -38 -85h-85q19 24 27.5 39.5z" />
    <glyph glyph-name="uni020A" unicode="&#x20a;" horiz-adv-x="276" 
d="M194 0h-113v700h113v-700zM248 895q44 -38 48 -103h-93q-3 31 -20.5 47t-45.5 16q-29 0 -46.5 -16t-20.5 -47h-93q4 67 48 104t112 37q67 0 111 -38z" />
    <glyph glyph-name="Imacron" unicode="&#x12a;" horiz-adv-x="276" 
d="M194 0h-113v700h113v-700zM-24 903h322v-86h-322v86z" />
    <glyph glyph-name="Iogonek" unicode="&#x12e;" horiz-adv-x="276" 
d="M194 0h1l-27 -30q-15 -17 -15 -32q0 -10 7.5 -16t20.5 -6h32v-91h-62q-45 0 -70.5 22t-25.5 55q0 41 38 76l24 22h-36v700h113v-700z" />
    <glyph glyph-name="uni0196" unicode="&#x196;" horiz-adv-x="329" 
d="M117.5 42q-39.5 42 -39.5 123v535h113v-521q0 -39 15.5 -58t49.5 -19h43v-102h-57q-85 0 -124.5 42z" />
    <glyph glyph-name="uni0197" unicode="&#x197;" horiz-adv-x="335" 
d="M302 307h-78v-307h-113v307h-78v92h78v301h113v-301h78v-92z" />
    <glyph glyph-name="Itilde" unicode="&#x128;" horiz-adv-x="276" 
d="M194 0h-113v700h113v-700zM161.5 799.5q-19.5 8.5 -40.5 23.5q-13 9 -21.5 13.5t-17.5 4.5q-12 0 -20 -11.5t-8 -33.5h-87q0 60 32.5 95t76.5 35q27 0 46.5 -9t39.5 -24q13 -9 21.5 -13.5t17.5 -4.5q13 0 20.5 11.5t7.5 34.5h87q0 -60 -32.5 -95t-76.5 -35
q-26 0 -45.5 8.5z" />
    <glyph glyph-name="uni1E2C" unicode="&#x1e2c;" horiz-adv-x="276" 
d="M194 0h-113v700h113v-700zM156.5 -188q-19.5 9 -39.5 24q-13 9 -21.5 13.5t-17.5 4.5q-13 0 -20.5 -12t-7.5 -34h-87q0 60 32.5 95t76.5 35q27 0 46.5 -9t39.5 -24q13 -9 21.5 -13.5t17.5 -4.5q13 0 20.5 12t7.5 34h87q0 -60 -32.5 -95t-76.5 -35q-27 0 -46.5 9z" />
    <glyph glyph-name="J" unicode="J" horiz-adv-x="527" 
d="M99.5 29q-52.5 40 -79.5 108l92 47q15 -40 44 -65t71 -25q52 0 81.5 32.5t29.5 95.5v478h113v-484q0 -108 -60.5 -167.5t-160.5 -59.5q-78 0 -130.5 40z" />
    <glyph glyph-name="uni004A0301" horiz-adv-x="527" 
d="M99.5 29q-52.5 40 -79.5 108l92 47q15 -40 44 -65t71 -25q52 0 81.5 32.5t29.5 95.5v478h113v-484q0 -108 -60.5 -167.5t-160.5 -59.5q-78 0 -130.5 40zM316 790l106 137h120l-121 -137h-105z" />
    <glyph glyph-name="Jcircumflex" unicode="&#x134;" horiz-adv-x="527" 
d="M99.5 29q-52.5 40 -79.5 108l92 47q15 -40 44 -65t71 -25q52 0 81.5 32.5t29.5 95.5v478h113v-484q0 -108 -60.5 -167.5t-160.5 -59.5q-78 0 -130.5 40zM346 928h97l128 -138h-114l-20 23q-35 38 -41 51h-3q-3 -4 -33 -41q-14 -16 -28 -33h-115z" />
    <glyph glyph-name="uniA7B2" unicode="&#xa7b2;" horiz-adv-x="564" 
d="M81.5 225q51.5 34 128.5 34q62 0 121 -19v460h113v-505v-2q49 -35 86 -84l-49 -54q-25 30 -53 53q-24 -58 -77.5 -88.5t-128.5 -30.5q-82 0 -137 38t-55 101t51.5 97zM155 101q24 -12 65 -12q87 0 106 71q-50 20 -109 20q-37 0 -61.5 -11t-24.5 -34q0 -22 24 -34z" />
    <glyph glyph-name="uni0248" unicode="&#x248;" horiz-adv-x="560" 
d="M529 307h-78v-91q0 -108 -60.5 -167.5t-160.5 -59.5q-78 0 -130.5 40t-79.5 108l92 47q15 -40 44 -65t71 -25q52 0 81.5 32.5t29.5 95.5v85h-130v92h130v301h113v-301h78v-92z" />
    <glyph glyph-name="K" unicode="K" horiz-adv-x="650" 
d="M194 328v-328h-113v700h113v-327l287 327h145l-309 -344l332 -356h-151z" />
    <glyph glyph-name="uni1E30" unicode="&#x1e30;" horiz-adv-x="650" 
d="M194 328v-328h-113v700h113v-327l287 327h145l-309 -344l332 -356h-151zM255 790l106 137h120l-121 -137h-105z" />
    <glyph glyph-name="uni01E8" unicode="&#x1e8;" horiz-adv-x="650" 
d="M194 328v-328h-113v700h113v-327l287 327h145l-309 -344l332 -356h-151zM157 927h114l21 -25q36 -40 40 -49h3q5 10 42 51l19 23h115l-129 -137h-97z" />
    <glyph glyph-name="uni0136" unicode="&#x136;" horiz-adv-x="650" 
d="M194 328v-328h-113v700h113v-327l287 327h145l-309 -344l332 -356h-151zM267 -228l45 61q-22 4 -34.5 18t-12.5 33q0 24 18.5 39.5t48.5 15.5t49 -15.5t19 -40.5q0 -30 -25 -65l-53 -77z" />
    <glyph glyph-name="uni1E32" unicode="&#x1e32;" horiz-adv-x="650" 
d="M194 328v-328h-113v700h113v-327l287 327h145l-309 -344l332 -356h-151zM280.5 -177.5q-20.5 18.5 -20.5 48.5q0 31 20.5 50t51.5 19t51.5 -19t20.5 -50q0 -30 -20.5 -48.5t-51.5 -18.5t-51.5 18.5z" />
    <glyph glyph-name="uni0198" unicode="&#x198;" horiz-adv-x="674" 
d="M194 328v-328h-113v700h113v-326l226 267q53 70 127 70q67 0 111 -42l-51 -81q-13 10 -23.5 15t-24.5 5q-15 0 -28 -7.5t-26 -23.5l-189 -220l333 -357h-151z" />
    <glyph glyph-name="uni1E34" unicode="&#x1e34;" horiz-adv-x="650" 
d="M194 328v-328h-113v700h113v-327l287 327h145l-309 -344l332 -356h-151zM171 -77h323v-86h-323v86z" />
    <glyph glyph-name="uniA740" unicode="&#xa740;" horiz-adv-x="680" 
d="M224 328v-328h-113v532h-78v92h78v76h113v-76h72v-92h-72v-159l286 327h145l-309 -344l332 -356h-150z" />
    <glyph glyph-name="L" unicode="L" horiz-adv-x="552" 
d="M521 102v-102h-440v700h113v-598h327z" />
    <glyph glyph-name="uni01C7" unicode="&#x1c7;" horiz-adv-x="1091" 
d="M521 102v-102h-440v700h113v-598h327zM663.5 29q-52.5 40 -79.5 108l92 47q15 -40 44 -65t71 -25q52 0 81.5 32.5t29.5 95.5v478h113v-484q0 -108 -60.5 -167.5t-160.5 -59.5q-78 0 -130.5 40z" />
    <glyph glyph-name="Lacute" unicode="&#x139;" horiz-adv-x="552" 
d="M521 102v-102h-440v700h113v-598h327zM59 790l106 137h120l-121 -137h-105z" />
    <glyph glyph-name="uni023D" unicode="&#x23d;" horiz-adv-x="583" 
d="M394 327h-169v-225h327v-102h-440v327h-79v92h79v281h113v-281h169v-92z" />
    <glyph glyph-name="uniA7AD" unicode="&#xa7ad;" horiz-adv-x="560" 
d="M628 102v-102h-440v258q-14 -2 -22 -2q-66 0 -103 33t-37 84q0 45 31.5 76.5t81.5 31.5q26 0 49 -13v232h113v-320q54 26 102 74l49 -64q-65 -60 -151 -96v-192h327zM125 337.5q16 -13.5 43 -13.5q10 1 20 1v76q-16 12 -35 12q-21 0 -32.5 -10.5t-11.5 -30.5
q0 -21 16 -34.5z" />
    <glyph glyph-name="Lcaron" unicode="&#x13d;" horiz-adv-x="552" 
d="M521 102v-102h-440v700h113v-598h327zM413 700v-109l-26 -110h-64v219h90z" />
    <glyph glyph-name="uni1E3C" unicode="&#x1e3c;" horiz-adv-x="552" 
d="M521 102v-102h-440v700h113v-598h327zM478 -211h-115l-21 25q-36 40 -40 49h-3q-5 -10 -42 -51l-19 -23h-114l129 137h96z" />
    <glyph glyph-name="uni013B" unicode="&#x13b;" horiz-adv-x="552" 
d="M521 102v-102h-440v700h113v-598h327zM236 -228l45 61q-22 4 -34.5 18t-12.5 33q0 24 18.5 39.5t48.5 15.5t49 -15.5t19 -40.5q0 -30 -25 -65l-53 -77z" />
    <glyph glyph-name="Ldot" unicode="&#x13f;" horiz-adv-x="553" 
d="M521 102v-102h-440v700h113v-598h327zM362.5 317.5q-20.5 18.5 -20.5 49.5t20.5 50t51.5 19t51 -19t20 -50t-20 -49.5t-51 -18.5t-51.5 18.5z" />
    <glyph glyph-name="uni1E36" unicode="&#x1e36;" horiz-adv-x="552" 
d="M521 102v-102h-440v700h113v-598h327zM249.5 -177.5q-20.5 18.5 -20.5 48.5q0 31 20.5 50t51.5 19t51.5 -19t20.5 -50q0 -30 -20.5 -48.5t-51.5 -18.5t-51.5 18.5z" />
    <glyph glyph-name="uni1E38" unicode="&#x1e38;" horiz-adv-x="552" 
d="M521 102v-102h-440v700h113v-598h327zM-24 903h322v-86h-322v86zM249.5 -177.5q-20.5 18.5 -20.5 48.5q0 31 20.5 50t51.5 19t51.5 -19t20.5 -50q0 -30 -20.5 -48.5t-51.5 -18.5t-51.5 18.5z" />
    <glyph glyph-name="uni2C60" unicode="&#x2c60;" horiz-adv-x="583" 
d="M552 102v-102h-440v271h-79v75h79v80h-79v75h79v199h113v-199h183v-75h-183v-80h183v-75h-183v-169h327z" />
    <glyph glyph-name="uniA748" unicode="&#xa748;" horiz-adv-x="583" 
d="M394 511h-169v-409h327v-102h-440v511h-79v92h79v97h113v-97h169v-92z" />
    <glyph glyph-name="uni01C8" unicode="&#x1c8;" horiz-adv-x="801" 
d="M521 102v-102h-440v700h113v-598h327zM564 -124h17q42 0 42 65v569h107v-575q0 -73 -35.5 -112.5t-97.5 -39.5h-33v93zM627 627q-20 19 -20 49q0 31 20 50t51 19t51.5 -19t20.5 -50q0 -30 -20.5 -49t-51.5 -19t-51 19z" />
    <glyph glyph-name="uni01C8.ss02" horiz-adv-x="801" 
d="M521 102v-102h-440v700h113v-598h327zM564 -124h17q42 0 42 65v569h107v-575q0 -73 -35.5 -112.5t-97.5 -39.5h-33v93zM620 604q-23 22 -23 57t22.5 56.5t56.5 21.5q35 0 58.5 -21.5t23.5 -56.5t-23 -57t-58 -22q-34 0 -57 22z" />
    <glyph glyph-name="uni1E3A" unicode="&#x1e3a;" horiz-adv-x="552" 
d="M521 102v-102h-440v700h113v-598h327zM144 -63h313v-89h-313v89z" />
    <glyph glyph-name="uni2C62" unicode="&#x2c62;" horiz-adv-x="583" 
d="M551 102v-102h-440v353h-5q-38 0 -74 -18v96q38 16 75 16h4v253h114v-263q32 -9 54.5 -14t45.5 -5q36 0 68 14v-96q-35 -13 -69 -13q-41 0 -99 18v-239h326z" />
    <glyph glyph-name="Lslash" unicode="&#x141;" horiz-adv-x="588" 
d="M557 102v-102h-440v275l-82 -26v99l82 26v326h113v-297l199 63v-100l-199 -63v-201h327z" />
    <glyph glyph-name="M" unicode="M" horiz-adv-x="815" 
d="M734 0h-113v511l-202 -286h-21l-204 286v-511h-113v700h106l222 -315l220 315h105v-700z" />
    <glyph glyph-name="M.ss11" horiz-adv-x="878" 
d="M797 0h-113v406q0 47 10 139h-3l-6 -21q-24 -80 -39 -118l-166 -406h-82l-166 406q-17 42 -38 118l-6 21h-4q10 -92 10 -139v-406h-113v700h143l177 -429q16 -42 36 -116h3q18 63 39 116l175 429h143v-700z" />
    <glyph glyph-name="M.text" horiz-adv-x="815" 
d="M81 700h106l169 -238l54 -78l53 78l166 238h105v-700h-113v423q0 34 2 64t5 42l-3 1q-10 -28 -53 -89l-153 -216h-21l-152 213q-48 69 -55 89l-3 -1q6 -24 6 -106v-420h-113v700z" />
    <glyph glyph-name="uni1E3E" unicode="&#x1e3e;" horiz-adv-x="815" 
d="M81 700h106l169 -238l54 -78l53 78l166 238h105v-700h-113v423q0 34 2 64t5 42l-3 1q-10 -28 -53 -89l-153 -216h-21l-152 213q-48 69 -55 89l-3 -1q6 -24 6 -106v-420h-113v700zM330 790l106 137h120l-121 -137h-105z" />
    <glyph glyph-name="uni1E3E.ss11" horiz-adv-x="878" 
d="M797 0h-113v406q0 47 10 139h-3l-6 -21q-24 -80 -39 -118l-166 -406h-82l-166 406q-17 42 -38 118l-6 21h-4q10 -92 10 -139v-406h-113v700h143l177 -429q16 -42 36 -116h3q18 63 39 116l175 429h143v-700zM329 790l106 137h120l-121 -137h-105z" />
    <glyph glyph-name="uni1E40" unicode="&#x1e40;" horiz-adv-x="815" 
d="M81 700h106l169 -238l54 -78l53 78l166 238h105v-700h-113v423q0 34 2 64t5 42l-3 1q-10 -28 -53 -89l-153 -216h-21l-152 213q-48 69 -55 89l-3 -1q6 -24 6 -106v-420h-113v700zM357 817.5q-20 18.5 -20 49.5q0 30 20 49t51 19t51.5 -19t20.5 -49q0 -31 -20.5 -49.5
t-51.5 -18.5t-51 18.5z" />
    <glyph glyph-name="uni1E40.ss11" horiz-adv-x="878" 
d="M797 0h-113v406q0 47 10 139h-3l-6 -21q-24 -80 -39 -118l-166 -406h-82l-166 406q-17 42 -38 118l-6 21h-4q10 -92 10 -139v-406h-113v700h143l177 -429q16 -42 36 -116h3q18 63 39 116l175 429h143v-700zM356 817.5q-20 18.5 -20 49.5q0 30 20 49t51 19t51.5 -19
t20.5 -49q0 -31 -20.5 -49.5t-51.5 -18.5t-51 18.5z" />
    <glyph glyph-name="uni1E42" unicode="&#x1e42;" horiz-adv-x="815" 
d="M81 700h106l169 -238l54 -78l53 78l166 238h105v-700h-113v423q0 34 2 64t5 42l-3 1q-10 -28 -53 -89l-153 -216h-21l-152 213q-48 69 -55 89l-3 -1q6 -24 6 -106v-420h-113v700zM356.5 -177.5q-20.5 18.5 -20.5 48.5q0 31 20.5 50t51.5 19t51.5 -19t20.5 -50
q0 -30 -20.5 -48.5t-51.5 -18.5t-51.5 18.5z" />
    <glyph glyph-name="uni1E42.ss11" horiz-adv-x="878" 
d="M797 0h-113v406q0 47 10 139h-3l-6 -21q-24 -80 -39 -118l-166 -406h-82l-166 406q-17 42 -38 118l-6 21h-4q10 -92 10 -139v-406h-113v700h143l177 -429q16 -42 36 -116h3q18 63 39 116l175 429h143v-700zM355.5 -177.5q-20.5 18.5 -20.5 48.5q0 31 20.5 50t51.5 19
t51.5 -19t20.5 -50q0 -30 -20.5 -48.5t-51.5 -18.5t-51.5 18.5z" />
    <glyph glyph-name="uni2C6E" unicode="&#x2c6e;" horiz-adv-x="815" 
d="M451 -134l59 77q23 -26 57 -26q24 0 39 16t15 48v442q0 34 2 64t5 42l-3 1q-10 -28 -53 -89l-153 -216h-21l-152 213q-48 69 -55 89l-3 -1q6 -24 6 -106v-420h-113v700h106l169 -238l54 -78l53 78l166 238h105v-723q0 -79 -44 -121.5t-114 -42.5q-78 0 -125 53z" />
    <glyph glyph-name="uni2C6E.ss11" horiz-adv-x="878" 
d="M753 -141q-44 -43 -114 -43q-78 0 -125 53l59 77q23 -26 57 -26q24 0 39 16t15 48v520l-204 -504h-82l-204 504v-504h-113v700h143l215 -530l215 530h143v-720q0 -78 -44 -121z" />
    <glyph glyph-name="uni019C" unicode="&#x19c;" horiz-adv-x="1092" 
d="M182 21q-51 30 -79.5 87.5t-28.5 137.5v454h113v-431q0 -85 38.5 -129t101.5 -44q70 0 114.5 48.5t44.5 128.5v427h113v-431q0 -85 38.5 -129t101.5 -44q70 0 114.5 48.5t44.5 128.5v427h113v-700h-113v96q-31 -49 -80.5 -77t-108.5 -28q-66 0 -117 31.5t-79 89.5
q-34 -58 -90 -89.5t-126 -31.5q-64 0 -115 30z" />
    <glyph glyph-name="N" unicode="N" horiz-adv-x="734" 
d="M79 700h103l308 -433q19 -27 34.5 -52.5t20.5 -37.5l3 1q-6 24 -6 106v416h113v-700h-104l-307 433q-46 66 -56 90l-3 -1q6 -24 6 -106v-416h-112v700z" />
    <glyph glyph-name="uni01CA" unicode="&#x1ca;" horiz-adv-x="1261" 
d="M79 700h103l308 -433q19 -27 34.5 -52.5t20.5 -37.5l3 1q-6 24 -6 106v416h113v-700h-104l-307 433q-46 66 -56 90l-3 -1q6 -24 6 -106v-416h-112v700zM833.5 29q-52.5 40 -79.5 108l92 47q15 -40 44 -65t71 -25q52 0 81.5 32.5t29.5 95.5v478h113v-484
q0 -108 -60.5 -167.5t-160.5 -59.5q-78 0 -130.5 40z" />
    <glyph glyph-name="Nacute" unicode="&#x143;" horiz-adv-x="734" 
d="M79 700h103l308 -433q19 -27 34.5 -52.5t20.5 -37.5l3 1q-6 24 -6 106v416h113v-700h-104l-307 433q-46 66 -56 90l-3 -1q6 -24 6 -106v-416h-112v700zM292 790l106 137h120l-121 -137h-105z" />
    <glyph glyph-name="Ncaron" unicode="&#x147;" horiz-adv-x="734" 
d="M79 700h103l308 -433q19 -27 34.5 -52.5t20.5 -37.5l3 1q-6 24 -6 106v416h113v-700h-104l-307 433q-46 66 -56 90l-3 -1q6 -24 6 -106v-416h-112v700zM194 927h114l21 -25q36 -40 40 -49h3q5 10 42 51l19 23h115l-129 -137h-97z" />
    <glyph glyph-name="uni1E4A" unicode="&#x1e4a;" horiz-adv-x="734" 
d="M79 700h103l308 -433q19 -27 34.5 -52.5t20.5 -37.5l3 1q-6 24 -6 106v416h113v-700h-104l-307 433q-46 66 -56 90l-3 -1q6 -24 6 -106v-416h-112v700zM545 -211h-115l-21 25q-36 40 -40 49h-3q-5 -10 -42 -51l-19 -23h-114l129 137h96z" />
    <glyph glyph-name="uni0145" unicode="&#x145;" horiz-adv-x="734" 
d="M79 700h103l308 -433q19 -27 34.5 -52.5t20.5 -37.5l3 1q-6 24 -6 106v416h113v-700h-104l-307 433q-46 66 -56 90l-3 -1q6 -24 6 -106v-416h-112v700zM303 -228l45 61q-22 4 -34.5 18t-12.5 33q0 24 18.5 39.5t48.5 15.5t49 -15.5t19 -40.5q0 -30 -25 -65l-53 -77z" />
    <glyph glyph-name="uniA790" unicode="&#xa790;" horiz-adv-x="774" 
d="M81 700h103l308 -430q46 -64 56 -90l3 1q-7 28 -7 106v413h113v-598h73v-238h-108v136h-69l-307 431q-46 65 -55 90l-3 -1q6 -24 6 -107v-413h-113v700z" />
    <glyph glyph-name="uni1E44" unicode="&#x1e44;" horiz-adv-x="734" 
d="M79 700h103l308 -433q19 -27 34.5 -52.5t20.5 -37.5l3 1q-6 24 -6 106v416h113v-700h-104l-307 433q-46 66 -56 90l-3 -1q6 -24 6 -106v-416h-112v700zM319 817.5q-20 18.5 -20 49.5q0 30 20 49t51 19t51.5 -19t20.5 -49q0 -31 -20.5 -49.5t-51.5 -18.5t-51 18.5z" />
    <glyph glyph-name="uni1E46" unicode="&#x1e46;" horiz-adv-x="734" 
d="M79 700h103l308 -433q19 -27 34.5 -52.5t20.5 -37.5l3 1q-6 24 -6 106v416h113v-700h-104l-307 433q-46 66 -56 90l-3 -1q6 -24 6 -106v-416h-112v700zM316.5 -177.5q-20.5 18.5 -20.5 48.5q0 31 20.5 50t51.5 19t51.5 -19t20.5 -50q0 -30 -20.5 -48.5t-51.5 -18.5
t-51.5 18.5z" />
    <glyph glyph-name="uni01F8" unicode="&#x1f8;" horiz-adv-x="734" 
d="M79 700h103l308 -433q19 -27 34.5 -52.5t20.5 -37.5l3 1q-6 24 -6 106v416h113v-700h-104l-307 433q-46 66 -56 90l-3 -1q6 -24 6 -106v-416h-112v700zM222 927h120l106 -137h-105z" />
    <glyph glyph-name="uni019D" unicode="&#x19d;" horiz-adv-x="738" 
d="M-89 -134l59 77q23 -26 57 -26q24 0 39 16t15 48v719h103l308 -430q46 -64 56 -90l3 1q-7 28 -7 106v413h113v-700h-104l-307 431q-46 65 -55 90l-3 -1q6 -24 6 -107v-435q0 -79 -43.5 -122t-114.5 -43q-78 0 -125 53z" />
    <glyph glyph-name="uni01CB" unicode="&#x1cb;" horiz-adv-x="983" 
d="M79 700h103l308 -433q19 -27 34.5 -52.5t20.5 -37.5l3 1q-6 24 -6 106v416h113v-700h-104l-307 433q-46 66 -56 90l-3 -1q6 -24 6 -106v-416h-112v700zM746 -124h17q42 0 42 65v569h107v-575q0 -73 -35.5 -112.5t-97.5 -39.5h-33v93zM809 627q-20 19 -20 49q0 31 20 50
t51 19t51.5 -19t20.5 -50q0 -30 -20.5 -49t-51.5 -19t-51 19z" />
    <glyph glyph-name="uni01CB.ss02" horiz-adv-x="983" 
d="M79 700h103l308 -433q19 -27 34.5 -52.5t20.5 -37.5l3 1q-6 24 -6 106v416h113v-700h-104l-307 433q-46 66 -56 90l-3 -1q6 -24 6 -106v-416h-112v700zM746 -124h17q42 0 42 65v569h107v-575q0 -73 -35.5 -112.5t-97.5 -39.5h-33v93zM802 604q-23 22 -23 57t22.5 56.5
t56.5 21.5q35 0 58.5 -21.5t23.5 -56.5t-23 -57t-58 -22q-34 0 -57 22z" />
    <glyph glyph-name="uni1E48" unicode="&#x1e48;" horiz-adv-x="734" 
d="M79 700h103l308 -433q19 -27 34.5 -52.5t20.5 -37.5l3 1q-6 24 -6 106v416h113v-700h-104l-307 433q-46 66 -56 90l-3 -1q6 -24 6 -106v-416h-112v700zM206 -77h323v-86h-323v86z" />
    <glyph glyph-name="uni0220" unicode="&#x220;" horiz-adv-x="712" 
d="M481.5 557.5q-42.5 46.5 -112.5 46.5q-50 0 -90 -23t-62.5 -65t-22.5 -97v-419h-113v700h113v-105q33 54 86 84t119 30q69 0 123 -31t84.5 -90.5t30.5 -141.5v-613h-113v589q0 89 -42.5 135.5z" />
    <glyph glyph-name="Ntilde" unicode="&#xd1;" horiz-adv-x="734" 
d="M79 700h103l308 -433q19 -27 34.5 -52.5t20.5 -37.5l3 1q-6 24 -6 106v416h113v-700h-104l-307 433q-46 66 -56 90l-3 -1q6 -24 6 -106v-416h-112v700zM394.5 799.5q-19.5 8.5 -40.5 23.5q-13 9 -21.5 13.5t-17.5 4.5q-12 0 -20 -11.5t-8 -33.5h-87q0 60 32.5 95t76.5 35
q27 0 46.5 -9t39.5 -24q13 -9 21.5 -13.5t17.5 -4.5q13 0 20.5 11.5t7.5 34.5h87q0 -60 -32.5 -95t-76.5 -35q-26 0 -45.5 8.5z" />
    <glyph glyph-name="Eng" unicode="&#x14a;" horiz-adv-x="713" 
d="M355 -131l59 77q23 -26 57 -26q24 0 39 16t15 48v439q0 89 -43 135.5t-113 46.5q-50 0 -90 -23t-62.5 -65.5t-22.5 -99.5v-417h-113v700h113v-105q34 54 87 84t119 30q69 0 123 -31t84.5 -90.5t30.5 -141.5v-465q0 -80 -43.5 -122.5t-114.5 -42.5q-78 0 -125 53z" />
    <glyph glyph-name="O" unicode="O" horiz-adv-x="786" 
d="M215 34q-78 45 -121.5 127t-43.5 189t43.5 189t121.5 127t178 45t178 -45t121.5 -127t43.5 -189t-43.5 -189t-121.5 -127t-178 -45t-178 45zM509 124.5q51 30.5 80 88t29 137.5t-29 137.5t-80 88t-116 30.5t-115.5 -30.5t-79.5 -88t-29 -137.5t29 -137.5t79.5 -88
t115.5 -30.5t116 30.5z" />
    <glyph glyph-name="uni0222" unicode="&#x222;" horiz-adv-x="684" 
d="M200 14q-64 25 -101.5 72t-37.5 111q0 65 37.5 107.5t100.5 65.5q-50 21 -80.5 58.5t-30.5 91.5v180h113v-172q0 -53 40.5 -82t101.5 -29q60 0 100 29t40 82v172h113v-180q0 -54 -30 -91.5t-80 -58.5q63 -23 100 -66t37 -107t-37 -111t-101 -72t-142 -25q-79 0 -143 25z
M460.5 119q47.5 31 47.5 87q0 55 -47.5 86t-117.5 31q-71 0 -118.5 -31t-47.5 -86q0 -56 47.5 -87t118.5 -31q70 0 117.5 31z" />
    <glyph glyph-name="Oacute" unicode="&#xd3;" horiz-adv-x="786" 
d="M215 34q-78 45 -121.5 127t-43.5 189t43.5 189t121.5 127t178 45t178 -45t121.5 -127t43.5 -189t-43.5 -189t-121.5 -127t-178 -45t-178 45zM509 124.5q51 30.5 80 88t29 137.5t-29 137.5t-80 88t-116 30.5t-115.5 -30.5t-79.5 -88t-29 -137.5t29 -137.5t79.5 -88
t115.5 -30.5t116 30.5zM315 790l106 137h120l-121 -137h-105z" />
    <glyph glyph-name="Obreve" unicode="&#x14e;" horiz-adv-x="786" 
d="M215 34q-78 45 -121.5 127t-43.5 189t43.5 189t121.5 127t178 45t178 -45t121.5 -127t43.5 -189t-43.5 -189t-121.5 -127t-178 -45t-178 45zM509 124.5q51 30.5 80 88t29 137.5t-29 137.5t-80 88t-116 30.5t-115.5 -30.5t-79.5 -88t-29 -137.5t29 -137.5t79.5 -88
t115.5 -30.5t116 30.5zM277 823.5q-45 37.5 -49 103.5h93q6 -64 72 -64q65 0 71 64h93q-4 -66 -49 -103.5t-115 -37.5q-71 0 -116 37.5z" />
    <glyph glyph-name="uni01D1" unicode="&#x1d1;" horiz-adv-x="786" 
d="M215 34q-78 45 -121.5 127t-43.5 189t43.5 189t121.5 127t178 45t178 -45t121.5 -127t43.5 -189t-43.5 -189t-121.5 -127t-178 -45t-178 45zM509 124.5q51 30.5 80 88t29 137.5t-29 137.5t-80 88t-116 30.5t-115.5 -30.5t-79.5 -88t-29 -137.5t29 -137.5t79.5 -88
t115.5 -30.5t116 30.5zM217 927h114l21 -25q36 -40 40 -49h3q5 10 42 51l19 23h115l-129 -137h-97z" />
    <glyph glyph-name="uni019F" unicode="&#x19f;" horiz-adv-x="786" 
d="M215 34q-78 45 -121.5 127t-43.5 189t43.5 189t121.5 127t178 45t178 -45t121.5 -127t43.5 -189t-43.5 -189t-121.5 -127t-178 -45t-178 45zM543.5 150q60.5 56 72.5 156h-445q12 -100 72.5 -156t149.5 -56q90 0 150.5 56zM614 406q-14 94 -74 147t-147 53
q-86 0 -146 -53t-74 -147h441z" />
    <glyph glyph-name="Ocircumflex" unicode="&#xd4;" horiz-adv-x="786" 
d="M215 34q-78 45 -121.5 127t-43.5 189t43.5 189t121.5 127t178 45t178 -45t121.5 -127t43.5 -189t-43.5 -189t-121.5 -127t-178 -45t-178 45zM509 124.5q51 30.5 80 88t29 137.5t-29 137.5t-80 88t-116 30.5t-115.5 -30.5t-79.5 -88t-29 -137.5t29 -137.5t79.5 -88
t115.5 -30.5t116 30.5zM345 928h97l128 -138h-114l-20 23q-35 38 -41 51h-3q-3 -4 -33 -41q-14 -16 -28 -33h-115z" />
    <glyph glyph-name="uni1ED0" unicode="&#x1ed0;" horiz-adv-x="786" 
d="M215 34q-78 45 -121.5 127t-43.5 189t43.5 189t121.5 127t178 45t178 -45t121.5 -127t43.5 -189t-43.5 -189t-121.5 -127t-178 -45t-178 45zM509 124.5q51 30.5 80 88t29 137.5t-29 137.5t-80 88t-116 30.5t-115.5 -30.5t-79.5 -88t-29 -137.5t29 -137.5t79.5 -88
t115.5 -30.5t116 30.5zM346 913h97l128 -138h-114l-20 23q-35 38 -41 51h-3q-7 -12 -43 -53l-18 -21h-115zM582 999h116l-87 -122h-97z" />
    <glyph glyph-name="uni1ED8" unicode="&#x1ed8;" horiz-adv-x="786" 
d="M215 34q-78 45 -121.5 127t-43.5 189t43.5 189t121.5 127t178 45t178 -45t121.5 -127t43.5 -189t-43.5 -189t-121.5 -127t-178 -45t-178 45zM509 124.5q51 30.5 80 88t29 137.5t-29 137.5t-80 88t-116 30.5t-115.5 -30.5t-79.5 -88t-29 -137.5t29 -137.5t79.5 -88
t115.5 -30.5t116 30.5zM341.5 -177.5q-20.5 18.5 -20.5 48.5q0 31 20.5 50t51.5 19t51.5 -19t20.5 -50q0 -30 -20.5 -48.5t-51.5 -18.5t-51.5 18.5zM345 928h97l128 -138h-114l-20 23q-35 38 -41 51h-3q-3 -4 -33 -41q-14 -16 -28 -33h-115z" />
    <glyph glyph-name="uni1ED2" unicode="&#x1ed2;" horiz-adv-x="786" 
d="M215 34q-78 45 -121.5 127t-43.5 189t43.5 189t121.5 127t178 45t178 -45t121.5 -127t43.5 -189t-43.5 -189t-121.5 -127t-178 -45t-178 45zM509 124.5q51 30.5 80 88t29 137.5t-29 137.5t-80 88t-116 30.5t-115.5 -30.5t-79.5 -88t-29 -137.5t29 -137.5t79.5 -88
t115.5 -30.5t116 30.5zM345 913h97l128 -138h-114l-20 23q-35 38 -41 51h-3q-7 -12 -43 -53l-18 -21h-115zM454 999h116l68 -122h-97z" />
    <glyph glyph-name="uni1ED4" unicode="&#x1ed4;" horiz-adv-x="786" 
d="M215 34q-78 45 -121.5 127t-43.5 189t43.5 189t121.5 127t178 45t178 -45t121.5 -127t43.5 -189t-43.5 -189t-121.5 -127t-178 -45t-178 45zM509 124.5q51 30.5 80 88t29 137.5t-29 137.5t-80 88t-116 30.5t-115.5 -30.5t-79.5 -88t-29 -137.5t29 -137.5t79.5 -88
t115.5 -30.5t116 30.5zM345 912h96l129 -137h-115l-20 23q-35 38 -41 51h-3q-7 -12 -43 -53l-18 -21h-114zM538 952q0 11 -7 17.5t-20 6.5q-10 0 -20.5 -6t-18.5 -16l-57 49q18 26 45 39t59 13q47 0 77 -25t30 -60q0 -40 -38 -85h-85q35 45 35 67z" />
    <glyph glyph-name="uni1ED6" unicode="&#x1ed6;" horiz-adv-x="786" 
d="M215 34q-78 45 -121.5 127t-43.5 189t43.5 189t121.5 127t178 45t178 -45t121.5 -127t43.5 -189t-43.5 -189t-121.5 -127t-178 -45t-178 45zM509 124.5q51 30.5 80 88t29 137.5t-29 137.5t-80 88t-116 30.5t-115.5 -30.5t-79.5 -88t-29 -137.5t29 -137.5t79.5 -88
t115.5 -30.5t116 30.5zM345 913h97l128 -138h-114l-20 23q-35 38 -41 51h-3q-5 -10 -42 -51l-19 -23h-115zM416.5 961q-19.5 7 -39.5 19q-10 6 -20 10.5t-19 4.5q-13 0 -20.5 -10t-7.5 -27h-87q0 52 31.5 84t73.5 32q27 0 46.5 -7t39.5 -19q10 -6 20 -10.5t19 -4.5
q12 0 20 10t8 27h87q0 -52 -31.5 -84t-73.5 -32q-27 0 -46.5 7z" />
    <glyph glyph-name="uni020C" unicode="&#x20c;" horiz-adv-x="786" 
d="M215 34q-78 45 -121.5 127t-43.5 189t43.5 189t121.5 127t178 45t178 -45t121.5 -127t43.5 -189t-43.5 -189t-121.5 -127t-178 -45t-178 45zM509 124.5q51 30.5 80 88t29 137.5t-29 137.5t-80 88t-116 30.5t-115.5 -30.5t-79.5 -88t-29 -137.5t29 -137.5t79.5 -88
t115.5 -30.5t116 30.5zM134 927h120l108 -137h-103zM336 927h114l104 -137h-102z" />
    <glyph glyph-name="Odieresis" unicode="&#xd6;" horiz-adv-x="786" 
d="M215 34q-78 45 -121.5 127t-43.5 189t43.5 189t121.5 127t178 45t178 -45t121.5 -127t43.5 -189t-43.5 -189t-121.5 -127t-178 -45t-178 45zM509 124.5q51 30.5 80 88t29 137.5t-29 137.5t-80 88t-116 30.5t-115.5 -30.5t-79.5 -88t-29 -137.5t29 -137.5t79.5 -88
t115.5 -30.5t116 30.5zM235 815q-19 18 -19 48q0 29 19 47t47 18q29 0 48 -18t19 -47q0 -30 -19 -48t-48 -18q-28 0 -47 18zM456 815q-19 18 -19 48q0 29 19 47t48 18q28 0 47 -18t19 -47q0 -30 -19 -48t-47 -18q-29 0 -48 18z" />
    <glyph glyph-name="uni022A" unicode="&#x22a;" horiz-adv-x="786" 
d="M215 34q-78 45 -121.5 127t-43.5 189t43.5 189t121.5 127t178 45t178 -45t121.5 -127t43.5 -189t-43.5 -189t-121.5 -127t-178 -45t-178 45zM509 124.5q51 30.5 80 88t29 137.5t-29 137.5t-80 88t-116 30.5t-115.5 -30.5t-79.5 -88t-29 -137.5t29 -137.5t79.5 -88
t115.5 -30.5t116 30.5zM234 795.5q-19 17.5 -19 47.5t19 47.5t48 17.5t47.5 -17.5t18.5 -47.5t-18.5 -47.5t-47.5 -17.5t-48 17.5zM455.5 795.5q-18.5 17.5 -18.5 47.5t18.5 47.5t47.5 17.5t48 -17.5t19 -47.5t-19 -47.5t-48 -17.5t-47.5 17.5zM232 1048h322v-86h-322v86z
" />
    <glyph glyph-name="uni022E" unicode="&#x22e;" horiz-adv-x="786" 
d="M215 34q-78 45 -121.5 127t-43.5 189t43.5 189t121.5 127t178 45t178 -45t121.5 -127t43.5 -189t-43.5 -189t-121.5 -127t-178 -45t-178 45zM509 124.5q51 30.5 80 88t29 137.5t-29 137.5t-80 88t-116 30.5t-115.5 -30.5t-79.5 -88t-29 -137.5t29 -137.5t79.5 -88
t115.5 -30.5t116 30.5zM342 817.5q-20 18.5 -20 49.5q0 30 20 49t51 19t51.5 -19t20.5 -49q0 -31 -20.5 -49.5t-51.5 -18.5t-51 18.5z" />
    <glyph glyph-name="uni0230" unicode="&#x230;" horiz-adv-x="786" 
d="M215 34q-78 45 -121.5 127t-43.5 189t43.5 189t121.5 127t178 45t178 -45t121.5 -127t43.5 -189t-43.5 -189t-121.5 -127t-178 -45t-178 45zM509 124.5q51 30.5 80 88t29 137.5t-29 137.5t-80 88t-116 30.5t-115.5 -30.5t-79.5 -88t-29 -137.5t29 -137.5t79.5 -88
t115.5 -30.5t116 30.5zM341.5 795.5q-20.5 18.5 -20.5 49.5q0 30 20.5 49t51.5 19t51 -19t20 -49q0 -31 -20 -49.5t-51 -18.5t-51.5 18.5zM232 1048h322v-87h-322v87z" />
    <glyph glyph-name="uni1ECC" unicode="&#x1ecc;" horiz-adv-x="786" 
d="M215 34q-78 45 -121.5 127t-43.5 189t43.5 189t121.5 127t178 45t178 -45t121.5 -127t43.5 -189t-43.5 -189t-121.5 -127t-178 -45t-178 45zM509 124.5q51 30.5 80 88t29 137.5t-29 137.5t-80 88t-116 30.5t-115.5 -30.5t-79.5 -88t-29 -137.5t29 -137.5t79.5 -88
t115.5 -30.5t116 30.5zM341.5 -177.5q-20.5 18.5 -20.5 48.5q0 31 20.5 50t51.5 19t51.5 -19t20.5 -50q0 -30 -20.5 -48.5t-51.5 -18.5t-51.5 18.5z" />
    <glyph glyph-name="Ograve" unicode="&#xd2;" horiz-adv-x="786" 
d="M215 34q-78 45 -121.5 127t-43.5 189t43.5 189t121.5 127t178 45t178 -45t121.5 -127t43.5 -189t-43.5 -189t-121.5 -127t-178 -45t-178 45zM509 124.5q51 30.5 80 88t29 137.5t-29 137.5t-80 88t-116 30.5t-115.5 -30.5t-79.5 -88t-29 -137.5t29 -137.5t79.5 -88
t115.5 -30.5t116 30.5zM245 928h120l106 -138h-105z" />
    <glyph glyph-name="uni1ECE" unicode="&#x1ece;" horiz-adv-x="786" 
d="M215 34q-78 45 -121.5 127t-43.5 189t43.5 189t121.5 127t178 45t178 -45t121.5 -127t43.5 -189t-43.5 -189t-121.5 -127t-178 -45t-178 45zM509 124.5q51 30.5 80 88t29 137.5t-29 137.5t-80 88t-116 30.5t-115.5 -30.5t-79.5 -88t-29 -137.5t29 -137.5t79.5 -88
t115.5 -30.5t116 30.5zM398.5 802.5q8.5 15.5 8.5 27.5q0 11 -7 17.5t-20 6.5q-22 0 -40 -22l-56 49q35 52 104 52q46 0 76 -25t30 -60q0 -40 -38 -85h-85q19 24 27.5 39.5z" />
    <glyph glyph-name="Ohorn" unicode="&#x1a0;" horiz-adv-x="815" 
d="M215 34q-78 45 -121.5 127t-43.5 189t43.5 189t121.5 127t178 45q48 0 92 -11h129q58 0 58 63v26h109v-39q0 -69 -40 -107t-107 -38h-13q55 -46 84.5 -112t29.5 -146q0 -106 -43.5 -187.5t-121 -126t-177.5 -44.5t-178 45zM509 124.5q51 30.5 80 88t29 137.5t-29 137.5
t-80 88t-116 30.5t-115.5 -30.5t-79.5 -88t-29 -137.5t29 -137.5t79.5 -88t115.5 -30.5t116 30.5z" />
    <glyph glyph-name="uni1EDA" unicode="&#x1eda;" horiz-adv-x="815" 
d="M215 34q-78 45 -121.5 127t-43.5 189t43.5 189t121.5 127t178 45q48 0 92 -11h129q58 0 58 63v26h109v-39q0 -69 -40 -107t-107 -38h-13q55 -46 84.5 -112t29.5 -146q0 -106 -43.5 -187.5t-121 -126t-177.5 -44.5t-178 45zM509 124.5q51 30.5 80 88t29 137.5t-29 137.5
t-80 88t-116 30.5t-115.5 -30.5t-79.5 -88t-29 -137.5t29 -137.5t79.5 -88t115.5 -30.5t116 30.5zM315 790l106 137h120l-121 -137h-105z" />
    <glyph glyph-name="uni1EE2" unicode="&#x1ee2;" horiz-adv-x="815" 
d="M215 34q-78 45 -121.5 127t-43.5 189t43.5 189t121.5 127t178 45q48 0 92 -11h129q58 0 58 63v26h109v-39q0 -69 -40 -107t-107 -38h-13q55 -46 84.5 -112t29.5 -146q0 -106 -43.5 -187.5t-121 -126t-177.5 -44.5t-178 45zM509 124.5q51 30.5 80 88t29 137.5t-29 137.5
t-80 88t-116 30.5t-115.5 -30.5t-79.5 -88t-29 -137.5t29 -137.5t79.5 -88t115.5 -30.5t116 30.5zM341.5 -177.5q-20.5 18.5 -20.5 48.5q0 31 20.5 50t51.5 19t51.5 -19t20.5 -50q0 -30 -20.5 -48.5t-51.5 -18.5t-51.5 18.5z" />
    <glyph glyph-name="uni1EDC" unicode="&#x1edc;" horiz-adv-x="815" 
d="M215 34q-78 45 -121.5 127t-43.5 189t43.5 189t121.5 127t178 45q48 0 92 -11h129q58 0 58 63v26h109v-39q0 -69 -40 -107t-107 -38h-13q55 -46 84.5 -112t29.5 -146q0 -106 -43.5 -187.5t-121 -126t-177.5 -44.5t-178 45zM509 124.5q51 30.5 80 88t29 137.5t-29 137.5
t-80 88t-116 30.5t-115.5 -30.5t-79.5 -88t-29 -137.5t29 -137.5t79.5 -88t115.5 -30.5t116 30.5zM245 928h120l106 -138h-105z" />
    <glyph glyph-name="uni1EDE" unicode="&#x1ede;" horiz-adv-x="815" 
d="M215 34q-78 45 -121.5 127t-43.5 189t43.5 189t121.5 127t178 45q48 0 92 -11h129q58 0 58 63v26h109v-39q0 -69 -40 -107t-107 -38h-13q55 -46 84.5 -112t29.5 -146q0 -106 -43.5 -187.5t-121 -126t-177.5 -44.5t-178 45zM509 124.5q51 30.5 80 88t29 137.5t-29 137.5
t-80 88t-116 30.5t-115.5 -30.5t-79.5 -88t-29 -137.5t29 -137.5t79.5 -88t115.5 -30.5t116 30.5zM398.5 802.5q8.5 15.5 8.5 27.5q0 11 -7 17.5t-20 6.5q-22 0 -40 -22l-56 49q35 52 104 52q46 0 76 -25t30 -60q0 -40 -38 -85h-85q19 24 27.5 39.5z" />
    <glyph glyph-name="uni1EE0" unicode="&#x1ee0;" horiz-adv-x="815" 
d="M215 34q-78 45 -121.5 127t-43.5 189t43.5 189t121.5 127t178 45q48 0 92 -11h129q58 0 58 63v26h109v-39q0 -69 -40 -107t-107 -38h-13q55 -46 84.5 -112t29.5 -146q0 -106 -43.5 -187.5t-121 -126t-177.5 -44.5t-178 45zM509 124.5q51 30.5 80 88t29 137.5t-29 137.5
t-80 88t-116 30.5t-115.5 -30.5t-79.5 -88t-29 -137.5t29 -137.5t79.5 -88t115.5 -30.5t116 30.5zM417.5 799.5q-19.5 8.5 -40.5 23.5q-13 9 -21.5 13.5t-17.5 4.5q-12 0 -20 -11.5t-8 -33.5h-87q0 60 32.5 95t76.5 35q27 0 46.5 -9t39.5 -24q13 -9 21.5 -13.5t17.5 -4.5
q13 0 20.5 11.5t7.5 34.5h87q0 -60 -32.5 -95t-76.5 -35q-26 0 -45.5 8.5z" />
    <glyph glyph-name="Ohungarumlaut" unicode="&#x150;" horiz-adv-x="786" 
d="M215 34q-78 45 -121.5 127t-43.5 189t43.5 189t121.5 127t178 45t178 -45t121.5 -127t43.5 -189t-43.5 -189t-121.5 -127t-178 -45t-178 45zM509 124.5q51 30.5 80 88t29 137.5t-29 137.5t-80 88t-116 30.5t-115.5 -30.5t-79.5 -88t-29 -137.5t29 -137.5t79.5 -88
t115.5 -30.5t116 30.5zM232 790l104 138h114l-116 -138h-102zM424 790l109 138h119l-125 -138h-103z" />
    <glyph glyph-name="uni020E" unicode="&#x20e;" horiz-adv-x="786" 
d="M215 34q-78 45 -121.5 127t-43.5 189t43.5 189t121.5 127t178 45t178 -45t121.5 -127t43.5 -189t-43.5 -189t-121.5 -127t-178 -45t-178 45zM509 124.5q51 30.5 80 88t29 137.5t-29 137.5t-80 88t-116 30.5t-115.5 -30.5t-79.5 -88t-29 -137.5t29 -137.5t79.5 -88
t115.5 -30.5t116 30.5zM504 895q44 -38 48 -103h-93q-3 31 -20.5 47t-45.5 16q-29 0 -46.5 -16t-20.5 -47h-93q4 67 48 104t112 37q67 0 111 -38z" />
    <glyph glyph-name="Omacron" unicode="&#x14c;" horiz-adv-x="786" 
d="M215 34q-78 45 -121.5 127t-43.5 189t43.5 189t121.5 127t178 45t178 -45t121.5 -127t43.5 -189t-43.5 -189t-121.5 -127t-178 -45t-178 45zM509 124.5q51 30.5 80 88t29 137.5t-29 137.5t-80 88t-116 30.5t-115.5 -30.5t-79.5 -88t-29 -137.5t29 -137.5t79.5 -88
t115.5 -30.5t116 30.5zM232 903h322v-86h-322v86z" />
    <glyph glyph-name="uni1E52" unicode="&#x1e52;" horiz-adv-x="786" 
d="M215 34q-78 45 -121.5 127t-43.5 189t43.5 189t121.5 127t178 45t178 -45t121.5 -127t43.5 -189t-43.5 -189t-121.5 -127t-178 -45t-178 45zM509 124.5q51 30.5 80 88t29 137.5t-29 137.5t-80 88t-116 30.5t-115.5 -30.5t-79.5 -88t-29 -137.5t29 -137.5t79.5 -88
t115.5 -30.5t116 30.5zM232 867h322v-87h-322v87zM315 923l106 138h120l-121 -138h-105z" />
    <glyph glyph-name="uni1E50" unicode="&#x1e50;" horiz-adv-x="786" 
d="M215 34q-78 45 -121.5 127t-43.5 189t43.5 189t121.5 127t178 45t178 -45t121.5 -127t43.5 -189t-43.5 -189t-121.5 -127t-178 -45t-178 45zM509 124.5q51 30.5 80 88t29 137.5t-29 137.5t-80 88t-116 30.5t-115.5 -30.5t-79.5 -88t-29 -137.5t29 -137.5t79.5 -88
t115.5 -30.5t116 30.5zM232 867h322v-86h-322v86zM254 1060h120l106 -137h-105z" />
    <glyph glyph-name="uniA7B6" unicode="&#xa7b6;" horiz-adv-x="1007" 
d="M169.5 31.5q-56.5 42.5 -87 120.5t-30.5 181q0 98 32.5 175.5t88 128.5t124.5 74l41 -101q-85 -32 -126.5 -104t-41.5 -177q0 -103 37 -167.5t104 -64.5q66 0 101 50.5t35 148.5v172h113v-172q0 -97 35 -148t100 -51q68 0 104.5 64.5t36.5 167.5q0 218 -167 281l41 101
q69 -23 124 -74t87.5 -128.5t32.5 -175.5q0 -103 -30.5 -181t-86.5 -120.5t-131 -42.5q-150 0 -203 159q-53 -159 -202 -159q-75 0 -131.5 42.5z" />
    <glyph glyph-name="uni01EA" unicode="&#x1ea;" horiz-adv-x="786" 
d="M509 124.5q51 30.5 80 88t29 137.5t-29 137.5t-80 88t-116 30.5t-115.5 -30.5t-79.5 -88t-29 -137.5t29 -137.5t79.5 -88t115.5 -30.5t116 30.5zM339.5 -153q-25.5 22 -25.5 55q0 41 38 76l13 12q-93 6 -164.5 52.5t-111 126t-39.5 181.5q0 107 43.5 189t121.5 127
t178 45t178 -45t121.5 -127t43.5 -189q0 -98 -36 -174.5t-101.5 -124t-151.5 -58.5l-20 -23q-15 -17 -15 -32q0 -10 7.5 -16t20.5 -6h32v-91h-62q-45 0 -70.5 22z" />
    <glyph glyph-name="uni01EC" unicode="&#x1ec;" horiz-adv-x="786" 
d="M509 124.5q51 30.5 80 88t29 137.5t-29 137.5t-80 88t-116 30.5t-115.5 -30.5t-79.5 -88t-29 -137.5t29 -137.5t79.5 -88t115.5 -30.5t116 30.5zM339.5 -153q-25.5 22 -25.5 55q0 41 38 76l13 12q-93 6 -164.5 52.5t-111 126t-39.5 181.5q0 107 43.5 189t121.5 127
t178 45t178 -45t121.5 -127t43.5 -189q0 -98 -36 -174.5t-101.5 -124t-151.5 -58.5l-20 -23q-15 -17 -15 -32q0 -10 7.5 -16t20.5 -6h32v-91h-62q-45 0 -70.5 22zM232 903h322v-87h-322v87z" />
    <glyph glyph-name="uni0186" unicode="&#x2183;" horiz-adv-x="725" 
d="M146.5 46.5q-79.5 57.5 -112.5 162.5l104 38q24 -73 76 -113t122 -40q63 0 113 30.5t78 88t28 137.5t-28 137.5t-78 88t-113 30.5q-70 0 -122 -40t-76 -113l-104 39q33 104 112.5 161.5t189.5 57.5q98 0 174.5 -45t119.5 -127t43 -189t-43 -189t-119.5 -127t-174.5 -45
q-110 0 -189.5 57.5z" />
    <glyph glyph-name="uni0186" unicode="&#x3fd;" horiz-adv-x="725" 
d="M146.5 46.5q-79.5 57.5 -112.5 162.5l104 38q24 -73 76 -113t122 -40q63 0 113 30.5t78 88t28 137.5t-28 137.5t-78 88t-113 30.5q-70 0 -122 -40t-76 -113l-104 39q33 104 112.5 161.5t189.5 57.5q98 0 174.5 -45t119.5 -127t43 -189t-43 -189t-119.5 -127t-174.5 -45
q-110 0 -189.5 57.5z" />
    <glyph glyph-name="uni0186" unicode="&#x186;" horiz-adv-x="725" 
d="M146.5 46.5q-79.5 57.5 -112.5 162.5l104 38q24 -73 76 -113t122 -40q63 0 113 30.5t78 88t28 137.5t-28 137.5t-78 88t-113 30.5q-70 0 -122 -40t-76 -113l-104 39q33 104 112.5 161.5t189.5 57.5q98 0 174.5 -45t119.5 -127t43 -189t-43 -189t-119.5 -127t-174.5 -45
q-110 0 -189.5 57.5z" />
    <glyph glyph-name="Oslash" unicode="&#xd8;" horiz-adv-x="787" 
d="M50 39l71 79q-70 95 -70 232q0 107 43.5 189t121.5 127t177 45q59 0 111.5 -16.5t94.5 -46.5l69 77l69 -64l-71 -79q34 -45 52 -104t18 -128q0 -107 -43.5 -189t-121.5 -127t-178 -45q-118 0 -206 63l-67 -75zM509 124.5q51 30.5 80 88t29 137.5q0 83 -32 144l-324 -359
q55 -41 131 -41q65 0 116 30.5zM201 206l324 360q-55 40 -132 40q-65 0 -115.5 -30.5t-79.5 -88t-29 -137.5q0 -83 32 -144z" />
    <glyph glyph-name="Oslashacute" unicode="&#x1fe;" horiz-adv-x="787" 
d="M50 39l71 79q-70 95 -70 232q0 107 43.5 189t121.5 127t177 45q59 0 111.5 -16.5t94.5 -46.5l69 77l69 -64l-71 -79q34 -45 52 -104t18 -128q0 -107 -43.5 -189t-121.5 -127t-178 -45q-118 0 -206 63l-67 -75zM509 124.5q51 30.5 80 88t29 137.5q0 83 -32 144l-324 -359
q55 -41 131 -41q65 0 116 30.5zM201 206l324 360q-55 40 -132 40q-65 0 -115.5 -30.5t-79.5 -88t-29 -137.5q0 -83 32 -144zM316 790l106 137h120l-121 -137h-105z" />
    <glyph glyph-name="Otilde" unicode="&#xd5;" horiz-adv-x="786" 
d="M215 34q-78 45 -121.5 127t-43.5 189t43.5 189t121.5 127t178 45t178 -45t121.5 -127t43.5 -189t-43.5 -189t-121.5 -127t-178 -45t-178 45zM509 124.5q51 30.5 80 88t29 137.5t-29 137.5t-80 88t-116 30.5t-115.5 -30.5t-79.5 -88t-29 -137.5t29 -137.5t79.5 -88
t115.5 -30.5t116 30.5zM417.5 799.5q-19.5 8.5 -40.5 23.5q-13 9 -21.5 13.5t-17.5 4.5q-12 0 -20 -11.5t-8 -33.5h-87q0 60 32.5 95t76.5 35q27 0 46.5 -9t39.5 -24q13 -9 21.5 -13.5t17.5 -4.5q13 0 20.5 11.5t7.5 34.5h87q0 -60 -32.5 -95t-76.5 -35q-26 0 -45.5 8.5z
" />
    <glyph glyph-name="uni1E4C" unicode="&#x1e4c;" horiz-adv-x="786" 
d="M215 34q-78 45 -121.5 127t-43.5 189t43.5 189t121.5 127t178 45t178 -45t121.5 -127t43.5 -189t-43.5 -189t-121.5 -127t-178 -45t-178 45zM509 124.5q51 30.5 80 88t29 137.5t-29 137.5t-80 88t-116 30.5t-115.5 -30.5t-79.5 -88t-29 -137.5t29 -137.5t79.5 -88
t115.5 -30.5t116 30.5zM417 781q-19 9 -40 24q-13 9 -21.5 13.5t-16.5 4.5q-13 0 -20.5 -12t-7.5 -34h-88q0 60 32.5 95t77.5 35q26 0 45 -8.5t41 -24.5q13 -10 21 -14t17 -4q13 0 20.5 11.5t7.5 34.5h87q0 -60 -32 -95t-77 -35q-27 0 -46 9zM321 953l106 137h121l-122 -137
h-105z" />
    <glyph glyph-name="uni1E4E" unicode="&#x1e4e;" horiz-adv-x="786" 
d="M215 34q-78 45 -121.5 127t-43.5 189t43.5 189t121.5 127t178 45t178 -45t121.5 -127t43.5 -189t-43.5 -189t-121.5 -127t-178 -45t-178 45zM509 124.5q51 30.5 80 88t29 137.5t-29 137.5t-80 88t-116 30.5t-115.5 -30.5t-79.5 -88t-29 -137.5t29 -137.5t79.5 -88
t115.5 -30.5t116 30.5zM416.5 781q-19.5 9 -39.5 24q-13 9 -21.5 13.5t-17.5 4.5q-12 0 -20 -12t-8 -34h-87q0 60 32.5 95t76.5 35q27 0 46.5 -9t39.5 -24q13 -9 21.5 -13.5t17.5 -4.5q13 0 20.5 12t7.5 34h87q0 -60 -32.5 -95t-76.5 -35q-27 0 -46.5 9zM239.5 969.5
q-18.5 17.5 -18.5 47.5t18.5 47.5t47.5 17.5t47.5 -17.5t18.5 -47.5t-18.5 -47.5t-47.5 -17.5t-47.5 17.5zM461 969.5q-19 17.5 -19 47.5t19 47.5t48 17.5t47.5 -17.5t18.5 -47.5t-18.5 -47.5t-47.5 -17.5t-48 17.5z" />
    <glyph glyph-name="uni022C" unicode="&#x22c;" horiz-adv-x="786" 
d="M215 34q-78 45 -121.5 127t-43.5 189t43.5 189t121.5 127t178 45t178 -45t121.5 -127t43.5 -189t-43.5 -189t-121.5 -127t-178 -45t-178 45zM509 124.5q51 30.5 80 88t29 137.5t-29 137.5t-80 88t-116 30.5t-115.5 -30.5t-79.5 -88t-29 -137.5t29 -137.5t79.5 -88
t115.5 -30.5t116 30.5zM417 780.5q-19 8.5 -41 24.5q-13 9 -21.5 13.5t-16.5 4.5q-13 0 -20.5 -12t-7.5 -34h-87q0 60 32 95t77 35q27 0 46 -9t40 -24q13 -9 21.5 -13.5t16.5 -4.5q13 0 21 11.5t8 34.5h87q0 -60 -32.5 -95t-76.5 -35q-27 0 -46 8.5zM237 1052h322v-86h-322
v86z" />
    <glyph glyph-name="OE" unicode="&#x152;" horiz-adv-x="1139" 
d="M213.5 34q-76.5 45 -119.5 127t-43 189t43 189t119.5 127t173.5 45q71 0 129 -28t100 -80v97h469v-102h-355v-192h315v-100h-315v-204h355v-102h-469v97q-42 -52 -100 -80t-129 -28q-97 0 -173.5 45zM510 124.5q51 30.5 79.5 88t28.5 137.5t-28.5 137.5t-79.5 88
t-116 30.5t-116 -30.5t-80 -88t-29 -137.5t29 -137.5t80 -88t116 -30.5t116 30.5z" />
    <glyph glyph-name="P" unicode="P" horiz-adv-x="632" 
d="M81 700h255q120 0 188 -61t68 -166q0 -104 -68 -164.5t-187 -60.5h-143v-248h-113v700zM327 347q70 0 108.5 32t38.5 94q0 61 -38.5 93t-108.5 32h-133v-251h133z" />
    <glyph glyph-name="uni1E54" unicode="&#x1e54;" horiz-adv-x="632" 
d="M81 700h255q120 0 188 -61t68 -166q0 -104 -68 -164.5t-187 -60.5h-143v-248h-113v700zM327 347q70 0 108.5 32t38.5 94q0 61 -38.5 93t-108.5 32h-133v-251h133zM238 790l106 137h120l-121 -137h-105z" />
    <glyph glyph-name="uni1E56" unicode="&#x1e56;" horiz-adv-x="632" 
d="M81 700h255q120 0 188 -61t68 -166q0 -104 -68 -164.5t-187 -60.5h-143v-248h-113v700zM327 347q70 0 108.5 32t38.5 94q0 61 -38.5 93t-108.5 32h-133v-251h133zM265 817.5q-20 18.5 -20 49.5q0 30 20 49t51 19t51.5 -19t20.5 -49q0 -31 -20.5 -49.5t-51.5 -18.5
t-51 18.5z" />
    <glyph glyph-name="uni01A4" unicode="&#x1a4;" horiz-adv-x="804" 
d="M254 598h-30q-34 0 -56 -19t-22 -53q0 -32 31 -67l-86 -60q-59 68 -59 133q0 77 50.5 122.5t132.5 45.5h293q120 0 188 -60.5t68 -166.5q0 -105 -67.5 -165t-187.5 -60h-143v-248h-112v598zM499 347q71 0 109 32t38 94t-38 93.5t-109 31.5h-133v-251h133z" />
    <glyph glyph-name="Thorn" unicode="&#xde;" horiz-adv-x="629" 
d="M81 700h113v-124h130q122 0 190.5 -61t68.5 -167q0 -105 -68 -165t-190 -60h-131v-123h-113v700zM318 222q70 0 108 32t38 94t-38 94t-108 32h-124v-252h124z" />
    <glyph glyph-name="uni2C63" unicode="&#x2c63;" horiz-adv-x="666" 
d="M37 519h78v181h254q120 0 188.5 -61t68.5 -166t-68 -165t-188 -60h-142v-248h-113v427h-78v92zM361 347q70 0 108 32t38 94q0 61 -38 93t-108 32h-133v-82h147v-86h-147v-83h133z" />
    <glyph glyph-name="Q" unicode="Q" horiz-adv-x="786" 
d="M215 34q-78 45 -121.5 127t-43.5 189t43.5 189t121.5 127t178 45t178 -45t121.5 -127t43.5 -189q0 -82 -25.5 -149.5t-73.5 -116.5l90 -114l-82 -63l-92 117q-72 -35 -160 -35q-100 0 -178 45zM485 112l-79 100l83 63l78 -99q51 67 51 174q0 80 -29 137.5t-80 88
t-116 30.5t-115.5 -30.5t-79.5 -88t-29 -137.5t29 -137.5t79.5 -88t115.5 -30.5q50 0 92 18z" />
    <glyph glyph-name="uni024A" unicode="&#x24a;" horiz-adv-x="791" 
d="M641 -141.5q-43 42.5 -43 122.5v142q-38 -65 -98.5 -99.5t-137.5 -34.5q-89 0 -160 45.5t-111 127.5t-40 188t40 188t111 127.5t160 45.5q77 0 137.5 -35t98.5 -100v124h112v-716q0 -32 15 -48t39 -16q34 0 57 26l59 -77q-47 -53 -125 -53q-71 0 -114 42.5zM496 124.5
q49 30.5 76.5 88.5t27.5 137t-27.5 137t-76.5 88.5t-111 30.5q-63 0 -112 -30.5t-76.5 -88.5t-27.5 -137t28 -137t77 -88.5t111 -30.5t111 30.5z" />
    <glyph glyph-name="R" unicode="R" horiz-adv-x="662" 
d="M81 700h267q114 0 180 -58.5t66 -162.5q0 -78 -45.5 -133t-123.5 -73l206 -273h-136l-190 264h-111v-264h-113v700zM341 361q65 0 100 30.5t35 87.5q0 59 -35 89t-100 30h-147v-237h147z" />
    <glyph glyph-name="Racute" unicode="&#x154;" horiz-adv-x="662" 
d="M81 700h267q114 0 180 -58.5t66 -162.5q0 -78 -45.5 -133t-123.5 -73l206 -273h-136l-190 264h-111v-264h-113v700zM341 361q65 0 100 30.5t35 87.5q0 59 -35 89t-100 30h-147v-237h147zM234 790l106 137h120l-121 -137h-105z" />
    <glyph glyph-name="Rcaron" unicode="&#x158;" horiz-adv-x="662" 
d="M81 700h267q114 0 180 -58.5t66 -162.5q0 -78 -45.5 -133t-123.5 -73l206 -273h-136l-190 264h-111v-264h-113v700zM341 361q65 0 100 30.5t35 87.5q0 59 -35 89t-100 30h-147v-237h147zM136 927h114l21 -25q36 -40 40 -49h3q5 10 42 51l19 23h115l-129 -137h-97z" />
    <glyph glyph-name="uni0156" unicode="&#x156;" horiz-adv-x="662" 
d="M81 700h267q114 0 180 -58.5t66 -162.5q0 -78 -45.5 -133t-123.5 -73l206 -273h-136l-190 264h-111v-264h-113v700zM341 361q65 0 100 30.5t35 87.5q0 59 -35 89t-100 30h-147v-237h147zM271 -228l45 61q-22 4 -34.5 18t-12.5 33q0 24 18.5 39.5t48.5 15.5t49 -15.5
t19 -40.5q0 -30 -25 -65l-53 -77z" />
    <glyph glyph-name="uni0210" unicode="&#x210;" horiz-adv-x="662" 
d="M81 700h267q114 0 180 -58.5t66 -162.5q0 -78 -45.5 -133t-123.5 -73l206 -273h-136l-190 264h-111v-264h-113v700zM341 361q65 0 100 30.5t35 87.5q0 59 -35 89t-100 30h-147v-237h147zM53 927h120l108 -137h-103zM255 927h114l104 -137h-102z" />
    <glyph glyph-name="uni1E58" unicode="&#x1e58;" horiz-adv-x="662" 
d="M81 700h267q114 0 180 -58.5t66 -162.5q0 -78 -45.5 -133t-123.5 -73l206 -273h-136l-190 264h-111v-264h-113v700zM341 361q65 0 100 30.5t35 87.5q0 59 -35 89t-100 30h-147v-237h147zM261 817.5q-20 18.5 -20 49.5q0 30 20 49t51 19t51.5 -19t20.5 -49
q0 -31 -20.5 -49.5t-51.5 -18.5t-51 18.5z" />
    <glyph glyph-name="uni1E5A" unicode="&#x1e5a;" horiz-adv-x="662" 
d="M81 700h267q114 0 180 -58.5t66 -162.5q0 -78 -45.5 -133t-123.5 -73l206 -273h-136l-190 264h-111v-264h-113v700zM341 361q65 0 100 30.5t35 87.5q0 59 -35 89t-100 30h-147v-237h147zM284.5 -177.5q-20.5 18.5 -20.5 48.5q0 31 20.5 50t51.5 19t51.5 -19t20.5 -50
q0 -30 -20.5 -48.5t-51.5 -18.5t-51.5 18.5z" />
    <glyph glyph-name="uni1E5C" unicode="&#x1e5c;" horiz-adv-x="662" 
d="M81 700h267q114 0 180 -58.5t66 -162.5q0 -78 -45.5 -133t-123.5 -73l206 -273h-136l-190 264h-111v-264h-113v700zM341 361q65 0 100 30.5t35 87.5q0 59 -35 89t-100 30h-147v-237h147zM151 903h322v-86h-322v86zM284.5 -177.5q-20.5 18.5 -20.5 48.5q0 31 20.5 50
t51.5 19t51.5 -19t20.5 -50q0 -30 -20.5 -48.5t-51.5 -18.5t-51.5 18.5z" />
    <glyph glyph-name="uni0212" unicode="&#x212;" horiz-adv-x="662" 
d="M81 700h267q114 0 180 -58.5t66 -162.5q0 -78 -45.5 -133t-123.5 -73l206 -273h-136l-190 264h-111v-264h-113v700zM341 361q65 0 100 30.5t35 87.5q0 59 -35 89t-100 30h-147v-237h147zM423 895q44 -38 48 -103h-93q-3 31 -20.5 47t-45.5 16q-29 0 -46.5 -16t-20.5 -47
h-93q4 67 48 104t112 37q67 0 111 -38z" />
    <glyph glyph-name="uni1E5E" unicode="&#x1e5e;" horiz-adv-x="662" 
d="M81 700h267q114 0 180 -58.5t66 -162.5q0 -78 -45.5 -133t-123.5 -73l206 -273h-136l-190 264h-111v-264h-113v700zM341 361q65 0 100 30.5t35 87.5q0 59 -35 89t-100 30h-147v-237h147zM179 -63h313v-89h-313v89z" />
    <glyph glyph-name="uni024C" unicode="&#x24c;" horiz-adv-x="694" 
d="M113 264h-79v97h79v339h266q115 0 181 -58.5t66 -162.5q0 -78 -45.5 -133t-123.5 -73l206 -273h-136l-191 264h-110v-264h-113v264zM372 361q65 0 100 30t35 88q0 59 -35 89t-100 30h-146v-237h146z" />
    <glyph glyph-name="uni2C64" unicode="&#x2c64;" horiz-adv-x="662" 
d="M124.5 -141.5q-43.5 42.5 -43.5 122.5v719h267q114 0 180 -58.5t66 -162.5q0 -78 -45.5 -133t-123.5 -73l206 -273h-136l-190 264h-111v-280q0 -32 15 -48t39 -16q34 0 57 26l60 -77q-48 -53 -125 -53q-72 0 -115.5 42.5zM341 361q65 0 100 30.5t35 87.5q0 59 -35 89
t-100 30h-147v-237h147z" />
    <glyph glyph-name="S" unicode="S" horiz-adv-x="619" 
d="M145 33q-72 44 -103 124l94 50q20 -53 67 -85t111 -32q68 0 108.5 25.5t40.5 68.5q0 39 -32.5 63t-108.5 45l-79 22q-183 53 -183 200q0 57 31.5 102t87.5 70t129 25q91 0 157 -39.5t97 -113.5l-95 -45q-41 97 -157 97q-61 0 -97.5 -24.5t-36.5 -64.5q0 -41 28.5 -63.5
t88.5 -39.5l79 -22q104 -29 154.5 -78.5t50.5 -124.5q0 -61 -32 -107t-91.5 -71.5t-139.5 -25.5q-97 0 -169 44z" />
    <glyph glyph-name="Sacute" unicode="&#x15a;" horiz-adv-x="619" 
d="M145 33q-72 44 -103 124l94 50q20 -53 67 -85t111 -32q68 0 108.5 25.5t40.5 68.5q0 39 -32.5 63t-108.5 45l-79 22q-183 53 -183 200q0 57 31.5 102t87.5 70t129 25q91 0 157 -39.5t97 -113.5l-95 -45q-41 97 -157 97q-61 0 -97.5 -24.5t-36.5 -64.5q0 -41 28.5 -63.5
t88.5 -39.5l79 -22q104 -29 154.5 -78.5t50.5 -124.5q0 -61 -32 -107t-91.5 -71.5t-139.5 -25.5q-97 0 -169 44zM233 790l106 137h120l-121 -137h-105z" />
    <glyph glyph-name="uni1E64" unicode="&#x1e64;" horiz-adv-x="619" 
d="M145 33q-72 44 -103 124l94 50q20 -53 67 -85t111 -32q68 0 108.5 25.5t40.5 68.5q0 39 -32.5 63t-108.5 45l-79 22q-183 53 -183 200q0 57 31.5 102t87.5 70t129 25q91 0 157 -39.5t97 -113.5l-95 -45q-41 97 -157 97q-61 0 -97.5 -24.5t-36.5 -64.5q0 -41 28.5 -63.5
t88.5 -39.5l79 -22q104 -29 154.5 -78.5t50.5 -124.5q0 -61 -32 -107t-91.5 -71.5t-139.5 -25.5q-97 0 -169 44zM233 773l106 138h120l-121 -138h-105zM280.5 973.5q-20.5 18.5 -20.5 49.5t20.5 50t51.5 19t51 -19t20 -50t-20 -49.5t-51 -18.5t-51.5 18.5z" />
    <glyph glyph-name="Scaron" unicode="&#x160;" horiz-adv-x="619" 
d="M145 33q-72 44 -103 124l94 50q20 -53 67 -85t111 -32q68 0 108.5 25.5t40.5 68.5q0 39 -32.5 63t-108.5 45l-79 22q-183 53 -183 200q0 57 31.5 102t87.5 70t129 25q91 0 157 -39.5t97 -113.5l-95 -45q-41 97 -157 97q-61 0 -97.5 -24.5t-36.5 -64.5q0 -41 28.5 -63.5
t88.5 -39.5l79 -22q104 -29 154.5 -78.5t50.5 -124.5q0 -61 -32 -107t-91.5 -71.5t-139.5 -25.5q-97 0 -169 44zM135 927h114l21 -25q36 -40 40 -49h3q5 10 42 51l19 23h115l-129 -137h-97z" />
    <glyph glyph-name="uni1E66" unicode="&#x1e66;" horiz-adv-x="619" 
d="M145 33q-72 44 -103 124l94 50q20 -53 67 -85t111 -32q68 0 108.5 25.5t40.5 68.5q0 39 -32.5 63t-108.5 45l-79 22q-183 53 -183 200q0 57 31.5 102t87.5 70t129 25q91 0 157 -39.5t97 -113.5l-95 -45q-41 97 -157 97q-61 0 -97.5 -24.5t-36.5 -64.5q0 -41 28.5 -63.5
t88.5 -39.5l79 -22q104 -29 154.5 -78.5t50.5 -124.5q0 -61 -32 -107t-91.5 -71.5t-139.5 -25.5q-97 0 -169 44zM134 911h114l20 -23q35 -38 41 -51h3q7 12 43 53l18 21h115l-129 -137h-97zM260.5 973q-20.5 19 -20.5 49q0 31 20.5 50t51.5 19t51 -19t20 -50q0 -30 -20 -49
t-51 -19t-51.5 19z" />
    <glyph glyph-name="Scedilla" unicode="&#x15e;" horiz-adv-x="619" 
d="M234 -84h56q13 0 20.5 6t7.5 16q0 15 -15 32l-18 20q-87 7 -150.5 50t-92.5 117l94 50q20 -53 67 -85t111 -32q68 0 108.5 25.5t40.5 68.5q0 39 -32.5 63t-108.5 45l-79 22q-183 53 -183 200q0 57 31.5 102t87.5 70t129 25q91 0 157 -39.5t97 -113.5l-95 -45
q-41 97 -157 97q-61 0 -97.5 -24.5t-36.5 -64.5q0 -41 28.5 -63.5t88.5 -39.5l79 -22q104 -29 154.5 -78.5t50.5 -124.5q0 -82 -57 -136t-157 -65l15 -14q38 -35 38 -76q0 -32 -25.5 -54.5t-70.5 -22.5h-86v91z" />
    <glyph glyph-name="Scircumflex" unicode="&#x15c;" horiz-adv-x="619" 
d="M145 33q-72 44 -103 124l94 50q20 -53 67 -85t111 -32q68 0 108.5 25.5t40.5 68.5q0 39 -32.5 63t-108.5 45l-79 22q-183 53 -183 200q0 57 31.5 102t87.5 70t129 25q91 0 157 -39.5t97 -113.5l-95 -45q-41 97 -157 97q-61 0 -97.5 -24.5t-36.5 -64.5q0 -41 28.5 -63.5
t88.5 -39.5l79 -22q104 -29 154.5 -78.5t50.5 -124.5q0 -61 -32 -107t-91.5 -71.5t-139.5 -25.5q-97 0 -169 44zM263 928h97l128 -138h-114l-20 23q-35 38 -41 51h-3q-3 -4 -33 -41q-14 -16 -28 -33h-115z" />
    <glyph glyph-name="uni0218" unicode="&#x218;" horiz-adv-x="619" 
d="M145 33q-72 44 -103 124l94 50q20 -53 67 -85t111 -32q68 0 108.5 25.5t40.5 68.5q0 39 -32.5 63t-108.5 45l-79 22q-183 53 -183 200q0 57 31.5 102t87.5 70t129 25q91 0 157 -39.5t97 -113.5l-95 -45q-41 97 -157 97q-61 0 -97.5 -24.5t-36.5 -64.5q0 -41 28.5 -63.5
t88.5 -39.5l79 -22q104 -29 154.5 -78.5t50.5 -124.5q0 -61 -32 -107t-91.5 -71.5t-139.5 -25.5q-97 0 -169 44zM250 -228l45 61q-22 4 -34.5 18t-12.5 33q0 24 18.5 39.5t48.5 15.5t49 -15.5t19 -40.5q0 -30 -25 -65l-53 -77z" />
    <glyph glyph-name="uni1E60" unicode="&#x1e60;" horiz-adv-x="619" 
d="M145 33q-72 44 -103 124l94 50q20 -53 67 -85t111 -32q68 0 108.5 25.5t40.5 68.5q0 39 -32.5 63t-108.5 45l-79 22q-183 53 -183 200q0 57 31.5 102t87.5 70t129 25q91 0 157 -39.5t97 -113.5l-95 -45q-41 97 -157 97q-61 0 -97.5 -24.5t-36.5 -64.5q0 -41 28.5 -63.5
t88.5 -39.5l79 -22q104 -29 154.5 -78.5t50.5 -124.5q0 -61 -32 -107t-91.5 -71.5t-139.5 -25.5q-97 0 -169 44zM260 817.5q-20 18.5 -20 49.5q0 30 20 49t51 19t51.5 -19t20.5 -49q0 -31 -20.5 -49.5t-51.5 -18.5t-51 18.5z" />
    <glyph glyph-name="uni1E62" unicode="&#x1e62;" horiz-adv-x="619" 
d="M145 33q-72 44 -103 124l94 50q20 -53 67 -85t111 -32q68 0 108.5 25.5t40.5 68.5q0 39 -32.5 63t-108.5 45l-79 22q-183 53 -183 200q0 57 31.5 102t87.5 70t129 25q91 0 157 -39.5t97 -113.5l-95 -45q-41 97 -157 97q-61 0 -97.5 -24.5t-36.5 -64.5q0 -41 28.5 -63.5
t88.5 -39.5l79 -22q104 -29 154.5 -78.5t50.5 -124.5q0 -61 -32 -107t-91.5 -71.5t-139.5 -25.5q-97 0 -169 44zM263.5 -177.5q-20.5 18.5 -20.5 48.5q0 31 20.5 50t51.5 19t51.5 -19t20.5 -50q0 -30 -20.5 -48.5t-51.5 -18.5t-51.5 18.5z" />
    <glyph glyph-name="uni1E68" unicode="&#x1e68;" horiz-adv-x="619" 
d="M145 33q-72 44 -103 124l94 50q20 -53 67 -85t111 -32q68 0 108.5 25.5t40.5 68.5q0 39 -32.5 63t-108.5 45l-79 22q-183 53 -183 200q0 57 31.5 102t87.5 70t129 25q91 0 157 -39.5t97 -113.5l-95 -45q-41 97 -157 97q-61 0 -97.5 -24.5t-36.5 -64.5q0 -41 28.5 -63.5
t88.5 -39.5l79 -22q104 -29 154.5 -78.5t50.5 -124.5q0 -61 -32 -107t-91.5 -71.5t-139.5 -25.5q-97 0 -169 44zM263.5 -177.5q-20.5 18.5 -20.5 48.5q0 31 20.5 50t51.5 19t51.5 -19t20.5 -50q0 -30 -20.5 -48.5t-51.5 -18.5t-51.5 18.5zM260 817.5q-20 18.5 -20 49.5
q0 30 20 49t51 19t51.5 -19t20.5 -49q0 -31 -20.5 -49.5t-51.5 -18.5t-51 18.5z" />
    <glyph glyph-name="uni1E9E" unicode="&#x1e9e;" horiz-adv-x="716" 
d="M107.5 589q31.5 57 94 89.5t150.5 32.5q99 0 167 -42t107 -113l-153 -162q90 -12 144.5 -63.5t54.5 -132.5q0 -98 -66.5 -153.5t-172.5 -55.5q-51 0 -88.5 11.5t-67.5 34.5l46 93q46 -38 106 -38q57 0 91.5 30t34.5 81q0 52 -39.5 81t-112.5 29h-65v72l150 165
q-20 29 -55.5 45.5t-84.5 16.5q-75 0 -117 -42.5t-42 -115.5v-452h-113v458q0 74 31.5 131z" />
    <glyph glyph-name="uniA7A8" unicode="&#xa7a8;" horiz-adv-x="619" 
d="M145 33q-72 44 -103 124l94 50q20 -53 67 -85t111 -32q68 0 108.5 25.5t40.5 68.5t-33 70t-108 48l-6 2l-94 -96l-65 64l60 60q-157 54 -157 187q0 56 31.5 99.5t87.5 68t129 24.5q91 0 157 -39.5t97 -113.5l-95 -45q-41 97 -157 97q-61 0 -97.5 -24.5t-36.5 -64.5
q0 -45 28.5 -71t87.5 -43l101 101l63 -63l-64 -65q93 -29 139 -76t46 -116q0 -59 -32 -104t-91.5 -70t-139.5 -25q-97 0 -169 44z" />
    <glyph glyph-name="T" unicode="T" horiz-adv-x="601" 
d="M570 598h-213v-598h-113v598h-213v102h539v-102z" />
    <glyph glyph-name="Tbar" unicode="&#x166;" horiz-adv-x="602" 
d="M474 281h-117v-281h-112v281h-118v93h118v224h-214v102h539v-102h-213v-224h117v-93z" />
    <glyph glyph-name="Tcaron" unicode="&#x164;" horiz-adv-x="601" 
d="M570 598h-213v-598h-113v598h-213v102h539v-102zM127 927h114l21 -25q36 -40 40 -49h3q5 10 42 51l19 23h115l-129 -137h-97z" />
    <glyph glyph-name="uni0162" unicode="&#x162;" horiz-adv-x="601" 
d="M570 598h-213v-598h-17l24 -22q38 -35 38 -76q0 -32 -25.5 -54.5t-70.5 -22.5h-86v91h56q13 0 20.5 6t7.5 16q0 15 -15 32l-27 30h-18v598h-213v102h539v-102z" />
    <glyph glyph-name="uni1E70" unicode="&#x1e70;" horiz-adv-x="601" 
d="M570 598h-213v-598h-113v598h-213v102h539v-102zM478 -211h-115l-21 25q-36 40 -40 49h-3q-5 -10 -42 -51l-19 -23h-114l129 137h96z" />
    <glyph glyph-name="uni021A" unicode="&#x21a;" horiz-adv-x="601" 
d="M570 598h-213v-598h-113v598h-213v102h539v-102zM236 -228l45 61q-22 4 -34.5 18t-12.5 33q0 24 18.5 39.5t48.5 15.5t49 -15.5t19 -40.5q0 -30 -25 -65l-53 -77z" />
    <glyph glyph-name="uni023E" unicode="&#x23e;" horiz-adv-x="606" 
d="M255 142q-9 -59 -23 -119l-43 -178h-92l152 529v224h-213v102h320l42 150h92l-43 -150h128v-102h-213v-598h-113v46q0 32 6 96z" />
    <glyph glyph-name="uni1E6A" unicode="&#x1e6a;" horiz-adv-x="601" 
d="M570 598h-213v-598h-113v598h-213v102h539v-102zM252 817.5q-20 18.5 -20 49.5q0 30 20 49t51 19t51.5 -19t20.5 -49q0 -31 -20.5 -49.5t-51.5 -18.5t-51 18.5z" />
    <glyph glyph-name="uni1E6C" unicode="&#x1e6c;" horiz-adv-x="601" 
d="M570 598h-213v-598h-113v598h-213v102h539v-102zM249.5 -177.5q-20.5 18.5 -20.5 48.5q0 31 20.5 50t51.5 19t51.5 -19t20.5 -50q0 -30 -20.5 -48.5t-51.5 -18.5t-51.5 18.5z" />
    <glyph glyph-name="uni01AC" unicode="&#x1ac;" horiz-adv-x="660" 
d="M629 598h-213v-598h-113v598h-76q-34 0 -56 -19.5t-22 -53.5q0 -32 31 -67l-86 -60q-59 68 -59 133q0 77 50.5 123t132.5 46h411v-102z" />
    <glyph glyph-name="uni1E6E" unicode="&#x1e6e;" horiz-adv-x="601" 
d="M570 598h-213v-598h-113v598h-213v102h539v-102zM144 -63h313v-89h-313v89z" />
    <glyph glyph-name="uni01AE" unicode="&#x1ae;" horiz-adv-x="601" 
d="M288.5 -141.5q-43.5 42.5 -44.5 121.5v618h-213v102h539v-102h-213v-614q0 -32 15 -48t39 -16q34 0 57 26l60 -77q-48 -53 -125 -53q-71 0 -114.5 42.5z" />
    <glyph glyph-name="U" unicode="U" horiz-adv-x="706" 
d="M208 22.5q-63 33.5 -98.5 99t-35.5 157.5v421h114v-415q0 -94 44.5 -142.5t120.5 -48.5t121 48.5t45 142.5v415h113v-421q0 -92 -35 -157.5t-98 -99t-146 -33.5q-82 0 -145 33.5z" />
    <glyph glyph-name="Uacute" unicode="&#xda;" horiz-adv-x="706" 
d="M208 22.5q-63 33.5 -98.5 99t-35.5 157.5v421h114v-415q0 -94 44.5 -142.5t120.5 -48.5t121 48.5t45 142.5v415h113v-421q0 -92 -35 -157.5t-98 -99t-146 -33.5q-82 0 -145 33.5zM275 790l106 137h120l-121 -137h-105z" />
    <glyph glyph-name="uni0244" unicode="&#x244;" horiz-adv-x="768" 
d="M238 22.5q-63 33.5 -98 99t-35 157.5v44h-72v92h72v285h114v-285h331v285h113v-285h72v-92h-72v-44q0 -92 -35 -157.5t-98 -99t-146 -33.5t-146 33.5zM263.5 142.5q44.5 -48.5 120.5 -48.5t121 48.5t45 142.5v38h-331v-38q0 -94 44.5 -142.5z" />
    <glyph glyph-name="Ubreve" unicode="&#x16c;" horiz-adv-x="706" 
d="M208 22.5q-63 33.5 -98.5 99t-35.5 157.5v421h114v-415q0 -94 44.5 -142.5t120.5 -48.5t121 48.5t45 142.5v415h113v-421q0 -92 -35 -157.5t-98 -99t-146 -33.5q-82 0 -145 33.5zM237 823.5q-45 37.5 -49 103.5h93q6 -64 72 -64q65 0 71 64h93q-4 -66 -49 -103.5
t-115 -37.5q-71 0 -116 37.5z" />
    <glyph glyph-name="uni01D3" unicode="&#x1d3;" horiz-adv-x="706" 
d="M208 22.5q-63 33.5 -98.5 99t-35.5 157.5v421h114v-415q0 -94 44.5 -142.5t120.5 -48.5t121 48.5t45 142.5v415h113v-421q0 -92 -35 -157.5t-98 -99t-146 -33.5q-82 0 -145 33.5zM177 927h114l21 -25q36 -40 40 -49h3q5 10 42 51l19 23h115l-129 -137h-97z" />
    <glyph glyph-name="Ucircumflex" unicode="&#xdb;" horiz-adv-x="706" 
d="M208 22.5q-63 33.5 -98.5 99t-35.5 157.5v421h114v-415q0 -94 44.5 -142.5t120.5 -48.5t121 48.5t45 142.5v415h113v-421q0 -92 -35 -157.5t-98 -99t-146 -33.5q-82 0 -145 33.5zM305 928h97l128 -138h-114l-20 23q-35 38 -41 51h-3q-3 -4 -33 -41q-14 -16 -28 -33h-115z
" />
    <glyph glyph-name="uni1E76" unicode="&#x1e76;" horiz-adv-x="706" 
d="M208 22.5q-63 33.5 -98.5 99t-35.5 157.5v421h114v-415q0 -94 44.5 -142.5t120.5 -48.5t121 48.5t45 142.5v415h113v-421q0 -92 -35 -157.5t-98 -99t-146 -33.5q-82 0 -145 33.5zM530 -211h-115l-21 25q-36 40 -40 49h-3q-5 -10 -42 -51l-19 -23h-114l129 137h96z" />
    <glyph glyph-name="uni0214" unicode="&#x214;" horiz-adv-x="706" 
d="M208 22.5q-63 33.5 -98.5 99t-35.5 157.5v421h114v-415q0 -94 44.5 -142.5t120.5 -48.5t121 48.5t45 142.5v415h113v-421q0 -92 -35 -157.5t-98 -99t-146 -33.5q-82 0 -145 33.5zM94 927h120l108 -137h-103zM296 927h114l104 -137h-102z" />
    <glyph glyph-name="Udieresis" unicode="&#xdc;" horiz-adv-x="706" 
d="M208 22.5q-63 33.5 -98.5 99t-35.5 157.5v421h114v-415q0 -94 44.5 -142.5t120.5 -48.5t121 48.5t45 142.5v415h113v-421q0 -92 -35 -157.5t-98 -99t-146 -33.5q-82 0 -145 33.5zM195 815q-19 18 -19 48q0 29 19 47t47 18q29 0 48 -18t19 -47q0 -30 -19 -48t-48 -18
q-28 0 -47 18zM416 815q-19 18 -19 48q0 29 19 47t48 18q28 0 47 -18t19 -47q0 -30 -19 -48t-47 -18q-29 0 -48 18z" />
    <glyph glyph-name="uni01D7" unicode="&#x1d7;" horiz-adv-x="706" 
d="M208 22.5q-63 33.5 -98.5 99t-35.5 157.5v421h114v-415q0 -94 44.5 -142.5t120.5 -48.5t121 48.5t45 142.5v415h113v-421q0 -92 -35 -157.5t-98 -99t-146 -33.5q-82 0 -145 33.5zM380 1092h121l-102 -137h-105zM195 795q-19 18 -19 48q0 29 19 47t48 18q28 0 47 -18
t19 -47q0 -30 -19 -48t-47 -18q-29 0 -48 18zM417 795q-19 18 -19 48q0 29 19 47t47 18t47 -18t19 -47q0 -30 -19 -48t-47 -18t-47 18z" />
    <glyph glyph-name="uni1E72" unicode="&#x1e72;" horiz-adv-x="706" 
d="M208 22.5q-63 33.5 -98.5 99t-35.5 157.5v421h114v-415q0 -94 44.5 -142.5t120.5 -48.5t121 48.5t45 142.5v415h113v-421q0 -92 -35 -157.5t-98 -99t-146 -33.5q-82 0 -145 33.5zM195 -175q-19 18 -19 48q0 29 19 47t47 18q29 0 48 -18t19 -47q0 -30 -19 -48t-48 -18
q-28 0 -47 18zM416 -175q-19 18 -19 48q0 29 19 47t48 18q28 0 47 -18t19 -47q0 -30 -19 -48t-47 -18q-29 0 -48 18z" />
    <glyph glyph-name="uni01D9" unicode="&#x1d9;" horiz-adv-x="706" 
d="M208 22.5q-63 33.5 -98.5 99t-35.5 157.5v421h114v-415q0 -94 44.5 -142.5t120.5 -48.5t121 48.5t45 142.5v415h113v-421q0 -92 -35 -157.5t-98 -99t-146 -33.5q-82 0 -145 33.5zM177 1092h114l20 -23q35 -38 41 -51h4q7 12 43 53l18 21h114l-129 -137h-97zM195 795
q-19 18 -19 48q0 29 19 47t48 18q28 0 47 -18t19 -47q0 -30 -19 -48t-47 -18q-29 0 -48 18zM417 795q-19 18 -19 48q0 29 19 47t47 18t47 -18t19 -47q0 -30 -19 -48t-47 -18t-47 18z" />
    <glyph glyph-name="uni01DB" unicode="&#x1db;" horiz-adv-x="706" 
d="M208 22.5q-63 33.5 -98.5 99t-35.5 157.5v421h114v-415q0 -94 44.5 -142.5t120.5 -48.5t121 48.5t45 142.5v415h113v-421q0 -92 -35 -157.5t-98 -99t-146 -33.5q-82 0 -145 33.5zM215 1092h121l86 -137h-105zM195 795q-19 18 -19 48q0 29 19 47t47 18q29 0 48 -18t19 -47
q0 -30 -19 -48t-48 -18q-28 0 -47 18zM416 795q-19 18 -19 48q0 29 19 47t48 18q28 0 47 -18t19 -47q0 -30 -19 -48t-47 -18q-29 0 -48 18z" />
    <glyph glyph-name="uni01D5" unicode="&#x1d5;" horiz-adv-x="706" 
d="M208 22.5q-63 33.5 -98.5 99t-35.5 157.5v421h114v-415q0 -94 44.5 -142.5t120.5 -48.5t121 48.5t45 142.5v415h113v-421q0 -92 -35 -157.5t-98 -99t-146 -33.5q-82 0 -145 33.5zM194 795q-19 18 -19 48q0 29 19 47t48 18q28 0 47 -18t19 -47q0 -30 -19 -48t-47 -18
q-29 0 -48 18zM416 795q-19 18 -19 48q0 29 19 47t47 18q29 0 48 -18t19 -47q0 -30 -19 -48t-48 -18q-28 0 -47 18zM192 1048h322v-87h-322v87z" />
    <glyph glyph-name="uni1EE4" unicode="&#x1ee4;" horiz-adv-x="706" 
d="M208 22.5q-63 33.5 -98.5 99t-35.5 157.5v421h114v-415q0 -94 44.5 -142.5t120.5 -48.5t121 48.5t45 142.5v415h113v-421q0 -92 -35 -157.5t-98 -99t-146 -33.5q-82 0 -145 33.5zM301.5 -177.5q-20.5 18.5 -20.5 48.5q0 31 20.5 50t51.5 19t51.5 -19t20.5 -50
q0 -30 -20.5 -48.5t-51.5 -18.5t-51.5 18.5z" />
    <glyph glyph-name="Ugrave" unicode="&#xd9;" horiz-adv-x="706" 
d="M208 22.5q-63 33.5 -98.5 99t-35.5 157.5v421h114v-415q0 -94 44.5 -142.5t120.5 -48.5t121 48.5t45 142.5v415h113v-421q0 -92 -35 -157.5t-98 -99t-146 -33.5q-82 0 -145 33.5zM205 928h120l106 -138h-105z" />
    <glyph glyph-name="uni1EE6" unicode="&#x1ee6;" horiz-adv-x="706" 
d="M208 22.5q-63 33.5 -98.5 99t-35.5 157.5v421h114v-415q0 -94 44.5 -142.5t120.5 -48.5t121 48.5t45 142.5v415h113v-421q0 -92 -35 -157.5t-98 -99t-146 -33.5q-82 0 -145 33.5zM358.5 802.5q8.5 15.5 8.5 27.5q0 11 -7 17.5t-20 6.5q-22 0 -40 -22l-56 49q35 52 104 52
q46 0 76 -25t30 -60q0 -40 -38 -85h-85q19 24 27.5 39.5z" />
    <glyph glyph-name="Uhorn" unicode="&#x1af;" horiz-adv-x="780" 
d="M208 22.5q-63 33.5 -98.5 99t-35.5 157.5v421h114v-415q0 -94 44.5 -142.5t120.5 -48.5t121 48.5t45 142.5v415h80q58 0 58 63v26h109v-39q0 -66 -36 -103.5t-98 -41.5v-326q0 -92 -35 -157.5t-98 -99t-146 -33.5q-82 0 -145 33.5z" />
    <glyph glyph-name="uni1EE8" unicode="&#x1ee8;" horiz-adv-x="780" 
d="M208 22.5q-63 33.5 -98.5 99t-35.5 157.5v421h114v-415q0 -94 44.5 -142.5t120.5 -48.5t121 48.5t45 142.5v415h80q58 0 58 63v26h109v-39q0 -66 -36 -103.5t-98 -41.5v-326q0 -92 -35 -157.5t-98 -99t-146 -33.5q-82 0 -145 33.5zM275 790l106 137h120l-121 -137h-105z
" />
    <glyph glyph-name="uni1EF0" unicode="&#x1ef0;" horiz-adv-x="780" 
d="M208 22.5q-63 33.5 -98.5 99t-35.5 157.5v421h114v-415q0 -94 44.5 -142.5t120.5 -48.5t121 48.5t45 142.5v415h80q58 0 58 63v26h109v-39q0 -66 -36 -103.5t-98 -41.5v-326q0 -92 -35 -157.5t-98 -99t-146 -33.5q-82 0 -145 33.5zM301.5 -177.5q-20.5 18.5 -20.5 48.5
q0 31 20.5 50t51.5 19t51.5 -19t20.5 -50q0 -30 -20.5 -48.5t-51.5 -18.5t-51.5 18.5z" />
    <glyph glyph-name="uni1EEA" unicode="&#x1eea;" horiz-adv-x="780" 
d="M208 22.5q-63 33.5 -98.5 99t-35.5 157.5v421h114v-415q0 -94 44.5 -142.5t120.5 -48.5t121 48.5t45 142.5v415h80q58 0 58 63v26h109v-39q0 -66 -36 -103.5t-98 -41.5v-326q0 -92 -35 -157.5t-98 -99t-146 -33.5q-82 0 -145 33.5zM205 928h120l106 -138h-105z" />
    <glyph glyph-name="uni1EEC" unicode="&#x1eec;" horiz-adv-x="780" 
d="M208 22.5q-63 33.5 -98.5 99t-35.5 157.5v421h114v-415q0 -94 44.5 -142.5t120.5 -48.5t121 48.5t45 142.5v415h80q58 0 58 63v26h109v-39q0 -66 -36 -103.5t-98 -41.5v-326q0 -92 -35 -157.5t-98 -99t-146 -33.5q-82 0 -145 33.5zM358.5 802.5q8.5 15.5 8.5 27.5
q0 11 -7 17.5t-20 6.5q-22 0 -40 -22l-56 49q35 52 104 52q46 0 76 -25t30 -60q0 -40 -38 -85h-85q19 24 27.5 39.5z" />
    <glyph glyph-name="uni1EEE" unicode="&#x1eee;" horiz-adv-x="780" 
d="M208 22.5q-63 33.5 -98.5 99t-35.5 157.5v421h114v-415q0 -94 44.5 -142.5t120.5 -48.5t121 48.5t45 142.5v415h80q58 0 58 63v26h109v-39q0 -66 -36 -103.5t-98 -41.5v-326q0 -92 -35 -157.5t-98 -99t-146 -33.5q-82 0 -145 33.5zM377.5 799.5q-19.5 8.5 -40.5 23.5
q-13 9 -21.5 13.5t-17.5 4.5q-12 0 -20 -11.5t-8 -33.5h-87q0 60 32.5 95t76.5 35q27 0 46.5 -9t39.5 -24q13 -9 21.5 -13.5t17.5 -4.5q13 0 20.5 11.5t7.5 34.5h87q0 -60 -32.5 -95t-76.5 -35q-26 0 -45.5 8.5z" />
    <glyph glyph-name="Uhungarumlaut" unicode="&#x170;" horiz-adv-x="706" 
d="M208 22.5q-63 33.5 -98.5 99t-35.5 157.5v421h114v-415q0 -94 44.5 -142.5t120.5 -48.5t121 48.5t45 142.5v415h113v-421q0 -92 -35 -157.5t-98 -99t-146 -33.5q-82 0 -145 33.5zM192 790l104 138h114l-116 -138h-102zM384 790l109 138h119l-125 -138h-103z" />
    <glyph glyph-name="uni0216" unicode="&#x216;" horiz-adv-x="706" 
d="M208 22.5q-63 33.5 -98.5 99t-35.5 157.5v421h114v-415q0 -94 44.5 -142.5t120.5 -48.5t121 48.5t45 142.5v415h113v-421q0 -92 -35 -157.5t-98 -99t-146 -33.5q-82 0 -145 33.5zM464 895q44 -38 48 -103h-93q-3 31 -20.5 47t-45.5 16q-29 0 -46.5 -16t-20.5 -47h-93
q4 67 48 104t112 37q67 0 111 -38z" />
    <glyph glyph-name="Umacron" unicode="&#x16a;" horiz-adv-x="706" 
d="M208 22.5q-63 33.5 -98.5 99t-35.5 157.5v421h114v-415q0 -94 44.5 -142.5t120.5 -48.5t121 48.5t45 142.5v415h113v-421q0 -92 -35 -157.5t-98 -99t-146 -33.5q-82 0 -145 33.5zM192 903h322v-86h-322v86z" />
    <glyph glyph-name="uni1E7A" unicode="&#x1e7a;" horiz-adv-x="706" 
d="M208 22.5q-63 33.5 -98.5 99t-35.5 157.5v421h114v-415q0 -94 44.5 -142.5t120.5 -48.5t121 48.5t45 142.5v415h113v-421q0 -92 -35 -157.5t-98 -99t-146 -33.5q-82 0 -145 33.5zM192 869h322v-87h-322v87zM194.5 943.5q-18.5 17.5 -18.5 47.5t18.5 47.5t47.5 17.5
t48 -17.5t19 -47.5t-19 -47.5t-48 -17.5t-47.5 17.5zM416 943.5q-19 17.5 -19 47.5t19 47.5t48 17.5t47.5 -17.5t18.5 -47.5t-18.5 -47.5t-47.5 -17.5t-48 17.5z" />
    <glyph glyph-name="Uogonek" unicode="&#x172;" horiz-adv-x="706" 
d="M323.5 -153q-25.5 22 -25.5 55q0 41 38 76l12 11q-81 1 -143 35t-96.5 99t-34.5 156v421h114v-415q0 -94 44.5 -142.5t120.5 -48.5t121 48.5t45 142.5v415h113v-421q0 -113 -52 -185t-143 -95l-26 -29q-15 -17 -15 -32q0 -10 7.5 -16t20.5 -6h32v-91h-62q-45 0 -70.5 22z
" />
    <glyph glyph-name="uni01B1" unicode="&#x1b1;" horiz-adv-x="744" 
d="M55 700h240v-89q-50 -53 -81 -123t-31 -155q0 -73 24.5 -127t67 -83t97.5 -29t98 28.5t67 82.5t24 128q0 84 -31 155t-81 123v89h241v-102h-117q50 -52 78.5 -125.5t28.5 -155.5q0 -96 -39 -170.5t-109 -116t-160 -41.5q-89 0 -159 41.5t-109 116t-39 170.5
q0 82 28 155.5t78 125.5h-116v102z" />
    <glyph glyph-name="Uring" unicode="&#x16e;" horiz-adv-x="706" 
d="M208 22.5q-63 33.5 -98.5 99t-35.5 157.5v421h114v-415q0 -94 44.5 -142.5t120.5 -48.5t121 48.5t45 142.5v415h113v-421q0 -92 -35 -157.5t-98 -99t-146 -33.5q-82 0 -145 33.5zM260.5 800.5q-35.5 30.5 -35.5 77.5q0 46 36 76.5t93 30.5t93 -30.5t36 -76.5
q0 -47 -36 -77.5t-93 -30.5q-58 0 -93.5 30.5zM395.5 846q14.5 12 14.5 32t-14.5 32t-41.5 12t-41.5 -12t-14.5 -32t14.5 -32t41.5 -12t41.5 12z" />
    <glyph glyph-name="Utilde" unicode="&#x168;" horiz-adv-x="706" 
d="M208 22.5q-63 33.5 -98.5 99t-35.5 157.5v421h114v-415q0 -94 44.5 -142.5t120.5 -48.5t121 48.5t45 142.5v415h113v-421q0 -92 -35 -157.5t-98 -99t-146 -33.5q-82 0 -145 33.5zM377.5 799.5q-19.5 8.5 -40.5 23.5q-13 9 -21.5 13.5t-17.5 4.5q-12 0 -20 -11.5t-8 -33.5
h-87q0 60 32.5 95t76.5 35q27 0 46.5 -9t39.5 -24q13 -9 21.5 -13.5t17.5 -4.5q13 0 20.5 11.5t7.5 34.5h87q0 -60 -32.5 -95t-76.5 -35q-26 0 -45.5 8.5z" />
    <glyph glyph-name="uni1E78" unicode="&#x1e78;" horiz-adv-x="706" 
d="M208 22.5q-63 33.5 -98.5 99t-35.5 157.5v421h114v-415q0 -94 44.5 -142.5t120.5 -48.5t121 48.5t45 142.5v415h113v-421q0 -92 -35 -157.5t-98 -99t-146 -33.5q-82 0 -145 33.5zM377 781q-19 9 -40 24q-13 9 -21.5 13.5t-16.5 4.5q-13 0 -20.5 -12t-7.5 -34h-88
q0 60 32.5 95t77.5 35q26 0 45 -8.5t41 -24.5q13 -10 21 -14t17 -4q13 0 20.5 11.5t7.5 34.5h87q0 -60 -32 -95t-77 -35q-27 0 -46 9zM281 953l106 137h121l-122 -137h-105z" />
    <glyph glyph-name="uni1E74" unicode="&#x1e74;" horiz-adv-x="706" 
d="M208 22.5q-63 33.5 -98.5 99t-35.5 157.5v421h114v-415q0 -94 44.5 -142.5t120.5 -48.5t121 48.5t45 142.5v415h113v-421q0 -92 -35 -157.5t-98 -99t-146 -33.5q-82 0 -145 33.5zM371.5 -188q-19.5 9 -39.5 24q-13 9 -21.5 13.5t-17.5 4.5q-13 0 -20.5 -12t-7.5 -34h-87
q0 60 32.5 95t76.5 35q27 0 46.5 -9t39.5 -24q13 -9 21.5 -13.5t17.5 -4.5q13 0 20.5 12t7.5 34h87q0 -60 -32.5 -95t-76.5 -35q-27 0 -46.5 9z" />
    <glyph glyph-name="V" unicode="V" horiz-adv-x="672" 
d="M22 700h121l167 -468q26 -72 26 -93h4q0 10 7 36.5t18 56.5l167 468h118l-258 -700h-110z" />
    <glyph glyph-name="uni0194" unicode="&#x194;" horiz-adv-x="652" 
d="M253 250l-236 450h123l143 -276q38 -74 39 -93h4q0 21 39 93l150 276h121l-243 -449l149 -251h-442zM305 85h34q40 0 53 -6l1 3q-11 8 -32 43q-37 60 -37 78h-4q0 -9 -10.5 -31t-25.5 -47q-22 -35 -33 -43l1 -3q14 6 53 6z" />
    <glyph glyph-name="uni1E7E" unicode="&#x1e7e;" horiz-adv-x="672" 
d="M22 700h121l167 -468q26 -72 26 -93h4q0 10 7 36.5t18 56.5l167 468h118l-258 -700h-110zM284.5 -177.5q-20.5 18.5 -20.5 48.5q0 31 20.5 50t51.5 19t51.5 -19t20.5 -50q0 -30 -20.5 -48.5t-51.5 -18.5t-51.5 18.5z" />
    <glyph glyph-name="uni01B2" unicode="&#x1b2;" horiz-adv-x="697" 
d="M527.5 682q49.5 -27 83.5 -89.5t34 -162.5q0 -131 -44.5 -231t-119 -155t-161.5 -55q-67 0 -123 28.5t-89 85.5t-33 137v460h114v-455q0 -74 37 -112.5t95 -38.5q57 0 103.5 41.5t74 118t27.5 175.5q0 63 -18 102.5t-45 56.5t-56 17q-33 0 -68 -16v104q36 16 90 16
q49 0 98.5 -27z" />
    <glyph glyph-name="uni1E7C" unicode="&#x1e7c;" horiz-adv-x="672" 
d="M22 700h121l167 -468q26 -72 26 -93h4q0 10 7 36.5t18 56.5l167 468h118l-258 -700h-110zM359.5 799q-19.5 9 -39.5 24q-13 9 -21.5 13.5t-17.5 4.5q-13 0 -20.5 -12t-7.5 -34h-87q0 40 15.5 70t40.5 45.5t53 15.5q27 0 46.5 -9t39.5 -24q13 -9 21.5 -13.5t17.5 -4.5
q13 0 20.5 11.5t7.5 34.5h87q0 -40 -15.5 -70t-40.5 -45.5t-53 -15.5q-27 0 -46.5 9z" />
    <glyph glyph-name="uni0245" unicode="&#x245;" horiz-adv-x="688" 
d="M289 700h110l270 -700h-121l-177 483q-26 71 -26 92h-4q0 -21 -26 -92l-177 -483h-118z" />
    <glyph glyph-name="W" unicode="W" horiz-adv-x="989" 
d="M696 212.5q8 -33.5 9 -47.5h4q0 25 23 115l118 420h113l-202 -700h-104l-134 420q-26 81 -26 109h-4q-2 -32 -26 -109l-135 -420h-105l-202 700h117l116 -421q24 -90 24 -115h3q2 29 28 115l132 421h100l133 -420q10 -34 18 -67.5z" />
    <glyph glyph-name="Wacute" unicode="&#x1e82;" horiz-adv-x="989" 
d="M696 212.5q8 -33.5 9 -47.5h4q0 25 23 115l118 420h113l-202 -700h-104l-134 420q-26 81 -26 109h-4q-2 -32 -26 -109l-135 -420h-105l-202 700h117l116 -421q24 -90 24 -115h3q2 29 28 115l132 421h100l133 -420q10 -34 18 -67.5zM417 790l106 137h120l-121 -137h-105z
" />
    <glyph glyph-name="Wcircumflex" unicode="&#x174;" horiz-adv-x="989" 
d="M696 212.5q8 -33.5 9 -47.5h4q0 25 23 115l118 420h113l-202 -700h-104l-134 420q-26 81 -26 109h-4q-2 -32 -26 -109l-135 -420h-105l-202 700h117l116 -421q24 -90 24 -115h3q2 29 28 115l132 421h100l133 -420q10 -34 18 -67.5zM447 928h97l128 -138h-114l-20 23
q-35 38 -41 51h-3q-3 -4 -33 -41q-14 -16 -28 -33h-115z" />
    <glyph glyph-name="Wdieresis" unicode="&#x1e84;" horiz-adv-x="989" 
d="M696 212.5q8 -33.5 9 -47.5h4q0 25 23 115l118 420h113l-202 -700h-104l-134 420q-26 81 -26 109h-4q-2 -32 -26 -109l-135 -420h-105l-202 700h117l116 -421q24 -90 24 -115h3q2 29 28 115l132 421h100l133 -420q10 -34 18 -67.5zM337 815q-19 18 -19 48q0 29 19 47
t47 18q29 0 48 -18t19 -47q0 -30 -19 -48t-48 -18q-28 0 -47 18zM558 815q-19 18 -19 48q0 29 19 47t48 18q28 0 47 -18t19 -47q0 -30 -19 -48t-47 -18q-29 0 -48 18z" />
    <glyph glyph-name="uni1E86" unicode="&#x1e86;" horiz-adv-x="989" 
d="M696 212.5q8 -33.5 9 -47.5h4q0 25 23 115l118 420h113l-202 -700h-104l-134 420q-26 81 -26 109h-4q-2 -32 -26 -109l-135 -420h-105l-202 700h117l116 -421q24 -90 24 -115h3q2 29 28 115l132 421h100l133 -420q10 -34 18 -67.5zM444 817.5q-20 18.5 -20 49.5
q0 30 20 49t51 19t51.5 -19t20.5 -49q0 -31 -20.5 -49.5t-51.5 -18.5t-51 18.5z" />
    <glyph glyph-name="uni1E88" unicode="&#x1e88;" horiz-adv-x="989" 
d="M696 212.5q8 -33.5 9 -47.5h4q0 25 23 115l118 420h113l-202 -700h-104l-134 420q-26 81 -26 109h-4q-2 -32 -26 -109l-135 -420h-105l-202 700h117l116 -421q24 -90 24 -115h3q2 29 28 115l132 421h100l133 -420q10 -34 18 -67.5zM443.5 -177.5q-20.5 18.5 -20.5 48.5
q0 31 20.5 50t51.5 19t51.5 -19t20.5 -50q0 -30 -20.5 -48.5t-51.5 -18.5t-51.5 18.5z" />
    <glyph glyph-name="Wgrave" unicode="&#x1e80;" horiz-adv-x="989" 
d="M696 212.5q8 -33.5 9 -47.5h4q0 25 23 115l118 420h113l-202 -700h-104l-134 420q-26 81 -26 109h-4q-2 -32 -26 -109l-135 -420h-105l-202 700h117l116 -421q24 -90 24 -115h3q2 29 28 115l132 421h100l133 -420q10 -34 18 -67.5zM347 928h120l106 -138h-105z" />
    <glyph glyph-name="uni2C72" unicode="&#x2c72;" horiz-adv-x="1075" 
d="M25 700h117l113 -421q10 -37 16 -69.5t6 -45.5h4q1 14 8 47t18 68l129 421h100l129 -420q11 -37 18 -69t8 -46h4q0 13 6 46t16 69l86 315q30 116 131 116q66 0 108 -39l-50 -80q-19 17 -40 17q-34 0 -47 -48l-157 -561h-105l-131 420q-10 33 -17 64.5t-7 44.5h-4
q-1 -15 -7.5 -45.5t-17.5 -63.5l-131 -420h-105z" />
    <glyph glyph-name="X" unicode="X" horiz-adv-x="658" 
d="M263 355l-243 345h131l124 -172q51 -74 54 -91h4q4 21 53 91l124 172h129l-243 -345l250 -355h-131l-130 180q-19 27 -36 54t-20 38h-4q-4 -19 -53 -92l-130 -180h-130z" />
    <glyph glyph-name="uni1E8C" unicode="&#x1e8c;" horiz-adv-x="658" 
d="M263 355l-243 345h131l124 -172q51 -74 54 -91h4q4 21 53 91l124 172h129l-243 -345l250 -355h-131l-130 180q-19 27 -36 54t-20 38h-4q-4 -19 -53 -92l-130 -180h-130zM171.5 815.5q-18.5 17.5 -18.5 47.5t18.5 47.5t47.5 17.5t48 -17.5t19 -47.5t-19 -47.5t-48 -17.5
t-47.5 17.5zM393 815.5q-19 17.5 -19 47.5t19 47.5t48 17.5t47.5 -17.5t18.5 -47.5t-18.5 -47.5t-47.5 -17.5t-48 17.5z" />
    <glyph glyph-name="uni1E8A" unicode="&#x1e8a;" horiz-adv-x="658" 
d="M263 355l-243 345h131l124 -172q51 -74 54 -91h4q4 21 53 91l124 172h129l-243 -345l250 -355h-131l-130 180q-19 27 -36 54t-20 38h-4q-4 -19 -53 -92l-130 -180h-130zM279 817.5q-20 18.5 -20 49.5q0 30 20 49t51 19t51.5 -19t20.5 -49q0 -31 -20.5 -49.5t-51.5 -18.5
t-51 18.5z" />
    <glyph glyph-name="Y" unicode="Y" horiz-adv-x="657" 
d="M272 329l-266 371h132l134 -182q27 -37 55 -84h4q22 37 55 84l134 182h128l-263 -371v-329h-113v329z" />
    <glyph glyph-name="Yacute" unicode="&#xdd;" horiz-adv-x="657" 
d="M272 329l-266 371h132l134 -182q27 -37 55 -84h4q22 37 55 84l134 182h128l-263 -371v-329h-113v329zM251 790l106 137h120l-121 -137h-105z" />
    <glyph glyph-name="Ycircumflex" unicode="&#x176;" horiz-adv-x="657" 
d="M272 329l-266 371h132l134 -182q27 -37 55 -84h4q22 37 55 84l134 182h128l-263 -371v-329h-113v329zM281 928h97l128 -138h-114l-20 23q-35 38 -41 51h-3q-3 -4 -33 -41q-14 -16 -28 -33h-115z" />
    <glyph glyph-name="Ydieresis" unicode="&#x178;" horiz-adv-x="657" 
d="M272 329l-266 371h132l134 -182q27 -37 55 -84h4q22 37 55 84l134 182h128l-263 -371v-329h-113v329zM171 815q-19 18 -19 48q0 29 19 47t47 18q29 0 48 -18t19 -47q0 -30 -19 -48t-48 -18q-28 0 -47 18zM392 815q-19 18 -19 48q0 29 19 47t48 18q28 0 47 -18t19 -47
q0 -30 -19 -48t-47 -18q-29 0 -48 18z" />
    <glyph glyph-name="uni1E8E" unicode="&#x1e8e;" horiz-adv-x="657" 
d="M272 329l-266 371h132l134 -182q27 -37 55 -84h4q22 37 55 84l134 182h128l-263 -371v-329h-113v329zM278 817.5q-20 18.5 -20 49.5q0 30 20 49t51 19t51.5 -19t20.5 -49q0 -31 -20.5 -49.5t-51.5 -18.5t-51 18.5z" />
    <glyph glyph-name="uni1EF4" unicode="&#x1ef4;" horiz-adv-x="657" 
d="M272 329l-266 371h132l134 -182q27 -37 55 -84h4q22 37 55 84l134 182h128l-263 -371v-329h-113v329zM277.5 -177.5q-20.5 18.5 -20.5 48.5q0 31 20.5 50t51.5 19t51.5 -19t20.5 -50q0 -30 -20.5 -48.5t-51.5 -18.5t-51.5 18.5z" />
    <glyph glyph-name="Ygrave" unicode="&#x1ef2;" horiz-adv-x="657" 
d="M272 329l-266 371h132l134 -182q27 -37 55 -84h4q22 37 55 84l134 182h128l-263 -371v-329h-113v329zM181 928h120l106 -138h-105z" />
    <glyph glyph-name="uni01B3" unicode="&#x1b3;" horiz-adv-x="712" 
d="M289 328l-266 372h132l190 -261l117 188q24 41 54.5 62.5t72.5 21.5q64 0 106 -39l-51 -80q-19 16 -43 16q-16 0 -27 -9.5t-24 -29.5l-148 -237v-332h-113v328z" />
    <glyph glyph-name="uni1EF6" unicode="&#x1ef6;" horiz-adv-x="657" 
d="M272 329l-266 371h132l134 -182q27 -37 55 -84h4q22 37 55 84l134 182h128l-263 -371v-329h-113v329zM334.5 802.5q8.5 15.5 8.5 27.5q0 11 -7 17.5t-20 6.5q-22 0 -40 -22l-56 49q35 52 104 52q46 0 76 -25t30 -60q0 -40 -38 -85h-85q19 24 27.5 39.5z" />
    <glyph glyph-name="uni0232" unicode="&#x232;" horiz-adv-x="657" 
d="M272 329l-266 371h132l134 -182q27 -37 55 -84h4q22 37 55 84l134 182h128l-263 -371v-329h-113v329zM168 903h322v-86h-322v86z" />
    <glyph glyph-name="uni01A6" unicode="&#x1a6;" horiz-adv-x="662" 
d="M81 700h113v-79h154q114 0 180 -59t66 -162q0 -66 -32 -115.5t-88 -75.5l157 -209h-136l-131 184h-15h-155v-184h-113v700zM341 281q65 0 100 30.5t35 88.5q0 59 -35 89t-100 30h-147v-238h147z" />
    <glyph glyph-name="uni024E" unicode="&#x24e;" horiz-adv-x="764" 
d="M326 329l-123 172h-157v92h27q60 0 76 -7l1 4q-18 11 -52 57l-38 53h132l79 -107h225l78 107h128l-38 -53q-35 -47 -52 -57l1 -4q16 7 76 7h26v-92h-154l-122 -172v-329h-113v329zM467 512l-1 4q-15 -5 -71 -5h-23q-56 0 -71 5l-1 -4q11 -7 46 -53l37 -50l37 50
q34 45 47 53z" />
    <glyph glyph-name="uni1EF8" unicode="&#x1ef8;" horiz-adv-x="657" 
d="M272 329l-266 371h132l134 -182q27 -37 55 -84h4q22 37 55 84l134 182h128l-263 -371v-329h-113v329zM353.5 799.5q-19.5 8.5 -40.5 23.5q-13 9 -21.5 13.5t-17.5 4.5q-12 0 -20 -11.5t-8 -33.5h-87q0 60 32.5 95t76.5 35q27 0 46.5 -9t39.5 -24q13 -9 21.5 -13.5
t17.5 -4.5q13 0 20.5 11.5t7.5 34.5h87q0 -60 -32.5 -95t-76.5 -35q-26 0 -45.5 8.5z" />
    <glyph glyph-name="Z" unicode="Z" horiz-adv-x="591" 
d="M42 88l322 458q32 46 49 57l-1 3q-19 -8 -76 -8h-286v102h495v-88l-322 -458q-14 -20 -28 -36t-22 -21l1 -3q19 8 76 8h297v-102h-505v88z" />
    <glyph glyph-name="Zacute" unicode="&#x179;" horiz-adv-x="591" 
d="M42 88l322 458q32 46 49 57l-1 3q-19 -8 -76 -8h-286v102h495v-88l-322 -458q-14 -20 -28 -36t-22 -21l1 -3q19 8 76 8h297v-102h-505v88zM218 790l106 137h120l-121 -137h-105z" />
    <glyph glyph-name="Zcaron" unicode="&#x17d;" horiz-adv-x="591" 
d="M42 88l322 458q32 46 49 57l-1 3q-19 -8 -76 -8h-286v102h495v-88l-322 -458q-14 -20 -28 -36t-22 -21l1 -3q19 8 76 8h297v-102h-505v88zM120 927h114l21 -25q36 -40 40 -49h3q5 10 42 51l19 23h115l-129 -137h-97z" />
    <glyph glyph-name="uni1E90" unicode="&#x1e90;" horiz-adv-x="591" 
d="M42 88l322 458q32 46 49 57l-1 3q-19 -8 -76 -8h-286v102h495v-88l-322 -458q-14 -20 -28 -36t-22 -21l1 -3q19 8 76 8h297v-102h-505v88zM248 928h97l128 -138h-114l-20 23q-35 38 -41 51h-3q-3 -4 -33 -41q-14 -16 -28 -33h-115z" />
    <glyph glyph-name="Zdotaccent" unicode="&#x17b;" horiz-adv-x="591" 
d="M42 88l322 458q32 46 49 57l-1 3q-19 -8 -76 -8h-286v102h495v-88l-322 -458q-14 -20 -28 -36t-22 -21l1 -3q19 8 76 8h297v-102h-505v88zM245 817.5q-20 18.5 -20 49.5q0 30 20 49t51 19t51.5 -19t20.5 -49q0 -31 -20.5 -49.5t-51.5 -18.5t-51 18.5z" />
    <glyph glyph-name="uni1E92" unicode="&#x1e92;" horiz-adv-x="591" 
d="M42 88l322 458q32 46 49 57l-1 3q-19 -8 -76 -8h-286v102h495v-88l-322 -458q-14 -20 -28 -36t-22 -21l1 -3q19 8 76 8h297v-102h-505v88zM243.5 -177.5q-20.5 18.5 -20.5 48.5q0 31 20.5 50t51.5 19t51.5 -19t20.5 -50q0 -30 -20.5 -48.5t-51.5 -18.5t-51.5 18.5z" />
    <glyph glyph-name="uni1E94" unicode="&#x1e94;" horiz-adv-x="591" 
d="M42 88l322 458q32 46 49 57l-1 3q-19 -8 -76 -8h-286v102h495v-88l-322 -458q-14 -20 -28 -36t-22 -21l1 -3q19 8 76 8h297v-102h-505v88zM133 -77h323v-86h-323v86z" />
    <glyph glyph-name="uni01B5" unicode="&#x1b5;" horiz-adv-x="598" 
d="M97 399h167l103 147q32 46 49 57l-1 3q-19 -8 -76 -8h-286v102h495v-88l-150 -213h101v-92h-165l-108 -153q-14 -20 -28 -36t-22 -21l1 -3q19 8 76 8h297v-102h-505v88l154 219h-102v92z" />
    <glyph glyph-name="uniA78B" unicode="&#xa78b;" horiz-adv-x="250" 
d="M178 700v-190l-13 -251h-80l-13 251v190h106z" />
    <glyph glyph-name="uniA7B8" unicode="&#xa7b8;" horiz-adv-x="706" 
d="M277 -3l-32 -115h-92l42 148q-58 36 -89.5 99t-31.5 150v421h114v-415q0 -87 40 -137l188 665h91l-201 -714q23 -5 47 -5q76 0 121 48.5t45 142.5v415h113v-421q0 -92 -35 -157.5t-98 -99t-146 -33.5q-39 0 -76 8z" />
    <glyph glyph-name="uniA7AE" unicode="&#xa7ae;" horiz-adv-x="454" 
d="M408 598h-125v-496h125v-102h-361v102h124v496h-124v102h361v-102z" />
    <glyph glyph-name="uni0295.case" horiz-adv-x="564" 
d="M224 224q-11 27 -27.5 46t-45.5 46l-16 14q-33 28 -54 50t-35.5 55t-14.5 78q0 91 66 144.5t180 53.5q100 0 167 -51t97 -140l-94 -39q-23 65 -67.5 96.5t-101.5 31.5q-59 0 -93.5 -25.5t-34.5 -70.5q0 -25 11.5 -45.5t26 -35t46.5 -41.5q37 -32 59 -57.5t38.5 -65
t16.5 -93.5v-175h-113v159q0 38 -11 65z" />
    <glyph glyph-name="uni1E96.case" horiz-adv-x="720" 
d="M526 302h-332v-302h-113v700h113v-296h332v296h113v-700h-113v302zM199 -77h323v-86h-323v86z" />
    <glyph glyph-name="uni01F0.case" horiz-adv-x="527" 
d="M99.5 29q-52.5 40 -79.5 108l92 47q15 -40 44 -65t71 -25q52 0 81.5 32.5t29.5 95.5v478h113v-484q0 -108 -60.5 -167.5t-160.5 -59.5q-78 0 -130.5 40zM218 927h114l21 -25q36 -40 40 -49h3q5 10 42 51l19 23h115l-129 -137h-97z" />
    <glyph glyph-name="uni02A7.case" horiz-adv-x="1079" 
d="M1032 598h-326l187 -230v-28l-196 -238h337v-102h-487v88l223 265l-202 245h-211v-598h-113v598h-213v102h1001v-102z" />
    <glyph glyph-name="uni0262" unicode="&#x262;" horiz-adv-x="593" 
d="M174 24q-58 33 -92 93t-34 138t32.5 138t90.5 93t132 33q68 0 127.5 -32.5t89.5 -93.5l-90 -45q-42 76 -127 76q-65 0 -105.5 -45t-40.5 -124q0 -52 19.5 -90.5t53 -59t73.5 -20.5q60 0 95.5 31t41.5 87h-138v79h241q2 -22 2 -41q0 -78 -32 -134.5t-87 -86t-123 -29.5
q-71 0 -129 33z" />
    <glyph glyph-name="uni026A" unicode="&#x26a;" horiz-adv-x="408" 
d="M48 88h103v334h-103v88h312v-88h-102v-334h102v-88h-312v88z" />
    <glyph glyph-name="uni1D7B" unicode="&#x1d7b;" horiz-adv-x="307" 
d="M37 330h63v180h107v-180h63v-79h-63v-251h-107v251h-63v79z" />
    <glyph glyph-name="uni0280" unicode="&#x280;" horiz-adv-x="538" 
d="M71 510h211q91 0 144 -44t53 -121q0 -56 -32.5 -95t-89.5 -55l154 -195h-128l-138 186h-67v-186h-107v510zM277 275q43 0 66 17.5t23 52.5t-23 52.5t-66 17.5h-99v-140h99z" />
    <glyph glyph-name="a" unicode="a" horiz-adv-x="554" 
d="M386 50q-46 -61 -150 -61q-85 0 -139.5 42.5t-54.5 115.5q0 72 56 115t144 43q92 0 138 -49v56q0 56 -33 84.5t-89 28.5q-40 0 -71 -17t-48 -49l-77 58q29 52 81 78t118 26q62 0 113 -22t82 -67t31 -112v-320h-101v50zM351 90.5q32 20.5 32 57.5t-32 57.5t-83 20.5
q-52 0 -84 -20.5t-32 -57.5t32 -57.5t84 -20.5q51 0 83 20.5z" />
    <glyph glyph-name="a.ss02" horiz-adv-x="614" 
d="M158.5 24q-51.5 34 -80.5 94t-29 137t29 137.5t80.5 94.5t115.5 34q107 0 162 -94v83h107v-510h-107v84q-55 -94 -162 -94q-64 0 -115.5 34zM399.5 130q38.5 45 38.5 125t-38.5 125t-101.5 45t-101.5 -45t-38.5 -125t38.5 -125t101.5 -45t101.5 45z" />
    <glyph glyph-name="aacute" unicode="&#xe1;" horiz-adv-x="554" 
d="M386 50q-46 -61 -150 -61q-85 0 -139.5 42.5t-54.5 115.5q0 72 56 115t144 43q92 0 138 -49v56q0 56 -33 84.5t-89 28.5q-40 0 -71 -17t-48 -49l-77 58q29 52 81 78t118 26q62 0 113 -22t82 -67t31 -112v-320h-101v50zM351 90.5q32 20.5 32 57.5t-32 57.5t-83 20.5
q-52 0 -84 -20.5t-32 -57.5t32 -57.5t84 -20.5q51 0 83 20.5zM194 600l106 137h120l-121 -137h-105z" />
    <glyph glyph-name="abreve" unicode="&#x103;" horiz-adv-x="554" 
d="M386 50q-46 -61 -150 -61q-85 0 -139.5 42.5t-54.5 115.5q0 72 56 115t144 43q92 0 138 -49v56q0 56 -33 84.5t-89 28.5q-40 0 -71 -17t-48 -49l-77 58q29 52 81 78t118 26q62 0 113 -22t82 -67t31 -112v-320h-101v50zM351 90.5q32 20.5 32 57.5t-32 57.5t-83 20.5
q-52 0 -84 -20.5t-32 -57.5t32 -57.5t84 -20.5q51 0 83 20.5zM156 633.5q-45 37.5 -49 103.5h93q6 -64 72 -64q65 0 71 64h93q-4 -66 -49 -103.5t-115 -37.5q-71 0 -116 37.5z" />
    <glyph glyph-name="uni1EAF" unicode="&#x1eaf;" horiz-adv-x="554" 
d="M386 50q-46 -61 -150 -61q-85 0 -139.5 42.5t-54.5 115.5q0 72 56 115t144 43q92 0 138 -49v56q0 56 -33 84.5t-89 28.5q-40 0 -71 -17t-48 -49l-77 58q29 52 81 78t118 26q62 0 113 -22t82 -67t31 -112v-320h-101v50zM351 90.5q32 20.5 32 57.5t-32 57.5t-83 20.5
q-52 0 -84 -20.5t-32 -57.5t32 -57.5t84 -20.5q51 0 83 20.5zM156 621q-45 38 -49 104h93q6 -65 71 -65q66 0 72 65h93q-4 -67 -49 -104.5t-116 -37.5q-70 0 -115 38zM271 860h120l-86 -107h-102z" />
    <glyph glyph-name="uni1EB7" unicode="&#x1eb7;" horiz-adv-x="554" 
d="M386 50q-46 -61 -150 -61q-85 0 -139.5 42.5t-54.5 115.5q0 72 56 115t144 43q92 0 138 -49v56q0 56 -33 84.5t-89 28.5q-40 0 -71 -17t-48 -49l-77 58q29 52 81 78t118 26q62 0 113 -22t82 -67t31 -112v-320h-101v50zM351 90.5q32 20.5 32 57.5t-32 57.5t-83 20.5
q-52 0 -84 -20.5t-32 -57.5t32 -57.5t84 -20.5q51 0 83 20.5zM222.5 -177.5q-20.5 18.5 -20.5 48.5q0 31 20.5 50t51.5 19t51.5 -19t20.5 -50q0 -30 -20.5 -48.5t-51.5 -18.5t-51.5 18.5zM156 633.5q-45 37.5 -49 103.5h93q6 -64 72 -64q65 0 71 64h93q-4 -66 -49 -103.5
t-115 -37.5q-71 0 -116 37.5z" />
    <glyph glyph-name="uni1EB1" unicode="&#x1eb1;" horiz-adv-x="554" 
d="M386 50q-46 -61 -150 -61q-85 0 -139.5 42.5t-54.5 115.5q0 72 56 115t144 43q92 0 138 -49v56q0 56 -33 84.5t-89 28.5q-40 0 -71 -17t-48 -49l-77 58q29 52 81 78t118 26q62 0 113 -22t82 -67t31 -112v-320h-101v50zM351 90.5q32 20.5 32 57.5t-32 57.5t-83 20.5
q-52 0 -84 -20.5t-32 -57.5t32 -57.5t84 -20.5q51 0 83 20.5zM156 621q-45 38 -49 104h93q6 -65 71 -65q66 0 72 65h93q-4 -67 -49 -104.5t-116 -37.5q-70 0 -115 38zM153 860h121l68 -107h-102z" />
    <glyph glyph-name="uni1EB3" unicode="&#x1eb3;" horiz-adv-x="554" 
d="M386 50q-46 -61 -150 -61q-85 0 -139.5 42.5t-54.5 115.5q0 72 56 115t144 43q92 0 138 -49v56q0 56 -33 84.5t-89 28.5q-40 0 -71 -17t-48 -49l-77 58q29 52 81 78t118 26q62 0 113 -22t82 -67t31 -112v-320h-101v50zM351 90.5q32 20.5 32 57.5t-32 57.5t-83 20.5
q-52 0 -84 -20.5t-32 -57.5t32 -57.5t84 -20.5q51 0 83 20.5zM157 621q-45 38 -49 104h93q6 -65 71 -65q66 0 72 65h93q-4 -67 -49 -104.5t-116 -37.5q-70 0 -115 38zM268.5 799.5q8.5 15.5 8.5 27.5q0 11 -7 17.5t-20 6.5q-22 0 -40 -22l-56 49q18 26 45 39t59 13
q46 0 76.5 -25t30.5 -60q0 -40 -38 -85h-86q19 24 27.5 39.5z" />
    <glyph glyph-name="uni1EB5" unicode="&#x1eb5;" horiz-adv-x="554" 
d="M386 50q-46 -61 -150 -61q-85 0 -139.5 42.5t-54.5 115.5q0 72 56 115t144 43q92 0 138 -49v56q0 56 -33 84.5t-89 28.5q-40 0 -71 -17t-48 -49l-77 58q29 52 81 78t118 26q62 0 113 -22t82 -67t31 -112v-320h-101v50zM351 90.5q32 20.5 32 57.5t-32 57.5t-83 20.5
q-52 0 -84 -20.5t-32 -57.5t32 -57.5t84 -20.5q51 0 83 20.5zM295 771.5q-18 6.5 -41 19.5q-10 6 -20 10.5t-18 4.5q-13 0 -20.5 -9.5t-7.5 -27.5h-87q0 52 31 83.5t73 31.5q27 0 46.5 -7t39.5 -19q10 -6 20 -10.5t19 -4.5q12 0 20 10t8 27h87q0 -52 -31.5 -83.5
t-73.5 -31.5q-27 0 -45 6.5zM157 621q-45 38 -49 104h93q6 -65 71 -65q66 0 72 65h93q-4 -67 -49 -104.5t-116 -37.5q-70 0 -115 38z" />
    <glyph glyph-name="uni01CE" unicode="&#x1ce;" horiz-adv-x="554" 
d="M386 50q-46 -61 -150 -61q-85 0 -139.5 42.5t-54.5 115.5q0 72 56 115t144 43q92 0 138 -49v56q0 56 -33 84.5t-89 28.5q-40 0 -71 -17t-48 -49l-77 58q29 52 81 78t118 26q62 0 113 -22t82 -67t31 -112v-320h-101v50zM351 90.5q32 20.5 32 57.5t-32 57.5t-83 20.5
q-52 0 -84 -20.5t-32 -57.5t32 -57.5t84 -20.5q51 0 83 20.5zM96 737h114l21 -25q36 -40 40 -49h3q5 10 42 51l19 23h115l-129 -137h-97z" />
    <glyph glyph-name="acircumflex" unicode="&#xe2;" horiz-adv-x="554" 
d="M386 50q-46 -61 -150 -61q-85 0 -139.5 42.5t-54.5 115.5q0 72 56 115t144 43q92 0 138 -49v56q0 56 -33 84.5t-89 28.5q-40 0 -71 -17t-48 -49l-77 58q29 52 81 78t118 26q62 0 113 -22t82 -67t31 -112v-320h-101v50zM351 90.5q32 20.5 32 57.5t-32 57.5t-83 20.5
q-52 0 -84 -20.5t-32 -57.5t32 -57.5t84 -20.5q51 0 83 20.5zM224 738h97l128 -138h-114l-20 23q-35 38 -41 51h-3q-3 -4 -33 -41q-14 -16 -28 -33h-115z" />
    <glyph glyph-name="uni1EA5" unicode="&#x1ea5;" horiz-adv-x="554" 
d="M386 50q-46 -61 -150 -61q-85 0 -139.5 42.5t-54.5 115.5q0 72 56 115t144 43q92 0 138 -49v56q0 56 -33 84.5t-89 28.5q-40 0 -71 -17t-48 -49l-77 58q29 52 81 78t118 26q62 0 113 -22t82 -67t31 -112v-320h-101v50zM351 90.5q32 20.5 32 57.5t-32 57.5t-83 20.5
q-52 0 -84 -20.5t-32 -57.5t32 -57.5t84 -20.5q51 0 83 20.5zM225 722h97l128 -137h-114l-20 23q-35 38 -41 51h-3q-7 -12 -43 -53l-18 -21h-115zM461 809h116l-87 -122h-97z" />
    <glyph glyph-name="uni1EAD" unicode="&#x1ead;" horiz-adv-x="554" 
d="M386 50q-46 -61 -150 -61q-85 0 -139.5 42.5t-54.5 115.5q0 72 56 115t144 43q92 0 138 -49v56q0 56 -33 84.5t-89 28.5q-40 0 -71 -17t-48 -49l-77 58q29 52 81 78t118 26q62 0 113 -22t82 -67t31 -112v-320h-101v50zM351 90.5q32 20.5 32 57.5t-32 57.5t-83 20.5
q-52 0 -84 -20.5t-32 -57.5t32 -57.5t84 -20.5q51 0 83 20.5zM222.5 -177.5q-20.5 18.5 -20.5 48.5q0 31 20.5 50t51.5 19t51.5 -19t20.5 -50q0 -30 -20.5 -48.5t-51.5 -18.5t-51.5 18.5zM224 738h97l128 -138h-114l-20 23q-35 38 -41 51h-3q-3 -4 -33 -41q-14 -16 -28 -33
h-115z" />
    <glyph glyph-name="uni1EA7" unicode="&#x1ea7;" horiz-adv-x="554" 
d="M386 50q-46 -61 -150 -61q-85 0 -139.5 42.5t-54.5 115.5q0 72 56 115t144 43q92 0 138 -49v56q0 56 -33 84.5t-89 28.5q-40 0 -71 -17t-48 -49l-77 58q29 52 81 78t118 26q62 0 113 -22t82 -67t31 -112v-320h-101v50zM351 90.5q32 20.5 32 57.5t-32 57.5t-83 20.5
q-52 0 -84 -20.5t-32 -57.5t32 -57.5t84 -20.5q51 0 83 20.5zM224 722h97l128 -137h-114l-20 23q-35 38 -41 51h-3q-7 -12 -43 -53l-18 -21h-115zM333 809h116l68 -122h-97z" />
    <glyph glyph-name="uni1EA9" unicode="&#x1ea9;" horiz-adv-x="554" 
d="M386 50q-46 -61 -150 -61q-85 0 -139.5 42.5t-54.5 115.5q0 72 56 115t144 43q92 0 138 -49v56q0 56 -33 84.5t-89 28.5q-40 0 -71 -17t-48 -49l-77 58q29 52 81 78t118 26q62 0 113 -22t82 -67t31 -112v-320h-101v50zM351 90.5q32 20.5 32 57.5t-32 57.5t-83 20.5
q-52 0 -84 -20.5t-32 -57.5t32 -57.5t84 -20.5q51 0 83 20.5zM224 722h96l129 -137h-115l-20 23q-35 38 -41 51h-3q-7 -12 -43 -53l-18 -21h-114zM417 762q0 11 -7 17.5t-20 6.5q-10 0 -20.5 -6t-18.5 -16l-57 49q18 26 45 39t59 13q47 0 77 -25t30 -60q0 -40 -38 -85h-85
q35 45 35 67z" />
    <glyph glyph-name="uni1EAB" unicode="&#x1eab;" horiz-adv-x="554" 
d="M386 50q-46 -61 -150 -61q-85 0 -139.5 42.5t-54.5 115.5q0 72 56 115t144 43q92 0 138 -49v56q0 56 -33 84.5t-89 28.5q-40 0 -71 -17t-48 -49l-77 58q29 52 81 78t118 26q62 0 113 -22t82 -67t31 -112v-320h-101v50zM351 90.5q32 20.5 32 57.5t-32 57.5t-83 20.5
q-52 0 -84 -20.5t-32 -57.5t32 -57.5t84 -20.5q51 0 83 20.5zM224 722h97l128 -137h-114l-20 23q-35 38 -41 51h-3q-5 -10 -42 -51l-19 -23h-115zM295.5 770q-19.5 7 -39.5 19q-10 6 -20 10.5t-19 4.5q-13 0 -20.5 -9.5t-7.5 -27.5h-87q0 53 31.5 85t73.5 32q27 0 46.5 -7
t39.5 -19q10 -6 20 -10.5t19 -4.5q12 0 20 9.5t8 26.5h87q0 -52 -31.5 -84t-73.5 -32q-27 0 -46.5 7z" />
    <glyph glyph-name="uni0201" unicode="&#x201;" horiz-adv-x="554" 
d="M386 50q-46 -61 -150 -61q-85 0 -139.5 42.5t-54.5 115.5q0 72 56 115t144 43q92 0 138 -49v56q0 56 -33 84.5t-89 28.5q-40 0 -71 -17t-48 -49l-77 58q29 52 81 78t118 26q62 0 113 -22t82 -67t31 -112v-320h-101v50zM351 90.5q32 20.5 32 57.5t-32 57.5t-83 20.5
q-52 0 -84 -20.5t-32 -57.5t32 -57.5t84 -20.5q51 0 83 20.5zM13 737h120l108 -137h-103zM215 737h114l104 -137h-102z" />
    <glyph glyph-name="adieresis" unicode="&#xe4;" horiz-adv-x="554" 
d="M386 50q-46 -61 -150 -61q-85 0 -139.5 42.5t-54.5 115.5q0 72 56 115t144 43q92 0 138 -49v56q0 56 -33 84.5t-89 28.5q-40 0 -71 -17t-48 -49l-77 58q29 52 81 78t118 26q62 0 113 -22t82 -67t31 -112v-320h-101v50zM351 90.5q32 20.5 32 57.5t-32 57.5t-83 20.5
q-52 0 -84 -20.5t-32 -57.5t32 -57.5t84 -20.5q51 0 83 20.5zM113.5 625.5q-18.5 17.5 -18.5 47.5t18.5 47.5t47.5 17.5t48 -17.5t19 -47.5t-19 -47.5t-48 -17.5t-47.5 17.5zM335 625.5q-19 17.5 -19 47.5t19 47.5t48 17.5t47.5 -17.5t18.5 -47.5t-18.5 -47.5t-47.5 -17.5
t-48 17.5z" />
    <glyph glyph-name="uni01DF" unicode="&#x1df;" horiz-adv-x="554" 
d="M386 50q-46 -61 -150 -61q-85 0 -139.5 42.5t-54.5 115.5q0 72 56 115t144 43q92 0 138 -49v56q0 56 -33 84.5t-89 28.5q-40 0 -71 -17t-48 -49l-77 58q29 52 81 78t118 26q62 0 113 -22t82 -67t31 -112v-320h-101v50zM351 90.5q32 20.5 32 57.5t-32 57.5t-83 20.5
q-52 0 -84 -20.5t-32 -57.5t32 -57.5t84 -20.5q51 0 83 20.5zM113 605.5q-19 17.5 -19 47.5t19 47.5t48 17.5t47.5 -17.5t18.5 -47.5t-18.5 -47.5t-47.5 -17.5t-48 17.5zM334.5 605.5q-18.5 17.5 -18.5 47.5t18.5 47.5t47.5 17.5t48 -17.5t19 -47.5t-19 -47.5t-48 -17.5
t-47.5 17.5zM111 858h322v-86h-322v86z" />
    <glyph glyph-name="uni0227" unicode="&#x227;" horiz-adv-x="554" 
d="M386 50q-46 -61 -150 -61q-85 0 -139.5 42.5t-54.5 115.5q0 72 56 115t144 43q92 0 138 -49v56q0 56 -33 84.5t-89 28.5q-40 0 -71 -17t-48 -49l-77 58q29 52 81 78t118 26q62 0 113 -22t82 -67t31 -112v-320h-101v50zM351 90.5q32 20.5 32 57.5t-32 57.5t-83 20.5
q-52 0 -84 -20.5t-32 -57.5t32 -57.5t84 -20.5q51 0 83 20.5zM221 627q-20 19 -20 49q0 31 20 50t51 19t51.5 -19t20.5 -50q0 -30 -20.5 -49t-51.5 -19t-51 19z" />
    <glyph glyph-name="uni1EA1" unicode="&#x1ea1;" horiz-adv-x="554" 
d="M386 50q-46 -61 -150 -61q-85 0 -139.5 42.5t-54.5 115.5q0 72 56 115t144 43q92 0 138 -49v56q0 56 -33 84.5t-89 28.5q-40 0 -71 -17t-48 -49l-77 58q29 52 81 78t118 26q62 0 113 -22t82 -67t31 -112v-320h-101v50zM351 90.5q32 20.5 32 57.5t-32 57.5t-83 20.5
q-52 0 -84 -20.5t-32 -57.5t32 -57.5t84 -20.5q51 0 83 20.5zM222.5 -177.5q-20.5 18.5 -20.5 48.5q0 31 20.5 50t51.5 19t51.5 -19t20.5 -50q0 -30 -20.5 -48.5t-51.5 -18.5t-51.5 18.5z" />
    <glyph glyph-name="uni01E1" unicode="&#x1e1;" horiz-adv-x="554" 
d="M386 50q-46 -61 -150 -61q-85 0 -139.5 42.5t-54.5 115.5q0 72 56 115t144 43q92 0 138 -49v56q0 56 -33 84.5t-89 28.5q-40 0 -71 -17t-48 -49l-77 58q29 52 81 78t118 26q62 0 113 -22t82 -67t31 -112v-320h-101v50zM351 90.5q32 20.5 32 57.5t-32 57.5t-83 20.5
q-52 0 -84 -20.5t-32 -57.5t32 -57.5t84 -20.5q51 0 83 20.5zM220.5 605.5q-20.5 18.5 -20.5 49.5q0 30 20.5 49t51.5 19t51 -19t20 -49q0 -31 -20 -49.5t-51 -18.5t-51.5 18.5zM111 857h322v-86h-322v86z" />
    <glyph glyph-name="agrave" unicode="&#xe0;" horiz-adv-x="554" 
d="M386 50q-46 -61 -150 -61q-85 0 -139.5 42.5t-54.5 115.5q0 72 56 115t144 43q92 0 138 -49v56q0 56 -33 84.5t-89 28.5q-40 0 -71 -17t-48 -49l-77 58q29 52 81 78t118 26q62 0 113 -22t82 -67t31 -112v-320h-101v50zM351 90.5q32 20.5 32 57.5t-32 57.5t-83 20.5
q-52 0 -84 -20.5t-32 -57.5t32 -57.5t84 -20.5q51 0 83 20.5zM124 737h120l106 -137h-105z" />
    <glyph glyph-name="uni1EA3" unicode="&#x1ea3;" horiz-adv-x="554" 
d="M386 50q-46 -61 -150 -61q-85 0 -139.5 42.5t-54.5 115.5q0 72 56 115t144 43q92 0 138 -49v56q0 56 -33 84.5t-89 28.5q-40 0 -71 -17t-48 -49l-77 58q29 52 81 78t118 26q62 0 113 -22t82 -67t31 -112v-320h-101v50zM351 90.5q32 20.5 32 57.5t-32 57.5t-83 20.5
q-52 0 -84 -20.5t-32 -57.5t32 -57.5t84 -20.5q51 0 83 20.5zM278.5 628.5q8.5 15.5 8.5 27.5q0 11 -7 17.5t-20 6.5q-22 0 -40 -22l-56 49q35 52 104 52q46 0 76 -25t30 -60q0 -40 -38 -85h-85q19 24 27.5 39.5z" />
    <glyph glyph-name="uni0203" unicode="&#x203;" horiz-adv-x="554" 
d="M386 50q-46 -61 -150 -61q-85 0 -139.5 42.5t-54.5 115.5q0 72 56 115t144 43q92 0 138 -49v56q0 56 -33 84.5t-89 28.5q-40 0 -71 -17t-48 -49l-77 58q29 52 81 78t118 26q62 0 113 -22t82 -67t31 -112v-320h-101v50zM351 90.5q32 20.5 32 57.5t-32 57.5t-83 20.5
q-52 0 -84 -20.5t-32 -57.5t32 -57.5t84 -20.5q51 0 83 20.5zM383 705q44 -38 48 -103h-93q-3 31 -20.5 46.5t-45.5 15.5q-29 0 -46.5 -15.5t-20.5 -46.5h-93q4 67 48 104t112 37q67 0 111 -38z" />
    <glyph glyph-name="uni0251" unicode="&#x251;" horiz-adv-x="614" 
d="M158.5 24q-51.5 34 -80.5 94t-29 137t29 137.5t80.5 94.5t115.5 34q107 0 162 -94v83h107v-510h-107v84q-55 -94 -162 -94q-64 0 -115.5 34zM399.5 130q38.5 45 38.5 125t-38.5 125t-101.5 45t-101.5 -45t-38.5 -125t38.5 -125t101.5 -45t101.5 45z" />
    <glyph glyph-name="uni0252" unicode="&#x252;" horiz-adv-x="614" 
d="M178 84v-84h-107v510h107v-83q55 94 162 94q64 0 115.5 -34t80.5 -94.5t29 -137.5t-29 -137t-80.5 -94t-115.5 -34q-107 0 -162 94zM417.5 130q38.5 45 38.5 125t-38.5 125t-101.5 45t-101.5 -45t-38.5 -125t38.5 -125t101.5 -45t101.5 45z" />
    <glyph glyph-name="amacron" unicode="&#x101;" horiz-adv-x="554" 
d="M386 50q-46 -61 -150 -61q-85 0 -139.5 42.5t-54.5 115.5q0 72 56 115t144 43q92 0 138 -49v56q0 56 -33 84.5t-89 28.5q-40 0 -71 -17t-48 -49l-77 58q29 52 81 78t118 26q62 0 113 -22t82 -67t31 -112v-320h-101v50zM351 90.5q32 20.5 32 57.5t-32 57.5t-83 20.5
q-52 0 -84 -20.5t-32 -57.5t32 -57.5t84 -20.5q51 0 83 20.5zM111 713h322v-87h-322v87z" />
    <glyph glyph-name="aogonek" unicode="&#x105;" horiz-adv-x="554" 
d="M386 50q-46 -61 -150 -61q-85 0 -139.5 42.5t-54.5 115.5q0 72 56 115t144 43q92 0 138 -49v56q0 56 -33 84.5t-89 28.5q-40 0 -71 -17t-48 -49l-77 58q29 52 81 78t118 26q62 0 113 -22t82 -67t31 -112v-320h1l-27 -30q-15 -17 -15 -32q0 -10 7.5 -16t20.5 -6h32v-91
h-62q-45 0 -70.5 22t-25.5 55q0 41 38 76l24 22h-24v50zM351 90.5q32 20.5 32 57.5t-32 57.5t-83 20.5q-52 0 -84 -20.5t-32 -57.5t32 -57.5t84 -20.5q51 0 83 20.5z" />
    <glyph glyph-name="uni1E9A" unicode="&#x1e9a;" horiz-adv-x="557" 
d="M277 635.5q14 12.5 14 31.5q0 20 -13.5 32t-37.5 12v64q54 0 89 -30.5t35 -77.5q0 -46 -35 -76.5t-89 -30.5v63q23 0 37 12.5zM389 50q-46 -61 -150 -61q-85 0 -139.5 42.5t-54.5 115.5q0 72 55.5 115t143.5 43q93 0 139 -49v56q0 56 -33 84.5t-89 28.5q-40 0 -71 -17
t-48 -49l-77 58q29 52 81 78t118 26q62 0 113 -22t82 -67t31 -112v-320h-101v50zM354 90.5q32 20.5 32 57.5t-32 57.5t-83 20.5q-52 0 -84 -20.5t-32 -57.5t32 -57.5t84 -20.5q51 0 83 20.5z" />
    <glyph glyph-name="aring" unicode="&#xe5;" horiz-adv-x="554" 
d="M386 50q-46 -61 -150 -61q-85 0 -139.5 42.5t-54.5 115.5q0 72 56 115t144 43q92 0 138 -49v56q0 56 -33 84.5t-89 28.5q-40 0 -71 -17t-48 -49l-77 58q29 52 81 78t118 26q62 0 113 -22t82 -67t31 -112v-320h-101v50zM351 90.5q32 20.5 32 57.5t-32 57.5t-83 20.5
q-52 0 -84 -20.5t-32 -57.5t32 -57.5t84 -20.5q51 0 83 20.5zM179.5 610.5q-35.5 30.5 -35.5 76.5q0 47 36 77.5t93 30.5t93 -30.5t36 -77.5q0 -46 -36 -76.5t-93 -30.5q-58 0 -93.5 30.5zM314.5 655q14.5 12 14.5 32t-14.5 32t-41.5 12t-41.5 -12t-14.5 -32t14.5 -32
t41.5 -12t41.5 12z" />
    <glyph glyph-name="aringacute" unicode="&#x1fb;" horiz-adv-x="554" 
d="M386 50q-46 -61 -150 -61q-85 0 -139.5 42.5t-54.5 115.5q0 72 56 115t144 43q92 0 138 -49v56q0 56 -33 84.5t-89 28.5q-40 0 -71 -17t-48 -49l-77 58q29 52 81 78t118 26q62 0 113 -22t82 -67t31 -112v-320h-101v50zM351 90.5q32 20.5 32 57.5t-32 57.5t-83 20.5
q-52 0 -84 -20.5t-32 -57.5t32 -57.5t84 -20.5q51 0 83 20.5zM179 595.5q-36 30.5 -36 76.5q0 47 36 77.5t93 30.5q58 0 93.5 -30.5t35.5 -77.5q0 -46 -35.5 -76.5t-93.5 -30.5q-57 0 -93 30.5zM313.5 640q14.5 12 14.5 32t-14.5 32t-41.5 12t-41.5 -12t-14.5 -32t14.5 -32
t41.5 -12t41.5 12zM198 807l106 138h121l-122 -138h-105z" />
    <glyph glyph-name="uni1E01" unicode="&#x1e01;" horiz-adv-x="554" 
d="M386 50q-46 -61 -150 -61q-85 0 -139.5 42.5t-54.5 115.5q0 72 56 115t144 43q92 0 138 -49v56q0 56 -33 84.5t-89 28.5q-40 0 -71 -17t-48 -49l-77 58q29 52 81 78t118 26q62 0 113 -22t82 -67t31 -112v-320h-101v50zM351 90.5q32 20.5 32 57.5t-32 57.5t-83 20.5
q-52 0 -84 -20.5t-32 -57.5t32 -57.5t84 -20.5q51 0 83 20.5zM180.5 -246q-35.5 30 -35.5 77t36 77.5t93 30.5t93 -30.5t36 -77.5t-36 -77t-93 -30q-58 0 -93.5 30zM315.5 -201q14.5 12 14.5 32t-14.5 32t-41.5 12t-41.5 -12t-14.5 -32t14.5 -32t41.5 -12t41.5 12z" />
    <glyph glyph-name="uni2C65" unicode="&#x2c65;" horiz-adv-x="554" 
d="M161 -1q-55 16 -87 54t-32 94q0 72 56 115t144 43q92 0 138 -49v56q0 56 -33 84.5t-89 28.5q-40 0 -71 -17t-48 -49l-77 58q29 52 81 78t118 26q34 0 64 -6l49 153h79l-58 -180q43 -25 67.5 -67t24.5 -101v-320h-101v50q-46 -61 -150 -61l-47 -147h-78zM351 90.5
q32 20.5 32 57.5t-32 57.5t-83 20.5q-52 0 -84 -20.5t-32 -57.5t32 -57.5t84 -20.5q51 0 83 20.5z" />
    <glyph glyph-name="atilde" unicode="&#xe3;" horiz-adv-x="554" 
d="M386 50q-46 -61 -150 -61q-85 0 -139.5 42.5t-54.5 115.5q0 72 56 115t144 43q92 0 138 -49v56q0 56 -33 84.5t-89 28.5q-40 0 -71 -17t-48 -49l-77 58q29 52 81 78t118 26q62 0 113 -22t82 -67t31 -112v-320h-101v50zM351 90.5q32 20.5 32 57.5t-32 57.5t-83 20.5
q-52 0 -84 -20.5t-32 -57.5t32 -57.5t84 -20.5q51 0 83 20.5zM295.5 609q-19.5 9 -39.5 24q-13 9 -21.5 13.5t-17.5 4.5q-13 0 -20.5 -12t-7.5 -34h-87q0 40 15.5 70t40.5 45.5t53 15.5q27 0 46.5 -9t39.5 -24q13 -9 21.5 -13.5t17.5 -4.5q13 0 20.5 11.5t7.5 34.5h87
q0 -40 -15.5 -70t-40.5 -45.5t-53 -15.5q-27 0 -46.5 9z" />
    <glyph glyph-name="uni0250" unicode="&#x250;" horiz-adv-x="554" 
d="M168 460q46 61 150 61q85 0 139.5 -42.5t54.5 -115.5q0 -72 -56 -115t-144 -43q-92 0 -138 49v-56q0 -56 33 -84.5t89 -28.5q40 0 71 17t48 49l77 -58q-29 -52 -81 -78t-118 -26q-62 0 -113 22t-82 67t-31 112v320h101v-50zM203 419.5q-32 -20.5 -32 -57.5t32 -57.5
t83 -20.5q52 0 84 20.5t32 57.5t-32 57.5t-84 20.5q-51 0 -83 -20.5z" />
    <glyph glyph-name="ae" unicode="&#xe6;" horiz-adv-x="898" 
d="M520.5 12q-47.5 23 -79.5 66q-24 -42 -73.5 -65.5t-113.5 -23.5q-95 0 -153.5 42t-58.5 116q0 72 56 115t144 43q92 0 138 -49v56q0 56 -33 84.5t-89 28.5q-40 0 -70.5 -17t-47.5 -49l-78 58q29 52 80.5 78t115.5 26q59 0 106.5 -22.5t74.5 -66.5q30 42 77 65.5t103 23.5
q68 0 120.5 -32.5t82 -92t29.5 -137.5q0 -20 -1 -29h-362q6 -73 43.5 -110.5t97.5 -37.5q87 0 133 69l76 -60q-37 -53 -91 -77.5t-120 -24.5q-59 0 -106.5 23zM351 90.5q32 20.5 32 57.5t-31.5 57.5t-83.5 20.5t-84 -20t-32 -58q0 -37 32 -57.5t84 -20.5q51 0 83 20.5z
M742 307q-9 62 -42 93.5t-81 31.5q-52 0 -85 -32t-43 -93h251z" />
    <glyph glyph-name="aeacute" unicode="&#x1fd;" horiz-adv-x="898" 
d="M520.5 12q-47.5 23 -79.5 66q-24 -42 -73.5 -65.5t-113.5 -23.5q-95 0 -153.5 42t-58.5 116q0 72 56 115t144 43q92 0 138 -49v56q0 56 -33 84.5t-89 28.5q-40 0 -70.5 -17t-47.5 -49l-78 58q29 52 80.5 78t115.5 26q59 0 106.5 -22.5t74.5 -66.5q30 42 77 65.5t103 23.5
q68 0 120.5 -32.5t82 -92t29.5 -137.5q0 -20 -1 -29h-362q6 -73 43.5 -110.5t97.5 -37.5q87 0 133 69l76 -60q-37 -53 -91 -77.5t-120 -24.5q-59 0 -106.5 23zM351 90.5q32 20.5 32 57.5t-31.5 57.5t-83.5 20.5t-84 -20t-32 -58q0 -37 32 -57.5t84 -20.5q51 0 83 20.5z
M742 307q-9 62 -42 93.5t-81 31.5q-52 0 -85 -32t-43 -93h251zM364 600l106 137h120l-121 -137h-105z" />
    <glyph glyph-name="uni01E3" unicode="&#x1e3;" horiz-adv-x="898" 
d="M520.5 12q-47.5 23 -79.5 66q-24 -42 -73.5 -65.5t-113.5 -23.5q-95 0 -153.5 42t-58.5 116q0 72 56 115t144 43q92 0 138 -49v56q0 56 -33 84.5t-89 28.5q-40 0 -70.5 -17t-47.5 -49l-78 58q29 52 80.5 78t115.5 26q59 0 106.5 -22.5t74.5 -66.5q30 42 77 65.5t103 23.5
q68 0 120.5 -32.5t82 -92t29.5 -137.5q0 -20 -1 -29h-362q6 -73 43.5 -110.5t97.5 -37.5q87 0 133 69l76 -60q-37 -53 -91 -77.5t-120 -24.5q-59 0 -106.5 23zM351 90.5q32 20.5 32 57.5t-31.5 57.5t-83.5 20.5t-84 -20t-32 -58q0 -37 32 -57.5t84 -20.5q51 0 83 20.5z
M742 307q-9 62 -42 93.5t-81 31.5q-52 0 -85 -32t-43 -93h251zM281 713h322v-87h-322v87z" />
    <glyph glyph-name="b" unicode="b" horiz-adv-x="614" 
d="M178 84v-84h-107v750h107v-323q55 94 162 94q64 0 115.5 -34t80.5 -94.5t29 -137.5t-29 -137t-80.5 -94t-115.5 -34q-107 0 -162 94zM417.5 130q38.5 45 38.5 125t-38.5 125t-101.5 45t-101.5 -45t-38.5 -125t38.5 -125t101.5 -45t101.5 45z" />
    <glyph glyph-name="uni1E03" unicode="&#x1e03;" horiz-adv-x="614" 
d="M178 84v-84h-107v750h107v-323q55 94 162 94q64 0 115.5 -34t80.5 -94.5t29 -137.5t-29 -137t-80.5 -94t-115.5 -34q-107 0 -162 94zM417.5 130q38.5 45 38.5 125t-38.5 125t-101.5 45t-101.5 -45t-38.5 -125t38.5 -125t101.5 -45t101.5 45zM282 867q-20 19 -20 49
q0 31 20 50t51 19t51.5 -19t20.5 -50q0 -30 -20.5 -49t-51.5 -19t-51 19z" />
    <glyph glyph-name="uni1E05" unicode="&#x1e05;" horiz-adv-x="614" 
d="M178 84v-84h-107v750h107v-323q55 94 162 94q64 0 115.5 -34t80.5 -94.5t29 -137.5t-29 -137t-80.5 -94t-115.5 -34q-107 0 -162 94zM417.5 130q38.5 45 38.5 125t-38.5 125t-101.5 45t-101.5 -45t-38.5 -125t38.5 -125t101.5 -45t101.5 45zM256.5 -177.5
q-20.5 18.5 -20.5 48.5q0 31 20.5 50t51.5 19t51.5 -19t20.5 -50q0 -30 -20.5 -48.5t-51.5 -18.5t-51.5 18.5z" />
    <glyph glyph-name="uniA7B5" unicode="&#xa7b5;" horiz-adv-x="601" 
d="M95.5 649q24.5 51 74.5 81.5t124 30.5q64 0 114.5 -27t79 -75t28.5 -107q0 -61 -26 -104t-68 -59q56 -14 93.5 -64t37.5 -116q0 -67 -27.5 -116.5t-76 -76.5t-110.5 -27q-54 0 -95 24t-66 69v-290h-107v744q0 62 24.5 113zM407.5 119q36.5 34 36.5 94q0 61 -36 93.5
t-97 32.5h-52v93h33q49 0 81.5 31t32.5 85q0 52 -32 84t-82 32q-53 0 -83.5 -34.5t-30.5 -92.5v-292q0 -75 34.5 -117.5t98.5 -42.5q60 0 96.5 34z" />
    <glyph glyph-name="uni0253" unicode="&#x253;" horiz-adv-x="614" 
d="M119.5 713.5q48.5 47.5 126.5 47.5q88 0 143 -58l-55 -70q-33 33 -79 33q-34 0 -55.5 -23t-21.5 -67v-149q55 94 162 94q64 0 115.5 -34t80.5 -94.5t29 -137.5t-29 -137t-80.5 -94t-115.5 -34q-107 0 -162 94v-84h-107v581q0 85 48.5 132.5zM417.5 130q38.5 45 38.5 125
t-38.5 125t-101.5 45t-101.5 -45t-38.5 -125t38.5 -125t101.5 -45t101.5 45z" />
    <glyph glyph-name="uni0298" unicode="&#x298;" horiz-adv-x="790" 
d="M217 36.5q-78 47.5 -121.5 135t-43.5 203.5t43.5 203.5t121.5 135t178 47.5q101 0 178.5 -47.5t121 -135t43.5 -203.5t-43.5 -203.5t-121 -135t-178.5 -47.5q-100 0 -178 47.5zM516 120q53 34 83 99.5t30 155.5t-30 155.5t-83 99.5t-121 34t-120.5 -34t-82.5 -99.5
t-30 -155.5t30 -155.5t83 -99.5t120 -34q68 0 121 34zM349 327.5q-18 18.5 -18 47.5t18 47.5t46 18.5t46.5 -18.5t18.5 -47.5t-18.5 -47.5t-46.5 -18.5t-46 18.5z" />
    <glyph glyph-name="uni1E07" unicode="&#x1e07;" horiz-adv-x="614" 
d="M178 84v-84h-107v750h107v-323q55 94 162 94q64 0 115.5 -34t80.5 -94.5t29 -137.5t-29 -137t-80.5 -94t-115.5 -34q-107 0 -162 94zM417.5 130q38.5 45 38.5 125t-38.5 125t-101.5 45t-101.5 -45t-38.5 -125t38.5 -125t101.5 -45t101.5 45zM147 -77h323v-86h-323v86z
" />
    <glyph glyph-name="uni0180" unicode="&#x180;" horiz-adv-x="614" 
d="M71 575h-63v79h63v96h107v-96h120v-79h-120v-148q55 94 162 94q64 0 115.5 -34t80.5 -94.5t29 -137.5t-29 -137t-80.5 -94t-115.5 -34q-107 0 -162 94v-84h-107v575zM417.5 130q38.5 45 38.5 125t-38.5 125t-101.5 45t-101.5 -45t-38.5 -125t38.5 -125t101.5 -45
t101.5 45z" />
    <glyph glyph-name="c" unicode="c" horiz-adv-x="556" 
d="M171 23q-57 33 -90 93.5t-33 138.5t33 138.5t90 94t127 33.5q75 0 134 -33.5t89 -101.5l-89 -49q-19 45 -54 66.5t-79 21.5q-60 0 -100.5 -44t-40.5 -126q0 -81 40.5 -125t100.5 -44q44 0 79 21.5t54 66.5l89 -50q-30 -68 -89 -101t-134 -33q-70 0 -127 33z" />
    <glyph glyph-name="cacute" unicode="&#x107;" horiz-adv-x="556" 
d="M171 23q-57 33 -90 93.5t-33 138.5t33 138.5t90 94t127 33.5q75 0 134 -33.5t89 -101.5l-89 -49q-19 45 -54 66.5t-79 21.5q-60 0 -100.5 -44t-40.5 -126q0 -81 40.5 -125t100.5 -44q44 0 79 21.5t54 66.5l89 -50q-30 -68 -89 -101t-134 -33q-70 0 -127 33zM217 600
l106 137h120l-121 -137h-105z" />
    <glyph glyph-name="ccaron" unicode="&#x10d;" horiz-adv-x="556" 
d="M171 23q-57 33 -90 93.5t-33 138.5t33 138.5t90 94t127 33.5q75 0 134 -33.5t89 -101.5l-89 -49q-19 45 -54 66.5t-79 21.5q-60 0 -100.5 -44t-40.5 -126q0 -81 40.5 -125t100.5 -44q44 0 79 21.5t54 66.5l89 -50q-30 -68 -89 -101t-134 -33q-70 0 -127 33zM119 737h114
l21 -25q36 -40 40 -49h3q5 10 42 51l19 23h115l-129 -137h-97z" />
    <glyph glyph-name="ccedilla" unicode="&#xe7;" horiz-adv-x="556" 
d="M207 -84h56q13 0 20.5 6t7.5 16q0 15 -15 32l-21 23q-60 10 -107 45t-73.5 91t-26.5 126q0 78 33 138.5t90 94t127 33.5q75 0 134 -33.5t89 -101.5l-89 -49q-19 45 -54 66.5t-79 21.5q-60 0 -100.5 -44t-40.5 -126q0 -81 40.5 -125t100.5 -44q44 0 79 21.5t54 66.5
l89 -50q-26 -59 -75 -92t-111 -40l16 -14q38 -35 38 -76q0 -32 -25.5 -54.5t-70.5 -22.5h-86v91z" />
    <glyph glyph-name="uni1E09" unicode="&#x1e09;" horiz-adv-x="556" 
d="M207 -84h56q13 0 20.5 6t7.5 16q0 15 -15 32l-21 23q-60 10 -107 45t-73.5 91t-26.5 126q0 78 33 138.5t90 94t127 33.5q75 0 134 -33.5t89 -101.5l-89 -49q-19 45 -54 66.5t-79 21.5q-60 0 -100.5 -44t-40.5 -126q0 -81 40.5 -125t100.5 -44q44 0 79 21.5t54 66.5
l89 -50q-26 -59 -75 -92t-111 -40l16 -14q38 -35 38 -76q0 -32 -25.5 -54.5t-70.5 -22.5h-86v91zM217 600l106 137h120l-121 -137h-105z" />
    <glyph glyph-name="ccircumflex" unicode="&#x109;" horiz-adv-x="556" 
d="M171 23q-57 33 -90 93.5t-33 138.5t33 138.5t90 94t127 33.5q75 0 134 -33.5t89 -101.5l-89 -49q-19 45 -54 66.5t-79 21.5q-60 0 -100.5 -44t-40.5 -126q0 -81 40.5 -125t100.5 -44q44 0 79 21.5t54 66.5l89 -50q-30 -68 -89 -101t-134 -33q-70 0 -127 33zM247 738h97
l128 -138h-114l-20 23q-35 38 -41 51h-3q-3 -4 -33 -41q-14 -16 -28 -33h-115z" />
    <glyph glyph-name="cdotaccent" unicode="&#x10b;" horiz-adv-x="556" 
d="M171 23q-57 33 -90 93.5t-33 138.5t33 138.5t90 94t127 33.5q75 0 134 -33.5t89 -101.5l-89 -49q-19 45 -54 66.5t-79 21.5q-60 0 -100.5 -44t-40.5 -126q0 -81 40.5 -125t100.5 -44q44 0 79 21.5t54 66.5l89 -50q-30 -68 -89 -101t-134 -33q-70 0 -127 33zM244 627
q-20 19 -20 49q0 31 20 50t51 19t51.5 -19t20.5 -50q0 -30 -20.5 -49t-51.5 -19t-51 19z" />
    <glyph glyph-name="uniAB53" unicode="&#xab53;" horiz-adv-x="533" 
d="M205 157l-182 353h122l87 -179q29 -63 34 -91h3q4 28 34 91l88 179h119l-182 -350l196 -368h-121l-99 194q-15 29 -24.5 54t-11.5 36h-3q-6 -27 -38 -90l-100 -194h-118z" />
    <glyph glyph-name="uni0188" unicode="&#x188;" horiz-adv-x="555" 
d="M171 23q-57 33 -90 93.5t-33 138.5t30 138.5t82 94t115 33.5q64 0 100 -25q-35 63 -35 118q0 66 39.5 104.5t102.5 38.5q80 0 130 -53l-55 -71q-24 30 -57 30q-25 0 -41.5 -18t-16.5 -50q0 -31 11.5 -66.5t35.5 -83.5l30 -59l-90 -49q-17 43 -51 65.5t-81 22.5
q-59 0 -99 -44.5t-40 -125.5t40.5 -125t100.5 -44q44 0 79 21.5t54 66.5l89 -50q-30 -68 -89 -101t-134 -33q-70 0 -127 33z" />
    <glyph glyph-name="uni023C" unicode="&#x23c;" horiz-adv-x="556" 
d="M182 17q-62 32 -98 94t-36 144q0 78 33 138.5t90 94t127 33.5q21 0 43 -3l47 150h79l-54 -170q73 -34 108 -112l-89 -49q-19 45 -54 66.5t-79 21.5q-60 0 -100.5 -44t-40.5 -126q0 -81 40.5 -125t100.5 -44q44 0 79 21.5t54 66.5l89 -50q-30 -68 -89 -101t-134 -33
q-25 0 -46 4l-48 -152h-78z" />
    <glyph glyph-name="d" unicode="d" horiz-adv-x="614" 
d="M158.5 24q-51.5 34 -80.5 94t-29 137t29 137.5t80.5 94.5t115.5 34q107 0 162 -94v323h107v-750h-107v84q-55 -94 -162 -94q-64 0 -115.5 34zM399.5 130q38.5 45 38.5 125t-38.5 125t-101.5 45t-101.5 -45t-38.5 -125t38.5 -125t101.5 -45t101.5 45z" />
    <glyph glyph-name="uni0238" unicode="&#x238;" horiz-adv-x="979" 
d="M543 85v-85h-107v84q-55 -94 -162 -94q-64 0 -115.5 34t-80.5 94t-29 137t29 137.5t80.5 94.5t115.5 34q107 0 162 -94v323h107v-324q54 95 162 95q64 0 115.5 -34t80.5 -94.5t29 -137.5t-29 -137t-80.5 -94t-115.5 -34q-108 0 -162 95zM399.5 130q38.5 45 38.5 125
t-38.5 125t-101.5 45t-101.5 -45t-38.5 -125t38.5 -125t101.5 -45t101.5 45zM782.5 130q38.5 45 38.5 125t-38.5 125t-101.5 45t-101.5 -45t-38.5 -125t38.5 -125t101.5 -45t101.5 45z" />
    <glyph glyph-name="dcaron" unicode="&#x10f;" horiz-adv-x="670" 
d="M158.5 24q-51.5 34 -80.5 94t-29 137t29 137.5t80.5 94.5t115.5 34q107 0 162 -94v323h107v-750h-107v84q-55 -94 -162 -94q-64 0 -115.5 34zM399.5 130q38.5 45 38.5 125t-38.5 125t-101.5 45t-101.5 -45t-38.5 -125t38.5 -125t101.5 -45t101.5 45zM710 750v-109
l-26 -110h-63v219h89z" />
    <glyph glyph-name="uni1E11" unicode="&#x1e11;" horiz-adv-x="614" 
d="M158.5 24q-51.5 34 -80.5 94t-29 137t29 137.5t80.5 94.5t115.5 34q107 0 162 -94v323h107v-750h-107v84q-55 -94 -162 -94q-64 0 -115.5 34zM399.5 130q38.5 45 38.5 125t-38.5 125t-101.5 45t-101.5 -45t-38.5 -125t38.5 -125t101.5 -45t101.5 45zM253 -228l45 61
q-22 4 -34.5 18t-12.5 33q0 24 18.5 39.5t48.5 15.5t49 -15.5t19 -40.5q0 -30 -25 -65l-53 -77z" />
    <glyph glyph-name="uni1E13" unicode="&#x1e13;" horiz-adv-x="614" 
d="M158.5 24q-51.5 34 -80.5 94t-29 137t29 137.5t80.5 94.5t115.5 34q107 0 162 -94v323h107v-750h-107v84q-55 -94 -162 -94q-64 0 -115.5 34zM399.5 130q38.5 45 38.5 125t-38.5 125t-101.5 45t-101.5 -45t-38.5 -125t38.5 -125t101.5 -45t101.5 45zM495 -211h-115
l-21 25q-36 40 -40 49h-3q-5 -10 -42 -51l-19 -23h-114l129 137h96z" />
    <glyph glyph-name="dcroat" unicode="&#x111;" horiz-adv-x="613" 
d="M158.5 24q-51.5 34 -80.5 94t-29 137t29 137.5t80.5 94.5t115.5 34q107 0 162 -94v148h-122v79h122v96h107v-96h61v-79h-61v-575h-107v84q-55 -94 -162 -94q-64 0 -115.5 34zM399.5 130q38.5 45 38.5 125t-38.5 125t-101.5 45t-101.5 -45t-38.5 -125t38.5 -125t101.5 -45
t101.5 45z" />
    <glyph glyph-name="uni1E0B" unicode="&#x1e0b;" horiz-adv-x="614" 
d="M158.5 24q-51.5 34 -80.5 94t-29 137t29 137.5t80.5 94.5t115.5 34q107 0 162 -94v323h107v-750h-107v84q-55 -94 -162 -94q-64 0 -115.5 34zM399.5 130q38.5 45 38.5 125t-38.5 125t-101.5 45t-101.5 -45t-38.5 -125t38.5 -125t101.5 -45t101.5 45zM255 867
q-20 19 -20 49q0 31 20 50t51 19t51.5 -19t20.5 -50q0 -30 -20.5 -49t-51.5 -19t-51 19z" />
    <glyph glyph-name="uni1E0D" unicode="&#x1e0d;" horiz-adv-x="614" 
d="M158.5 24q-51.5 34 -80.5 94t-29 137t29 137.5t80.5 94.5t115.5 34q107 0 162 -94v323h107v-750h-107v84q-55 -94 -162 -94q-64 0 -115.5 34zM399.5 130q38.5 45 38.5 125t-38.5 125t-101.5 45t-101.5 -45t-38.5 -125t38.5 -125t101.5 -45t101.5 45zM266.5 -177.5
q-20.5 18.5 -20.5 48.5q0 31 20.5 50t51.5 19t51.5 -19t20.5 -50q0 -30 -20.5 -48.5t-51.5 -18.5t-51.5 18.5z" />
    <glyph glyph-name="uni0257" unicode="&#x257;" horiz-adv-x="614" 
d="M436 84q-55 -94 -162 -94q-64 0 -115.5 34t-80.5 94t-29 137t29 137.5t80.5 94.5t115.5 34q107 0 162 -94v170q0 79 43 121.5t112 42.5q77 0 125 -53l-55 -70q-26 30 -61 30q-25 0 -41 -17t-16 -50v-601h-107v84zM399.5 130q38.5 45 38.5 125t-38.5 125t-101.5 45
t-101.5 -45t-38.5 -125t38.5 -125t101.5 -45t101.5 45z" />
    <glyph glyph-name="uni1E0F" unicode="&#x1e0f;" horiz-adv-x="614" 
d="M158.5 24q-51.5 34 -80.5 94t-29 137t29 137.5t80.5 94.5t115.5 34q107 0 162 -94v323h107v-750h-107v84q-55 -94 -162 -94q-64 0 -115.5 34zM399.5 130q38.5 45 38.5 125t-38.5 125t-101.5 45t-101.5 -45t-38.5 -125t38.5 -125t101.5 -45t101.5 45zM157 -77h323v-86
h-323v86z" />
    <glyph glyph-name="uni0256" unicode="&#x256;" horiz-adv-x="614" 
d="M158.5 24q-51.5 34 -80.5 94t-29 137t29 137.5t80.5 94.5t115.5 34q107 0 162 -94v323h107v-811q0 -33 16 -50t41 -17q35 0 61 30l55 -70q-47 -53 -125 -53q-69 0 -112 42.5t-43 121.5v141q-55 -94 -162 -94q-64 0 -115.5 34zM399.5 130q38.5 45 38.5 125t-38.5 125
t-101.5 45t-101.5 -45t-38.5 -125t38.5 -125t101.5 -45t101.5 45z" />
    <glyph glyph-name="uni01F3" unicode="&#x1f3;" horiz-adv-x="1111" 
d="M158.5 24q-51.5 34 -80.5 94t-29 137t29 137.5t80.5 94.5t115.5 34q107 0 162 -94v323h107v-750h-107v84q-55 -94 -162 -94q-64 0 -115.5 34zM399.5 130q38.5 45 38.5 125t-38.5 125t-101.5 45t-101.5 -45t-38.5 -125t38.5 -125t101.5 -45t101.5 45zM657 78l226 288
q39 47 53 55l-1 3q-17 -7 -77 -7h-191v93h393v-80l-221 -285q-38 -47 -53 -56l1 -3q17 7 76 7h203v-93h-409v78z" />
    <glyph glyph-name="uni01C6" unicode="&#x1c6;" horiz-adv-x="1111" 
d="M158.5 24q-51.5 34 -80.5 94t-29 137t29 137.5t80.5 94.5t115.5 34q107 0 162 -94v323h107v-750h-107v84q-55 -94 -162 -94q-64 0 -115.5 34zM399.5 130q38.5 45 38.5 125t-38.5 125t-101.5 45t-101.5 -45t-38.5 -125t38.5 -125t101.5 -45t101.5 45zM657 78l226 288
q39 47 53 55l-1 3q-17 -7 -77 -7h-191v93h393v-80l-221 -285q-38 -47 -53 -56l1 -3q17 7 76 7h203v-93h-409v78zM689 737h114l21 -25q36 -40 40 -49h3q5 10 42 51l19 23h115l-129 -137h-97z" />
    <glyph glyph-name="eth" unicode="&#xf0;" horiz-adv-x="590" 
d="M169.5 22.5q-56.5 32.5 -89 91t-32.5 131.5q0 71 29.5 127t82 88t119.5 32q30 0 58 -10l-48 78h-161v75h114l-71 115h125l68 -115h149v-75h-105l80 -136q55 -90 55 -180q0 -73 -32 -131t-88.5 -90.5t-126.5 -32.5t-126.5 32.5zM395.5 128.5q38.5 42.5 38.5 114.5
q0 71 -39 113.5t-99 42.5q-61 0 -100 -42.5t-39 -113.5q0 -72 39 -114.5t100 -42.5t99.5 42.5z" />
    <glyph glyph-name="e" unicode="e" horiz-adv-x="567" 
d="M168.5 22q-56.5 33 -88 93.5t-31.5 139.5q0 80 30.5 140t85 93t124.5 33q67 0 120 -32.5t82.5 -92t29.5 -137.5q0 -20 -1 -29h-362q6 -73 43.5 -110.5t96.5 -37.5q89 0 134 69l75 -60q-36 -52 -90.5 -77t-119.5 -25q-72 0 -128.5 33zM411 307q-9 62 -41 93.5t-81 31.5
q-53 0 -85.5 -31.5t-42.5 -93.5h250z" />
    <glyph glyph-name="eacute" unicode="&#xe9;" horiz-adv-x="567" 
d="M168.5 22q-56.5 33 -88 93.5t-31.5 139.5q0 80 30.5 140t85 93t124.5 33q67 0 120 -32.5t82.5 -92t29.5 -137.5q0 -20 -1 -29h-362q6 -73 43.5 -110.5t96.5 -37.5q89 0 134 69l75 -60q-36 -52 -90.5 -77t-119.5 -25q-72 0 -128.5 33zM411 307q-9 62 -41 93.5t-81 31.5
q-53 0 -85.5 -31.5t-42.5 -93.5h250zM211 600l106 137h120l-121 -137h-105z" />
    <glyph glyph-name="ebreve" unicode="&#x115;" horiz-adv-x="567" 
d="M168.5 22q-56.5 33 -88 93.5t-31.5 139.5q0 80 30.5 140t85 93t124.5 33q67 0 120 -32.5t82.5 -92t29.5 -137.5q0 -20 -1 -29h-362q6 -73 43.5 -110.5t96.5 -37.5q89 0 134 69l75 -60q-36 -52 -90.5 -77t-119.5 -25q-72 0 -128.5 33zM411 307q-9 62 -41 93.5t-81 31.5
q-53 0 -85.5 -31.5t-42.5 -93.5h250zM173 633.5q-45 37.5 -49 103.5h93q6 -64 72 -64q65 0 71 64h93q-4 -66 -49 -103.5t-115 -37.5q-71 0 -116 37.5z" />
    <glyph glyph-name="ecaron" unicode="&#x11b;" horiz-adv-x="567" 
d="M168.5 22q-56.5 33 -88 93.5t-31.5 139.5q0 80 30.5 140t85 93t124.5 33q67 0 120 -32.5t82.5 -92t29.5 -137.5q0 -20 -1 -29h-362q6 -73 43.5 -110.5t96.5 -37.5q89 0 134 69l75 -60q-36 -52 -90.5 -77t-119.5 -25q-72 0 -128.5 33zM411 307q-9 62 -41 93.5t-81 31.5
q-53 0 -85.5 -31.5t-42.5 -93.5h250zM113 737h114l21 -25q36 -40 40 -49h3q5 10 42 51l19 23h115l-129 -137h-97z" />
    <glyph glyph-name="uni0229" unicode="&#x229;" horiz-adv-x="567" 
d="M204 -84h56q13 0 20.5 6t7.5 16q0 15 -15 32l-20 22q-93 15 -148.5 85.5t-55.5 177.5q0 80 30.5 140t85 93t124.5 33q67 0 120 -32.5t82.5 -92t29.5 -137.5q0 -20 -1 -29h-362q6 -73 43.5 -110.5t96.5 -37.5q89 0 134 69l75 -60q-60 -87 -173 -100l14 -13q38 -35 38 -76
q0 -32 -25.5 -54.5t-70.5 -22.5h-86v91zM411 307q-9 62 -41 93.5t-81 31.5q-53 0 -85.5 -31.5t-42.5 -93.5h250z" />
    <glyph glyph-name="uni1E1D" unicode="&#x1e1d;" horiz-adv-x="567" 
d="M204 -84h56q13 0 20.5 6t7.5 16q0 15 -15 32l-20 22q-93 15 -148.5 85.5t-55.5 177.5q0 80 30.5 140t85 93t124.5 33q67 0 120 -32.5t82.5 -92t29.5 -137.5q0 -20 -1 -29h-362q6 -73 43.5 -110.5t96.5 -37.5q89 0 134 69l75 -60q-60 -87 -173 -100l14 -13q38 -35 38 -76
q0 -32 -25.5 -54.5t-70.5 -22.5h-86v91zM173 633.5q-45 37.5 -49 103.5h93q6 -64 72 -64q65 0 71 64h93q-4 -66 -49 -103.5t-115 -37.5q-71 0 -116 37.5zM411 307q-9 62 -41 93.5t-81 31.5q-53 0 -85.5 -31.5t-42.5 -93.5h250z" />
    <glyph glyph-name="ecircumflex" unicode="&#xea;" horiz-adv-x="567" 
d="M168.5 22q-56.5 33 -88 93.5t-31.5 139.5q0 80 30.5 140t85 93t124.5 33q67 0 120 -32.5t82.5 -92t29.5 -137.5q0 -20 -1 -29h-362q6 -73 43.5 -110.5t96.5 -37.5q89 0 134 69l75 -60q-36 -52 -90.5 -77t-119.5 -25q-72 0 -128.5 33zM411 307q-9 62 -41 93.5t-81 31.5
q-53 0 -85.5 -31.5t-42.5 -93.5h250zM241 738h97l128 -138h-114l-20 23q-35 38 -41 51h-3q-3 -4 -33 -41q-14 -16 -28 -33h-115z" />
    <glyph glyph-name="uni1EBF" unicode="&#x1ebf;" horiz-adv-x="567" 
d="M168.5 22q-56.5 33 -88 93.5t-31.5 139.5q0 80 30.5 140t85 93t124.5 33q67 0 120 -32.5t82.5 -92t29.5 -137.5q0 -20 -1 -29h-362q6 -73 43.5 -110.5t96.5 -37.5q89 0 134 69l75 -60q-36 -52 -90.5 -77t-119.5 -25q-72 0 -128.5 33zM411 307q-9 62 -41 93.5t-81 31.5
q-53 0 -85.5 -31.5t-42.5 -93.5h250zM242 722h97l128 -137h-114l-20 23q-35 38 -41 51h-3q-7 -12 -43 -53l-18 -21h-115zM478 809h116l-87 -122h-97z" />
    <glyph glyph-name="uni1E19" unicode="&#x1e19;" horiz-adv-x="567" 
d="M168.5 22q-56.5 33 -88 93.5t-31.5 139.5q0 80 30.5 140t85 93t124.5 33q67 0 120 -32.5t82.5 -92t29.5 -137.5q0 -20 -1 -29h-362q6 -73 43.5 -110.5t96.5 -37.5q89 0 134 69l75 -60q-36 -52 -90.5 -77t-119.5 -25q-72 0 -128.5 33zM411 307q-9 62 -41 93.5t-81 31.5
q-53 0 -85.5 -31.5t-42.5 -93.5h250zM462 -211h-115l-21 25q-36 40 -40 49h-3q-5 -10 -42 -51l-19 -23h-114l129 137h96z" />
    <glyph glyph-name="uni1EC7" unicode="&#x1ec7;" horiz-adv-x="567" 
d="M168.5 22q-56.5 33 -88 93.5t-31.5 139.5q0 80 30.5 140t85 93t124.5 33q67 0 120 -32.5t82.5 -92t29.5 -137.5q0 -20 -1 -29h-362q6 -73 43.5 -110.5t96.5 -37.5q89 0 134 69l75 -60q-36 -52 -90.5 -77t-119.5 -25q-72 0 -128.5 33zM411 307q-9 62 -41 93.5t-81 31.5
q-53 0 -85.5 -31.5t-42.5 -93.5h250zM233.5 -177.5q-20.5 18.5 -20.5 48.5q0 31 20.5 50t51.5 19t51.5 -19t20.5 -50q0 -30 -20.5 -48.5t-51.5 -18.5t-51.5 18.5zM241 738h97l128 -138h-114l-20 23q-35 38 -41 51h-3q-3 -4 -33 -41q-14 -16 -28 -33h-115z" />
    <glyph glyph-name="uni1EC1" unicode="&#x1ec1;" horiz-adv-x="567" 
d="M168.5 22q-56.5 33 -88 93.5t-31.5 139.5q0 80 30.5 140t85 93t124.5 33q67 0 120 -32.5t82.5 -92t29.5 -137.5q0 -20 -1 -29h-362q6 -73 43.5 -110.5t96.5 -37.5q89 0 134 69l75 -60q-36 -52 -90.5 -77t-119.5 -25q-72 0 -128.5 33zM411 307q-9 62 -41 93.5t-81 31.5
q-53 0 -85.5 -31.5t-42.5 -93.5h250zM241 722h97l128 -137h-114l-20 23q-35 38 -41 51h-3q-7 -12 -43 -53l-18 -21h-115zM350 809h116l68 -122h-97z" />
    <glyph glyph-name="uni1EC3" unicode="&#x1ec3;" horiz-adv-x="567" 
d="M168.5 22q-56.5 33 -88 93.5t-31.5 139.5q0 80 30.5 140t85 93t124.5 33q67 0 120 -32.5t82.5 -92t29.5 -137.5q0 -20 -1 -29h-362q6 -73 43.5 -110.5t96.5 -37.5q89 0 134 69l75 -60q-36 -52 -90.5 -77t-119.5 -25q-72 0 -128.5 33zM411 307q-9 62 -41 93.5t-81 31.5
q-53 0 -85.5 -31.5t-42.5 -93.5h250zM241 722h96l129 -137h-115l-20 23q-35 38 -41 51h-3q-7 -12 -43 -53l-18 -21h-114zM434 762q0 11 -7 17.5t-20 6.5q-10 0 -20.5 -6t-18.5 -16l-57 49q18 26 45 39t59 13q47 0 77 -25t30 -60q0 -40 -38 -85h-85q35 45 35 67z" />
    <glyph glyph-name="uni1EC5" unicode="&#x1ec5;" horiz-adv-x="567" 
d="M168.5 22q-56.5 33 -88 93.5t-31.5 139.5q0 80 30.5 140t85 93t124.5 33q67 0 120 -32.5t82.5 -92t29.5 -137.5q0 -20 -1 -29h-362q6 -73 43.5 -110.5t96.5 -37.5q89 0 134 69l75 -60q-36 -52 -90.5 -77t-119.5 -25q-72 0 -128.5 33zM411 307q-9 62 -41 93.5t-81 31.5
q-53 0 -85.5 -31.5t-42.5 -93.5h250zM241 722h97l128 -137h-114l-20 23q-35 38 -41 51h-3q-5 -10 -42 -51l-19 -23h-115zM312.5 770q-19.5 7 -39.5 19q-10 6 -20 10.5t-19 4.5q-13 0 -20.5 -9.5t-7.5 -27.5h-87q0 53 31.5 85t73.5 32q27 0 46.5 -7t39.5 -19q10 -6 20 -10.5
t19 -4.5q12 0 20 9.5t8 26.5h87q0 -52 -31.5 -84t-73.5 -32q-27 0 -46.5 7z" />
    <glyph glyph-name="uni0205" unicode="&#x205;" horiz-adv-x="567" 
d="M168.5 22q-56.5 33 -88 93.5t-31.5 139.5q0 80 30.5 140t85 93t124.5 33q67 0 120 -32.5t82.5 -92t29.5 -137.5q0 -20 -1 -29h-362q6 -73 43.5 -110.5t96.5 -37.5q89 0 134 69l75 -60q-36 -52 -90.5 -77t-119.5 -25q-72 0 -128.5 33zM411 307q-9 62 -41 93.5t-81 31.5
q-53 0 -85.5 -31.5t-42.5 -93.5h250zM30 737h120l108 -137h-103zM232 737h114l104 -137h-102z" />
    <glyph glyph-name="edieresis" unicode="&#xeb;" horiz-adv-x="567" 
d="M168.5 22q-56.5 33 -88 93.5t-31.5 139.5q0 80 30.5 140t85 93t124.5 33q67 0 120 -32.5t82.5 -92t29.5 -137.5q0 -20 -1 -29h-362q6 -73 43.5 -110.5t96.5 -37.5q89 0 134 69l75 -60q-36 -52 -90.5 -77t-119.5 -25q-72 0 -128.5 33zM411 307q-9 62 -41 93.5t-81 31.5
q-53 0 -85.5 -31.5t-42.5 -93.5h250zM130.5 625.5q-18.5 17.5 -18.5 47.5t18.5 47.5t47.5 17.5t48 -17.5t19 -47.5t-19 -47.5t-48 -17.5t-47.5 17.5zM352 625.5q-19 17.5 -19 47.5t19 47.5t48 17.5t47.5 -17.5t18.5 -47.5t-18.5 -47.5t-47.5 -17.5t-48 17.5z" />
    <glyph glyph-name="edotaccent" unicode="&#x117;" horiz-adv-x="567" 
d="M168.5 22q-56.5 33 -88 93.5t-31.5 139.5q0 80 30.5 140t85 93t124.5 33q67 0 120 -32.5t82.5 -92t29.5 -137.5q0 -20 -1 -29h-362q6 -73 43.5 -110.5t96.5 -37.5q89 0 134 69l75 -60q-36 -52 -90.5 -77t-119.5 -25q-72 0 -128.5 33zM411 307q-9 62 -41 93.5t-81 31.5
q-53 0 -85.5 -31.5t-42.5 -93.5h250zM238 627q-20 19 -20 49q0 31 20 50t51 19t51.5 -19t20.5 -50q0 -30 -20.5 -49t-51.5 -19t-51 19z" />
    <glyph glyph-name="uni1EB9" unicode="&#x1eb9;" horiz-adv-x="567" 
d="M168.5 22q-56.5 33 -88 93.5t-31.5 139.5q0 80 30.5 140t85 93t124.5 33q67 0 120 -32.5t82.5 -92t29.5 -137.5q0 -20 -1 -29h-362q6 -73 43.5 -110.5t96.5 -37.5q89 0 134 69l75 -60q-36 -52 -90.5 -77t-119.5 -25q-72 0 -128.5 33zM411 307q-9 62 -41 93.5t-81 31.5
q-53 0 -85.5 -31.5t-42.5 -93.5h250zM233.5 -177.5q-20.5 18.5 -20.5 48.5q0 31 20.5 50t51.5 19t51.5 -19t20.5 -50q0 -30 -20.5 -48.5t-51.5 -18.5t-51.5 18.5z" />
    <glyph glyph-name="egrave" unicode="&#xe8;" horiz-adv-x="567" 
d="M168.5 22q-56.5 33 -88 93.5t-31.5 139.5q0 80 30.5 140t85 93t124.5 33q67 0 120 -32.5t82.5 -92t29.5 -137.5q0 -20 -1 -29h-362q6 -73 43.5 -110.5t96.5 -37.5q89 0 134 69l75 -60q-36 -52 -90.5 -77t-119.5 -25q-72 0 -128.5 33zM411 307q-9 62 -41 93.5t-81 31.5
q-53 0 -85.5 -31.5t-42.5 -93.5h250zM141 737h120l106 -137h-105z" />
    <glyph glyph-name="uni1EBB" unicode="&#x1ebb;" horiz-adv-x="567" 
d="M168.5 22q-56.5 33 -88 93.5t-31.5 139.5q0 80 30.5 140t85 93t124.5 33q67 0 120 -32.5t82.5 -92t29.5 -137.5q0 -20 -1 -29h-362q6 -73 43.5 -110.5t96.5 -37.5q89 0 134 69l75 -60q-36 -52 -90.5 -77t-119.5 -25q-72 0 -128.5 33zM411 307q-9 62 -41 93.5t-81 31.5
q-53 0 -85.5 -31.5t-42.5 -93.5h250zM295.5 628.5q8.5 15.5 8.5 27.5q0 11 -7 17.5t-20 6.5q-22 0 -40 -22l-56 49q35 52 104 52q46 0 76 -25t30 -60q0 -40 -38 -85h-85q19 24 27.5 39.5z" />
    <glyph glyph-name="uni0207" unicode="&#x207;" horiz-adv-x="567" 
d="M168.5 22q-56.5 33 -88 93.5t-31.5 139.5q0 80 30.5 140t85 93t124.5 33q67 0 120 -32.5t82.5 -92t29.5 -137.5q0 -20 -1 -29h-362q6 -73 43.5 -110.5t96.5 -37.5q89 0 134 69l75 -60q-36 -52 -90.5 -77t-119.5 -25q-72 0 -128.5 33zM411 307q-9 62 -41 93.5t-81 31.5
q-53 0 -85.5 -31.5t-42.5 -93.5h250zM400 705q44 -38 48 -103h-93q-3 31 -20.5 46.5t-45.5 15.5q-29 0 -46.5 -15.5t-20.5 -46.5h-93q4 67 48 104t112 37q67 0 111 -38z" />
    <glyph glyph-name="emacron" unicode="&#x113;" horiz-adv-x="567" 
d="M168.5 22q-56.5 33 -88 93.5t-31.5 139.5q0 80 30.5 140t85 93t124.5 33q67 0 120 -32.5t82.5 -92t29.5 -137.5q0 -20 -1 -29h-362q6 -73 43.5 -110.5t96.5 -37.5q89 0 134 69l75 -60q-36 -52 -90.5 -77t-119.5 -25q-72 0 -128.5 33zM411 307q-9 62 -41 93.5t-81 31.5
q-53 0 -85.5 -31.5t-42.5 -93.5h250zM128 713h322v-87h-322v87z" />
    <glyph glyph-name="uni1E17" unicode="&#x1e17;" horiz-adv-x="567" 
d="M168.5 22q-56.5 33 -88 93.5t-31.5 139.5q0 80 30.5 140t85 93t124.5 33q67 0 120 -32.5t82.5 -92t29.5 -137.5q0 -20 -1 -29h-362q6 -73 43.5 -110.5t96.5 -37.5q89 0 134 69l75 -60q-36 -52 -90.5 -77t-119.5 -25q-72 0 -128.5 33zM411 307q-9 62 -41 93.5t-81 31.5
q-53 0 -85.5 -31.5t-42.5 -93.5h250zM128 676h322v-86h-322v86zM211 733l106 137h120l-121 -137h-105z" />
    <glyph glyph-name="uni1E15" unicode="&#x1e15;" horiz-adv-x="567" 
d="M168.5 22q-56.5 33 -88 93.5t-31.5 139.5q0 80 30.5 140t85 93t124.5 33q67 0 120 -32.5t82.5 -92t29.5 -137.5q0 -20 -1 -29h-362q6 -73 43.5 -110.5t96.5 -37.5q89 0 134 69l75 -60q-36 -52 -90.5 -77t-119.5 -25q-72 0 -128.5 33zM411 307q-9 62 -41 93.5t-81 31.5
q-53 0 -85.5 -31.5t-42.5 -93.5h250zM128 677h322v-86h-322v86zM150 870h120l106 -138h-105z" />
    <glyph glyph-name="eogonek" unicode="&#x119;" horiz-adv-x="567" 
d="M168.5 22q-56.5 33 -88 93.5t-31.5 139.5q0 80 30.5 140t85 93t124.5 33q67 0 120 -32.5t82.5 -92t29.5 -137.5q0 -20 -1 -29h-362q6 -73 43.5 -110.5t96.5 -37.5q89 0 134 69l75 -60q-22 -31 -50 -53l-35 -48q-17 -23 -23 -33t-6 -19q0 -10 7.5 -16t20.5 -6h32v-91h-62
q-45 0 -70.5 21.5t-25.5 53.5q0 19 10.5 38.5t36.5 49.5l4 5q-23 -4 -49 -4q-72 0 -128.5 33zM411 307q-9 62 -41 93.5t-81 31.5q-53 0 -85.5 -31.5t-42.5 -93.5h250z" />
    <glyph glyph-name="uni025B" unicode="&#xa72b;" horiz-adv-x="520" 
d="M110 30q-62 41 -62 115q0 44 27 75t76 48q-42 17 -64.5 44t-22.5 63q0 66 56 106t145 40q70 0 125.5 -28t82.5 -80l-83 -47q-39 63 -118 63q-45 0 -72 -16.5t-27 -49.5q0 -31 28.5 -46.5t73.5 -15.5h70v-79h-73q-115 0 -115 -69q0 -38 32 -55t82 -17q46 0 81.5 20
t52.5 56l85 -47q-30 -57 -89.5 -89t-137.5 -32q-91 0 -153 41z" />
    <glyph glyph-name="uni025B" unicode="&#x511;" horiz-adv-x="520" 
d="M110 30q-62 41 -62 115q0 44 27 75t76 48q-42 17 -64.5 44t-22.5 63q0 66 56 106t145 40q70 0 125.5 -28t82.5 -80l-83 -47q-39 63 -118 63q-45 0 -72 -16.5t-27 -49.5q0 -31 28.5 -46.5t73.5 -15.5h70v-79h-73q-115 0 -115 -69q0 -38 32 -55t82 -17q46 0 81.5 20
t52.5 56l85 -47q-30 -57 -89.5 -89t-137.5 -32q-91 0 -153 41z" />
    <glyph glyph-name="uni025B" unicode="&#x25b;" horiz-adv-x="520" 
d="M110 30q-62 41 -62 115q0 44 27 75t76 48q-42 17 -64.5 44t-22.5 63q0 66 56 106t145 40q70 0 125.5 -28t82.5 -80l-83 -47q-39 63 -118 63q-45 0 -72 -16.5t-27 -49.5q0 -31 28.5 -46.5t73.5 -15.5h70v-79h-73q-115 0 -115 -69q0 -38 32 -55t82 -17q46 0 81.5 20
t52.5 56l85 -47q-30 -57 -89.5 -89t-137.5 -32q-91 0 -153 41z" />
    <glyph glyph-name="uni0283" unicode="&#x283;" horiz-adv-x="286" 
d="M-84 -169l55 71q26 -30 61 -30q25 0 41.5 17t16.5 50v658q0 79 42.5 121.5t112.5 42.5q77 0 125 -53l-55 -70q-26 30 -61 30q-25 0 -41 -17t-16 -50v-658q0 -79 -43 -121.5t-113 -42.5q-78 0 -125 52z" />
    <glyph glyph-name="uni01AA" unicode="&#x1aa;" horiz-adv-x="338" 
d="M194 -178.5q-43 42.5 -43 121.5v574q-34 -28 -78 -28q-28 0 -59 12.5t-53.5 42t-22.5 78.5t25.5 80t61.5 45t69 14q73 0 118.5 -42t45.5 -120v-660q0 -33 16 -50t41 -17q35 0 61 30l55 -71q-47 -52 -125 -52q-69 0 -112 42.5zM133.5 587q17.5 12 17.5 36t-17.5 36
t-39.5 12t-39.5 -12t-17.5 -36t17.5 -36t39.5 -12t39.5 12z" />
    <glyph glyph-name="uni0247" unicode="&#x247;" horiz-adv-x="570" 
d="M170 21q-57 33 -89 93.5t-32 140.5t30.5 140t85 93t124.5 33q19 0 38 -3l48 150h78l-55 -173q57 -31 90 -92t33 -144q0 -20 -1 -29h-362q6 -73 43.5 -110.5t96.5 -37.5q89 0 134 69l75 -60q-36 -52 -90.5 -77t-119.5 -25q-29 0 -58 6l-48 -153h-78zM411 307
q-9 62 -41 93.5t-81 31.5q-53 0 -85.5 -31.5t-42.5 -93.5h250z" />
    <glyph glyph-name="uni1EBD" unicode="&#x1ebd;" horiz-adv-x="567" 
d="M168.5 22q-56.5 33 -88 93.5t-31.5 139.5q0 80 30.5 140t85 93t124.5 33q67 0 120 -32.5t82.5 -92t29.5 -137.5q0 -20 -1 -29h-362q6 -73 43.5 -110.5t96.5 -37.5q89 0 134 69l75 -60q-36 -52 -90.5 -77t-119.5 -25q-72 0 -128.5 33zM411 307q-9 62 -41 93.5t-81 31.5
q-53 0 -85.5 -31.5t-42.5 -93.5h250zM312.5 609q-19.5 9 -39.5 24q-13 9 -21.5 13.5t-17.5 4.5q-13 0 -20.5 -12t-7.5 -34h-87q0 40 15.5 70t40.5 45.5t53 15.5q27 0 46.5 -9t39.5 -24q13 -9 21.5 -13.5t17.5 -4.5q13 0 20.5 11.5t7.5 34.5h87q0 -40 -15.5 -70t-40.5 -45.5
t-53 -15.5q-27 0 -46.5 9z" />
    <glyph glyph-name="uni1E1B" unicode="&#x1e1b;" horiz-adv-x="567" 
d="M168.5 22q-56.5 33 -88 93.5t-31.5 139.5q0 80 30.5 140t85 93t124.5 33q67 0 120 -32.5t82.5 -92t29.5 -137.5q0 -20 -1 -29h-362q6 -73 43.5 -110.5t96.5 -37.5q89 0 134 69l75 -60q-36 -52 -90.5 -77t-119.5 -25q-72 0 -128.5 33zM411 307q-9 62 -41 93.5t-81 31.5
q-53 0 -85.5 -31.5t-42.5 -93.5h250zM303.5 -188q-19.5 9 -39.5 24q-13 9 -21.5 13.5t-17.5 4.5q-13 0 -20.5 -12t-7.5 -34h-87q0 60 32.5 95t76.5 35q27 0 46.5 -9t39.5 -24q13 -9 21.5 -13.5t17.5 -4.5q13 0 20.5 12t7.5 34h87q0 -60 -32.5 -95t-76.5 -35q-27 0 -46.5 9z
" />
    <glyph glyph-name="uni01DD" unicode="&#x1dd;" horiz-adv-x="567" 
d="M398.5 488q56.5 -33 88 -93.5t31.5 -139.5q0 -80 -30.5 -140t-85 -93t-124.5 -33q-67 0 -120 32.5t-82.5 92t-29.5 137.5q0 20 1 29h362q-6 73 -43.5 110.5t-96.5 37.5q-89 0 -134 -69l-75 60q36 52 90.5 77t119.5 25q72 0 128.5 -33zM197 109.5q32 -31.5 81 -31.5
q53 0 85.5 31.5t42.5 93.5h-250q9 -62 41 -93.5z" />
    <glyph glyph-name="uni0259" unicode="&#x259;" horiz-adv-x="567" 
d="M398.5 488q56.5 -33 88 -93.5t31.5 -139.5q0 -80 -30.5 -140t-85 -93t-124.5 -33q-67 0 -120 32.5t-82.5 92t-29.5 137.5q0 20 1 29h362q-6 73 -43.5 110.5t-96.5 37.5q-89 0 -134 -69l-75 60q36 52 90.5 77t119.5 25q72 0 128.5 -33zM197 109.5q32 -31.5 81 -31.5
q53 0 85.5 31.5t42.5 93.5h-250q9 -62 41 -93.5z" />
    <glyph glyph-name="uni0292" unicode="&#x292;" horiz-adv-x="500" 
d="M93.5 -183q-58.5 38 -85.5 111l81 48q19 -52 54 -77t81 -25q56 0 91.5 32.5t35.5 93.5t-39.5 94t-98.5 33h-75v75l129 165q36 47 53 56l-1 4q-16 -5 -77 -5h-195v88h385v-80l-175 -221q60 -4 106 -31.5t71.5 -73.5t25.5 -104q0 -69 -30 -119t-83.5 -76t-121.5 -26
q-73 0 -131.5 38z" />
    <glyph glyph-name="uni01EF" unicode="&#x1ef;" horiz-adv-x="500" 
d="M93.5 -183q-58.5 38 -85.5 111l81 48q19 -52 54 -77t81 -25q56 0 91.5 32.5t35.5 93.5t-39.5 94t-98.5 33h-75v75l129 165q36 47 53 56l-1 4q-16 -5 -77 -5h-195v88h385v-80l-175 -221q60 -4 106 -31.5t71.5 -73.5t25.5 -104q0 -69 -30 -119t-83.5 -76t-121.5 -26
q-73 0 -131.5 38zM65 737h114l21 -25q36 -40 40 -49h3q5 10 42 51l19 23h115l-129 -137h-97z" />
    <glyph glyph-name="uni01B9" unicode="&#x1b9;" horiz-adv-x="500" 
d="M149.5 -195q-53.5 26 -83.5 76t-30 119q0 88 56.5 145.5t147.5 63.5l-175 221v80h384v-88h-195q-61 0 -77 5l-1 -4q17 -9 53 -56l129 -165v-75h-74q-60 0 -99.5 -33t-39.5 -94t35.5 -93.5t91.5 -32.5q46 0 81 25t54 77l81 -48q-27 -73 -85 -111t-132 -38q-68 0 -121.5 26
z" />
    <glyph glyph-name="f" unicode="f" horiz-adv-x="365" 
d="M156.5 714.5q41.5 43.5 116.5 43.5h63v-93h-51q-62 0 -62 -73v-82h113v-88h-113v-422h-108v422h-79v88h79v86q0 75 41.5 118.5z" />
    <glyph glyph-name="f.text" horiz-adv-x="365" 
d="M156.5 665q41.5 44 116.5 44h63v-93h-51q-63 0 -63 -74v-32h114v-88h-114v-422h-107v422h-79v88h79v36q0 75 41.5 119z" />
    <glyph glyph-name="uniA799" unicode="&#xa799;" horiz-adv-x="379" 
d="M40 328h79v94h-79v88h79v86q0 75 41 118.5t116 43.5h64v-93h-51q-62 0 -62 -73v-82h113v-88h-113v-94h113v-79h-113v-249h-108v249h-79v79z" />
    <glyph glyph-name="uni1E1F" unicode="&#x1e1f;" horiz-adv-x="365" 
d="M156.5 714.5q41.5 43.5 116.5 43.5h63v-93h-51q-62 0 -62 -73v-82h113v-88h-113v-422h-108v422h-79v88h79v86q0 75 41.5 118.5zM176 867q-20 19 -20 49q0 31 20 50t51 19t51.5 -19t20.5 -50q0 -30 -20.5 -49t-51.5 -19t-51 19z" />
    <glyph glyph-name="g" unicode="g" horiz-adv-x="598" 
d="M146 -143q-62 37 -93 106l81 51q23 -47 60.5 -73t84.5 -26q62 0 102 36t40 104v73q-24 -42 -62.5 -66t-92.5 -24q-62 0 -111.5 31t-78 86t-28.5 124t28.5 124t78 86.5t111.5 31.5q53 0 92.5 -24.5t62.5 -65.5v79h106v-449q0 -76 -31.5 -130.5t-88 -82.5t-129.5 -28
q-70 0 -132 37zM385 173.5q37 40.5 37 105.5q0 66 -37 106t-95 40q-59 0 -96 -40t-37 -106t37 -106t96 -40q58 0 95 40.5z" />
    <glyph glyph-name="g.ss01" horiz-adv-x="580" 
d="M100.5 -148q-63.5 36 -63.5 92q0 34 22 60.5t62 40.5q-35 13 -54.5 36.5t-19.5 54.5q0 38 26.5 63.5t73.5 35.5q-70 43 -70 120q0 49 28 87t77 58.5t112 20.5q83 0 131.5 5t91.5 26l32 -84q-49 -21 -99 -27q57 -35 57 -97q0 -45 -28 -79.5t-78.5 -53.5t-116.5 -19
q-67 0 -101 -7.5t-34 -33.5q0 -23 36 -30t100 -7h28q118 0 178 -40t60 -108t-64 -109t-192 -41q-131 0 -194.5 36zM403.5 -86.5q33.5 15.5 33.5 45.5t-33 45t-110 15q-144 0 -144 -60q0 -61 144 -61q76 0 109.5 15.5zM373 296q29 21 29 58q0 38 -29 59.5t-80 21.5t-81 -21.5
t-30 -59.5q0 -37 30 -58t81 -21t80 21z" />
    <glyph glyph-name="uni01F5" unicode="&#x1f5;" horiz-adv-x="598" 
d="M146 -143q-62 37 -93 106l81 51q23 -47 60.5 -73t84.5 -26q62 0 102 36t40 104v73q-24 -42 -62.5 -66t-92.5 -24q-62 0 -111.5 31t-78 86t-28.5 124t28.5 124t78 86.5t111.5 31.5q53 0 92.5 -24.5t62.5 -65.5v79h106v-449q0 -76 -31.5 -130.5t-88 -82.5t-129.5 -28
q-70 0 -132 37zM385 173.5q37 40.5 37 105.5q0 66 -37 106t-95 40q-59 0 -96 -40t-37 -106t37 -106t96 -40q58 0 95 40.5zM221 600l106 137h120l-121 -137h-105z" />
    <glyph glyph-name="uni01F5.ss01" horiz-adv-x="580" 
d="M100.5 -148q-63.5 36 -63.5 92q0 34 22 60.5t62 40.5q-35 13 -54.5 36.5t-19.5 54.5q0 38 26.5 63.5t73.5 35.5q-70 43 -70 120q0 49 28 87t77 58.5t112 20.5q83 0 131.5 5t91.5 26l32 -84q-49 -21 -99 -27q57 -35 57 -97q0 -45 -28 -79.5t-78.5 -53.5t-116.5 -19
q-67 0 -101 -7.5t-34 -33.5q0 -23 36 -30t100 -7h28q118 0 178 -40t60 -108t-64 -109t-192 -41q-131 0 -194.5 36zM403.5 -86.5q33.5 15.5 33.5 45.5t-33 45t-110 15q-144 0 -144 -60q0 -61 144 -61q76 0 109.5 15.5zM373 296q29 21 29 58q0 38 -29 59.5t-80 21.5t-81 -21.5
t-30 -59.5q0 -37 30 -58t81 -21t80 21zM212 600l106 137h120l-121 -137h-105z" />
    <glyph glyph-name="uni0263" unicode="&#x263;" horiz-adv-x="545" 
d="M182 -186.5q-30 34.5 -30 80.5q0 51 54 152l-187 464h118l111 -287q22 -64 24 -94h3q0 24 25 94l110 287h114l-186 -464q25 -49 39.5 -86t14.5 -66q0 -46 -30 -80.5t-90 -34.5t-90 34.5zM296.5 -132q8.5 11 8.5 30q0 21 -16 61q-14 36 -14 50h-4q0 -16 -15 -50
q-6 -15 -11.5 -31.5t-5.5 -29.5q0 -19 8.5 -30t24.5 -11t24.5 11z" />
    <glyph glyph-name="gbreve" unicode="&#x11f;" horiz-adv-x="598" 
d="M146 -143q-62 37 -93 106l81 51q23 -47 60.5 -73t84.5 -26q62 0 102 36t40 104v73q-24 -42 -62.5 -66t-92.5 -24q-62 0 -111.5 31t-78 86t-28.5 124t28.5 124t78 86.5t111.5 31.5q53 0 92.5 -24.5t62.5 -65.5v79h106v-449q0 -76 -31.5 -130.5t-88 -82.5t-129.5 -28
q-70 0 -132 37zM385 173.5q37 40.5 37 105.5q0 66 -37 106t-95 40q-59 0 -96 -40t-37 -106t37 -106t96 -40q58 0 95 40.5zM183 633.5q-45 37.5 -49 103.5h93q6 -64 72 -64q65 0 71 64h93q-4 -66 -49 -103.5t-115 -37.5q-71 0 -116 37.5z" />
    <glyph glyph-name="gbreve.ss01" horiz-adv-x="580" 
d="M100.5 -148q-63.5 36 -63.5 92q0 34 22 60.5t62 40.5q-35 13 -54.5 36.5t-19.5 54.5q0 38 26.5 63.5t73.5 35.5q-70 43 -70 120q0 49 28 87t77 58.5t112 20.5q83 0 131.5 5t91.5 26l32 -84q-49 -21 -99 -27q57 -35 57 -97q0 -45 -28 -79.5t-78.5 -53.5t-116.5 -19
q-67 0 -101 -7.5t-34 -33.5q0 -23 36 -30t100 -7h28q118 0 178 -40t60 -108t-64 -109t-192 -41q-131 0 -194.5 36zM403.5 -86.5q33.5 15.5 33.5 45.5t-33 45t-110 15q-144 0 -144 -60q0 -61 144 -61q76 0 109.5 15.5zM373 296q29 21 29 58q0 38 -29 59.5t-80 21.5t-81 -21.5
t-30 -59.5q0 -37 30 -58t81 -21t80 21zM174 633.5q-45 37.5 -49 103.5h93q6 -64 72 -64q65 0 71 64h93q-4 -66 -49 -103.5t-115 -37.5q-71 0 -116 37.5z" />
    <glyph glyph-name="gcaron" unicode="&#x1e7;" horiz-adv-x="598" 
d="M146 -143q-62 37 -93 106l81 51q23 -47 60.5 -73t84.5 -26q62 0 102 36t40 104v73q-24 -42 -62.5 -66t-92.5 -24q-62 0 -111.5 31t-78 86t-28.5 124t28.5 124t78 86.5t111.5 31.5q53 0 92.5 -24.5t62.5 -65.5v79h106v-449q0 -76 -31.5 -130.5t-88 -82.5t-129.5 -28
q-70 0 -132 37zM385 173.5q37 40.5 37 105.5q0 66 -37 106t-95 40q-59 0 -96 -40t-37 -106t37 -106t96 -40q58 0 95 40.5zM123 737h114l21 -25q36 -40 40 -49h3q5 10 42 51l19 23h115l-129 -137h-97z" />
    <glyph glyph-name="gcaron.ss01" horiz-adv-x="580" 
d="M100.5 -148q-63.5 36 -63.5 92q0 34 22 60.5t62 40.5q-35 13 -54.5 36.5t-19.5 54.5q0 38 26.5 63.5t73.5 35.5q-70 43 -70 120q0 49 28 87t77 58.5t112 20.5q83 0 131.5 5t91.5 26l32 -84q-49 -21 -99 -27q57 -35 57 -97q0 -45 -28 -79.5t-78.5 -53.5t-116.5 -19
q-67 0 -101 -7.5t-34 -33.5q0 -23 36 -30t100 -7h28q118 0 178 -40t60 -108t-64 -109t-192 -41q-131 0 -194.5 36zM403.5 -86.5q33.5 15.5 33.5 45.5t-33 45t-110 15q-144 0 -144 -60q0 -61 144 -61q76 0 109.5 15.5zM373 296q29 21 29 58q0 38 -29 59.5t-80 21.5t-81 -21.5
t-30 -59.5q0 -37 30 -58t81 -21t80 21zM114 737h114l21 -25q36 -40 40 -49h3q5 10 42 51l19 23h115l-129 -137h-97z" />
    <glyph glyph-name="gcircumflex" unicode="&#x11d;" horiz-adv-x="598" 
d="M146 -143q-62 37 -93 106l81 51q23 -47 60.5 -73t84.5 -26q62 0 102 36t40 104v73q-24 -42 -62.5 -66t-92.5 -24q-62 0 -111.5 31t-78 86t-28.5 124t28.5 124t78 86.5t111.5 31.5q53 0 92.5 -24.5t62.5 -65.5v79h106v-449q0 -76 -31.5 -130.5t-88 -82.5t-129.5 -28
q-70 0 -132 37zM385 173.5q37 40.5 37 105.5q0 66 -37 106t-95 40q-59 0 -96 -40t-37 -106t37 -106t96 -40q58 0 95 40.5zM251 738h97l128 -138h-114l-20 23q-35 38 -41 51h-3q-3 -4 -33 -41q-14 -16 -28 -33h-115z" />
    <glyph glyph-name="gcircumflex.ss01" horiz-adv-x="580" 
d="M100.5 -148q-63.5 36 -63.5 92q0 34 22 60.5t62 40.5q-35 13 -54.5 36.5t-19.5 54.5q0 38 26.5 63.5t73.5 35.5q-70 43 -70 120q0 49 28 87t77 58.5t112 20.5q83 0 131.5 5t91.5 26l32 -84q-49 -21 -99 -27q57 -35 57 -97q0 -45 -28 -79.5t-78.5 -53.5t-116.5 -19
q-67 0 -101 -7.5t-34 -33.5q0 -23 36 -30t100 -7h28q118 0 178 -40t60 -108t-64 -109t-192 -41q-131 0 -194.5 36zM403.5 -86.5q33.5 15.5 33.5 45.5t-33 45t-110 15q-144 0 -144 -60q0 -61 144 -61q76 0 109.5 15.5zM373 296q29 21 29 58q0 38 -29 59.5t-80 21.5t-81 -21.5
t-30 -59.5q0 -37 30 -58t81 -21t80 21zM242 738h97l128 -138h-114l-20 23q-35 38 -41 51h-3q-3 -4 -33 -41q-14 -16 -28 -33h-115z" />
    <glyph glyph-name="uni0123" unicode="&#x123;" horiz-adv-x="598" 
d="M146 -143q-62 37 -93 106l81 51q23 -47 60.5 -73t84.5 -26q62 0 102 36t40 104v73q-24 -42 -62.5 -66t-92.5 -24q-62 0 -111.5 31t-78 86t-28.5 124t28.5 124t78 86.5t111.5 31.5q53 0 92.5 -24.5t62.5 -65.5v79h106v-449q0 -76 -31.5 -130.5t-88 -82.5t-129.5 -28
q-70 0 -132 37zM385 173.5q37 40.5 37 105.5q0 66 -37 106t-95 40q-59 0 -96 -40t-37 -106t37 -106t96 -40q58 0 95 40.5zM366 760l-46 -63q23 -4 35 -17.5t12 -32.5q0 -25 -19 -40.5t-49 -15.5t-48.5 15.5t-18.5 41.5q0 14 5 28.5t20 35.5l54 78z" />
    <glyph glyph-name="uni0123.ss01" horiz-adv-x="580" 
d="M100.5 -148q-63.5 36 -63.5 92q0 34 22 60.5t62 40.5q-35 13 -54.5 36.5t-19.5 54.5q0 38 26.5 63.5t73.5 35.5q-70 43 -70 120q0 49 28 87t77 58.5t112 20.5q83 0 131.5 5t91.5 26l32 -84q-49 -21 -99 -27q57 -35 57 -97q0 -45 -28 -79.5t-78.5 -53.5t-116.5 -19
q-67 0 -101 -7.5t-34 -33.5q0 -23 36 -30t100 -7h28q118 0 178 -40t60 -108t-64 -109t-192 -41q-131 0 -194.5 36zM403.5 -86.5q33.5 15.5 33.5 45.5t-33 45t-110 15q-144 0 -144 -60q0 -61 144 -61q76 0 109.5 15.5zM373 296q29 21 29 58q0 38 -29 59.5t-80 21.5t-81 -21.5
t-30 -59.5q0 -37 30 -58t81 -21t80 21zM357 760l-46 -63q23 -4 35 -17.5t12 -32.5q0 -25 -19 -40.5t-49 -15.5t-48.5 15.5t-18.5 41.5q0 14 5 28.5t20 35.5l54 78z" />
    <glyph glyph-name="gdotaccent" unicode="&#x121;" horiz-adv-x="598" 
d="M146 -143q-62 37 -93 106l81 51q23 -47 60.5 -73t84.5 -26q62 0 102 36t40 104v73q-24 -42 -62.5 -66t-92.5 -24q-62 0 -111.5 31t-78 86t-28.5 124t28.5 124t78 86.5t111.5 31.5q53 0 92.5 -24.5t62.5 -65.5v79h106v-449q0 -76 -31.5 -130.5t-88 -82.5t-129.5 -28
q-70 0 -132 37zM385 173.5q37 40.5 37 105.5q0 66 -37 106t-95 40q-59 0 -96 -40t-37 -106t37 -106t96 -40q58 0 95 40.5zM248 627q-20 19 -20 49q0 31 20 50t51 19t51.5 -19t20.5 -50q0 -30 -20.5 -49t-51.5 -19t-51 19z" />
    <glyph glyph-name="gdotaccent.ss01" horiz-adv-x="580" 
d="M100.5 -148q-63.5 36 -63.5 92q0 34 22 60.5t62 40.5q-35 13 -54.5 36.5t-19.5 54.5q0 38 26.5 63.5t73.5 35.5q-70 43 -70 120q0 49 28 87t77 58.5t112 20.5q83 0 131.5 5t91.5 26l32 -84q-49 -21 -99 -27q57 -35 57 -97q0 -45 -28 -79.5t-78.5 -53.5t-116.5 -19
q-67 0 -101 -7.5t-34 -33.5q0 -23 36 -30t100 -7h28q118 0 178 -40t60 -108t-64 -109t-192 -41q-131 0 -194.5 36zM403.5 -86.5q33.5 15.5 33.5 45.5t-33 45t-110 15q-144 0 -144 -60q0 -61 144 -61q76 0 109.5 15.5zM373 296q29 21 29 58q0 38 -29 59.5t-80 21.5t-81 -21.5
t-30 -59.5q0 -37 30 -58t81 -21t80 21zM239 627q-20 19 -20 49q0 31 20 50t51 19t51.5 -19t20.5 -50q0 -30 -20.5 -49t-51.5 -19t-51 19z" />
    <glyph glyph-name="uni01A3" unicode="&#x1a3;" horiz-adv-x="869" 
d="M171.5 22.5q-57.5 33.5 -90.5 93.5t-33 139t33 139t90.5 93.5t129.5 33.5q68 0 123 -29.5t88 -81.5q14 57 55 84t90 27q64 0 104.5 -44t40.5 -125v-560h-107v543q0 46 -17 68.5t-49 22.5q-33 0 -54 -27.5t-21 -73.5v-70v-4q-1 -78 -34 -137.5t-90 -92t-129 -32.5
t-129.5 33.5zM405 130q40 45 40 125t-40 124.5t-104 44.5q-63 0 -103 -44.5t-40 -124.5t40 -125t103 -45q64 0 104 45z" />
    <glyph glyph-name="uni0260" unicode="&#x260;" horiz-adv-x="602" 
d="M163 -194q-56 27 -92 82l74 61q25 -37 60.5 -56.5t78.5 -19.5q62 0 101.5 36.5t39.5 104.5v92q-53 -90 -156 -90q-63 0 -113 32.5t-78.5 90t-28.5 130.5q0 72 28.5 129.5t78.5 90t113 32.5q103 0 156 -90v166q0 79 43 121.5t113 42.5q77 0 125 -53l-55 -70q-26 30 -62 30
q-25 0 -41 -17t-16 -50v-581q0 -76 -31.5 -130.5t-88 -82.5t-129.5 -28q-64 0 -120 27zM389.5 155.5q37.5 43.5 37.5 113.5t-37 113t-97 43t-97.5 -42t-37.5 -114t37.5 -114.5t97.5 -42.5q59 0 96.5 43.5z" />
    <glyph glyph-name="uni0294" unicode="&#x294;" horiz-adv-x="511" 
d="M202 327q15 38 35.5 63t53.5 56l16 16q32 30 47 52t15 54q0 44 -31.5 69.5t-84.5 25.5q-52 0 -91.5 -30.5t-60.5 -94.5l-89 36q28 87 88 137t154 50q104 0 164.5 -52t60.5 -140q0 -44 -13 -76t-31.5 -53.5t-49.5 -49.5l-15 -14q-39 -38 -57.5 -70t-18.5 -86v-220h-107
v237q0 52 15 90z" />
    <glyph glyph-name="uni0295" unicode="&#x295;" horiz-adv-x="516" 
d="M201.5 306q-18.5 32 -58.5 70q-46 43 -61.5 59.5t-31 51t-15.5 82.5q0 88 60 140t164 52q94 0 154.5 -49.5t88.5 -137.5l-90 -36q-21 64 -60.5 94.5t-90.5 30.5q-53 0 -84.5 -25.5t-31.5 -69.5q0 -25 10.5 -45t29 -39.5t37.5 -37.5q34 -31 55 -56t35.5 -63t14.5 -90v-237
h-107v220q0 54 -18.5 86z" />
    <glyph glyph-name="uni0242" unicode="&#x242;" horiz-adv-x="524" 
d="M221 154.5q28 40.5 76 76.5q40 31 58.5 52t18.5 52q0 41 -30 64.5t-82 23.5q-53 0 -93 -30.5t-62 -94.5l-89 36q28 87 89 137t156 50q103 0 162.5 -50t59.5 -134q0 -44 -16 -76.5t-36.5 -52t-56.5 -47.5q-39 -31 -57.5 -58.5t-18.5 -73.5v-29h-107v50q0 64 28 104.5z" />
    <glyph glyph-name="uni1E21" unicode="&#x1e21;" horiz-adv-x="598" 
d="M146 -143q-62 37 -93 106l81 51q23 -47 60.5 -73t84.5 -26q62 0 102 36t40 104v73q-24 -42 -62.5 -66t-92.5 -24q-62 0 -111.5 31t-78 86t-28.5 124t28.5 124t78 86.5t111.5 31.5q53 0 92.5 -24.5t62.5 -65.5v79h106v-449q0 -76 -31.5 -130.5t-88 -82.5t-129.5 -28
q-70 0 -132 37zM385 173.5q37 40.5 37 105.5q0 66 -37 106t-95 40q-59 0 -96 -40t-37 -106t37 -106t96 -40q58 0 95 40.5zM138 713h322v-87h-322v87z" />
    <glyph glyph-name="uni1E21.ss01" horiz-adv-x="580" 
d="M100.5 -148q-63.5 36 -63.5 92q0 34 22 60.5t62 40.5q-35 13 -54.5 36.5t-19.5 54.5q0 38 26.5 63.5t73.5 35.5q-70 43 -70 120q0 49 28 87t77 58.5t112 20.5q83 0 131.5 5t91.5 26l32 -84q-49 -21 -99 -27q57 -35 57 -97q0 -45 -28 -79.5t-78.5 -53.5t-116.5 -19
q-67 0 -101 -7.5t-34 -33.5q0 -23 36 -30t100 -7h28q118 0 178 -40t60 -108t-64 -109t-192 -41q-131 0 -194.5 36zM403.5 -86.5q33.5 15.5 33.5 45.5t-33 45t-110 15q-144 0 -144 -60q0 -61 144 -61q76 0 109.5 15.5zM373 296q29 21 29 58q0 38 -29 59.5t-80 21.5t-81 -21.5
t-30 -59.5q0 -37 30 -58t81 -21t80 21zM129 713h322v-87h-322v87z" />
    <glyph glyph-name="uni0261" unicode="&#x261;" horiz-adv-x="598" 
d="M146 -143q-62 37 -93 106l81 51q23 -47 60.5 -73t84.5 -26q62 0 102 36t40 104v73q-24 -42 -62.5 -66t-92.5 -24q-62 0 -111.5 31t-78 86t-28.5 124t28.5 124t78 86.5t111.5 31.5q53 0 92.5 -24.5t62.5 -65.5v79h106v-449q0 -76 -31.5 -130.5t-88 -82.5t-129.5 -28
q-70 0 -132 37zM385 173.5q37 40.5 37 105.5q0 66 -37 106t-95 40q-59 0 -96 -40t-37 -106t37 -106t96 -40q58 0 95 40.5z" />
    <glyph glyph-name="uni01E5" unicode="&#x1e5;" horiz-adv-x="623" 
d="M145 -143q-62 37 -93 106l79 49q22 -47 61 -74.5t86 -27.5q39 0 70.5 15t49.5 44h-201v73h223v8v107q-23 -37 -62.5 -59t-92.5 -22q-62 0 -111.5 28.5t-78 78t-28.5 112.5q0 64 28.5 115.5t78 81t111.5 29.5q54 0 92.5 -23t62.5 -62v74h107v-449v-16h57v-79h-72
q-25 -70 -87 -108t-148 -38q-70 0 -132 37zM384 204.5q37 37.5 37 93.5q0 59 -37 95t-95 36q-59 0 -96 -36t-37 -95q0 -57 37.5 -94t95.5 -37t95 37.5z" />
    <glyph glyph-name="uni01E5.ss01" horiz-adv-x="585" 
d="M123.5 -155.5q-61.5 28.5 -74.5 73.5h-40v79h52q21 32 63 48q-35 13 -54.5 36.5t-19.5 54.5q0 38 26.5 63.5t73.5 35.5q-70 43 -70 120q0 49 28 87t77 58.5t112 20.5q83 0 131.5 5t91.5 26l32 -84q-49 -21 -99 -27q57 -35 57 -97q0 -45 -27.5 -79.5t-76.5 -53.5t-111 -19
q-73 0 -108 -7.5t-35 -33.5q0 -23 36 -30t100 -7h28q101 0 159 -31.5t71 -85.5h41v-79h-47q-20 -48 -80.5 -75t-161.5 -27q-113 0 -174.5 28.5zM442 -72h-292q28 -42 147 -42t145 42zM376 296q29 21 29 58q0 38 -29 59.5t-80 21.5t-81 -21.5t-30 -59.5q0 -37 30 -58t81 -21
t80 21zM442 -11q-12 22 -47 32.5t-98 10.5q-122 0 -148 -43h293z" />
    <glyph glyph-name="uni021D" unicode="&#x21d;" horiz-adv-x="500" 
d="M93.5 -183q-58.5 38 -85.5 111l81 48q19 -52 54 -77t81 -25q56 0 91.5 32.5t35.5 93.5t-39.5 94t-98.5 33h-75v75l129 165q36 47 53 56l-1 4q-16 -5 -77 -5h-195v88h385v-80l-175 -221q60 -4 106 -31.5t71.5 -73.5t25.5 -104q0 -69 -30 -119t-83.5 -76t-121.5 -26
q-73 0 -131.5 38z" />
    <glyph glyph-name="h" unicode="h" horiz-adv-x="568" 
d="M71 750h107v-310q23 42 60 61.5t84 19.5q52 0 93 -24t64 -68t23 -102v-327h-107v310q0 54 -28 85t-73 31q-52 0 -84 -32.5t-32 -88.5v-305h-107v750z" />
    <glyph glyph-name="hbar" unicode="&#x127;" horiz-adv-x="568" 
d="M71 575h-64v79h64v96h107v-96h120v-79h-120v-135q23 42 60 61.5t84 19.5q52 0 93 -24t64 -68t23 -102v-327h-107v310q0 54 -28 85t-73 31q-52 0 -84 -32.5t-32 -88.5v-305h-107v575z" />
    <glyph glyph-name="uni1E2B" unicode="&#x1e2b;" horiz-adv-x="568" 
d="M71 750h107v-310q23 42 60 61.5t84 19.5q52 0 93 -24t64 -68t23 -102v-327h-107v310q0 54 -28 85t-73 31q-52 0 -84 -32.5t-32 -88.5v-305h-107v750zM171 -172q-45 37 -49 104h93q6 -65 72 -65q65 0 71 65h93q-4 -66 -49 -103.5t-115 -37.5q-71 0 -116 37z" />
    <glyph glyph-name="uni021F" unicode="&#x21f;" horiz-adv-x="568" 
d="M71 750h107v-310q23 42 60 61.5t84 19.5q52 0 93 -24t64 -68t23 -102v-327h-107v310q0 54 -28 85t-73 31q-52 0 -84 -32.5t-32 -88.5v-305h-107v750zM111 967h114l21 -25q36 -40 40 -49h3q5 10 42 51l19 23h115l-129 -137h-97z" />
    <glyph glyph-name="uni1E29" unicode="&#x1e29;" horiz-adv-x="568" 
d="M71 750h107v-310q23 42 60 61.5t84 19.5q52 0 93 -24t64 -68t23 -102v-327h-107v310q0 54 -28 85t-73 31q-52 0 -84 -32.5t-32 -88.5v-305h-29l24 -22q38 -35 38 -76q0 -32 -25.5 -54.5t-70.5 -22.5h-86v91h56q13 0 20.5 6t7.5 16q0 15 -15 32l-27 30v750z" />
    <glyph glyph-name="hcircumflex" unicode="&#x125;" horiz-adv-x="568" 
d="M71 750h107v-310q23 42 60 61.5t84 19.5q52 0 93 -24t64 -68t23 -102v-327h-107v310q0 54 -28 85t-73 31q-52 0 -84 -32.5t-32 -88.5v-305h-107v750zM239 968h97l128 -138h-114l-20 23q-35 38 -41 51h-3q-3 -4 -33 -41q-14 -16 -28 -33h-115z" />
    <glyph glyph-name="uni1E27" unicode="&#x1e27;" horiz-adv-x="568" 
d="M71 750h107v-310q23 42 60 61.5t84 19.5q52 0 93 -24t64 -68t23 -102v-327h-107v310q0 54 -28 85t-73 31q-52 0 -84 -32.5t-32 -88.5v-305h-107v750zM128.5 855.5q-18.5 17.5 -18.5 47.5t18.5 47.5t47.5 17.5t48 -17.5t19 -47.5t-19 -47.5t-48 -17.5t-47.5 17.5z
M350 855.5q-19 17.5 -19 47.5t19 47.5t48 17.5t47.5 -17.5t18.5 -47.5t-18.5 -47.5t-47.5 -17.5t-48 17.5z" />
    <glyph glyph-name="uni1E23" unicode="&#x1e23;" horiz-adv-x="568" 
d="M71 750h107v-310q23 42 60 61.5t84 19.5q52 0 93 -24t64 -68t23 -102v-327h-107v310q0 54 -28 85t-73 31q-52 0 -84 -32.5t-32 -88.5v-305h-107v750zM236 857q-20 19 -20 49q0 31 20 50t51 19t51.5 -19t20.5 -50q0 -30 -20.5 -49t-51.5 -19t-51 19z" />
    <glyph glyph-name="uni1E25" unicode="&#x1e25;" horiz-adv-x="568" 
d="M71 750h107v-310q23 42 60 61.5t84 19.5q52 0 93 -24t64 -68t23 -102v-327h-107v310q0 54 -28 85t-73 31q-52 0 -84 -32.5t-32 -88.5v-305h-107v750zM235.5 -177.5q-20.5 18.5 -20.5 48.5q0 31 20.5 50t51.5 19t51.5 -19t20.5 -50q0 -30 -20.5 -48.5t-51.5 -18.5
t-51.5 18.5z" />
    <glyph glyph-name="uniA727" unicode="&#xa727;" horiz-adv-x="568" 
d="M221 -168l56 70q26 -30 61 -30q25 0 41 17t16 50v371q0 54 -28 85t-73 31q-52 0 -84 -32.5t-32 -88.5v-305h-107v750h107v-309q23 41 60.5 60.5t83.5 19.5q52 0 93 -24t64 -68t23 -102v-384q0 -79 -43 -121.5t-113 -42.5q-77 0 -125 53z" />
    <glyph glyph-name="uni0267" unicode="&#x267;" horiz-adv-x="568" 
d="M221 -168l56 70q26 -30 61 -30q25 0 41 17t16 50v371q0 54 -28 85t-73 31q-52 0 -84 -32.5t-32 -88.5v-305h-107v581q0 85 48.5 132.5t126.5 47.5q88 0 143 -58l-55 -70q-33 33 -79 33q-34 0 -55.5 -23t-21.5 -67v-135q23 41 60.5 60.5t83.5 19.5q52 0 93 -24t64 -68
t23 -102v-384q0 -79 -43 -121.5t-113 -42.5q-77 0 -125 53z" />
    <glyph glyph-name="uni0266" unicode="&#x266;" horiz-adv-x="568" 
d="M119.5 713.5q48.5 47.5 126.5 47.5q88 0 143 -58l-55 -70q-33 33 -79 33q-34 0 -55.5 -23t-21.5 -67v-134q22 40 60 59.5t84 19.5q52 0 93 -23t64 -66t23 -100v-332h-107v315q0 52 -28 81.5t-73 29.5q-52 0 -84 -31.5t-32 -84.5v-310h-107v581q0 85 48.5 132.5z" />
    <glyph glyph-name="uni1E96" unicode="&#x1e96;" horiz-adv-x="568" 
d="M71 750h107v-310q23 42 60 61.5t84 19.5q52 0 93 -24t64 -68t23 -102v-327h-107v310q0 54 -28 85t-73 31q-52 0 -84 -32.5t-32 -88.5v-305h-107v750zM126 -77h323v-86h-323v86z" />
    <glyph glyph-name="uni0265" unicode="&#x265;" horiz-adv-x="568" 
d="M390 70q-22 -40 -60 -60t-84 -20q-52 0 -92.5 23.5t-64 67.5t-23.5 102v327h107v-310q0 -54 28 -85t73 -31q52 0 84 32.5t32 88.5v305h107v-718h-107v278z" />
    <glyph glyph-name="i" unicode="i" horiz-adv-x="249" 
d="M178 0h-107v510h107v-510zM75 627q-20 19 -20 49q0 31 20 50t51 19t51.5 -19t20.5 -50q0 -30 -20.5 -49t-51.5 -19t-51 19z" />
    <glyph glyph-name="i.ss02" horiz-adv-x="249" 
d="M178 0h-107v510h107v-510zM68 604q-23 22 -23 57t22.5 56.5t56.5 21.5q35 0 58.5 -21.5t23.5 -56.5t-23 -57t-58 -22q-34 0 -57 22z" />
    <glyph glyph-name="i.text" horiz-adv-x="249" 
d="M178 0h-107v510h107v-510zM74 607q-20 19 -20 49q0 31 20 50t51 19t51.5 -19t20.5 -50q0 -30 -20.5 -49t-51.5 -19t-51 19z" />
    <glyph glyph-name="dotlessi" unicode="&#x131;" horiz-adv-x="249" 
d="M178 0h-107v510h107v-510z" />
    <glyph glyph-name="iacute" unicode="&#xed;" horiz-adv-x="249" 
d="M178 0h-107v510h107v-510zM47 600l106 137h120l-121 -137h-105z" />
    <glyph glyph-name="ibreve" unicode="&#x12d;" horiz-adv-x="249" 
d="M178 0h-107v510h107v-510zM9 633.5q-45 37.5 -49 103.5h93q6 -64 72 -64q65 0 71 64h93q-4 -66 -49 -103.5t-115 -37.5q-71 0 -116 37.5z" />
    <glyph glyph-name="uni01D0" unicode="&#x1d0;" horiz-adv-x="249" 
d="M178 0h-107v510h107v-510zM-51 737h114l21 -25q36 -40 40 -49h3q5 10 42 51l19 23h115l-129 -137h-97z" />
    <glyph glyph-name="icircumflex" unicode="&#xee;" horiz-adv-x="249" 
d="M178 0h-107v510h107v-510zM77 738h97l128 -138h-114l-20 23q-35 38 -41 51h-3q-3 -4 -33 -41q-14 -16 -28 -33h-115z" />
    <glyph glyph-name="uni0209" unicode="&#x209;" horiz-adv-x="249" 
d="M178 0h-107v510h107v-510zM-134 737h120l108 -137h-103zM68 737h114l104 -137h-102z" />
    <glyph glyph-name="idieresis" unicode="&#xef;" horiz-adv-x="249" 
d="M171 626.5q-19 17.5 -19 47.5q0 29 19 47t48 18q28 0 47 -18t19 -47q0 -30 -18.5 -47.5t-47.5 -17.5t-48 17.5zM178 0h-107v510h107v-510zM-17 626.5q-19 17.5 -19 47.5q0 29 19 47t48 18q28 0 47 -18t19 -47q0 -30 -19 -47.5t-47 -17.5q-29 0 -48 17.5z" />
    </font>
</defs>
</svg>
