<?xml version="1.0" standalone="no"?>
<!DOCTYPE svg PUBLIC "-//W3C//DTD SVG 1.1//EN" "http://www.w3.org/Graphics/SVG/1.1/DTD/svg11.dtd" >
<svg xmlns="http://www.w3.org/2000/svg" xmlns:xlink="http://www.w3.org/1999/xlink" version="1.1">
<metadata>
Created by Christoph Koeberlin (http://christoph.koe.berlin)
Copyright (c) 2020-2025 Fontwerk GmbH. All rights reserved.
</metadata>
<defs>
<font id="Font" horiz-adv-x="0" >
  <font-face 
    font-family="Font"
    font-weight="700"
    font-stretch="normal"
    units-per-em="1050"
    panose-1="2 11 8 4 5 1 1 1 1 4"
    ascent="830"
    descent="-220"
    x-height="515"
    cap-height="700"
    bbox="-490 -337 1272 1126"
    underline-thickness="91"
    underline-position="-145"
    unicode-range="U+000D-1F16F"
  />
<missing-glyph horiz-adv-x="835" 
d="M707 815v-930h-579v930h579zM247 1h342v698h-342v-698z" />
    <glyph glyph-name="f_f" unicode="ff" horiz-adv-x="770" 
d="M160.5 712q44.5 47 126.5 47h68v-109h-53q-58 0 -58 -72v-63h111v-102h-111v-413h-128v413h-78v102h78v67q0 83 44.5 130zM545.5 712q44.5 47 126.5 47h68v-109h-53q-58 0 -58 -72v-63h111v-102h-111v-413h-128v413h-78v102h78v67q0 83 44.5 130z" />
    <glyph glyph-name="fi" unicode="fi" horiz-adv-x="650" 
d="M160.5 712q44.5 47 126.5 47h68v-109h-53q-58 0 -58 -72v-63h111v-102h-111v-413h-128v413h-78v102h78v67q0 83 44.5 130zM581 0h-127v515h127v-515zM459 595.5q-23 20.5 -23 55.5t23.5 56.5t58.5 21.5t58.5 -21.5t23.5 -56.5t-23.5 -55.5t-58.5 -20.5q-36 0 -59 20.5z
" />
    <glyph glyph-name="fl" unicode="fl" horiz-adv-x="650" 
d="M160.5 712q44.5 47 126.5 47h68v-109h-53q-58 0 -58 -72v-63h111v-102h-111v-413h-128v413h-78v102h78v67q0 83 44.5 130zM582 0h-128v750h128v-750z" />
    <glyph glyph-name=".notdef" horiz-adv-x="835" 
d="M707 815v-930h-579v930h579zM247 1h342v698h-342v-698z" />
    <glyph glyph-name="NULL" 
 />
    <glyph glyph-name="nonmarkingreturn" unicode="&#xd;" horiz-adv-x="228" 
 />
    <glyph glyph-name="space" unicode=" " horiz-adv-x="228" 
 />
    <glyph glyph-name="A" unicode="A" horiz-adv-x="702" 
d="M285 700h133l267 -700h-145l-64 179h-253l-64 -179h-140zM436 290l-59 166q-25 71 -25 94h-4q0 -20 -26 -94l-59 -166h173z" />
    <glyph glyph-name="Aacute" unicode="&#xc1;" horiz-adv-x="702" 
d="M285 700h133l267 -700h-145l-64 179h-253l-64 -179h-140zM436 290l-59 166q-25 71 -25 94h-4q0 -20 -26 -94l-59 -166h173zM259 783l117 139h143l-135 -139h-125z" />
    <glyph glyph-name="Abreve" unicode="&#x102;" horiz-adv-x="702" 
d="M285 700h133l267 -700h-145l-64 179h-253l-64 -179h-140zM436 290l-59 166q-25 71 -25 94h-4q0 -20 -26 -94l-59 -166h173zM229 816.5q-47 37.5 -53 105.5h108q4 -30 21 -43t47 -13q29 0 46 13t21 43h108q-6 -68 -53 -105.5t-122 -37.5q-76 0 -123 37.5z" />
    <glyph glyph-name="uni1EAE" unicode="&#x1eae;" horiz-adv-x="702" 
d="M285 700h133l267 -700h-145l-64 179h-253l-64 -179h-140zM436 290l-59 166q-25 71 -25 94h-4q0 -20 -26 -94l-59 -166h173zM228.5 802.5q-47.5 37.5 -53.5 105.5h109q4 -30 20.5 -43t46.5 -13q29 0 46 13t21 43h109q-6 -68 -53.5 -105.5t-122.5 -37.5t-122.5 37.5z
M343 1056h143l-95 -115h-120z" />
    <glyph glyph-name="uni1EB6" unicode="&#x1eb6;" horiz-adv-x="702" 
d="M285 700h133l267 -700h-145l-64 179h-253l-64 -179h-140zM436 290l-59 166q-25 71 -25 94h-4q0 -20 -26 -94l-59 -166h173zM229 816.5q-47 37.5 -53 105.5h108q4 -30 21 -43t47 -13q29 0 46 13t21 43h108q-6 -68 -53 -105.5t-122 -37.5q-76 0 -123 37.5zM293 -190.5
q-23 20.5 -23 55.5t23.5 56t58.5 21t58.5 -21t23.5 -56t-23.5 -55.5t-58.5 -20.5q-36 0 -59 20.5z" />
    <glyph glyph-name="uni1EB0" unicode="&#x1eb0;" horiz-adv-x="702" 
d="M285 700h133l267 -700h-145l-64 179h-253l-64 -179h-140zM436 290l-59 166q-25 71 -25 94h-4q0 -20 -26 -94l-59 -166h173zM228.5 802.5q-47.5 37.5 -53.5 105.5h109q4 -30 20.5 -43t46.5 -13q29 0 46 13t21 43h109q-6 -68 -53.5 -105.5t-122.5 -37.5t-122.5 37.5z
M219 1056h143l72 -115h-120z" />
    <glyph glyph-name="uni1EB2" unicode="&#x1eb2;" horiz-adv-x="702" 
d="M285 700h133l267 -700h-145l-64 179h-253l-64 -179h-140zM436 290l-59 166q-25 71 -25 94h-4q0 -20 -26 -94l-59 -166h173zM229.5 802.5q-47.5 37.5 -53.5 105.5h109q4 -30 20.5 -43t46.5 -13q29 0 46 13t21 43h109q-6 -68 -53.5 -105.5t-122.5 -37.5t-122.5 37.5z
M348 984.5q8 14.5 8 26.5q0 11 -7 17.5t-20 6.5q-22 0 -39 -21l-66 54q39 58 115 58q51 0 84.5 -27t33.5 -65q0 -42 -39 -88h-97q19 24 27 38.5z" />
    <glyph glyph-name="uni1EB4" unicode="&#x1eb4;" horiz-adv-x="702" 
d="M285 700h133l267 -700h-145l-64 179h-253l-64 -179h-140zM436 290l-59 166q-25 71 -25 94h-4q0 -20 -26 -94l-59 -166h173zM378 956q-19 6 -43 18q-26 14 -40 14q-12 0 -19.5 -9.5t-7.5 -24.5h-101q0 35 15.5 64t42 45t55.5 16q27 0 46 -6t43 -18q26 -14 40 -14
q13 0 20.5 9.5t7.5 24.5h101q0 -35 -16 -63.5t-42 -45t-56 -16.5q-27 0 -46 6zM230 802.5q-47 37.5 -53 105.5h108q4 -30 21 -43t46 -13q60 0 67 56h109q-6 -68 -53.5 -105.5t-122.5 -37.5t-122 37.5z" />
    <glyph glyph-name="uni01CD" unicode="&#x1cd;" horiz-adv-x="702" 
d="M285 700h133l267 -700h-145l-64 179h-253l-64 -179h-140zM436 290l-59 166q-25 71 -25 94h-4q0 -20 -26 -94l-59 -166h173zM165 922h131l20 -24q29 -31 35 -43h3q3 4 29 37l26 30h131l-130 -139h-116z" />
    <glyph glyph-name="Acircumflex" unicode="&#xc2;" horiz-adv-x="702" 
d="M285 700h133l267 -700h-145l-64 179h-253l-64 -179h-140zM436 290l-59 166q-25 71 -25 94h-4q0 -20 -26 -94l-59 -166h173zM295 923h116l129 -139h-131l-20 24q-29 31 -35 43h-3q-3 -4 -29 -37l-26 -30h-131z" />
    <glyph glyph-name="uni1EA4" unicode="&#x1ea4;" horiz-adv-x="702" 
d="M285 700h133l267 -700h-145l-64 179h-253l-64 -179h-140zM436 290l-59 166q-25 71 -25 94h-4q0 -20 -26 -94l-59 -166h173zM297 907h115l129 -139h-131l-23 28q-27 31 -31 39h-4q-4 -8 -31 -39l-23 -28h-131zM555 998h136l-96 -131h-112z" />
    <glyph glyph-name="uni1EAC" unicode="&#x1eac;" horiz-adv-x="702" 
d="M285 700h133l267 -700h-145l-64 179h-253l-64 -179h-140zM436 290l-59 166q-25 71 -25 94h-4q0 -20 -26 -94l-59 -166h173zM293 -190.5q-23 20.5 -23 55.5t23.5 56t58.5 21t58.5 -21t23.5 -56t-23.5 -55.5t-58.5 -20.5q-36 0 -59 20.5zM295 923h116l129 -139h-131l-20 24
q-29 31 -35 43h-3q-3 -4 -29 -37l-26 -30h-131z" />
    <glyph glyph-name="uni1EA6" unicode="&#x1ea6;" horiz-adv-x="702" 
d="M285 700h133l267 -700h-145l-64 179h-253l-64 -179h-140zM436 290l-59 166q-25 71 -25 94h-4q0 -20 -26 -94l-59 -166h173zM295 907h115l129 -139h-131l-23 28q-27 31 -31 39h-4q-4 -8 -31 -39l-23 -28h-131zM421 998h135l73 -131h-113z" />
    <glyph glyph-name="uni1EA8" unicode="&#x1ea8;" horiz-adv-x="702" 
d="M285 700h133l267 -700h-145l-64 179h-253l-64 -179h-140zM436 290l-59 166q-25 71 -25 94h-4q0 -20 -26 -94l-59 -166h173zM294 907h116l129 -139h-131l-26 30q-26 33 -29 37h-3q-6 -12 -35 -43l-20 -24h-131zM498 915.5q8 14.5 8 26.5q0 11 -7 17.5t-20 6.5
q-10 0 -20.5 -5.5t-17.5 -15.5l-67 54q39 58 115 58q52 0 85.5 -27t33.5 -65q0 -41 -40 -88h-97q19 24 27 38.5z" />
    <glyph glyph-name="uni1EAA" unicode="&#x1eaa;" horiz-adv-x="702" 
d="M285 700h133l267 -700h-145l-64 179h-253l-64 -179h-140zM436 290l-59 166q-25 71 -25 94h-4q0 -20 -26 -94l-59 -166h173zM294 907h116l129 -139h-131l-26 30q-26 33 -29 37h-3q-4 -8 -31 -39l-23 -28h-131zM379 955.5q-20 6.5 -42 18.5q-26 14 -40 14q-13 0 -20 -10
t-7 -25h-102q0 35 16 64t42.5 45.5t55.5 16.5q27 0 46.5 -6.5t43.5 -18.5q11 -5 21 -9t18 -4q13 0 20.5 9.5t7.5 24.5h101q0 -35 -16 -64t-42 -45.5t-56 -16.5q-27 0 -47 6.5z" />
    <glyph glyph-name="uni0200" unicode="&#x200;" horiz-adv-x="702" 
d="M285 700h133l267 -700h-145l-64 179h-253l-64 -179h-140zM436 290l-59 166q-25 71 -25 94h-4q0 -20 -26 -94l-59 -166h173zM69 922h142l120 -139h-120zM281 922h134l114 -139h-121z" />
    <glyph glyph-name="Adieresis" unicode="&#xc4;" horiz-adv-x="702" 
d="M285 700h133l267 -700h-145l-64 179h-253l-64 -179h-140zM436 290l-59 166q-25 71 -25 94h-4q0 -20 -26 -94l-59 -166h173zM185 800q-22 20 -22 55q0 34 22 54.5t55 20.5t54.5 -20.5t21.5 -54.5q0 -35 -21.5 -55t-54.5 -20t-55 20zM410 800q-22 20 -22 55q0 34 22 54.5
t55 20.5t54.5 -20.5t21.5 -54.5q0 -35 -21.5 -55t-54.5 -20t-55 20z" />
    <glyph glyph-name="uni01DE" unicode="&#x1de;" horiz-adv-x="702" 
d="M285 700h133l267 -700h-145l-64 179h-253l-64 -179h-140zM436 290l-59 166q-25 71 -25 94h-4q0 -20 -26 -94l-59 -166h173zM184 779.5q-22 20.5 -22 54.5q0 35 22 55t55 20t55 -20t22 -55q0 -34 -22 -54.5t-55 -20.5t-55 20.5zM410 779.5q-22 20.5 -22 54.5q0 35 22 55
t55 20t54.5 -20t21.5 -55q0 -34 -21.5 -54.5t-54.5 -20.5t-55 20.5zM183 1057h339v-100h-339v100z" />
    <glyph glyph-name="uni0226" unicode="&#x226;" horiz-adv-x="702" 
d="M285 700h133l267 -700h-145l-64 179h-253l-64 -179h-140zM436 290l-59 166q-25 71 -25 94h-4q0 -20 -26 -94l-59 -166h173zM293 800.5q-23 20.5 -23 55.5t23.5 56.5t58.5 21.5t58.5 -21.5t23.5 -56.5t-23 -55.5t-59 -20.5t-59 20.5z" />
    <glyph glyph-name="uni1EA0" unicode="&#x1ea0;" horiz-adv-x="702" 
d="M285 700h133l267 -700h-145l-64 179h-253l-64 -179h-140zM436 290l-59 166q-25 71 -25 94h-4q0 -20 -26 -94l-59 -166h173zM293 -190.5q-23 20.5 -23 55.5t23.5 56t58.5 21t58.5 -21t23.5 -56t-23.5 -55.5t-58.5 -20.5q-36 0 -59 20.5z" />
    <glyph glyph-name="uni01E0" unicode="&#x1e0;" horiz-adv-x="702" 
d="M285 700h133l267 -700h-145l-64 179h-253l-64 -179h-140zM436 290l-59 166q-25 71 -25 94h-4q0 -20 -26 -94l-59 -166h173zM293.5 779q-23.5 21 -23.5 56t23.5 56t58.5 21t58.5 -21t23.5 -56t-23.5 -56t-58.5 -21t-58.5 21zM183 1056h339v-100h-339v100z" />
    <glyph glyph-name="Agrave" unicode="&#xc0;" horiz-adv-x="702" 
d="M285 700h133l267 -700h-145l-64 179h-253l-64 -179h-140zM436 290l-59 166q-25 71 -25 94h-4q0 -20 -26 -94l-59 -166h173zM185 922h143l117 -139h-124z" />
    <glyph glyph-name="uni1EA2" unicode="&#x1ea2;" horiz-adv-x="702" 
d="M285 700h133l267 -700h-145l-64 179h-253l-64 -179h-140zM436 290l-59 166q-25 71 -25 94h-4q0 -20 -26 -94l-59 -166h173zM353.5 796.5q8.5 14.5 8.5 26.5q0 11 -7.5 18t-20.5 7q-10 0 -20 -6t-18 -16l-67 54q39 58 115 58q51 0 85 -26.5t34 -64.5q0 -42 -40 -89h-97
q19 24 27.5 38.5z" />
    <glyph glyph-name="uni0202" unicode="&#x202;" horiz-adv-x="702" 
d="M285 700h133l267 -700h-145l-64 179h-253l-64 -179h-140zM436 290l-59 166q-25 71 -25 94h-4q0 -20 -26 -94l-59 -166h173zM468.5 890.5q45.5 -37.5 51.5 -105.5h-108q-8 53 -60 53t-60 -53h-109q6 68 52 105.5t117 37.5t116.5 -37.5z" />
    <glyph glyph-name="uni2C6D" unicode="&#x2c6d;" horiz-adv-x="791" 
d="M199 33.5q-70 45.5 -109.5 128t-39.5 188.5t39.5 188.5t109.5 128t158 45.5q72 0 129 -31.5t93 -90.5v110h134v-700h-134v110q-36 -59 -93 -90.5t-129 -31.5q-88 0 -158 45.5zM487 140.5q44 28.5 69 82t25 127.5t-25 127.5t-69 82t-101 28.5t-101 -28t-69 -82t-25 -128
t25 -128t69 -82t101 -28t101 28.5z" />
    <glyph glyph-name="uni2C70" unicode="&#x2c70;" horiz-adv-x="791" 
d="M306.5 19.5q-56.5 31.5 -93.5 89.5v-109h-135v700h135v-109q37 58 93.5 89.5t127.5 31.5q88 0 158 -45.5t110 -128t40 -188.5t-40 -188.5t-110 -128t-158 -45.5q-71 0 -127.5 31.5zM506 140q44 28 69 82t25 128t-25 128t-69 82t-101 28q-56 0 -100 -28.5t-69 -82
t-25 -127.5t25 -127.5t69 -82t100 -28.5q57 0 101 28z" />
    <glyph glyph-name="Amacron" unicode="&#x100;" horiz-adv-x="702" 
d="M285 700h133l267 -700h-145l-64 179h-253l-64 -179h-140zM436 290l-59 166q-25 71 -25 94h-4q0 -20 -26 -94l-59 -166h173zM183 903h339v-100h-339v100z" />
    <glyph glyph-name="Aogonek" unicode="&#x104;" horiz-adv-x="702" 
d="M285 700h133l267 -700h-11l-21 -25q-13 -14 -13 -27q0 -9 7.5 -14.5t19.5 -5.5h28v-107h-71q-45 0 -71.5 24t-26.5 57q0 19 10 39t28 37l26 22h-50l-64 179h-253l-64 -179h-140zM436 290l-59 166q-25 71 -25 94h-4q0 -20 -26 -94l-59 -166h173z" />
    <glyph glyph-name="Aring" unicode="&#xc5;" horiz-adv-x="702" 
d="M285 700h133l267 -700h-145l-64 179h-253l-64 -179h-140zM436 290l-59 166q-25 71 -25 94h-4q0 -20 -26 -94l-59 -166h173zM251 798q-38 32 -38 81q0 48 38 80t101 32t101 -32t38 -80q0 -49 -38 -81t-101 -32t-101 32zM395 848q14 12 14 31t-14.5 30.5t-42.5 11.5
t-42 -11.5t-14 -30.5t14 -31t42 -12q29 0 43 12z" />
    <glyph glyph-name="Aringacute" unicode="&#x1fa;" horiz-adv-x="702" 
d="M271 664q-28 15 -42.5 39t-14.5 54q0 48 38 80.5t100 32.5q63 0 101 -32t38 -81q0 -30 -15.5 -54.5t-43.5 -39.5l253 -663h-145l-64 179h-253l-64 -179h-140zM395 726.5q14 11.5 14 30.5t-14 31t-43 12q-28 0 -42 -12t-14 -31t14 -30.5t42 -11.5q29 0 43 11.5zM260 898
l117 140h143l-136 -140h-124zM436 290l-59 166q-25 71 -25 94h-4q0 -20 -26 -94l-59 -166h173z" />
    <glyph glyph-name="uni1E00" unicode="&#x1e00;" horiz-adv-x="702" 
d="M285 700h133l267 -700h-145l-64 179h-253l-64 -179h-140zM436 290l-59 166q-25 71 -25 94h-4q0 -20 -26 -94l-59 -166h173zM251 -252q-38 32 -38 80q0 49 38 81t101 32t101 -32t38 -81q0 -48 -38 -80t-101 -32t-101 32zM394.5 -202q14.5 12 14.5 30q0 19 -14.5 31
t-42.5 12t-42 -12t-14 -31q0 -18 14 -30t42 -12t42.5 12z" />
    <glyph glyph-name="uni023A" unicode="&#x23a;" horiz-adv-x="702" 
d="M285 700h133l19 -50l57 203h106l-102 -362l187 -491h-145l-64 179h-67l-95 -337h-106l96 337h-81l-64 -179h-140zM436 290l-59 166q-25 71 -25 94h-4q0 -20 -26 -94l-59 -166h173z" />
    <glyph glyph-name="Atilde" unicode="&#xc3;" horiz-adv-x="702" 
d="M285 700h133l267 -700h-145l-64 179h-253l-64 -179h-140zM436 290l-59 166q-25 71 -25 94h-4q0 -20 -26 -94l-59 -166h173zM380 789q-20 8 -42 21q-27 16 -40 16t-20 -11.5t-7 -29.5h-102q0 39 16.5 70.5t44.5 49.5t59 18q27 0 46.5 -7.5t42.5 -20.5q27 -16 40 -16
t20.5 11t7.5 29h101q0 -39 -16.5 -70.5t-44.5 -49.5t-59 -18q-27 0 -47 8z" />
    <glyph glyph-name="uni2C6F" unicode="&#x2c6f;" horiz-adv-x="702" 
d="M417 0h-133l-267 700h145l64 -179h253l64 179h140zM325 244q25 -71 25 -94h4q0 20 26 94l59 166h-173z" />
    <glyph glyph-name="AE" unicode="&#xc6;" horiz-adv-x="1004" 
d="M454 700h495v-120h-321v-164h281v-117h-281v-179h321v-120h-457v159h-240l-102 -159h-146zM337 269q16 1 45 1h110v171q0 85 6 107l-3 1q-6 -20 -53 -93l-87 -136q-29 -46 -45 -55l2 -2q9 5 25 6z" />
    <glyph glyph-name="AEacute" unicode="&#x1fc;" horiz-adv-x="1004" 
d="M454 700h495v-120h-321v-164h281v-117h-281v-179h321v-120h-457v159h-240l-102 -159h-146zM337 269q16 1 45 1h110v171q0 85 6 107l-3 1q-6 -20 -53 -93l-87 -136q-29 -46 -45 -55l2 -2q9 5 25 6zM596 783l117 139h143l-135 -139h-125z" />
    <glyph glyph-name="uni01E2" unicode="&#x1e2;" horiz-adv-x="1004" 
d="M454 700h495v-120h-321v-164h281v-117h-281v-179h321v-120h-457v159h-240l-102 -159h-146zM337 269q16 1 45 1h110v171q0 85 6 107l-3 1q-6 -20 -53 -93l-87 -136q-29 -46 -45 -55l2 -2q9 5 25 6zM520 903h339v-100h-339v100z" />
    <glyph glyph-name="B" unicode="B" horiz-adv-x="664" 
d="M78 700h269q113 0 174.5 -48t61.5 -140q0 -47 -25 -84.5t-67 -57.5q62 -21 95 -66.5t33 -105.5q0 -96 -64.5 -147t-186.5 -51h-290v700zM362 116q117 0 117 95q0 96 -117 96h-148v-191h148zM335 416q52 0 80 19t28 64q0 46 -28.5 65.5t-79.5 19.5h-121v-168h121z" />
    <glyph glyph-name="uni1E02" unicode="&#x1e02;" horiz-adv-x="664" 
d="M78 700h269q113 0 174.5 -48t61.5 -140q0 -47 -25 -84.5t-67 -57.5q62 -21 95 -66.5t33 -105.5q0 -96 -64.5 -147t-186.5 -51h-290v700zM362 116q117 0 117 95q0 96 -117 96h-148v-191h148zM335 416q52 0 80 19t28 64q0 46 -28.5 65.5t-79.5 19.5h-121v-168h121z
M267 800.5q-23 20.5 -23 55.5t23.5 56.5t58.5 21.5t58.5 -21.5t23.5 -56.5t-23 -55.5t-59 -20.5t-59 20.5z" />
    <glyph glyph-name="uni1E04" unicode="&#x1e04;" horiz-adv-x="664" 
d="M78 700h269q113 0 174.5 -48t61.5 -140q0 -47 -25 -84.5t-67 -57.5q62 -21 95 -66.5t33 -105.5q0 -96 -64.5 -147t-186.5 -51h-290v700zM362 116q117 0 117 95q0 96 -117 96h-148v-191h148zM335 416q52 0 80 19t28 64q0 46 -28.5 65.5t-79.5 19.5h-121v-168h121z
M268 -190.5q-23 20.5 -23 55.5t23.5 56t58.5 21t58.5 -21t23.5 -56t-23.5 -55.5t-58.5 -20.5q-36 0 -59 20.5z" />
    <glyph glyph-name="uniA7B4" unicode="&#xa7b4;" horiz-adv-x="664" 
d="M78 700h269q113 0 174.5 -48t61.5 -140q0 -47 -25 -84.5t-67 -57.5q62 -21 95 -66.5t33 -105.5q0 -96 -64.5 -147t-186.5 -51h-100v116h94q117 0 117 95q0 96 -117 96h-74v109h47q52 0 80 19t28 64q0 46 -28.5 65.5t-79.5 19.5h-121v-753h-136v869z" />
    <glyph glyph-name="uni0181" unicode="&#x181;" horiz-adv-x="842" 
d="M257 580h-21q-31 0 -50 -17t-19 -45q0 -29 26 -58l-101 -71q-31 36 -46 69t-15 68q0 80 51.5 127t140.5 47h303q113 0 174 -48t61 -140q0 -48 -24.5 -84.5t-67.5 -57.5q63 -21 96 -66.5t33 -105.5q0 -96 -65 -147t-187 -51h-289v580zM541 116q117 0 117 95q0 96 -117 96
h-149v-191h149zM514 416q52 0 79.5 19t27.5 64q0 85 -107 85h-122v-168h122z" />
    <glyph glyph-name="uni1E06" unicode="&#x1e06;" horiz-adv-x="664" 
d="M78 700h269q113 0 174.5 -48t61.5 -140q0 -47 -25 -84.5t-67 -57.5q62 -21 95 -66.5t33 -105.5q0 -96 -64.5 -147t-186.5 -51h-290v700zM362 116q117 0 117 95q0 96 -117 96h-148v-191h148zM335 416q52 0 80 19t28 64q0 46 -28.5 65.5t-79.5 19.5h-121v-168h121zM158 -74
h339v-99h-339v99z" />
    <glyph glyph-name="uni0243" unicode="&#x243;" horiz-adv-x="699" 
d="M113 163h-74v106h74v431h269q113 0 174.5 -46t61.5 -135q0 -47 -25 -83t-67 -56q61 -21 94.5 -67t33.5 -105q0 -101 -64.5 -154.5t-186.5 -53.5h-290v163zM394 109q120 0 120 107q0 106 -120 106h-146v-58h139v-97h-139v-58h146zM367 423q53 0 82 18.5t29 63.5
q0 82 -111 82h-119v-164h119z" />
    <glyph glyph-name="C" unicode="C" horiz-adv-x="705" 
d="M214 33q-77 45 -120.5 127.5t-43.5 189.5t43.5 189.5t120.5 127.5t176 45q98 0 172.5 -45t113.5 -130l-116 -67q-25 57 -69 87.5t-101 30.5q-58 0 -103 -28t-70.5 -82t-25.5 -128t25.5 -128t70.5 -82t103 -28q57 0 101 30.5t69 87.5l116 -67q-39 -85 -113.5 -130
t-172.5 -45q-99 0 -176 45z" />
    <glyph glyph-name="Cacute" unicode="&#x106;" horiz-adv-x="705" 
d="M214 33q-77 45 -120.5 127.5t-43.5 189.5t43.5 189.5t120.5 127.5t176 45q98 0 172.5 -45t113.5 -130l-116 -67q-25 57 -69 87.5t-101 30.5q-58 0 -103 -28t-70.5 -82t-25.5 -128t25.5 -128t70.5 -82t103 -28q57 0 101 30.5t69 87.5l116 -67q-39 -85 -113.5 -130
t-172.5 -45q-99 0 -176 45zM298 783l117 139h143l-135 -139h-125z" />
    <glyph glyph-name="Ccaron" unicode="&#x10c;" horiz-adv-x="705" 
d="M214 33q-77 45 -120.5 127.5t-43.5 189.5t43.5 189.5t120.5 127.5t176 45q98 0 172.5 -45t113.5 -130l-116 -67q-25 57 -69 87.5t-101 30.5q-58 0 -103 -28t-70.5 -82t-25.5 -128t25.5 -128t70.5 -82t103 -28q57 0 101 30.5t69 87.5l116 -67q-39 -85 -113.5 -130
t-172.5 -45q-99 0 -176 45zM204 922h131l20 -24q29 -31 35 -43h3q3 4 29 37l26 30h131l-130 -139h-116z" />
    <glyph glyph-name="Ccedilla" unicode="&#xc7;" horiz-adv-x="705" 
d="M300 -72h57q12 0 19 5.5t7 14.5q0 12 -12 27l-13 14q-91 7 -161 54t-108.5 126t-38.5 181q0 107 43.5 189.5t120.5 127.5t176 45q98 0 172.5 -45t113.5 -130l-116 -67q-25 57 -69 87.5t-101 30.5q-58 0 -103 -28t-70.5 -82t-25.5 -128t25.5 -128t70.5 -82t103 -28
q57 0 101 30.5t69 87.5l116 -67q-34 -73 -94 -116.5t-139 -54.5l16 -14q38 -35 38 -76q0 -33 -26.5 -57t-71.5 -24h-99v107z" />
    <glyph glyph-name="uni1E08" unicode="&#x1e08;" horiz-adv-x="705" 
d="M300 -72h57q12 0 19 5.5t7 14.5q0 12 -12 27l-13 14q-91 7 -161 54t-108.5 126t-38.5 181q0 107 43.5 189.5t120.5 127.5t176 45q98 0 172.5 -45t113.5 -130l-116 -67q-25 57 -69 87.5t-101 30.5q-58 0 -103 -28t-70.5 -82t-25.5 -128t25.5 -128t70.5 -82t103 -28
q57 0 101 30.5t69 87.5l116 -67q-34 -73 -94 -116.5t-139 -54.5l16 -14q38 -35 38 -76q0 -33 -26.5 -57t-71.5 -24h-99v107zM298 783l117 139h143l-135 -139h-125z" />
    <glyph glyph-name="Ccircumflex" unicode="&#x108;" horiz-adv-x="705" 
d="M214 33q-77 45 -120.5 127.5t-43.5 189.5t43.5 189.5t120.5 127.5t176 45q98 0 172.5 -45t113.5 -130l-116 -67q-25 57 -69 87.5t-101 30.5q-58 0 -103 -28t-70.5 -82t-25.5 -128t25.5 -128t70.5 -82t103 -28q57 0 101 30.5t69 87.5l116 -67q-39 -85 -113.5 -130
t-172.5 -45q-99 0 -176 45zM334 923h116l129 -139h-131l-20 24q-29 31 -35 43h-3q-3 -4 -29 -37l-26 -30h-131z" />
    <glyph glyph-name="Cdotaccent" unicode="&#x10a;" horiz-adv-x="705" 
d="M214 33q-77 45 -120.5 127.5t-43.5 189.5t43.5 189.5t120.5 127.5t176 45q98 0 172.5 -45t113.5 -130l-116 -67q-25 57 -69 87.5t-101 30.5q-58 0 -103 -28t-70.5 -82t-25.5 -128t25.5 -128t70.5 -82t103 -28q57 0 101 30.5t69 87.5l116 -67q-39 -85 -113.5 -130
t-172.5 -45q-99 0 -176 45zM332 800.5q-23 20.5 -23 55.5t23.5 56.5t58.5 21.5t58.5 -21.5t23.5 -56.5t-23 -55.5t-59 -20.5t-59 20.5z" />
    <glyph glyph-name="uniA7B3" unicode="&#xa7b3;" horiz-adv-x="669" 
d="M258 269l-242 431h156l108 -191q52 -94 53 -121h4q1 15 16 48.5t37 71.5l110 192h153l-241 -430l246 -439h-156l-114 201q-21 39 -36 72.5t-16 47.5h-4q-1 -16 -16 -48.5t-37 -71.5l-115 -201h-153z" />
    <glyph glyph-name="uni0187" unicode="&#x187;" horiz-adv-x="734" 
d="M214 33q-77 45 -120.5 127.5t-43.5 189.5t42 189t115 127.5t164 45.5q43 0 78 -11.5t60 -32.5q-7 17 -7 40q0 65 41.5 101t106.5 36q86 0 141 -57l-68 -91q-22 23 -49 23q-20 0 -33.5 -12.5t-13.5 -37.5q0 -19 9.5 -44t28.5 -65l10 -24l-115 -67q-25 57 -69 87.5
t-101 30.5q-58 0 -103 -28t-70.5 -82t-25.5 -128t25.5 -128t70.5 -82t103 -28q57 0 101 30.5t69 87.5l116 -67q-39 -85 -113.5 -130t-172.5 -45q-99 0 -176 45z" />
    <glyph glyph-name="uni023B" unicode="&#x23b;" horiz-adv-x="705" 
d="M346 -10l-42 -148h-106l49 174q-91 40 -144 127.5t-53 206.5q0 107 43.5 189.5t120.5 127.5t176 45q29 0 53 -4l41 145h106l-49 -174q90 -45 135 -142l-116 -67q-25 57 -69 87.5t-101 30.5q-58 0 -103 -28t-70.5 -82t-25.5 -128t25.5 -128t70.5 -82t103 -28
q57 0 101 30.5t69 87.5l116 -67q-39 -85 -113.5 -130t-172.5 -45q-18 0 -44 2z" />
    <glyph glyph-name="D" unicode="D" horiz-adv-x="736" 
d="M78 700h267q100 0 177.5 -43t121 -122t43.5 -185t-43.5 -185t-121 -122t-177.5 -43h-267v700zM337 120q102 0 155 60t53 170t-53 170t-155 60h-123v-460h123z" />
    <glyph glyph-name="uni01F1" unicode="&#x1f1;" horiz-adv-x="1318" 
d="M78 700h267q100 0 177.5 -43t121 -122t43.5 -185t-43.5 -185t-121 -122t-177.5 -43h-267v700zM337 120q102 0 155 60t53 170t-53 170t-155 60h-123v-460h123zM760 105l299 422q32 46 50 58l-1 2q-17 -7 -76 -7h-264v120h500v-105l-299 -422q-32 -46 -50 -58l1 -2
q16 7 76 7h276v-120h-512v105z" />
    <glyph glyph-name="uni01C4" unicode="&#x1c4;" horiz-adv-x="1318" 
d="M78 700h267q100 0 177.5 -43t121 -122t43.5 -185t-43.5 -185t-121 -122t-177.5 -43h-267v700zM337 120q102 0 155 60t53 170t-53 170t-155 60h-123v-460h123zM760 105l299 422q32 46 50 58l-1 2q-17 -7 -76 -7h-264v120h500v-105l-299 -422q-32 -46 -50 -58l1 -2
q16 7 76 7h276v-120h-512v105zM829 922h131l20 -24q29 -31 35 -43h3q3 4 29 37l26 30h131l-130 -139h-116z" />
    <glyph glyph-name="uni0189" unicode="&#x189;" horiz-adv-x="766" 
d="M384 300h-141v-180h124q102 0 155 60t53 170t-53 170t-155 60h-124v-173h141v-107zM108 300h-75v107h75v293h267q100 0 177.5 -43t121 -122t43.5 -185t-43.5 -185t-121 -122t-177.5 -43h-267v300z" />
    <glyph glyph-name="Dcaron" unicode="&#x10e;" horiz-adv-x="736" 
d="M78 700h267q100 0 177.5 -43t121 -122t43.5 -185t-43.5 -185t-121 -122t-177.5 -43h-267v700zM337 120q102 0 155 60t53 170t-53 170t-155 60h-123v-460h123zM158 922h131l20 -24q29 -31 35 -43h3q3 4 29 37l26 30h131l-130 -139h-116z" />
    <glyph glyph-name="uni1E10" unicode="&#x1e10;" horiz-adv-x="736" 
d="M78 700h267q100 0 177.5 -43t121 -122t43.5 -185t-43.5 -185t-121 -122t-177.5 -43h-267v700zM337 120q102 0 155 60t53 170t-53 170t-155 60h-123v-460h123zM285 -235l47 61q-24 5 -37.5 20t-13.5 36q0 27 21 43.5t55 16.5t55 -17t21 -45q0 -33 -29 -72l-56 -78z" />
    <glyph glyph-name="uni1E12" unicode="&#x1e12;" horiz-adv-x="736" 
d="M78 700h267q100 0 177.5 -43t121 -122t43.5 -185t-43.5 -185t-121 -122t-177.5 -43h-267v700zM337 120q102 0 155 60t53 170t-53 170t-155 60h-123v-460h123zM544 -214h-131l-26 30q-26 33 -29 37h-3q-4 -8 -31 -39l-23 -28h-131l129 139h116z" />
    <glyph glyph-name="Dcroat" unicode="&#x110;" horiz-adv-x="766" 
d="M384 300h-141v-180h124q102 0 155 60t53 170t-53 170t-155 60h-124v-173h141v-107zM108 300h-75v107h75v293h267q100 0 177.5 -43t121 -122t43.5 -185t-43.5 -185t-121 -122t-177.5 -43h-267v300z" />
    <glyph glyph-name="uni1E0A" unicode="&#x1e0a;" horiz-adv-x="736" 
d="M78 700h267q100 0 177.5 -43t121 -122t43.5 -185t-43.5 -185t-121 -122t-177.5 -43h-267v700zM337 120q102 0 155 60t53 170t-53 170t-155 60h-123v-460h123zM286 800.5q-23 20.5 -23 55.5t23.5 56.5t58.5 21.5t58.5 -21.5t23.5 -56.5t-23 -55.5t-59 -20.5t-59 20.5z" />
    <glyph glyph-name="uni1E0C" unicode="&#x1e0c;" horiz-adv-x="736" 
d="M78 700h267q100 0 177.5 -43t121 -122t43.5 -185t-43.5 -185t-121 -122t-177.5 -43h-267v700zM337 120q102 0 155 60t53 170t-53 170t-155 60h-123v-460h123zM298 -190.5q-23 20.5 -23 55.5t23.5 56t58.5 21t58.5 -21t23.5 -56t-23.5 -55.5t-58.5 -20.5q-36 0 -59 20.5z
" />
    <glyph glyph-name="uni018A" unicode="&#x18a;" horiz-adv-x="915" 
d="M257 580h-21q-31 0 -50 -17t-19 -45q0 -29 26 -58l-101 -71q-31 36 -46 69t-15 68q0 80 51.5 127t140.5 47h301q100 0 177 -43t120.5 -122t43.5 -185t-43.5 -185t-120.5 -122t-177 -43h-267v580zM516 120q102 0 155 60t53 170t-53 170t-155 60h-124v-460h124z" />
    <glyph glyph-name="uni1E0E" unicode="&#x1e0e;" horiz-adv-x="736" 
d="M78 700h267q100 0 177.5 -43t121 -122t43.5 -185t-43.5 -185t-121 -122t-177.5 -43h-267v700zM337 120q102 0 155 60t53 170t-53 170t-155 60h-123v-460h123zM188 -74h339v-99h-339v99z" />
    <glyph glyph-name="uni01F2" unicode="&#x1f2;" horiz-adv-x="1246" 
d="M78 700h267q100 0 177.5 -43t121 -122t43.5 -185t-43.5 -185t-121 -122t-177.5 -43h-267v700zM337 120q102 0 155 60t53 170t-53 170t-155 60h-123v-460h123zM780 93l210 261q39 47 54 55l-1 3q-18 -7 -78 -7h-175v110h404v-95l-204 -259q-39 -46 -55 -55l1 -3q18 7 77 7
h186v-110h-419v93z" />
    <glyph glyph-name="uni01C5" unicode="&#x1c5;" horiz-adv-x="1246" 
d="M78 700h267q100 0 177.5 -43t121 -122t43.5 -185t-43.5 -185t-121 -122t-177.5 -43h-267v700zM337 120q102 0 155 60t53 170t-53 170t-155 60h-123v-460h123zM780 93l210 261q39 47 54 55l-1 3q-18 -7 -78 -7h-175v110h404v-95l-204 -259q-39 -46 -55 -55l1 -3q18 7 77 7
h186v-110h-419v93zM806 737h131l20 -24q29 -31 35 -43h3q3 4 29 37l26 30h131l-130 -139h-116z" />
    <glyph glyph-name="Eth" unicode="&#xd0;" horiz-adv-x="766" 
d="M384 300h-141v-180h124q102 0 155 60t53 170t-53 170t-155 60h-124v-173h141v-107zM108 300h-75v107h75v293h267q100 0 177.5 -43t121 -122t43.5 -185t-43.5 -185t-121 -122t-177.5 -43h-267v300z" />
    <glyph glyph-name="E" unicode="E" horiz-adv-x="610" 
d="M555 580h-341v-164h300v-117h-300v-179h341v-120h-477v700h477v-120z" />
    <glyph glyph-name="Eacute" unicode="&#xc9;" horiz-adv-x="610" 
d="M555 580h-341v-164h300v-117h-300v-179h341v-120h-477v700h477v-120zM229 783l117 139h143l-135 -139h-125z" />
    <glyph glyph-name="Ebreve" unicode="&#x114;" horiz-adv-x="610" 
d="M555 580h-341v-164h300v-117h-300v-179h341v-120h-477v700h477v-120zM199 816.5q-47 37.5 -53 105.5h108q4 -30 21 -43t47 -13q29 0 46 13t21 43h108q-6 -68 -53 -105.5t-122 -37.5q-76 0 -123 37.5z" />
    <glyph glyph-name="Ecaron" unicode="&#x11a;" horiz-adv-x="610" 
d="M555 580h-341v-164h300v-117h-300v-179h341v-120h-477v700h477v-120zM135 922h131l20 -24q29 -31 35 -43h3q3 4 29 37l26 30h131l-130 -139h-116z" />
    <glyph glyph-name="uni0228" unicode="&#x228;" horiz-adv-x="610" 
d="M555 580h-341v-164h300v-117h-300v-179h341v-120h-190l26 -22q38 -35 38 -76q0 -33 -26.5 -57t-71.5 -24h-99v107h57q12 0 19 5.5t7 14.5q0 12 -12 27l-22 25h-203v700h477v-120z" />
    <glyph glyph-name="uni1E1C" unicode="&#x1e1c;" horiz-adv-x="610" 
d="M555 580h-341v-164h300v-117h-300v-179h341v-120h-190l26 -22q38 -35 38 -76q0 -33 -26.5 -57t-71.5 -24h-99v107h57q12 0 19 5.5t7 14.5q0 12 -12 27l-22 25h-203v700h477v-120zM199 816.5q-47 37.5 -53 105.5h108q4 -30 21 -43t47 -13q29 0 46 13t21 43h108
q-6 -68 -53 -105.5t-122 -37.5q-76 0 -123 37.5z" />
    <glyph glyph-name="Ecircumflex" unicode="&#xca;" horiz-adv-x="610" 
d="M555 580h-341v-164h300v-117h-300v-179h341v-120h-477v700h477v-120zM265 923h116l129 -139h-131l-20 24q-29 31 -35 43h-3q-3 -4 -29 -37l-26 -30h-131z" />
    <glyph glyph-name="uni1EBE" unicode="&#x1ebe;" horiz-adv-x="610" 
d="M555 580h-341v-164h300v-117h-300v-179h341v-120h-477v700h477v-120zM267 907h115l129 -139h-131l-23 28q-27 31 -31 39h-4q-4 -8 -31 -39l-23 -28h-131zM525 998h136l-96 -131h-112z" />
    <glyph glyph-name="uni1E18" unicode="&#x1e18;" horiz-adv-x="610" 
d="M555 580h-341v-164h300v-117h-300v-179h341v-120h-477v700h477v-120zM509 -214h-131l-26 30q-26 33 -29 37h-3q-4 -8 -31 -39l-23 -28h-131l129 139h116z" />
    <glyph glyph-name="uni1EC6" unicode="&#x1ec6;" horiz-adv-x="610" 
d="M555 580h-341v-164h300v-117h-300v-179h341v-120h-477v700h477v-120zM263 -190.5q-23 20.5 -23 55.5t23.5 56t58.5 21t58.5 -21t23.5 -56t-23.5 -55.5t-58.5 -20.5q-36 0 -59 20.5zM265 923h116l129 -139h-131l-20 24q-29 31 -35 43h-3q-3 -4 -29 -37l-26 -30h-131z" />
    <glyph glyph-name="uni1EC0" unicode="&#x1ec0;" horiz-adv-x="610" 
d="M555 580h-341v-164h300v-117h-300v-179h341v-120h-477v700h477v-120zM265 907h115l129 -139h-131l-23 28q-27 31 -31 39h-4q-4 -8 -31 -39l-23 -28h-131zM391 998h135l73 -131h-113z" />
    <glyph glyph-name="uni1EC2" unicode="&#x1ec2;" horiz-adv-x="610" 
d="M555 580h-341v-164h300v-117h-300v-179h341v-120h-477v700h477v-120zM264 907h116l129 -139h-131l-26 30q-26 33 -29 37h-3q-6 -12 -35 -43l-20 -24h-131zM468 915.5q8 14.5 8 26.5q0 11 -7 17.5t-20 6.5q-10 0 -20.5 -5.5t-17.5 -15.5l-67 54q39 58 115 58
q52 0 85.5 -27t33.5 -65q0 -41 -40 -88h-97q19 24 27 38.5z" />
    <glyph glyph-name="uni1EC4" unicode="&#x1ec4;" horiz-adv-x="610" 
d="M555 580h-341v-164h300v-117h-300v-179h341v-120h-477v700h477v-120zM264 907h116l129 -139h-131l-26 30q-26 33 -29 37h-3q-4 -8 -31 -39l-23 -28h-131zM349 955.5q-20 6.5 -42 18.5q-26 14 -40 14q-13 0 -20 -10t-7 -25h-102q0 35 16 64t42.5 45.5t55.5 16.5
q27 0 46.5 -6.5t43.5 -18.5q11 -5 21 -9t18 -4q13 0 20.5 9.5t7.5 24.5h101q0 -35 -16 -64t-42 -45.5t-56 -16.5q-27 0 -47 6.5z" />
    <glyph glyph-name="uni0204" unicode="&#x204;" horiz-adv-x="610" 
d="M555 580h-341v-164h300v-117h-300v-179h341v-120h-477v700h477v-120zM39 922h142l120 -139h-120zM251 922h134l114 -139h-121z" />
    <glyph glyph-name="Edieresis" unicode="&#xcb;" horiz-adv-x="610" 
d="M555 580h-341v-164h300v-117h-300v-179h341v-120h-477v700h477v-120zM155 800q-22 20 -22 55q0 34 22 54.5t55 20.5t54.5 -20.5t21.5 -54.5q0 -35 -21.5 -55t-54.5 -20t-55 20zM380 800q-22 20 -22 55q0 34 22 54.5t55 20.5t54.5 -20.5t21.5 -54.5q0 -35 -21.5 -55
t-54.5 -20t-55 20z" />
    <glyph glyph-name="Edotaccent" unicode="&#x116;" horiz-adv-x="610" 
d="M555 580h-341v-164h300v-117h-300v-179h341v-120h-477v700h477v-120zM263 800.5q-23 20.5 -23 55.5t23.5 56.5t58.5 21.5t58.5 -21.5t23.5 -56.5t-23 -55.5t-59 -20.5t-59 20.5z" />
    <glyph glyph-name="uni1EB8" unicode="&#x1eb8;" horiz-adv-x="610" 
d="M555 580h-341v-164h300v-117h-300v-179h341v-120h-477v700h477v-120zM263 -190.5q-23 20.5 -23 55.5t23.5 56t58.5 21t58.5 -21t23.5 -56t-23.5 -55.5t-58.5 -20.5q-36 0 -59 20.5z" />
    <glyph glyph-name="Egrave" unicode="&#xc8;" horiz-adv-x="610" 
d="M555 580h-341v-164h300v-117h-300v-179h341v-120h-477v700h477v-120zM155 922h143l117 -139h-124z" />
    <glyph glyph-name="uni1EBA" unicode="&#x1eba;" horiz-adv-x="610" 
d="M555 580h-341v-164h300v-117h-300v-179h341v-120h-477v700h477v-120zM323.5 796.5q8.5 14.5 8.5 26.5q0 11 -7.5 18t-20.5 7q-10 0 -20 -6t-18 -16l-67 54q39 58 115 58q51 0 85 -26.5t34 -64.5q0 -42 -40 -89h-97q19 24 27.5 38.5z" />
    <glyph glyph-name="uni0206" unicode="&#x206;" horiz-adv-x="610" 
d="M555 580h-341v-164h300v-117h-300v-179h341v-120h-477v700h477v-120zM438.5 890.5q45.5 -37.5 51.5 -105.5h-108q-8 53 -60 53t-60 -53h-109q6 68 52 105.5t117 37.5t116.5 -37.5z" />
    <glyph glyph-name="Emacron" unicode="&#x112;" horiz-adv-x="610" 
d="M555 580h-341v-164h300v-117h-300v-179h341v-120h-477v700h477v-120zM153 903h339v-100h-339v100z" />
    <glyph glyph-name="uni1E16" unicode="&#x1e16;" horiz-adv-x="610" 
d="M555 580h-341v-164h300v-117h-300v-179h341v-120h-477v700h477v-120zM153 864h339v-100h-339v100zM229 919l116 139h144l-136 -139h-124z" />
    <glyph glyph-name="uni1E14" unicode="&#x1e14;" horiz-adv-x="610" 
d="M555 580h-341v-164h300v-117h-300v-179h341v-120h-477v700h477v-120zM153 864h339v-99h-339v99zM164 1057h143l116 -139h-124z" />
    <glyph glyph-name="Eogonek" unicode="&#x118;" horiz-adv-x="610" 
d="M555 580h-341v-164h300v-117h-300v-179h341v-120h-51l-21 -25q-13 -14 -13 -27q0 -9 7.5 -14.5t19.5 -5.5h28v-107h-71q-45 0 -71.5 24t-26.5 57q0 19 10 39t28 37l26 22h-342v700h477v-120z" />
    <glyph glyph-name="uni0190" unicode="&#xa72a;" horiz-adv-x="642" 
d="M192.5 10.5q-64.5 22.5 -104 68.5t-39.5 113q0 62 39 107t106 62q-58 17 -90.5 57t-32.5 95q0 59 33 104t92.5 70t136.5 25q103 0 172.5 -49t98.5 -137l-112 -51q-20 57 -60 87t-95 30q-56 0 -90 -24t-34 -65q0 -91 129 -91h82v-114h-86q-71 0 -109.5 -24t-38.5 -72
q0 -47 41 -70.5t103 -23.5q59 0 103 33t67 100l112 -47q-26 -103 -101.5 -154.5t-181.5 -51.5q-76 0 -140.5 22.5z" />
    <glyph glyph-name="uni0190" unicode="&#x510;" horiz-adv-x="642" 
d="M192.5 10.5q-64.5 22.5 -104 68.5t-39.5 113q0 62 39 107t106 62q-58 17 -90.5 57t-32.5 95q0 59 33 104t92.5 70t136.5 25q103 0 172.5 -49t98.5 -137l-112 -51q-20 57 -60 87t-95 30q-56 0 -90 -24t-34 -65q0 -91 129 -91h82v-114h-86q-71 0 -109.5 -24t-38.5 -72
q0 -47 41 -70.5t103 -23.5q59 0 103 33t67 100l112 -47q-26 -103 -101.5 -154.5t-181.5 -51.5q-76 0 -140.5 22.5z" />
    <glyph glyph-name="uni0190" unicode="&#x190;" horiz-adv-x="642" 
d="M192.5 10.5q-64.5 22.5 -104 68.5t-39.5 113q0 62 39 107t106 62q-58 17 -90.5 57t-32.5 95q0 59 33 104t92.5 70t136.5 25q103 0 172.5 -49t98.5 -137l-112 -51q-20 57 -60 87t-95 30q-56 0 -90 -24t-34 -65q0 -91 129 -91h82v-114h-86q-71 0 -109.5 -24t-38.5 -72
q0 -47 41 -70.5t103 -23.5q59 0 103 33t67 100l112 -47q-26 -103 -101.5 -154.5t-181.5 -51.5q-76 0 -140.5 22.5z" />
    <glyph glyph-name="uni018E" unicode="&#x18e;" horiz-adv-x="610" 
d="M54 120h342v179h-301v117h301v164h-342v120h477v-700h-477v120z" />
    <glyph glyph-name="uni01A9" unicode="&#x1a9;" horiz-adv-x="590" 
d="M48 106l209 246l-201 243v105h486v-120h-241q-61 0 -78 7l-1 -4q15 -7 56 -56l127 -157v-32l-136 -165q-41 -48 -56 -56l1 -4q17 7 80 7h249v-120h-495v106z" />
    <glyph glyph-name="uni0246" unicode="&#x246;" horiz-adv-x="610" 
d="M436 853h106l-44 -153h57v-120h-341v-164h300v-117h-300v-179h341v-120h-254l-45 -158h-106l45 158h-117v700h314z" />
    <glyph glyph-name="uni1EBC" unicode="&#x1ebc;" horiz-adv-x="610" 
d="M555 580h-341v-164h300v-117h-300v-179h341v-120h-477v700h477v-120zM350 789q-20 8 -42 21q-27 16 -40 16t-20 -11.5t-7 -29.5h-102q0 39 16.5 70.5t44.5 49.5t59 18q27 0 46.5 -7.5t42.5 -20.5q27 -16 40 -16t20.5 11t7.5 29h101q0 -39 -16.5 -70.5t-44.5 -49.5
t-59 -18q-27 0 -47 8z" />
    <glyph glyph-name="uni1E1A" unicode="&#x1e1a;" horiz-adv-x="610" 
d="M555 580h-341v-164h300v-117h-300v-179h341v-120h-477v700h477v-120zM344.5 -194.5q-19.5 7.5 -42.5 20.5q-27 16 -40 16t-20 -11t-7 -29h-102q0 39 16.5 70.5t44.5 49.5t59 18q27 0 47 -8t42 -21q27 -16 40 -16t20.5 11.5t7.5 28.5h101q0 -39 -16.5 -70.5t-44 -49
t-59.5 -17.5q-27 0 -46.5 7.5z" />
    <glyph glyph-name="uni018F" unicode="&#x18f;" horiz-adv-x="757" 
d="M199 30q-73 42 -113 119t-40 179q0 29 3 57h516q-9 96 -65 150t-140 54q-58 0 -106 -29t-79 -85l-98 82q44 71 119.5 113t163.5 42q101 0 180 -45t123.5 -127t44.5 -190t-44.5 -190t-122 -127t-172.5 -45q-97 0 -170 42zM244 153.5q47 -42.5 125 -42.5q68 0 120 43
t70 120h-373q11 -78 58 -120.5z" />
    <glyph glyph-name="uni01B7" unicode="&#x1b7;" horiz-adv-x="620" 
d="M131.5 26.5q-72.5 38.5 -110.5 122.5l105 69q30 -54 72.5 -80t102.5 -26q59 0 95.5 27t36.5 77q0 46 -34 70t-97 24h-108v95l120 121q50 50 65 57l-2 3q-16 -6 -84 -6h-226v120h473v-108l-183 -182q99 -8 157.5 -60t58.5 -136q0 -70 -35 -121t-97 -78t-143 -27
q-94 0 -166.5 38.5z" />
    <glyph glyph-name="uni01EE" unicode="&#x1ee;" horiz-adv-x="620" 
d="M131.5 26.5q-72.5 38.5 -110.5 122.5l105 69q30 -54 72.5 -80t102.5 -26q59 0 95.5 27t36.5 77q0 46 -34 70t-97 24h-108v95l120 121q50 50 65 57l-2 3q-16 -6 -84 -6h-226v120h473v-108l-183 -182q99 -8 157.5 -60t58.5 -136q0 -70 -35 -121t-97 -78t-143 -27
q-94 0 -166.5 38.5zM117 922h131l20 -24q29 -31 35 -43h3q3 4 29 37l26 30h131l-130 -139h-116z" />
    <glyph glyph-name="uni01B8" unicode="&#x1b8;" horiz-adv-x="620" 
d="M178.5 15q-62.5 27 -97 78t-34.5 121q0 84 58 136t157 60l-183 182v108h474v-120h-226q-68 0 -84 6l-2 -3q15 -7 65 -57l120 -121v-95h-109q-63 0 -96.5 -24t-33.5 -70q0 -50 36.5 -77t94.5 -27q60 0 103 26t72 80l105 -69q-38 -84 -110.5 -122.5t-165.5 -38.5
q-81 0 -143.5 27z" />
    <glyph glyph-name="F" unicode="F" horiz-adv-x="594" 
d="M78 700h473v-121h-338v-182h293v-121h-293v-276h-135v700z" />
    <glyph glyph-name="uniA798" unicode="&#xa798;" horiz-adv-x="626" 
d="M111 276h-76v121h76v303h473v-121h-338v-182h293v-121h-293v-276h-135v276z" />
    <glyph glyph-name="uni1E1E" unicode="&#x1e1e;" horiz-adv-x="594" 
d="M78 700h473v-121h-338v-182h293v-121h-293v-276h-135v700zM259 800.5q-23 20.5 -23 55.5t23.5 56.5t58.5 21.5t58.5 -21.5t23.5 -56.5t-23 -55.5t-59 -20.5t-59 20.5z" />
    <glyph glyph-name="uni0191" unicode="&#x191;" horiz-adv-x="594" 
d="M-96 -133l70 90q22 -23 53 -23q23 0 37 14.5t14 46.5v705h473v-121h-338v-182h293v-121h-293v-286q-1 -89 -48.5 -134.5t-124.5 -45.5q-84 0 -136 57z" />
    <glyph glyph-name="G" unicode="G" horiz-adv-x="757" 
d="M215.5 33q-77.5 45 -122 127t-44.5 190t44 190t122 127t177 45q87 0 163.5 -41t120.5 -118l-109 -69q-30 53 -75 78.5t-100 25.5q-58 0 -104 -28t-71.5 -81.5t-25.5 -128.5q0 -73 26.5 -127t71.5 -82.5t99 -28.5q80 0 126.5 41.5t57.5 120.5h-184v111h320q3 -27 3 -52
q0 -108 -42.5 -186t-115.5 -118.5t-165 -40.5q-95 0 -172.5 45z" />
    <glyph glyph-name="G.ss10" horiz-adv-x="759" 
d="M210 33q-74 45 -117.5 127.5t-43.5 189.5q0 108 43 190t120 127t174 45q85 1 160.5 -39.5t119.5 -117.5l-106 -73q-30 53 -75 79.5t-99 26.5q-57 0 -101 -28.5t-69 -82.5t-25 -128q0 -72 26.5 -126t72 -82.5t100.5 -28.5q75 0 121 43.5t50 118.5h-173v111h202
q47 0 72.5 -25.5t25.5 -72.5v-287h-123v73q-68 -85 -191 -85q-90 0 -164 45z" />
    <glyph glyph-name="uni01F4" unicode="&#x1f4;" horiz-adv-x="757" 
d="M215.5 33q-77.5 45 -122 127t-44.5 190t44 190t122 127t177 45q87 0 163.5 -41t120.5 -118l-109 -69q-30 53 -75 78.5t-100 25.5q-58 0 -104 -28t-71.5 -81.5t-25.5 -128.5q0 -73 26.5 -127t71.5 -82.5t99 -28.5q80 0 126.5 41.5t57.5 120.5h-184v111h320q3 -27 3 -52
q0 -108 -42.5 -186t-115.5 -118.5t-165 -40.5q-95 0 -172.5 45zM294 783l117 139h143l-135 -139h-125z" />
    <glyph glyph-name="uni01F4.ss10" horiz-adv-x="759" 
d="M210 33q-74 45 -117.5 127.5t-43.5 189.5q0 108 43 190t120 127t174 45q85 1 160.5 -39.5t119.5 -117.5l-106 -73q-30 53 -75 79.5t-99 26.5q-57 0 -101 -28.5t-69 -82.5t-25 -128q0 -72 26.5 -126t72 -82.5t100.5 -28.5q75 0 121 43.5t50 118.5h-173v111h202
q47 0 72.5 -25.5t25.5 -72.5v-287h-123v73q-68 -85 -191 -85q-90 0 -164 45zM294 783l117 139h143l-135 -139h-125z" />
    <glyph glyph-name="Gbreve" unicode="&#x11e;" horiz-adv-x="757" 
d="M215.5 33q-77.5 45 -122 127t-44.5 190t44 190t122 127t177 45q87 0 163.5 -41t120.5 -118l-109 -69q-30 53 -75 78.5t-100 25.5q-58 0 -104 -28t-71.5 -81.5t-25.5 -128.5q0 -73 26.5 -127t71.5 -82.5t99 -28.5q80 0 126.5 41.5t57.5 120.5h-184v111h320q3 -27 3 -52
q0 -108 -42.5 -186t-115.5 -118.5t-165 -40.5q-95 0 -172.5 45zM264 816.5q-47 37.5 -53 105.5h108q4 -30 21 -43t47 -13q29 0 46 13t21 43h108q-6 -68 -53 -105.5t-122 -37.5q-76 0 -123 37.5z" />
    <glyph glyph-name="Gbreve.ss10" horiz-adv-x="759" 
d="M210 33q-74 45 -117.5 127.5t-43.5 189.5q0 108 43 190t120 127t174 45q85 1 160.5 -39.5t119.5 -117.5l-106 -73q-30 53 -75 79.5t-99 26.5q-57 0 -101 -28.5t-69 -82.5t-25 -128q0 -72 26.5 -126t72 -82.5t100.5 -28.5q75 0 121 43.5t50 118.5h-173v111h202
q47 0 72.5 -25.5t25.5 -72.5v-287h-123v73q-68 -85 -191 -85q-90 0 -164 45zM264 816.5q-47 37.5 -53 105.5h108q4 -30 21 -43t47 -13q29 0 46 13t21 43h108q-6 -68 -53 -105.5t-122 -37.5q-76 0 -123 37.5z" />
    <glyph glyph-name="Gcaron" unicode="&#x1e6;" horiz-adv-x="757" 
d="M215.5 33q-77.5 45 -122 127t-44.5 190t44 190t122 127t177 45q87 0 163.5 -41t120.5 -118l-109 -69q-30 53 -75 78.5t-100 25.5q-58 0 -104 -28t-71.5 -81.5t-25.5 -128.5q0 -73 26.5 -127t71.5 -82.5t99 -28.5q80 0 126.5 41.5t57.5 120.5h-184v111h320q3 -27 3 -52
q0 -108 -42.5 -186t-115.5 -118.5t-165 -40.5q-95 0 -172.5 45zM200 922h131l20 -24q29 -31 35 -43h3q3 4 29 37l26 30h131l-130 -139h-116z" />
    <glyph glyph-name="Gcaron.ss10" horiz-adv-x="759" 
d="M210 33q-74 45 -117.5 127.5t-43.5 189.5q0 108 43 190t120 127t174 45q85 1 160.5 -39.5t119.5 -117.5l-106 -73q-30 53 -75 79.5t-99 26.5q-57 0 -101 -28.5t-69 -82.5t-25 -128q0 -72 26.5 -126t72 -82.5t100.5 -28.5q75 0 121 43.5t50 118.5h-173v111h202
q47 0 72.5 -25.5t25.5 -72.5v-287h-123v73q-68 -85 -191 -85q-90 0 -164 45zM200 922h131l20 -24q29 -31 35 -43h3q3 4 29 37l26 30h131l-130 -139h-116z" />
    <glyph glyph-name="Gcircumflex" unicode="&#x11c;" horiz-adv-x="757" 
d="M215.5 33q-77.5 45 -122 127t-44.5 190t44 190t122 127t177 45q87 0 163.5 -41t120.5 -118l-109 -69q-30 53 -75 78.5t-100 25.5q-58 0 -104 -28t-71.5 -81.5t-25.5 -128.5q0 -73 26.5 -127t71.5 -82.5t99 -28.5q80 0 126.5 41.5t57.5 120.5h-184v111h320q3 -27 3 -52
q0 -108 -42.5 -186t-115.5 -118.5t-165 -40.5q-95 0 -172.5 45zM330 923h116l129 -139h-131l-20 24q-29 31 -35 43h-3q-3 -4 -29 -37l-26 -30h-131z" />
    <glyph glyph-name="Gcircumflex.ss10" horiz-adv-x="759" 
d="M210 33q-74 45 -117.5 127.5t-43.5 189.5q0 108 43 190t120 127t174 45q85 1 160.5 -39.5t119.5 -117.5l-106 -73q-30 53 -75 79.5t-99 26.5q-57 0 -101 -28.5t-69 -82.5t-25 -128q0 -72 26.5 -126t72 -82.5t100.5 -28.5q75 0 121 43.5t50 118.5h-173v111h202
q47 0 72.5 -25.5t25.5 -72.5v-287h-123v73q-68 -85 -191 -85q-90 0 -164 45zM330 923h116l129 -139h-131l-20 24q-29 31 -35 43h-3q-3 -4 -29 -37l-26 -30h-131z" />
    <glyph glyph-name="uni0122" unicode="&#x122;" horiz-adv-x="757" 
d="M215.5 33q-77.5 45 -122 127t-44.5 190t44 190t122 127t177 45q87 0 163.5 -41t120.5 -118l-109 -69q-30 53 -75 78.5t-100 25.5q-58 0 -104 -28t-71.5 -81.5t-25.5 -128.5q0 -73 26.5 -127t71.5 -82.5t99 -28.5q80 0 126.5 41.5t57.5 120.5h-184v111h320q3 -27 3 -52
q0 -108 -42.5 -186t-115.5 -118.5t-165 -40.5q-95 0 -172.5 45zM316 -235l47 61q-24 5 -37.5 20t-13.5 36q0 27 21 43.5t55 16.5t55 -17t21 -45q0 -33 -29 -72l-56 -78z" />
    <glyph glyph-name="uni0122.ss10" horiz-adv-x="759" 
d="M210 33q-74 45 -117.5 127.5t-43.5 189.5q0 108 43 190t120 127t174 45q85 1 160.5 -39.5t119.5 -117.5l-106 -73q-30 53 -75 79.5t-99 26.5q-57 0 -101 -28.5t-69 -82.5t-25 -128q0 -72 26.5 -126t72 -82.5t100.5 -28.5q75 0 121 43.5t50 118.5h-173v111h202
q47 0 72.5 -25.5t25.5 -72.5v-287h-123v73q-68 -85 -191 -85q-90 0 -164 45zM316 -235l47 61q-24 5 -37.5 20t-13.5 36q0 27 21 43.5t55 16.5t55 -17t21 -45q0 -33 -29 -72l-56 -78z" />
    <glyph glyph-name="Gdotaccent" unicode="&#x120;" horiz-adv-x="757" 
d="M215.5 33q-77.5 45 -122 127t-44.5 190t44 190t122 127t177 45q87 0 163.5 -41t120.5 -118l-109 -69q-30 53 -75 78.5t-100 25.5q-58 0 -104 -28t-71.5 -81.5t-25.5 -128.5q0 -73 26.5 -127t71.5 -82.5t99 -28.5q80 0 126.5 41.5t57.5 120.5h-184v111h320q3 -27 3 -52
q0 -108 -42.5 -186t-115.5 -118.5t-165 -40.5q-95 0 -172.5 45zM328 800.5q-23 20.5 -23 55.5t23.5 56.5t58.5 21.5t58.5 -21.5t23.5 -56.5t-23 -55.5t-59 -20.5t-59 20.5z" />
    <glyph glyph-name="Gdotaccent.ss10" horiz-adv-x="759" 
d="M210 33q-74 45 -117.5 127.5t-43.5 189.5q0 108 43 190t120 127t174 45q85 1 160.5 -39.5t119.5 -117.5l-106 -73q-30 53 -75 79.5t-99 26.5q-57 0 -101 -28.5t-69 -82.5t-25 -128q0 -72 26.5 -126t72 -82.5t100.5 -28.5q75 0 121 43.5t50 118.5h-173v111h202
q47 0 72.5 -25.5t25.5 -72.5v-287h-123v73q-68 -85 -191 -85q-90 0 -164 45zM328 800.5q-23 20.5 -23 55.5t23.5 56.5t58.5 21.5t58.5 -21.5t23.5 -56.5t-23 -55.5t-59 -20.5t-59 20.5z" />
    <glyph glyph-name="uni01A2" unicode="&#x1a2;" horiz-adv-x="1144" 
d="M215.5 33q-78.5 45 -122.5 127.5t-44 189.5t44 189.5t122.5 127.5t178.5 45q94 0 169.5 -39.5t120.5 -110.5q18 76 73.5 113t121.5 37q55 0 98.5 -25.5t69 -76t25.5 -121.5v-658h-135v638q0 60 -24 89.5t-69 29.5q-46 0 -75 -36.5t-29 -97.5v-104v-5q-1 -106 -45 -187
t-122.5 -125.5t-178.5 -44.5t-178.5 45zM500.5 140q46.5 28 72.5 82t26 128t-26 128t-72.5 82t-106.5 28q-59 0 -105.5 -28t-72.5 -82t-26 -128t26 -128t72.5 -82t105.5 -28q60 0 106.5 28z" />
    <glyph glyph-name="uni0193" unicode="&#x193;" horiz-adv-x="765" 
d="M215.5 33q-77.5 45 -122 127t-44.5 190t40.5 190.5t113 127t166.5 44.5q44 0 81.5 -12t63.5 -33q-7 20 -7 41q0 65 41.5 101t106.5 36q86 0 141 -57l-68 -91q-22 23 -49 23q-21 0 -35 -13t-14 -39q0 -35 36 -95l10 -20l-109 -69q-59 104 -178 104q-57 0 -102 -28
t-70.5 -81.5t-25.5 -128.5q0 -73 26.5 -127t71.5 -82.5t99 -28.5q80 0 126.5 41.5t57.5 120.5h-184v111h320q3 -27 3 -52q0 -108 -42.5 -186t-115.5 -118.5t-165 -40.5q-95 0 -172.5 45z" />
    <glyph glyph-name="uni0193.ss10" horiz-adv-x="770" 
d="M209.5 33q-74.5 45 -117.5 127.5t-43 189.5q0 108 40.5 190.5t113 127t166.5 44.5q44 0 81 -12t64 -34q-7 20 -7 42q0 65 41 101t106 36q87 0 142 -57l-68 -91q-22 23 -49 23q-20 0 -34 -13t-14 -38q0 -19 9.5 -45.5t27.5 -64.5l25 -53l-118 -58q-54 140 -186 140
q-57 0 -102 -28t-70.5 -82t-25.5 -128t27 -128t72.5 -82t99.5 -28q75 0 121 43.5t50 118.5h-173v111h202q47 0 72.5 -25.5t25.5 -72.5v-287h-123v73q-68 -85 -191 -85q-90 0 -164.5 45z" />
    <glyph glyph-name="uni0241" unicode="&#x241;" horiz-adv-x="575" 
d="M476 656.5q67 -55.5 67 -149.5q0 -51 -17.5 -87.5t-37 -55.5t-65.5 -58q-40 -35 -59.5 -66t-19.5 -79v-161h-135v180q0 54 16 94.5t39.5 66.5t58.5 55q41 33 60 55.5t19 54.5q0 41 -29.5 63.5t-81.5 22.5q-53 0 -94.5 -30.5t-64.5 -91.5l-111 47q32 90 99.5 142.5
t171.5 52.5q117 0 184 -55.5z" />
    <glyph glyph-name="uni1E20" unicode="&#x1e20;" horiz-adv-x="757" 
d="M215.5 33q-77.5 45 -122 127t-44.5 190t44 190t122 127t177 45q87 0 163.5 -41t120.5 -118l-109 -69q-30 53 -75 78.5t-100 25.5q-58 0 -104 -28t-71.5 -81.5t-25.5 -128.5q0 -73 26.5 -127t71.5 -82.5t99 -28.5q80 0 126.5 41.5t57.5 120.5h-184v111h320q3 -27 3 -52
q0 -108 -42.5 -186t-115.5 -118.5t-165 -40.5q-95 0 -172.5 45zM218 903h339v-100h-339v100z" />
    <glyph glyph-name="uni1E20.ss10" horiz-adv-x="759" 
d="M210 33q-74 45 -117.5 127.5t-43.5 189.5q0 108 43 190t120 127t174 45q85 1 160.5 -39.5t119.5 -117.5l-106 -73q-30 53 -75 79.5t-99 26.5q-57 0 -101 -28.5t-69 -82.5t-25 -128q0 -72 26.5 -126t72 -82.5t100.5 -28.5q75 0 121 43.5t50 118.5h-173v111h202
q47 0 72.5 -25.5t25.5 -72.5v-287h-123v73q-68 -85 -191 -85q-90 0 -164 45zM218 903h339v-100h-339v100z" />
    <glyph glyph-name="uniA7AC" unicode="&#xa7ac;" horiz-adv-x="780" 
d="M210 -160.5q-71 29.5 -121 85.5l82 91q37 -38 86 -60t102 -22q91 0 150 48t59 137v85q-34 -56 -88 -88.5t-130 -32.5q-85 0 -154.5 41t-109 113t-39.5 161t39.5 161t109 112.5t154.5 40.5q76 0 130.5 -33t88.5 -90v111h134v-574q0 -98 -44 -169.5t-122.5 -109
t-179.5 -37.5q-76 0 -147 29.5zM478.5 231q43.5 24 68 67.5t24.5 99.5t-24.5 99t-68 67t-98.5 24t-98.5 -24t-68 -67t-24.5 -99t24.5 -99.5t68 -67.5t98.5 -24t98.5 24z" />
    <glyph glyph-name="uni01E4" unicode="&#x1e4;" horiz-adv-x="788" 
d="M215.5 33q-77.5 45 -122 127t-44.5 190t44 190t122 127t177 45q87 0 163.5 -41t120.5 -118l-109 -69q-30 53 -75 78.5t-100 25.5q-58 0 -104 -28t-71.5 -81.5t-25.5 -128.5q0 -78 27.5 -135t74 -87.5t102.5 -30.5q96 0 137 55h-144v82h177q4 24 6 52h-183v99h320
q3 -27 3 -52q0 -47 -8 -90h54v-106h-92q-41 -72 -113.5 -110.5t-163.5 -38.5q-95 0 -172.5 45z" />
    <glyph glyph-name="uni01E4.ss10" horiz-adv-x="789" 
d="M388 237h175q5 22 6 45h-181v103h202q47 0 72.5 -25.5t25.5 -72.5v-44h69v-106h-69v-137h-123v73q-68 -85 -191 -85q-90 0 -164 45t-117.5 127.5t-43.5 189.5q0 108 43 190t120 127t174 45q99 0 181 -53.5t118 -152.5l-116 -58q-54 140 -183 140q-57 0 -101 -28.5
t-69 -82.5t-25 -128q0 -77 26.5 -134t72 -87.5t100.5 -30.5q82 0 129 50h-131v90z" />
    <glyph glyph-name="uni021C" unicode="&#x21c;" horiz-adv-x="620" 
d="M131.5 26.5q-72.5 38.5 -110.5 122.5l105 69q30 -54 72.5 -80t102.5 -26q59 0 95.5 27t36.5 77q0 46 -34 70t-97 24h-108v95l120 121q50 50 65 57l-2 3q-16 -6 -84 -6h-226v120h473v-108l-183 -182q99 -8 157.5 -60t58.5 -136q0 -70 -35 -121t-97 -78t-143 -27
q-94 0 -166.5 38.5z" />
    <glyph glyph-name="H" unicode="H" horiz-adv-x="724" 
d="M511 293h-298v-293h-135v700h135v-286h298v286h135v-700h-135v293z" />
    <glyph glyph-name="Hbar" unicode="&#x126;" horiz-adv-x="791" 
d="M545 293h-299v-293h-134v495h-73v105h73v100h134v-100h299v100h135v-100h72v-105h-72v-495h-135v293zM545 414v81h-299v-81h299z" />
    <glyph glyph-name="uni1E2A" unicode="&#x1e2a;" horiz-adv-x="724" 
d="M511 293h-298v-293h-135v700h135v-286h298v286h135v-700h-135v293zM239 -181.5q-47 37.5 -53 105.5h108q4 -30 21 -43t47 -13q29 0 46 13t21 43h108q-6 -68 -53 -105.5t-122 -37.5q-76 0 -123 37.5z" />
    <glyph glyph-name="uni021E" unicode="&#x21e;" horiz-adv-x="724" 
d="M511 293h-298v-293h-135v700h135v-286h298v286h135v-700h-135v293zM175 922h131l20 -24q29 -31 35 -43h3q3 4 29 37l26 30h131l-130 -139h-116z" />
    <glyph glyph-name="uni1E28" unicode="&#x1e28;" horiz-adv-x="724" 
d="M511 293h-298v-293h-51l26 -22q38 -35 38 -76q0 -33 -26.5 -57t-71.5 -24h-99v107h57q12 0 19 5.5t7 14.5q0 12 -12 27l-22 25v700h135v-286h298v286h135v-700h-135v293z" />
    <glyph glyph-name="Hcircumflex" unicode="&#x124;" horiz-adv-x="724" 
d="M511 293h-298v-293h-135v700h135v-286h298v286h135v-700h-135v293zM305 923h116l129 -139h-131l-20 24q-29 31 -35 43h-3q-3 -4 -29 -37l-26 -30h-131z" />
    <glyph glyph-name="uni1E26" unicode="&#x1e26;" horiz-adv-x="724" 
d="M511 293h-298v-293h-135v700h135v-286h298v286h135v-700h-135v293zM195 799.5q-22 20.5 -22 54.5q0 35 22 55t55 20t54.5 -20t21.5 -55q0 -34 -21.5 -54.5t-54.5 -20.5t-55 20.5zM420 799.5q-22 20.5 -22 54.5q0 35 22 55t55 20t54.5 -20t21.5 -55q0 -34 -21.5 -54.5
t-54.5 -20.5t-55 20.5z" />
    <glyph glyph-name="uni1E22" unicode="&#x1e22;" horiz-adv-x="724" 
d="M511 293h-298v-293h-135v700h135v-286h298v286h135v-700h-135v293zM303 800.5q-23 20.5 -23 55.5t23.5 56.5t58.5 21.5t58.5 -21.5t23.5 -56.5t-23 -55.5t-59 -20.5t-59 20.5z" />
    <glyph glyph-name="uni1E24" unicode="&#x1e24;" horiz-adv-x="724" 
d="M511 293h-298v-293h-135v700h135v-286h298v286h135v-700h-135v293zM303 -190.5q-23 20.5 -23 55.5t23.5 56t58.5 21t58.5 -21t23.5 -56t-23.5 -55.5t-58.5 -20.5q-36 0 -59 20.5z" />
    <glyph glyph-name="uniA726" unicode="&#xa726;" horiz-adv-x="724" 
d="M337 -133l70 90q23 -23 54 -23q22 0 36 14.5t14 46.5v298h-298v-293h-135v700h135v-286h298v286h135v-708q0 -89 -48 -135.5t-125 -46.5q-84 0 -136 57z" />
    <glyph glyph-name="uniA7AA" unicode="&#xa7aa;" horiz-adv-x="903" 
d="M690 293h-299v-293h-134v580h-21q-31 0 -50 -17t-19 -45q0 -29 26 -58l-101 -71q-31 36 -46 69t-15 68q0 80 51.5 127t140.5 47h168v-286h299v286h135v-700h-135v293z" />
    <glyph glyph-name="uniA78D" unicode="&#xa78d;" horiz-adv-x="697" 
d="M484 294h-415v406h135v-286h280v286h135v-700h-135v294z" />
    <glyph glyph-name="I" unicode="I" horiz-adv-x="292" 
d="M214 0h-136v700h136v-700z" />
    <glyph glyph-name="IJ" unicode="&#x132;" horiz-adv-x="827" 
d="M214 0h-136v700h136v-700zM309 140l110 55q13 -37 38 -60t64 -23q46 0 72 29.5t26 84.5v474h135v-480q0 -112 -63 -172t-167 -60q-155 0 -215 152z" />
    <glyph glyph-name="Iacute" unicode="&#xcd;" horiz-adv-x="292" 
d="M214 0h-136v700h136v-700zM52 783l117 139h143l-135 -139h-125z" />
    <glyph glyph-name="Ibreve" unicode="&#x12c;" horiz-adv-x="292" 
d="M214 0h-136v700h136v-700zM22 816.5q-47 37.5 -53 105.5h108q4 -30 21 -43t47 -13q29 0 46 13t21 43h108q-6 -68 -53 -105.5t-122 -37.5q-76 0 -123 37.5z" />
    <glyph glyph-name="uni01CF" unicode="&#x1cf;" horiz-adv-x="292" 
d="M214 0h-136v700h136v-700zM-42 922h131l20 -24q29 -31 35 -43h3q3 4 29 37l26 30h131l-130 -139h-116z" />
    <glyph glyph-name="Icircumflex" unicode="&#xce;" horiz-adv-x="292" 
d="M214 0h-136v700h136v-700zM88 923h116l129 -139h-131l-20 24q-29 31 -35 43h-3q-3 -4 -29 -37l-26 -30h-131z" />
    <glyph glyph-name="uni0208" unicode="&#x208;" horiz-adv-x="292" 
d="M214 0h-136v700h136v-700zM-138 922h142l120 -139h-120zM74 922h134l114 -139h-121z" />
    <glyph glyph-name="Idieresis" unicode="&#xcf;" horiz-adv-x="292" 
d="M214 0h-136v700h136v-700zM-22 800q-22 20 -22 55q0 34 22 54.5t55 20.5t54.5 -20.5t21.5 -54.5q0 -35 -21.5 -55t-54.5 -20t-55 20zM203 800q-22 20 -22 55q0 34 22 54.5t55 20.5t54.5 -20.5t21.5 -54.5q0 -35 -21.5 -55t-54.5 -20t-55 20z" />
    <glyph glyph-name="uni1E2E" unicode="&#x1e2e;" horiz-adv-x="292" 
d="M214 0h-136v700h136v-700zM162 1093h143l-105 -139h-124zM-22 779.5q-22 20.5 -22 54.5q0 35 22 55t55 20t54.5 -20t21.5 -55q0 -34 -21.5 -54.5t-54.5 -20.5t-55 20.5zM203 779.5q-22 20.5 -22 54.5q0 35 22 55t55 20t54.5 -20t21.5 -55q0 -34 -21.5 -54.5t-54.5 -20.5
t-55 20.5z" />
    <glyph glyph-name="Idotaccent" unicode="&#x130;" horiz-adv-x="292" 
d="M214 0h-136v700h136v-700zM86 800.5q-23 20.5 -23 55.5t23.5 56.5t58.5 21.5t58.5 -21.5t23.5 -56.5t-23 -55.5t-59 -20.5t-59 20.5z" />
    <glyph glyph-name="uni1ECA" unicode="&#x1eca;" horiz-adv-x="292" 
d="M214 0h-136v700h136v-700zM87 -190.5q-23 20.5 -23 55.5t23.5 56t58.5 21t58.5 -21t23.5 -56t-23.5 -55.5t-58.5 -20.5q-36 0 -59 20.5z" />
    <glyph glyph-name="Igrave" unicode="&#xcc;" horiz-adv-x="292" 
d="M214 0h-136v700h136v-700zM-22 922h143l117 -139h-124z" />
    <glyph glyph-name="uni1EC8" unicode="&#x1ec8;" horiz-adv-x="292" 
d="M214 0h-136v700h136v-700zM146.5 796.5q8.5 14.5 8.5 26.5q0 11 -7.5 18t-20.5 7q-10 0 -20 -6t-18 -16l-67 54q39 58 115 58q51 0 85 -26.5t34 -64.5q0 -42 -40 -89h-97q19 24 27.5 38.5z" />
    <glyph glyph-name="uni020A" unicode="&#x20a;" horiz-adv-x="292" 
d="M214 0h-136v700h136v-700zM261.5 890.5q45.5 -37.5 51.5 -105.5h-108q-8 53 -60 53t-60 -53h-109q6 68 52 105.5t117 37.5t116.5 -37.5z" />
    <glyph glyph-name="Imacron" unicode="&#x12a;" horiz-adv-x="292" 
d="M214 0h-136v700h136v-700zM-24 903h339v-100h-339v100z" />
    <glyph glyph-name="Iogonek" unicode="&#x12e;" horiz-adv-x="292" 
d="M214 0h-2l-21 -25q-13 -14 -13 -27q0 -9 7.5 -14.5t19.5 -5.5h28v-107h-71q-45 0 -71.5 24t-26.5 57q0 19 10 39t28 37l26 22h-50v700h136v-700z" />
    <glyph glyph-name="uni0196" unicode="&#x196;" horiz-adv-x="349" 
d="M118 45q-43 45 -43 136v519h135v-501q0 -40 15.5 -59.5t49.5 -19.5h40v-120h-59q-95 0 -138 45z" />
    <glyph glyph-name="uni0197" unicode="&#x197;" horiz-adv-x="351" 
d="M317 300h-74v-300h-135v300h-74v107h74v293h135v-293h74v-107z" />
    <glyph glyph-name="Itilde" unicode="&#x128;" horiz-adv-x="292" 
d="M214 0h-136v700h136v-700zM173 789q-20 8 -42 21q-27 16 -40 16t-20 -11.5t-7 -29.5h-102q0 39 16.5 70.5t44.5 49.5t59 18q27 0 46.5 -7.5t42.5 -20.5q27 -16 40 -16t20.5 11t7.5 29h101q0 -39 -16.5 -70.5t-44.5 -49.5t-59 -18q-27 0 -47 8z" />
    <glyph glyph-name="uni1E2C" unicode="&#x1e2c;" horiz-adv-x="292" 
d="M214 0h-136v700h136v-700zM168.5 -194.5q-19.5 7.5 -42.5 20.5q-27 16 -40 16t-20 -11t-7 -29h-102q0 39 16.5 70.5t44.5 49.5t59 18q27 0 47 -8t42 -21q27 -16 40 -16t20.5 11.5t7.5 28.5h101q0 -39 -16.5 -70.5t-44 -49t-59.5 -17.5q-27 0 -46.5 7.5z" />
    <glyph glyph-name="J" unicode="J" horiz-adv-x="535" 
d="M17 140l110 55q13 -37 38 -60t64 -23q46 0 72 29.5t26 84.5v474h135v-480q0 -112 -63 -172t-167 -60q-155 0 -215 152z" />
    <glyph glyph-name="uni004A0301" horiz-adv-x="535" 
d="M17 140l110 55q13 -37 38 -60t64 -23q46 0 72 29.5t26 84.5v474h135v-480q0 -112 -63 -172t-167 -60q-155 0 -215 152zM301 783l117 139h143l-135 -139h-125z" />
    <glyph glyph-name="Jcircumflex" unicode="&#x134;" horiz-adv-x="535" 
d="M17 140l110 55q13 -37 38 -60t64 -23q46 0 72 29.5t26 84.5v474h135v-480q0 -112 -63 -172t-167 -60q-155 0 -215 152zM337 923h116l129 -139h-131l-20 24q-29 31 -35 43h-3q-3 -4 -29 -37l-26 -30h-131z" />
    <glyph glyph-name="uniA7B2" unicode="&#xa7b2;" horiz-adv-x="584" 
d="M83.5 244q53.5 37 134.5 37q57 0 106 -13v432h135v-485q53 -37 94 -91l-56 -62q-23 27 -53 52q-23 -60 -79.5 -93t-134.5 -33q-86 0 -143 40t-57 110q0 69 53.5 106zM167 116q21 -11 58 -11q39 0 64 18t32 52q-47 16 -96 16q-33 0 -56 -10.5t-23 -32.5q0 -21 21 -32z" />
    <glyph glyph-name="uni0248" unicode="&#x248;" horiz-adv-x="569" 
d="M536 300h-74v-80q0 -112 -63 -172t-167 -60q-155 0 -215 152l110 55q13 -37 38 -60t64 -23q46 0 72 29.5t26 84.5v74h-117v107h117v293h135v-293h74v-107z" />
    <glyph glyph-name="K" unicode="K" horiz-adv-x="668" 
d="M214 322v-322h-136v700h136v-322l260 322h172l-289 -345l311 -355h-178z" />
    <glyph glyph-name="uni1E30" unicode="&#x1e30;" horiz-adv-x="668" 
d="M214 322v-322h-136v700h136v-322l260 322h172l-289 -345l311 -355h-178zM248 783l117 139h143l-135 -139h-125z" />
    <glyph glyph-name="uni01E8" unicode="&#x1e8;" horiz-adv-x="668" 
d="M214 322v-322h-136v700h136v-322l260 322h172l-289 -345l311 -355h-178zM154 922h131l20 -24q29 -31 35 -43h3q3 4 29 37l26 30h131l-130 -139h-116z" />
    <glyph glyph-name="uni0136" unicode="&#x136;" horiz-adv-x="668" 
d="M214 322v-322h-136v700h136v-322l260 322h172l-289 -345l311 -355h-178zM269 -235l47 61q-24 5 -37.5 20t-13.5 36q0 27 21 43.5t55 16.5t55 -17t21 -45q0 -33 -29 -72l-56 -78z" />
    <glyph glyph-name="uni1E32" unicode="&#x1e32;" horiz-adv-x="668" 
d="M214 322v-322h-136v700h136v-322l260 322h172l-289 -345l311 -355h-178zM282 -190.5q-23 20.5 -23 55.5t23.5 56t58.5 21t58.5 -21t23.5 -56t-23.5 -55.5t-58.5 -20.5q-36 0 -59 20.5z" />
    <glyph glyph-name="uni0198" unicode="&#x198;" horiz-adv-x="691" 
d="M214 322v-322h-136v700h136v-321l195 251q58 82 144 82q76 0 123 -44l-60 -95q-13 10 -23 14t-23 4q-17 0 -30 -8.5t-27 -27.5l-157 -198l312 -357h-178z" />
    <glyph glyph-name="uni1E34" unicode="&#x1e34;" horiz-adv-x="668" 
d="M214 322v-322h-136v700h136v-322l260 322h172l-289 -345l311 -355h-178zM172 -74h339v-99h-339v99z" />
    <glyph glyph-name="uniA740" unicode="&#xa740;" horiz-adv-x="698" 
d="M243 322v-322h-135v523h-74v106h74v71h135v-71h66v-106h-66v-146l261 323h171l-288 -345l310 -355h-177z" />
    <glyph glyph-name="L" unicode="L" horiz-adv-x="560" 
d="M529 121v-121h-451v700h136v-579h315z" />
    <glyph glyph-name="uni01C7" unicode="&#x1c7;" horiz-adv-x="1108" 
d="M529 121v-121h-451v700h136v-579h315zM590 140l110 55q13 -37 38 -60t64 -23q46 0 72 29.5t26 84.5v474h135v-480q0 -112 -63 -172t-167 -60q-155 0 -215 152z" />
    <glyph glyph-name="Lacute" unicode="&#x139;" horiz-adv-x="560" 
d="M529 121v-121h-451v700h136v-579h315zM52 783l117 139h143l-135 -139h-125z" />
    <glyph glyph-name="uni023D" unicode="&#x23d;" horiz-adv-x="590" 
d="M405 320h-161v-199h315v-121h-450v320h-75v106h75v274h135v-274h161v-106z" />
    <glyph glyph-name="uniA7AD" unicode="&#xa7ad;" horiz-adv-x="567" 
d="M638 121v-121h-450v254q-14 -2 -21 -2q-69 0 -106.5 34t-37.5 87q0 47 33 80.5t86 33.5q27 0 46 -9v222h135v-304q57 30 102 75l55 -73q-66 -61 -157 -102v-175h315zM129 340q15 -13 39 -13q10 1 20 1v75q-16 10 -31 10q-20 0 -31.5 -10.5t-11.5 -30.5q0 -19 15 -32z" />
    <glyph glyph-name="Lcaron" unicode="&#x13d;" horiz-adv-x="560" 
d="M529 121v-121h-451v700h136v-579h315zM441 700v-119l-30 -115h-75v234h105z" />
    <glyph glyph-name="uni1E3C" unicode="&#x1e3c;" horiz-adv-x="560" 
d="M529 121v-121h-451v700h136v-579h315zM490 -214h-131l-26 30q-26 33 -29 37h-3q-4 -8 -31 -39l-23 -28h-131l129 139h116z" />
    <glyph glyph-name="uni013B" unicode="&#x13b;" horiz-adv-x="560" 
d="M529 121v-121h-451v700h136v-579h315zM231 -235l47 61q-24 5 -37.5 20t-13.5 36q0 27 21 43.5t55 16.5t55 -17t21 -45q0 -33 -29 -72l-56 -78z" />
    <glyph glyph-name="Ldot" unicode="&#x13f;" horiz-adv-x="560" 
d="M529 121v-121h-451v700h136v-579h315zM367 323.5q-23 20.5 -23 55.5t23.5 56t58.5 21t58 -21t23 -56t-23 -55.5t-58 -20.5q-36 0 -59 20.5z" />
    <glyph glyph-name="uni1E36" unicode="&#x1e36;" horiz-adv-x="560" 
d="M529 121v-121h-451v700h136v-579h315zM244 -190.5q-23 20.5 -23 55.5t23.5 56t58.5 21t58.5 -21t23.5 -56t-23.5 -55.5t-58.5 -20.5q-36 0 -59 20.5z" />
    <glyph glyph-name="uni1E38" unicode="&#x1e38;" horiz-adv-x="560" 
d="M529 121v-121h-451v700h136v-579h315zM-24 903h339v-100h-339v100zM244 -190.5q-23 20.5 -23 55.5t23.5 56t58.5 21t58.5 -21t23.5 -56t-23.5 -55.5t-58.5 -20.5q-36 0 -59 20.5z" />
    <glyph glyph-name="uni2C60" unicode="&#x2c60;" horiz-adv-x="591" 
d="M560 121v-121h-451v271h-75v86h75v71h-75v86h75v186h136v-186h181v-86h-181v-71h181v-86h-181v-150h315z" />
    <glyph glyph-name="uniA748" unicode="&#xa748;" horiz-adv-x="590" 
d="M405 496h-161v-375h315v-121h-450v496h-75v107h75v97h135v-97h161v-107z" />
    <glyph glyph-name="uni01C8" unicode="&#x1c8;" horiz-adv-x="825" 
d="M529 121v-121h-451v700h136v-579h315zM572 -111h18q39 0 39 63v563h127v-571q0 -78 -39.5 -121.5t-105.5 -43.5h-39v110zM635 615.5q-23 20.5 -23 55.5t23.5 56.5t58.5 21.5t58.5 -21.5t23.5 -56.5t-23.5 -55.5t-58.5 -20.5q-36 0 -59 20.5z" />
    <glyph glyph-name="uni01C8.ss02" horiz-adv-x="825" 
d="M529 121v-121h-451v700h136v-579h315zM572 -111h18q39 0 39 63v563h127v-571q0 -78 -39.5 -121.5t-105.5 -43.5h-39v110zM628 597q-26 24 -26 63q0 40 26 63.5t64 23.5q39 0 65 -23.5t26 -63.5q0 -39 -26 -63t-64 -24q-39 0 -65 24z" />
    <glyph glyph-name="uni1E3A" unicode="&#x1e3a;" horiz-adv-x="560" 
d="M529 121v-121h-451v700h136v-579h315zM141 -58h325v-103h-325v103z" />
    <glyph glyph-name="uni2C62" unicode="&#x2c62;" horiz-adv-x="590" 
d="M559 121v-121h-451v346q-41 0 -75 -19v113q38 16 75 16v244h136v-255q59 -17 92 -17q37 0 68 14v-111q-35 -13 -70 -13q-39 0 -90 14v-211h315z" />
    <glyph glyph-name="Lslash" unicode="&#x141;" horiz-adv-x="591" 
d="M560 121v-121h-451v265l-73 -23v118l73 23v317h136v-282l194 61v-118l-194 -62v-178h315z" />
    <glyph glyph-name="M" unicode="M" horiz-adv-x="820" 
d="M742 0h-135v480l-185 -259h-23l-186 259v-480h-135v700h127l207 -291l203 291h127v-700z" />
    <glyph glyph-name="M.ss11" horiz-adv-x="892" 
d="M814 0h-134v364q0 62 11 157h-3l-11 -37q-23 -78 -39 -120l-144 -364h-95l-144 364q-16 42 -39 120l-11 37h-4q12 -104 12 -157v-364h-135v700h174l152 -382q17 -44 39 -132h4q18 68 42 132l152 382h173v-700z" />
    <glyph glyph-name="M.text" horiz-adv-x="820" 
d="M78 700h127l153 -214l54 -78l53 78l150 214h127v-700h-135v392q0 82 6 106l-3 1q-4 -11 -19 -36.5t-34 -52.5l-135 -189h-23l-135 187q-48 69 -55 88l-3 -1q3 -12 5 -42t2 -64v-389h-135v700z" />
    <glyph glyph-name="uni1E3E" unicode="&#x1e3e;" horiz-adv-x="820" 
d="M78 700h127l153 -214l54 -78l53 78l150 214h127v-700h-135v392q0 82 6 106l-3 1q-4 -11 -19 -36.5t-34 -52.5l-135 -189h-23l-135 187q-48 69 -55 88l-3 -1q3 -12 5 -42t2 -64v-389h-135v700zM317 783l117 139h143l-135 -139h-125z" />
    <glyph glyph-name="uni1E3E.ss11" horiz-adv-x="892" 
d="M814 0h-134v364q0 62 11 157h-3l-11 -37q-23 -78 -39 -120l-144 -364h-95l-144 364q-16 42 -39 120l-11 37h-4q12 -104 12 -157v-364h-135v700h174l152 -382q17 -44 39 -132h4q18 68 42 132l152 382h173v-700zM316 783l117 139h143l-135 -139h-125z" />
    <glyph glyph-name="uni1E40" unicode="&#x1e40;" horiz-adv-x="820" 
d="M78 700h127l153 -214l54 -78l53 78l150 214h127v-700h-135v392q0 82 6 106l-3 1q-4 -11 -19 -36.5t-34 -52.5l-135 -189h-23l-135 187q-48 69 -55 88l-3 -1q3 -12 5 -42t2 -64v-389h-135v700zM351 800.5q-23 20.5 -23 55.5t23.5 56.5t58.5 21.5t58.5 -21.5t23.5 -56.5
t-23 -55.5t-59 -20.5t-59 20.5z" />
    <glyph glyph-name="uni1E40.ss11" horiz-adv-x="892" 
d="M814 0h-134v364q0 62 11 157h-3l-11 -37q-23 -78 -39 -120l-144 -364h-95l-144 364q-16 42 -39 120l-11 37h-4q12 -104 12 -157v-364h-135v700h174l152 -382q17 -44 39 -132h4q18 68 42 132l152 382h173v-700zM350 800.5q-23 20.5 -23 55.5t23.5 56.5t58.5 21.5
t58.5 -21.5t23.5 -56.5t-23 -55.5t-59 -20.5t-59 20.5z" />
    <glyph glyph-name="uni1E42" unicode="&#x1e42;" horiz-adv-x="820" 
d="M78 700h127l153 -214l54 -78l53 78l150 214h127v-700h-135v392q0 82 6 106l-3 1q-4 -11 -19 -36.5t-34 -52.5l-135 -189h-23l-135 187q-48 69 -55 88l-3 -1q3 -12 5 -42t2 -64v-389h-135v700zM351 -190.5q-23 20.5 -23 55.5t23.5 56t58.5 21t58.5 -21t23.5 -56
t-23.5 -55.5t-58.5 -20.5q-36 0 -59 20.5z" />
    <glyph glyph-name="uni1E42.ss11" horiz-adv-x="892" 
d="M814 0h-134v364q0 62 11 157h-3l-11 -37q-23 -78 -39 -120l-144 -364h-95l-144 364q-16 42 -39 120l-11 37h-4q12 -104 12 -157v-364h-135v700h174l152 -382q17 -44 39 -132h4q18 68 42 132l152 382h173v-700zM350 -190.5q-23 20.5 -23 55.5t23.5 56t58.5 21t58.5 -21
t23.5 -56t-23.5 -55.5t-58.5 -20.5q-36 0 -59 20.5z" />
    <glyph glyph-name="uni2C6E" unicode="&#x2c6e;" horiz-adv-x="820" 
d="M433 -136l70 90q22 -23 53 -23q22 0 36.5 14.5t14.5 46.5v400q0 82 6 106l-3 1q-4 -11 -19 -36.5t-34 -52.5l-135 -189h-23l-135 187q-48 69 -55 88l-3 -1q3 -12 5 -42t2 -64v-389h-135v700h127l153 -214l54 -78l53 78l150 214h127v-713q0 -88 -48 -134t-125 -46
q-84 0 -136 57z" />
    <glyph glyph-name="uni2C6E.ss11" horiz-adv-x="892" 
d="M766 -143.5q-48 -46.5 -125 -46.5q-84 0 -136 57l70 90q23 -23 54 -23q22 0 36.5 14.5t14.5 46.5v481l-186 -476h-95l-186 474v-474h-135v700h174l194 -496l195 496h173v-710q0 -87 -48 -133.5z" />
    <glyph glyph-name="uni019C" unicode="&#x19c;" horiz-adv-x="1090" 
d="M179 20.5q-51 29.5 -79.5 86t-28.5 134.5v459h135v-428q0 -77 35.5 -117t93.5 -40q61 0 100 44.5t39 117.5v423h135v-428q0 -77 35.5 -117t93.5 -40q61 0 99.5 44.5t38.5 117.5v423h136v-700h-136v92q-30 -48 -76 -74.5t-103 -26.5q-64 0 -114.5 29t-78.5 83
q-34 -53 -88.5 -82.5t-121.5 -29.5q-64 0 -115 29.5z" />
    <glyph glyph-name="N" unicode="N" horiz-adv-x="741" 
d="M75 700h126l277 -397q20 -28 35 -53.5t20 -37.5l3 1q-6 24 -6 107v380h135v-700h-125l-278 398q-20 28 -35.5 54t-19.5 36l-3 -1q6 -24 6 -106v-381h-135v700z" />
    <glyph glyph-name="uni01CA" unicode="&#x1ca;" horiz-adv-x="1276" 
d="M75 700h126l277 -397q20 -28 35 -53.5t20 -37.5l3 1q-6 24 -6 107v380h135v-700h-125l-278 398q-20 28 -35.5 54t-19.5 36l-3 -1q6 -24 6 -106v-381h-135v700zM758 140l110 55q13 -37 38 -60t64 -23q46 0 72 29.5t26 84.5v474h135v-480q0 -112 -63 -172t-167 -60
q-155 0 -215 152z" />
    <glyph glyph-name="Nacute" unicode="&#x143;" horiz-adv-x="741" 
d="M75 700h126l277 -397q20 -28 35 -53.5t20 -37.5l3 1q-6 24 -6 107v380h135v-700h-125l-278 398q-20 28 -35.5 54t-19.5 36l-3 -1q6 -24 6 -106v-381h-135v700zM282 783l117 139h143l-135 -139h-125z" />
    <glyph glyph-name="Ncaron" unicode="&#x147;" horiz-adv-x="741" 
d="M75 700h126l277 -397q20 -28 35 -53.5t20 -37.5l3 1q-6 24 -6 107v380h135v-700h-125l-278 398q-20 28 -35.5 54t-19.5 36l-3 -1q6 -24 6 -106v-381h-135v700zM188 922h131l20 -24q29 -31 35 -43h3q3 4 29 37l26 30h131l-130 -139h-116z" />
    <glyph glyph-name="uni1E4A" unicode="&#x1e4a;" horiz-adv-x="741" 
d="M75 700h126l277 -397q20 -28 35 -53.5t20 -37.5l3 1q-6 24 -6 107v380h135v-700h-125l-278 398q-20 28 -35.5 54t-19.5 36l-3 -1q6 -24 6 -106v-381h-135v700zM560 -214h-131l-26 30q-26 33 -29 37h-3q-4 -8 -31 -39l-23 -28h-131l129 139h116z" />
    <glyph glyph-name="uni0145" unicode="&#x145;" horiz-adv-x="741" 
d="M75 700h126l277 -397q20 -28 35 -53.5t20 -37.5l3 1q-6 24 -6 107v380h135v-700h-125l-278 398q-20 28 -35.5 54t-19.5 36l-3 -1q6 -24 6 -106v-381h-135v700zM301 -235l47 61q-24 5 -37.5 20t-13.5 36q0 27 21 43.5t55 16.5t55 -17t21 -45q0 -33 -29 -72l-56 -78z" />
    <glyph glyph-name="uniA790" unicode="&#xa790;" horiz-adv-x="787" 
d="M78 700h125l278 -395q46 -65 56 -91l3 1q-7 28 -7 107v378h135v-580h75v-256h-129v136h-71l-278 395q-46 67 -55 91l-3 -1q6 -24 6 -107v-378h-135v700z" />
    <glyph glyph-name="uni1E44" unicode="&#x1e44;" horiz-adv-x="741" 
d="M75 700h126l277 -397q20 -28 35 -53.5t20 -37.5l3 1q-6 24 -6 107v380h135v-700h-125l-278 398q-20 28 -35.5 54t-19.5 36l-3 -1q6 -24 6 -106v-381h-135v700zM316 800.5q-23 20.5 -23 55.5t23.5 56.5t58.5 21.5t58.5 -21.5t23.5 -56.5t-23 -55.5t-59 -20.5t-59 20.5z
" />
    <glyph glyph-name="uni1E46" unicode="&#x1e46;" horiz-adv-x="741" 
d="M75 700h126l277 -397q20 -28 35 -53.5t20 -37.5l3 1q-6 24 -6 107v380h135v-700h-125l-278 398q-20 28 -35.5 54t-19.5 36l-3 -1q6 -24 6 -106v-381h-135v700zM314 -190.5q-23 20.5 -23 55.5t23.5 56t58.5 21t58.5 -21t23.5 -56t-23.5 -55.5t-58.5 -20.5q-36 0 -59 20.5z
" />
    <glyph glyph-name="uni01F8" unicode="&#x1f8;" horiz-adv-x="741" 
d="M75 700h126l277 -397q20 -28 35 -53.5t20 -37.5l3 1q-6 24 -6 107v380h135v-700h-125l-278 398q-20 28 -35.5 54t-19.5 36l-3 -1q6 -24 6 -106v-381h-135v700zM208 922h143l117 -139h-124z" />
    <glyph glyph-name="uni019D" unicode="&#x19d;" horiz-adv-x="746" 
d="M-96 -136l70 90q22 -23 53 -23q22 0 36.5 14.5t14.5 46.5v708h125l278 -395q46 -65 56 -91l3 1q-7 28 -7 107v378h135v-700h-125l-278 395q-46 67 -55 91l-3 -1q6 -24 6 -107v-389q0 -89 -48 -135.5t-125 -46.5q-84 0 -136 57z" />
    <glyph glyph-name="uni01CB" unicode="&#x1cb;" horiz-adv-x="1006" 
d="M75 700h126l277 -397q20 -28 35 -53.5t20 -37.5l3 1q-6 24 -6 107v380h135v-700h-125l-278 398q-20 28 -35.5 54t-19.5 36l-3 -1q6 -24 6 -106v-381h-135v700zM753 -111h18q39 0 39 63v563h127v-571q0 -78 -39.5 -121.5t-105.5 -43.5h-39v110zM816 615.5
q-23 20.5 -23 55.5t23.5 56.5t58.5 21.5t58.5 -21.5t23.5 -56.5t-23.5 -55.5t-58.5 -20.5q-36 0 -59 20.5z" />
    <glyph glyph-name="uni01CB.ss02" horiz-adv-x="1006" 
d="M75 700h126l277 -397q20 -28 35 -53.5t20 -37.5l3 1q-6 24 -6 107v380h135v-700h-125l-278 398q-20 28 -35.5 54t-19.5 36l-3 -1q6 -24 6 -106v-381h-135v700zM753 -111h18q39 0 39 63v563h127v-571q0 -78 -39.5 -121.5t-105.5 -43.5h-39v110zM809 597q-26 24 -26 63
q0 40 26 63.5t64 23.5q39 0 65 -23.5t26 -63.5q0 -39 -26 -63t-64 -24q-39 0 -65 24z" />
    <glyph glyph-name="uni1E48" unicode="&#x1e48;" horiz-adv-x="741" 
d="M75 700h126l277 -397q20 -28 35 -53.5t20 -37.5l3 1q-6 24 -6 107v380h135v-700h-125l-278 398q-20 28 -35.5 54t-19.5 36l-3 -1q6 -24 6 -106v-381h-135v700zM204 -74h339v-99h-339v99z" />
    <glyph glyph-name="uni0220" unicode="&#x220;" horiz-adv-x="716" 
d="M469.5 543.5q-39.5 41.5 -103.5 41.5q-67 0 -110 -46.5t-43 -122.5v-416h-135v700h135v-99q33 52 82.5 80t111.5 28q68 0 122 -30.5t84.5 -88t30.5 -137.5v-622h-135v591q0 80 -39.5 121.5z" />
    <glyph glyph-name="Ntilde" unicode="&#xd1;" horiz-adv-x="741" 
d="M75 700h126l277 -397q20 -28 35 -53.5t20 -37.5l3 1q-6 24 -6 107v380h135v-700h-125l-278 398q-20 28 -35.5 54t-19.5 36l-3 -1q6 -24 6 -106v-381h-135v700zM403 789q-20 8 -42 21q-27 16 -40 16t-20 -11.5t-7 -29.5h-102q0 39 16.5 70.5t44.5 49.5t59 18
q27 0 46.5 -7.5t42.5 -20.5q27 -16 40 -16t20.5 11t7.5 29h101q0 -39 -16.5 -70.5t-44.5 -49.5t-59 -18q-27 0 -47 8z" />
    <glyph glyph-name="Eng" unicode="&#x14a;" horiz-adv-x="717" 
d="M336 -133l70 90q22 -23 53 -23q23 0 37 14.5t14 46.5v428q0 79 -39.5 121t-104.5 42q-67 0 -110 -46.5t-43 -124.5v-415h-135v700h135v-99q33 52 83 80t112 28q68 0 122 -30.5t84.5 -88.5t30.5 -138v-460q0 -89 -48 -135.5t-125 -46.5q-84 0 -136 57z" />
    <glyph glyph-name="O" unicode="O" horiz-adv-x="789" 
d="M215.5 33q-78.5 45 -122.5 127.5t-44 189.5t44 189.5t122.5 127.5t178.5 45q101 0 179.5 -45t122.5 -127t44 -190t-44 -190t-122.5 -127t-179.5 -45q-100 0 -178.5 45zM500.5 140q46.5 28 72.5 82t26 128t-26 128t-72.5 82t-106.5 28q-59 0 -105.5 -28t-72.5 -82
t-26 -128t26 -128t72.5 -82t105.5 -28q60 0 106.5 28z" />
    <glyph glyph-name="uni0222" unicode="&#x222;" horiz-adv-x="688" 
d="M200 13.5q-65 25.5 -103 73t-38 111.5q0 63 36 105t96 65q-48 21 -76 57t-28 88v187h135v-180q0 -46 34.5 -71.5t87.5 -25.5t87.5 25.5t34.5 71.5v180h135v-187q0 -52 -28 -88t-76 -57q60 -23 96 -65t36 -105q0 -64 -38 -111.5t-102.5 -73t-144.5 -25.5q-79 0 -144 25.5z
M449 131.5q42 27.5 42 77.5t-42 77.5t-105 27.5q-62 0 -104.5 -27.5t-42.5 -77.5t42 -77.5t105 -27.5t105 27.5z" />
    <glyph glyph-name="Oacute" unicode="&#xd3;" horiz-adv-x="789" 
d="M215.5 33q-78.5 45 -122.5 127.5t-44 189.5t44 189.5t122.5 127.5t178.5 45q101 0 179.5 -45t122.5 -127t44 -190t-44 -190t-122.5 -127t-179.5 -45q-100 0 -178.5 45zM500.5 140q46.5 28 72.5 82t26 128t-26 128t-72.5 82t-106.5 28q-59 0 -105.5 -28t-72.5 -82
t-26 -128t26 -128t72.5 -82t105.5 -28q60 0 106.5 28zM302 783l117 139h143l-135 -139h-125z" />
    <glyph glyph-name="Obreve" unicode="&#x14e;" horiz-adv-x="789" 
d="M215.5 33q-78.5 45 -122.5 127.5t-44 189.5t44 189.5t122.5 127.5t178.5 45q101 0 179.5 -45t122.5 -127t44 -190t-44 -190t-122.5 -127t-179.5 -45q-100 0 -178.5 45zM500.5 140q46.5 28 72.5 82t26 128t-26 128t-72.5 82t-106.5 28q-59 0 -105.5 -28t-72.5 -82
t-26 -128t26 -128t72.5 -82t105.5 -28q60 0 106.5 28zM272 816.5q-47 37.5 -53 105.5h108q4 -30 21 -43t47 -13q29 0 46 13t21 43h108q-6 -68 -53 -105.5t-122 -37.5q-76 0 -123 37.5z" />
    <glyph glyph-name="uni01D1" unicode="&#x1d1;" horiz-adv-x="789" 
d="M215.5 33q-78.5 45 -122.5 127.5t-44 189.5t44 189.5t122.5 127.5t178.5 45q101 0 179.5 -45t122.5 -127t44 -190t-44 -190t-122.5 -127t-179.5 -45q-100 0 -178.5 45zM500.5 140q46.5 28 72.5 82t26 128t-26 128t-72.5 82t-106.5 28q-59 0 -105.5 -28t-72.5 -82
t-26 -128t26 -128t72.5 -82t105.5 -28q60 0 106.5 28zM208 922h131l20 -24q29 -31 35 -43h3q3 4 29 37l26 30h131l-130 -139h-116z" />
    <glyph glyph-name="uni019F" unicode="&#x19f;" horiz-adv-x="789" 
d="M215.5 33q-78.5 45 -122.5 127.5t-44 189.5t44 189.5t122.5 127.5t178.5 45q101 0 179.5 -45t122.5 -127t44 -190t-44 -190t-122.5 -127t-179.5 -45q-100 0 -178.5 45zM528 161.5q54 49.5 67 137.5h-401q13 -88 67 -137.5t133 -49.5q80 0 134 49.5zM593 416
q-16 82 -69 127t-130 45q-76 0 -129 -45.5t-69 -126.5h397z" />
    <glyph glyph-name="Ocircumflex" unicode="&#xd4;" horiz-adv-x="789" 
d="M215.5 33q-78.5 45 -122.5 127.5t-44 189.5t44 189.5t122.5 127.5t178.5 45q101 0 179.5 -45t122.5 -127t44 -190t-44 -190t-122.5 -127t-179.5 -45q-100 0 -178.5 45zM500.5 140q46.5 28 72.5 82t26 128t-26 128t-72.5 82t-106.5 28q-59 0 -105.5 -28t-72.5 -82
t-26 -128t26 -128t72.5 -82t105.5 -28q60 0 106.5 28zM338 923h116l129 -139h-131l-20 24q-29 31 -35 43h-3q-3 -4 -29 -37l-26 -30h-131z" />
    <glyph glyph-name="uni1ED0" unicode="&#x1ed0;" horiz-adv-x="789" 
d="M215.5 33q-78.5 45 -122.5 127.5t-44 189.5t44 189.5t122.5 127.5t178.5 45q101 0 179.5 -45t122.5 -127t44 -190t-44 -190t-122.5 -127t-179.5 -45q-100 0 -178.5 45zM500.5 140q46.5 28 72.5 82t26 128t-26 128t-72.5 82t-106.5 28q-59 0 -105.5 -28t-72.5 -82
t-26 -128t26 -128t72.5 -82t105.5 -28q60 0 106.5 28zM340 907h115l129 -139h-131l-23 28q-27 31 -31 39h-4q-4 -8 -31 -39l-23 -28h-131zM598 998h136l-96 -131h-112z" />
    <glyph glyph-name="uni1ED8" unicode="&#x1ed8;" horiz-adv-x="789" 
d="M215.5 33q-78.5 45 -122.5 127.5t-44 189.5t44 189.5t122.5 127.5t178.5 45q101 0 179.5 -45t122.5 -127t44 -190t-44 -190t-122.5 -127t-179.5 -45q-100 0 -178.5 45zM500.5 140q46.5 28 72.5 82t26 128t-26 128t-72.5 82t-106.5 28q-59 0 -105.5 -28t-72.5 -82
t-26 -128t26 -128t72.5 -82t105.5 -28q60 0 106.5 28zM336 -190.5q-23 20.5 -23 55.5t23.5 56t58.5 21t58.5 -21t23.5 -56t-23.5 -55.5t-58.5 -20.5q-36 0 -59 20.5zM338 923h116l129 -139h-131l-20 24q-29 31 -35 43h-3q-3 -4 -29 -37l-26 -30h-131z" />
    <glyph glyph-name="uni1ED2" unicode="&#x1ed2;" horiz-adv-x="789" 
d="M215.5 33q-78.5 45 -122.5 127.5t-44 189.5t44 189.5t122.5 127.5t178.5 45q101 0 179.5 -45t122.5 -127t44 -190t-44 -190t-122.5 -127t-179.5 -45q-100 0 -178.5 45zM500.5 140q46.5 28 72.5 82t26 128t-26 128t-72.5 82t-106.5 28q-59 0 -105.5 -28t-72.5 -82
t-26 -128t26 -128t72.5 -82t105.5 -28q60 0 106.5 28zM338 907h115l129 -139h-131l-23 28q-27 31 -31 39h-4q-4 -8 -31 -39l-23 -28h-131zM464 998h135l73 -131h-113z" />
    <glyph glyph-name="uni1ED4" unicode="&#x1ed4;" horiz-adv-x="789" 
d="M215.5 33q-78.5 45 -122.5 127.5t-44 189.5t44 189.5t122.5 127.5t178.5 45q101 0 179.5 -45t122.5 -127t44 -190t-44 -190t-122.5 -127t-179.5 -45q-100 0 -178.5 45zM500.5 140q46.5 28 72.5 82t26 128t-26 128t-72.5 82t-106.5 28q-59 0 -105.5 -28t-72.5 -82
t-26 -128t26 -128t72.5 -82t105.5 -28q60 0 106.5 28zM337 907h116l129 -139h-131l-26 30q-26 33 -29 37h-3q-6 -12 -35 -43l-20 -24h-131zM541 915.5q8 14.5 8 26.5q0 11 -7 17.5t-20 6.5q-10 0 -20.5 -5.5t-17.5 -15.5l-67 54q39 58 115 58q52 0 85.5 -27t33.5 -65
q0 -41 -40 -88h-97q19 24 27 38.5z" />
    <glyph glyph-name="uni1ED6" unicode="&#x1ed6;" horiz-adv-x="789" 
d="M215.5 33q-78.5 45 -122.5 127.5t-44 189.5t44 189.5t122.5 127.5t178.5 45q101 0 179.5 -45t122.5 -127t44 -190t-44 -190t-122.5 -127t-179.5 -45q-100 0 -178.5 45zM500.5 140q46.5 28 72.5 82t26 128t-26 128t-72.5 82t-106.5 28q-59 0 -105.5 -28t-72.5 -82
t-26 -128t26 -128t72.5 -82t105.5 -28q60 0 106.5 28zM337 907h116l129 -139h-131l-26 30q-26 33 -29 37h-3q-4 -8 -31 -39l-23 -28h-131zM422 955.5q-20 6.5 -42 18.5q-26 14 -40 14q-13 0 -20 -10t-7 -25h-102q0 35 16 64t42.5 45.5t55.5 16.5q27 0 46.5 -6.5t43.5 -18.5
q11 -5 21 -9t18 -4q13 0 20.5 9.5t7.5 24.5h101q0 -35 -16 -64t-42 -45.5t-56 -16.5q-27 0 -47 6.5z" />
    <glyph glyph-name="uni020C" unicode="&#x20c;" horiz-adv-x="789" 
d="M215.5 33q-78.5 45 -122.5 127.5t-44 189.5t44 189.5t122.5 127.5t178.5 45q101 0 179.5 -45t122.5 -127t44 -190t-44 -190t-122.5 -127t-179.5 -45q-100 0 -178.5 45zM500.5 140q46.5 28 72.5 82t26 128t-26 128t-72.5 82t-106.5 28q-59 0 -105.5 -28t-72.5 -82
t-26 -128t26 -128t72.5 -82t105.5 -28q60 0 106.5 28zM112 922h142l120 -139h-120zM324 922h134l114 -139h-121z" />
    <glyph glyph-name="Odieresis" unicode="&#xd6;" horiz-adv-x="789" 
d="M215.5 33q-78.5 45 -122.5 127.5t-44 189.5t44 189.5t122.5 127.5t178.5 45q101 0 179.5 -45t122.5 -127t44 -190t-44 -190t-122.5 -127t-179.5 -45q-100 0 -178.5 45zM500.5 140q46.5 28 72.5 82t26 128t-26 128t-72.5 82t-106.5 28q-59 0 -105.5 -28t-72.5 -82
t-26 -128t26 -128t72.5 -82t105.5 -28q60 0 106.5 28zM228 800q-22 20 -22 55q0 34 22 54.5t55 20.5t54.5 -20.5t21.5 -54.5q0 -35 -21.5 -55t-54.5 -20t-55 20zM453 800q-22 20 -22 55q0 34 22 54.5t55 20.5t54.5 -20.5t21.5 -54.5q0 -35 -21.5 -55t-54.5 -20t-55 20z" />
    <glyph glyph-name="uni022A" unicode="&#x22a;" horiz-adv-x="789" 
d="M215.5 33q-78.5 45 -122.5 127.5t-44 189.5t44 189.5t122.5 127.5t178.5 45q101 0 179.5 -45t122.5 -127t44 -190t-44 -190t-122.5 -127t-179.5 -45q-100 0 -178.5 45zM500.5 140q46.5 28 72.5 82t26 128t-26 128t-72.5 82t-106.5 28q-59 0 -105.5 -28t-72.5 -82
t-26 -128t26 -128t72.5 -82t105.5 -28q60 0 106.5 28zM227 779.5q-22 20.5 -22 54.5q0 35 22 55t55 20t55 -20t22 -55q0 -34 -22 -54.5t-55 -20.5t-55 20.5zM453 779.5q-22 20.5 -22 54.5q0 35 22 55t55 20t54.5 -20t21.5 -55q0 -34 -21.5 -54.5t-54.5 -20.5t-55 20.5z
M226 1057h339v-100h-339v100z" />
    <glyph glyph-name="uni022E" unicode="&#x22e;" horiz-adv-x="789" 
d="M215.5 33q-78.5 45 -122.5 127.5t-44 189.5t44 189.5t122.5 127.5t178.5 45q101 0 179.5 -45t122.5 -127t44 -190t-44 -190t-122.5 -127t-179.5 -45q-100 0 -178.5 45zM500.5 140q46.5 28 72.5 82t26 128t-26 128t-72.5 82t-106.5 28q-59 0 -105.5 -28t-72.5 -82
t-26 -128t26 -128t72.5 -82t105.5 -28q60 0 106.5 28zM336 800.5q-23 20.5 -23 55.5t23.5 56.5t58.5 21.5t58.5 -21.5t23.5 -56.5t-23 -55.5t-59 -20.5t-59 20.5z" />
    <glyph glyph-name="uni0230" unicode="&#x230;" horiz-adv-x="789" 
d="M215.5 33q-78.5 45 -122.5 127.5t-44 189.5t44 189.5t122.5 127.5t178.5 45q101 0 179.5 -45t122.5 -127t44 -190t-44 -190t-122.5 -127t-179.5 -45q-100 0 -178.5 45zM500.5 140q46.5 28 72.5 82t26 128t-26 128t-72.5 82t-106.5 28q-59 0 -105.5 -28t-72.5 -82
t-26 -128t26 -128t72.5 -82t105.5 -28q60 0 106.5 28zM336.5 779q-23.5 21 -23.5 56t23.5 56t58.5 21t58.5 -21t23.5 -56t-23.5 -56t-58.5 -21t-58.5 21zM226 1056h339v-100h-339v100z" />
    <glyph glyph-name="uni1ECC" unicode="&#x1ecc;" horiz-adv-x="789" 
d="M215.5 33q-78.5 45 -122.5 127.5t-44 189.5t44 189.5t122.5 127.5t178.5 45q101 0 179.5 -45t122.5 -127t44 -190t-44 -190t-122.5 -127t-179.5 -45q-100 0 -178.5 45zM500.5 140q46.5 28 72.5 82t26 128t-26 128t-72.5 82t-106.5 28q-59 0 -105.5 -28t-72.5 -82
t-26 -128t26 -128t72.5 -82t105.5 -28q60 0 106.5 28zM336 -190.5q-23 20.5 -23 55.5t23.5 56t58.5 21t58.5 -21t23.5 -56t-23.5 -55.5t-58.5 -20.5q-36 0 -59 20.5z" />
    <glyph glyph-name="Ograve" unicode="&#xd2;" horiz-adv-x="789" 
d="M215.5 33q-78.5 45 -122.5 127.5t-44 189.5t44 189.5t122.5 127.5t178.5 45q101 0 179.5 -45t122.5 -127t44 -190t-44 -190t-122.5 -127t-179.5 -45q-100 0 -178.5 45zM500.5 140q46.5 28 72.5 82t26 128t-26 128t-72.5 82t-106.5 28q-59 0 -105.5 -28t-72.5 -82
t-26 -128t26 -128t72.5 -82t105.5 -28q60 0 106.5 28zM228 922h143l117 -139h-124z" />
    <glyph glyph-name="uni1ECE" unicode="&#x1ece;" horiz-adv-x="789" 
d="M215.5 33q-78.5 45 -122.5 127.5t-44 189.5t44 189.5t122.5 127.5t178.5 45q101 0 179.5 -45t122.5 -127t44 -190t-44 -190t-122.5 -127t-179.5 -45q-100 0 -178.5 45zM500.5 140q46.5 28 72.5 82t26 128t-26 128t-72.5 82t-106.5 28q-59 0 -105.5 -28t-72.5 -82
t-26 -128t26 -128t72.5 -82t105.5 -28q60 0 106.5 28zM396.5 796.5q8.5 14.5 8.5 26.5q0 11 -7.5 18t-20.5 7q-10 0 -20 -6t-18 -16l-67 54q39 58 115 58q51 0 85 -26.5t34 -64.5q0 -42 -40 -89h-97q19 24 27.5 38.5z" />
    <glyph glyph-name="Ohorn" unicode="&#x1a0;" horiz-adv-x="823" 
d="M215.5 33q-78.5 45 -122.5 127.5t-44 189.5t44 189.5t122.5 127.5t178.5 45q51 0 97 -12h116q60 0 60 64v23h129v-41q0 -74 -44 -115.5t-118 -41.5q50 -46 77 -108t27 -135q0 -106 -43.5 -187.5t-122 -126t-178.5 -44.5t-178.5 45zM500.5 140q46.5 28 72.5 82t26 128
t-26 128t-72.5 82t-106.5 28q-59 0 -105.5 -28t-72.5 -82t-26 -128t26 -128t72.5 -82t105.5 -28q60 0 106.5 28z" />
    <glyph glyph-name="uni1EDA" unicode="&#x1eda;" horiz-adv-x="823" 
d="M215.5 33q-78.5 45 -122.5 127.5t-44 189.5t44 189.5t122.5 127.5t178.5 45q51 0 97 -12h116q60 0 60 64v23h129v-41q0 -74 -44 -115.5t-118 -41.5q50 -46 77 -108t27 -135q0 -106 -43.5 -187.5t-122 -126t-178.5 -44.5t-178.5 45zM500.5 140q46.5 28 72.5 82t26 128
t-26 128t-72.5 82t-106.5 28q-59 0 -105.5 -28t-72.5 -82t-26 -128t26 -128t72.5 -82t105.5 -28q60 0 106.5 28zM302 783l117 139h143l-135 -139h-125z" />
    <glyph glyph-name="uni1EE2" unicode="&#x1ee2;" horiz-adv-x="823" 
d="M215.5 33q-78.5 45 -122.5 127.5t-44 189.5t44 189.5t122.5 127.5t178.5 45q51 0 97 -12h116q60 0 60 64v23h129v-41q0 -74 -44 -115.5t-118 -41.5q50 -46 77 -108t27 -135q0 -106 -43.5 -187.5t-122 -126t-178.5 -44.5t-178.5 45zM500.5 140q46.5 28 72.5 82t26 128
t-26 128t-72.5 82t-106.5 28q-59 0 -105.5 -28t-72.5 -82t-26 -128t26 -128t72.5 -82t105.5 -28q60 0 106.5 28zM336 -190.5q-23 20.5 -23 55.5t23.5 56t58.5 21t58.5 -21t23.5 -56t-23.5 -55.5t-58.5 -20.5q-36 0 -59 20.5z" />
    <glyph glyph-name="uni1EDC" unicode="&#x1edc;" horiz-adv-x="823" 
d="M215.5 33q-78.5 45 -122.5 127.5t-44 189.5t44 189.5t122.5 127.5t178.5 45q51 0 97 -12h116q60 0 60 64v23h129v-41q0 -74 -44 -115.5t-118 -41.5q50 -46 77 -108t27 -135q0 -106 -43.5 -187.5t-122 -126t-178.5 -44.5t-178.5 45zM500.5 140q46.5 28 72.5 82t26 128
t-26 128t-72.5 82t-106.5 28q-59 0 -105.5 -28t-72.5 -82t-26 -128t26 -128t72.5 -82t105.5 -28q60 0 106.5 28zM228 922h143l117 -139h-124z" />
    <glyph glyph-name="uni1EDE" unicode="&#x1ede;" horiz-adv-x="823" 
d="M215.5 33q-78.5 45 -122.5 127.5t-44 189.5t44 189.5t122.5 127.5t178.5 45q51 0 97 -12h116q60 0 60 64v23h129v-41q0 -74 -44 -115.5t-118 -41.5q50 -46 77 -108t27 -135q0 -106 -43.5 -187.5t-122 -126t-178.5 -44.5t-178.5 45zM500.5 140q46.5 28 72.5 82t26 128
t-26 128t-72.5 82t-106.5 28q-59 0 -105.5 -28t-72.5 -82t-26 -128t26 -128t72.5 -82t105.5 -28q60 0 106.5 28zM396.5 796.5q8.5 14.5 8.5 26.5q0 11 -7.5 18t-20.5 7q-10 0 -20 -6t-18 -16l-67 54q39 58 115 58q51 0 85 -26.5t34 -64.5q0 -42 -40 -89h-97q19 24 27.5 38.5
z" />
    <glyph glyph-name="uni1EE0" unicode="&#x1ee0;" horiz-adv-x="823" 
d="M215.5 33q-78.5 45 -122.5 127.5t-44 189.5t44 189.5t122.5 127.5t178.5 45q51 0 97 -12h116q60 0 60 64v23h129v-41q0 -74 -44 -115.5t-118 -41.5q50 -46 77 -108t27 -135q0 -106 -43.5 -187.5t-122 -126t-178.5 -44.5t-178.5 45zM500.5 140q46.5 28 72.5 82t26 128
t-26 128t-72.5 82t-106.5 28q-59 0 -105.5 -28t-72.5 -82t-26 -128t26 -128t72.5 -82t105.5 -28q60 0 106.5 28zM423 789q-20 8 -42 21q-27 16 -40 16t-20 -11.5t-7 -29.5h-102q0 39 16.5 70.5t44.5 49.5t59 18q27 0 46.5 -7.5t42.5 -20.5q27 -16 40 -16t20.5 11t7.5 29h101
q0 -39 -16.5 -70.5t-44.5 -49.5t-59 -18q-27 0 -47 8z" />
    <glyph glyph-name="Ohungarumlaut" unicode="&#x150;" horiz-adv-x="789" 
d="M215.5 33q-78.5 45 -122.5 127.5t-44 189.5t44 189.5t122.5 127.5t178.5 45q101 0 179.5 -45t122.5 -127t44 -190t-44 -190t-122.5 -127t-179.5 -45q-100 0 -178.5 45zM500.5 140q46.5 28 72.5 82t26 128t-26 128t-72.5 82t-106.5 28q-59 0 -105.5 -28t-72.5 -82
t-26 -128t26 -128t72.5 -82t105.5 -28q60 0 106.5 28zM218 783l114 139h134l-127 -139h-121zM416 783l120 139h142l-141 -139h-121z" />
    <glyph glyph-name="uni020E" unicode="&#x20e;" horiz-adv-x="789" 
d="M215.5 33q-78.5 45 -122.5 127.5t-44 189.5t44 189.5t122.5 127.5t178.5 45q101 0 179.5 -45t122.5 -127t44 -190t-44 -190t-122.5 -127t-179.5 -45q-100 0 -178.5 45zM500.5 140q46.5 28 72.5 82t26 128t-26 128t-72.5 82t-106.5 28q-59 0 -105.5 -28t-72.5 -82
t-26 -128t26 -128t72.5 -82t105.5 -28q60 0 106.5 28zM511.5 890.5q45.5 -37.5 51.5 -105.5h-108q-8 53 -60 53t-60 -53h-109q6 68 52 105.5t117 37.5t116.5 -37.5z" />
    <glyph glyph-name="Omacron" unicode="&#x14c;" horiz-adv-x="789" 
d="M215.5 33q-78.5 45 -122.5 127.5t-44 189.5t44 189.5t122.5 127.5t178.5 45q101 0 179.5 -45t122.5 -127t44 -190t-44 -190t-122.5 -127t-179.5 -45q-100 0 -178.5 45zM500.5 140q46.5 28 72.5 82t26 128t-26 128t-72.5 82t-106.5 28q-59 0 -105.5 -28t-72.5 -82
t-26 -128t26 -128t72.5 -82t105.5 -28q60 0 106.5 28zM226 903h339v-100h-339v100z" />
    <glyph glyph-name="uni1E52" unicode="&#x1e52;" horiz-adv-x="789" 
d="M215.5 33q-78.5 45 -122.5 127.5t-44 189.5t44 189.5t122.5 127.5t178.5 45q101 0 179.5 -45t122.5 -127t44 -190t-44 -190t-122.5 -127t-179.5 -45q-100 0 -178.5 45zM500.5 140q46.5 28 72.5 82t26 128t-26 128t-72.5 82t-106.5 28q-59 0 -105.5 -28t-72.5 -82
t-26 -128t26 -128t72.5 -82t105.5 -28q60 0 106.5 28zM226 864h339v-100h-339v100zM302 919l116 139h144l-136 -139h-124z" />
    <glyph glyph-name="uni1E50" unicode="&#x1e50;" horiz-adv-x="789" 
d="M215.5 33q-78.5 45 -122.5 127.5t-44 189.5t44 189.5t122.5 127.5t178.5 45q101 0 179.5 -45t122.5 -127t44 -190t-44 -190t-122.5 -127t-179.5 -45q-100 0 -178.5 45zM500.5 140q46.5 28 72.5 82t26 128t-26 128t-72.5 82t-106.5 28q-59 0 -105.5 -28t-72.5 -82
t-26 -128t26 -128t72.5 -82t105.5 -28q60 0 106.5 28zM226 864h339v-99h-339v99zM237 1057h143l116 -139h-124z" />
    <glyph glyph-name="uniA7B6" unicode="&#xa7b6;" horiz-adv-x="1024" 
d="M171.5 30q-57.5 42 -89.5 120.5t-32 183.5q0 96 33 173.5t91 129.5t131 75l47 -121q-87 -33 -124 -100.5t-37 -165.5q0 -93 33.5 -150.5t95.5 -57.5q61 0 93 48t32 139v162h134v-162q0 -91 32 -139t93 -48q62 0 95.5 57.5t33.5 150.5q0 99 -37 166t-124 100l47 121
q73 -23 131 -75t91 -129.5t33 -173.5q0 -105 -32 -183.5t-89.5 -120.5t-132.5 -42q-80 0 -130 39.5t-78 113.5q-28 -74 -78 -113.5t-130 -39.5q-75 0 -132.5 42z" />
    <glyph glyph-name="uni01EA" unicode="&#x1ea;" horiz-adv-x="789" 
d="M500.5 140q46.5 28 72.5 82t26 128t-26 128t-72.5 82t-106.5 28q-59 0 -105.5 -28t-72.5 -82t-26 -128t26 -128t72.5 -82t105.5 -28q60 0 106.5 28zM337.5 -155q-26.5 24 -26.5 57q0 19 10 39t28 37l13 11q-93 7 -163.5 54t-110 126t-39.5 181q0 107 44 189.5
t122.5 127.5t178.5 45q101 0 179.5 -45t122.5 -127t44 -190q0 -97 -35.5 -173.5t-101 -124.5t-151.5 -60l-14 -17q-13 -14 -13 -27q0 -9 7.5 -14.5t19.5 -5.5h28v-107h-71q-45 0 -71.5 24z" />
    <glyph glyph-name="uni01EC" unicode="&#x1ec;" horiz-adv-x="789" 
d="M500.5 140q46.5 28 72.5 82t26 128t-26 128t-72.5 82t-106.5 28q-59 0 -105.5 -28t-72.5 -82t-26 -128t26 -128t72.5 -82t105.5 -28q60 0 106.5 28zM337.5 -155q-26.5 24 -26.5 57q0 19 10 39t28 37l13 11q-93 7 -163.5 54t-110 126t-39.5 181q0 107 44 189.5
t122.5 127.5t178.5 45q101 0 179.5 -45t122.5 -127t44 -190q0 -97 -35.5 -173.5t-101 -124.5t-151.5 -60l-14 -17q-13 -14 -13 -27q0 -9 7.5 -14.5t19.5 -5.5h28v-107h-71q-45 0 -71.5 24zM226 903h339v-100h-339v100z" />
    <glyph glyph-name="uni0186" unicode="&#x2183;" horiz-adv-x="728" 
d="M144.5 46.5q-80.5 58.5 -112.5 166.5l125 44q23 -69 69.5 -107t110.5 -38q58 0 103 28t70.5 82t25.5 128t-25.5 128t-70.5 82t-103 28q-64 0 -110.5 -38t-69.5 -107l-125 44q32 108 112.5 166.5t192.5 58.5q99 0 176.5 -45t121 -127.5t43.5 -189.5t-43.5 -189.5
t-121 -127.5t-176.5 -45q-112 0 -192.5 58.5z" />
    <glyph glyph-name="uni0186" unicode="&#x3fd;" horiz-adv-x="728" 
d="M144.5 46.5q-80.5 58.5 -112.5 166.5l125 44q23 -69 69.5 -107t110.5 -38q58 0 103 28t70.5 82t25.5 128t-25.5 128t-70.5 82t-103 28q-64 0 -110.5 -38t-69.5 -107l-125 44q32 108 112.5 166.5t192.5 58.5q99 0 176.5 -45t121 -127.5t43.5 -189.5t-43.5 -189.5
t-121 -127.5t-176.5 -45q-112 0 -192.5 58.5z" />
    <glyph glyph-name="uni0186" unicode="&#x186;" horiz-adv-x="728" 
d="M144.5 46.5q-80.5 58.5 -112.5 166.5l125 44q23 -69 69.5 -107t110.5 -38q58 0 103 28t70.5 82t25.5 128t-25.5 128t-70.5 82t-103 28q-64 0 -110.5 -38t-69.5 -107l-125 44q32 108 112.5 166.5t192.5 58.5q99 0 176.5 -45t121 -127.5t43.5 -189.5t-43.5 -189.5
t-121 -127.5t-176.5 -45q-112 0 -192.5 58.5z" />
    <glyph glyph-name="Oslash" unicode="&#xd8;" horiz-adv-x="789" 
d="M48 48l68 75q-32 45 -49.5 103t-17.5 124q0 107 44 189.5t122.5 127.5t179.5 45q115 0 200 -58l65 73l81 -75l-68 -75q32 -45 49.5 -103t17.5 -124q0 -107 -43.5 -189.5t-122 -127.5t-179.5 -45q-115 0 -200 58l-64 -72zM500.5 140q46.5 28 72.5 82t26 128q0 68 -22 120
l-294 -326q47 -32 112 -32q59 0 105.5 28zM212 230l294 326q-47 32 -111 32q-60 0 -106.5 -28t-72.5 -82t-26 -128q0 -68 22 -120z" />
    <glyph glyph-name="Oslashacute" unicode="&#x1fe;" horiz-adv-x="789" 
d="M48 48l68 75q-32 45 -49.5 103t-17.5 124q0 107 44 189.5t122.5 127.5t179.5 45q115 0 200 -58l65 73l81 -75l-68 -75q32 -45 49.5 -103t17.5 -124q0 -107 -43.5 -189.5t-122 -127.5t-179.5 -45q-115 0 -200 58l-64 -72zM500.5 140q46.5 28 72.5 82t26 128q0 68 -22 120
l-294 -326q47 -32 112 -32q59 0 105.5 28zM212 230l294 326q-47 32 -111 32q-60 0 -106.5 -28t-72.5 -82t-26 -128q0 -68 22 -120zM302 783l117 139h143l-135 -139h-125z" />
    <glyph glyph-name="Otilde" unicode="&#xd5;" horiz-adv-x="789" 
d="M215.5 33q-78.5 45 -122.5 127.5t-44 189.5t44 189.5t122.5 127.5t178.5 45q101 0 179.5 -45t122.5 -127t44 -190t-44 -190t-122.5 -127t-179.5 -45q-100 0 -178.5 45zM500.5 140q46.5 28 72.5 82t26 128t-26 128t-72.5 82t-106.5 28q-59 0 -105.5 -28t-72.5 -82
t-26 -128t26 -128t72.5 -82t105.5 -28q60 0 106.5 28zM423 789q-20 8 -42 21q-27 16 -40 16t-20 -11.5t-7 -29.5h-102q0 39 16.5 70.5t44.5 49.5t59 18q27 0 46.5 -7.5t42.5 -20.5q27 -16 40 -16t20.5 11t7.5 29h101q0 -39 -16.5 -70.5t-44.5 -49.5t-59 -18q-27 0 -47 8z
" />
    <glyph glyph-name="uni1E4C" unicode="&#x1e4c;" horiz-adv-x="789" 
d="M215.5 33q-78.5 45 -122.5 127.5t-44 189.5t44 189.5t122.5 127.5t178.5 45q101 0 179.5 -45t122.5 -127t44 -190t-44 -190t-122.5 -127t-179.5 -45q-100 0 -178.5 45zM500.5 140q46.5 28 72.5 82t26 128t-26 128t-72.5 82t-106.5 28q-59 0 -105.5 -28t-72.5 -82
t-26 -128t26 -128t72.5 -82t105.5 -28q60 0 106.5 28zM425 767q-19 7 -44 21q-27 16 -40 16q-12 0 -19.5 -11t-7.5 -29h-102q0 39 16.5 70.5t44.5 49.5t59 18q27 0 47 -7.5t43 -21.5q27 -16 40 -16q12 0 19.5 11t7.5 29h102q0 -39 -17 -70.5t-44.5 -49t-58.5 -17.5
q-27 0 -46 7zM309 950l117 139h143l-135 -139h-125z" />
    <glyph glyph-name="uni1E4E" unicode="&#x1e4e;" horiz-adv-x="789" 
d="M215.5 33q-78.5 45 -122.5 127.5t-44 189.5t44 189.5t122.5 127.5t178.5 45q101 0 179.5 -45t122.5 -127t44 -190t-44 -190t-122.5 -127t-179.5 -45q-100 0 -178.5 45zM500.5 140q46.5 28 72.5 82t26 128t-26 128t-72.5 82t-106.5 28q-59 0 -105.5 -28t-72.5 -82
t-26 -128t26 -128t72.5 -82t105.5 -28q60 0 106.5 28zM423.5 767.5q-19.5 7.5 -42.5 20.5q-27 16 -40 16t-20 -11t-7 -29h-102q0 39 16.5 70.5t44.5 49.5t59 18q27 0 47 -8t42 -21q27 -16 40 -16t20.5 11.5t7.5 28.5h101q0 -39 -16.5 -70.5t-44 -49t-59.5 -17.5
q-27 0 -46.5 7.5zM234 961.5q-22 20.5 -22 54.5q0 35 22 55t55 20t54.5 -20t21.5 -55q0 -34 -21.5 -54.5t-54.5 -20.5t-55 20.5zM459 961.5q-22 20.5 -22 54.5q0 35 22 55t55 20t54.5 -20t21.5 -55q0 -34 -21.5 -54.5t-54.5 -20.5t-55 20.5z" />
    <glyph glyph-name="uni022C" unicode="&#x22c;" horiz-adv-x="789" 
d="M215.5 33q-78.5 45 -122.5 127.5t-44 189.5t44 189.5t122.5 127.5t178.5 45q101 0 179.5 -45t122.5 -127t44 -190t-44 -190t-122.5 -127t-179.5 -45q-100 0 -178.5 45zM500.5 140q46.5 28 72.5 82t26 128t-26 128t-72.5 82t-106.5 28q-59 0 -105.5 -28t-72.5 -82
t-26 -128t26 -128t72.5 -82t105.5 -28q60 0 106.5 28zM424 767q-19 7 -44 21q-27 16 -40 16q-12 0 -19.5 -11t-7.5 -29h-101q0 39 16.5 70.5t44 49.5t58.5 18q27 0 47.5 -7.5t43.5 -21.5q25 -16 39 -16q12 0 19.5 11t7.5 29h102q0 -39 -16.5 -70.5t-44 -49t-59.5 -17.5
q-27 0 -46 7zM232 1057h339v-99h-339v99z" />
    <glyph glyph-name="OE" unicode="&#x152;" horiz-adv-x="1129" 
d="M211.5 33q-76.5 45 -119 127.5t-42.5 189.5t42.5 189.5t119 127.5t174.5 45q64 0 118 -23.5t94 -68.5v80h477v-120h-342v-164h301v-117h-301v-179h342v-120h-477v80q-40 -45 -94 -68.5t-118 -23.5q-98 0 -174.5 45zM501 140q46 28 72 82t26 128t-26 128t-72 82t-106 28
q-59 0 -105.5 -28t-72.5 -82t-26 -128t26 -128t72.5 -82t105.5 -28q60 0 106 28z" />
    <glyph glyph-name="P" unicode="P" horiz-adv-x="641" 
d="M78 700h264q123 0 191.5 -62t68.5 -168q0 -105 -68.5 -166t-190.5 -61h-130v-243h-135v700zM333 360q61 0 94 28t33 82t-33 82t-94 28h-120v-220h120z" />
    <glyph glyph-name="uni1E54" unicode="&#x1e54;" horiz-adv-x="641" 
d="M78 700h264q123 0 191.5 -62t68.5 -168q0 -105 -68.5 -166t-190.5 -61h-130v-243h-135v700zM333 360q61 0 94 28t33 82t-33 82t-94 28h-120v-220h120zM227 783l117 139h143l-135 -139h-125z" />
    <glyph glyph-name="uni1E56" unicode="&#x1e56;" horiz-adv-x="641" 
d="M78 700h264q123 0 191.5 -62t68.5 -168q0 -105 -68.5 -166t-190.5 -61h-130v-243h-135v700zM333 360q61 0 94 28t33 82t-33 82t-94 28h-120v-220h120zM261 800.5q-23 20.5 -23 55.5t23.5 56.5t58.5 21.5t58.5 -21.5t23.5 -56.5t-23 -55.5t-59 -20.5t-59 20.5z" />
    <glyph glyph-name="uni01A4" unicode="&#x1a4;" horiz-adv-x="820" 
d="M257 580h-21q-31 0 -50 -17t-19 -45q0 -29 26 -58l-101 -71q-31 36 -46 69t-15 68q0 80 51.5 127t140.5 47h297q123 0 191.5 -62t68.5 -168q0 -105 -68 -166t-190 -61h-131v-243h-134v580zM511 360q61 0 94.5 28t33.5 82t-33.5 82t-94.5 28h-120v-220h120z" />
    <glyph glyph-name="Thorn" unicode="&#xde;" horiz-adv-x="637" 
d="M78 700h135v-123h118q124 0 192.5 -62t68.5 -168q0 -105 -68 -166t-191 -61h-120v-120h-135v700zM323 237q61 0 94.5 28t33.5 82t-33.5 82t-94.5 28h-110v-220h110z" />
    <glyph glyph-name="uni2C63" unicode="&#x2c63;" horiz-adv-x="676" 
d="M39 524h74v176h263q123 0 191.5 -62t68.5 -168q0 -105 -68 -166t-190 -61h-131v-243h-134v417h-74v107zM367 360q61 0 94.5 28t33.5 82t-33.5 82t-94.5 28h-120v-61h134v-98h-134v-61h120z" />
    <glyph glyph-name="Q" unicode="Q" horiz-adv-x="789" 
d="M215.5 33q-78.5 45 -122.5 127.5t-44 189.5t44 189.5t122.5 127.5t178.5 45q101 0 179.5 -45t122.5 -127t44 -190q0 -81 -25.5 -148t-71.5 -115l87 -112l-99 -76l-92 117q-67 -28 -145 -28q-100 0 -178.5 45zM457 121l-73 94l98 75l75 -96q42 62 42 156q0 74 -26 128
t-72.5 82t-106.5 28q-59 0 -105.5 -28t-72.5 -82t-26 -128t26 -128t72.5 -82t105.5 -28q33 0 63 9z" />
    <glyph glyph-name="uni024A" unicode="&#x24a;" horiz-adv-x="791" 
d="M626.5 -143.5q-47.5 46.5 -47.5 135.5v117q-37 -59 -93.5 -90t-128.5 -31q-88 0 -158 45.5t-109.5 128t-39.5 188.5t39.5 188.5t109.5 128t158 45.5q71 0 128.5 -31.5t93.5 -89.5v109h134v-705q0 -32 14 -46.5t36 -14.5q31 0 54 23l70 -90q-52 -57 -136 -57
q-77 0 -124.5 46.5zM487 140.5q44 28.5 69 82t25 127.5t-25 127.5t-69 82t-101 28.5t-101 -28t-69 -82t-25 -128t25 -128t69 -82t101 -28t101 28.5z" />
    <glyph glyph-name="R" unicode="R" horiz-adv-x="673" 
d="M78 700h272q117 0 185 -60t68 -165q0 -76 -42.5 -130t-116.5 -76l199 -269h-161l-180 257h-89v-257h-135v700zM343 371q57 0 87.5 26.5t30.5 77.5q0 52 -31 78.5t-87 26.5h-130v-209h130z" />
    <glyph glyph-name="Racute" unicode="&#x154;" horiz-adv-x="673" 
d="M78 700h272q117 0 185 -60t68 -165q0 -76 -42.5 -130t-116.5 -76l199 -269h-161l-180 257h-89v-257h-135v700zM343 371q57 0 87.5 26.5t30.5 77.5q0 52 -31 78.5t-87 26.5h-130v-209h130zM223 783l117 139h143l-135 -139h-125z" />
    <glyph glyph-name="Rcaron" unicode="&#x158;" horiz-adv-x="673" 
d="M78 700h272q117 0 185 -60t68 -165q0 -76 -42.5 -130t-116.5 -76l199 -269h-161l-180 257h-89v-257h-135v700zM343 371q57 0 87.5 26.5t30.5 77.5q0 52 -31 78.5t-87 26.5h-130v-209h130zM129 922h131l20 -24q29 -31 35 -43h3q3 4 29 37l26 30h131l-130 -139h-116z" />
    <glyph glyph-name="uni0156" unicode="&#x156;" horiz-adv-x="673" 
d="M78 700h272q117 0 185 -60t68 -165q0 -76 -42.5 -130t-116.5 -76l199 -269h-161l-180 257h-89v-257h-135v700zM343 371q57 0 87.5 26.5t30.5 77.5q0 52 -31 78.5t-87 26.5h-130v-209h130zM267 -235l47 61q-24 5 -37.5 20t-13.5 36q0 27 21 43.5t55 16.5t55 -17t21 -45
q0 -33 -29 -72l-56 -78z" />
    <glyph glyph-name="uni0210" unicode="&#x210;" horiz-adv-x="673" 
d="M78 700h272q117 0 185 -60t68 -165q0 -76 -42.5 -130t-116.5 -76l199 -269h-161l-180 257h-89v-257h-135v700zM343 371q57 0 87.5 26.5t30.5 77.5q0 52 -31 78.5t-87 26.5h-130v-209h130zM33 922h142l120 -139h-120zM245 922h134l114 -139h-121z" />
    <glyph glyph-name="uni1E58" unicode="&#x1e58;" horiz-adv-x="673" 
d="M78 700h272q117 0 185 -60t68 -165q0 -76 -42.5 -130t-116.5 -76l199 -269h-161l-180 257h-89v-257h-135v700zM343 371q57 0 87.5 26.5t30.5 77.5q0 52 -31 78.5t-87 26.5h-130v-209h130zM257 800.5q-23 20.5 -23 55.5t23.5 56.5t58.5 21.5t58.5 -21.5t23.5 -56.5
t-23 -55.5t-59 -20.5t-59 20.5z" />
    <glyph glyph-name="uni1E5A" unicode="&#x1e5a;" horiz-adv-x="673" 
d="M78 700h272q117 0 185 -60t68 -165q0 -76 -42.5 -130t-116.5 -76l199 -269h-161l-180 257h-89v-257h-135v700zM343 371q57 0 87.5 26.5t30.5 77.5q0 52 -31 78.5t-87 26.5h-130v-209h130zM280 -190.5q-23 20.5 -23 55.5t23.5 56t58.5 21t58.5 -21t23.5 -56t-23.5 -55.5
t-58.5 -20.5q-36 0 -59 20.5z" />
    <glyph glyph-name="uni1E5C" unicode="&#x1e5c;" horiz-adv-x="673" 
d="M78 700h272q117 0 185 -60t68 -165q0 -76 -42.5 -130t-116.5 -76l199 -269h-161l-180 257h-89v-257h-135v700zM343 371q57 0 87.5 26.5t30.5 77.5q0 52 -31 78.5t-87 26.5h-130v-209h130zM147 903h339v-100h-339v100zM280 -190.5q-23 20.5 -23 55.5t23.5 56t58.5 21
t58.5 -21t23.5 -56t-23.5 -55.5t-58.5 -20.5q-36 0 -59 20.5z" />
    <glyph glyph-name="uni0212" unicode="&#x212;" horiz-adv-x="673" 
d="M78 700h272q117 0 185 -60t68 -165q0 -76 -42.5 -130t-116.5 -76l199 -269h-161l-180 257h-89v-257h-135v700zM343 371q57 0 87.5 26.5t30.5 77.5q0 52 -31 78.5t-87 26.5h-130v-209h130zM432.5 890.5q45.5 -37.5 51.5 -105.5h-108q-8 53 -60 53t-60 -53h-109
q6 68 52 105.5t117 37.5t116.5 -37.5z" />
    <glyph glyph-name="uni1E5E" unicode="&#x1e5e;" horiz-adv-x="673" 
d="M78 700h272q117 0 185 -60t68 -165q0 -76 -42.5 -130t-116.5 -76l199 -269h-161l-180 257h-89v-257h-135v700zM343 371q57 0 87.5 26.5t30.5 77.5q0 52 -31 78.5t-87 26.5h-130v-209h130zM177 -58h325v-103h-325v103z" />
    <glyph glyph-name="uni024C" unicode="&#x24c;" horiz-adv-x="705" 
d="M110 257h-76v114h76v329h272q117 0 185 -60t68 -165q0 -76 -42.5 -130t-116.5 -76l199 -269h-161l-180 257h-89v-257h-135v257zM375 371q57 0 87.5 26.5t30.5 77.5q0 52 -31 78.5t-87 26.5h-130v-209h130z" />
    <glyph glyph-name="uni2C64" unicode="&#x2c64;" horiz-adv-x="673" 
d="M126 -143.5q-48 46.5 -48 135.5v708h272q117 0 185 -60t68 -165q0 -76 -42.5 -130t-116.5 -76l199 -269h-161l-180 257h-89v-262q0 -32 14 -46.5t37 -14.5q31 0 53 23l70 -90q-52 -57 -136 -57q-77 0 -125 46.5zM343 371q57 0 87.5 26.5t30.5 77.5q0 52 -31 78.5
t-87 26.5h-130v-209h130z" />
    <glyph glyph-name="S" unicode="S" horiz-adv-x="627" 
d="M147 30.5q-73 42.5 -107 124.5l112 60q20 -49 63 -78.5t101 -29.5q62 0 98 22t36 59q0 34 -30 54t-100 40l-71 20q-96 29 -143 80t-47 129q0 58 32 104t90 71.5t133 25.5q91 0 159 -39t98 -112l-111 -54q-37 86 -145 86q-55 0 -86.5 -20t-31.5 -55q0 -36 26.5 -55.5
t83.5 -36.5l72 -20q105 -28 156.5 -79t51.5 -129q0 -63 -33 -110.5t-94 -73.5t-144 -26q-96 0 -169 42.5z" />
    <glyph glyph-name="Sacute" unicode="&#x15a;" horiz-adv-x="627" 
d="M147 30.5q-73 42.5 -107 124.5l112 60q20 -49 63 -78.5t101 -29.5q62 0 98 22t36 59q0 34 -30 54t-100 40l-71 20q-96 29 -143 80t-47 129q0 58 32 104t90 71.5t133 25.5q91 0 159 -39t98 -112l-111 -54q-37 86 -145 86q-55 0 -86.5 -20t-31.5 -55q0 -36 26.5 -55.5
t83.5 -36.5l72 -20q105 -28 156.5 -79t51.5 -129q0 -63 -33 -110.5t-94 -73.5t-144 -26q-96 0 -169 42.5zM223 783l117 139h143l-135 -139h-125z" />
    <glyph glyph-name="uni1E64" unicode="&#x1e64;" horiz-adv-x="627" 
d="M147 30.5q-73 42.5 -107 124.5l112 60q20 -49 63 -78.5t101 -29.5q62 0 98 22t36 59q0 34 -30 54t-100 40l-71 20q-96 29 -143 80t-47 129q0 58 32 104t90 71.5t133 25.5q91 0 159 -39t98 -112l-111 -54q-37 86 -145 86q-55 0 -86.5 -20t-31.5 -55q0 -36 26.5 -55.5
t83.5 -36.5l72 -20q105 -28 156.5 -79t51.5 -129q0 -63 -33 -110.5t-94 -73.5t-144 -26q-96 0 -169 42.5zM223 762l117 140h143l-135 -140h-125zM282.5 967q-23.5 21 -23.5 56q0 34 23.5 55.5t58.5 21.5t58.5 -21t23.5 -56t-23.5 -56t-58.5 -21t-58.5 21z" />
    <glyph glyph-name="Scaron" unicode="&#x160;" horiz-adv-x="627" 
d="M147 30.5q-73 42.5 -107 124.5l112 60q20 -49 63 -78.5t101 -29.5q62 0 98 22t36 59q0 34 -30 54t-100 40l-71 20q-96 29 -143 80t-47 129q0 58 32 104t90 71.5t133 25.5q91 0 159 -39t98 -112l-111 -54q-37 86 -145 86q-55 0 -86.5 -20t-31.5 -55q0 -36 26.5 -55.5
t83.5 -36.5l72 -20q105 -28 156.5 -79t51.5 -129q0 -63 -33 -110.5t-94 -73.5t-144 -26q-96 0 -169 42.5zM129 922h131l20 -24q29 -31 35 -43h3q3 4 29 37l26 30h131l-130 -139h-116z" />
    <glyph glyph-name="uni1E66" unicode="&#x1e66;" horiz-adv-x="627" 
d="M147 30.5q-73 42.5 -107 124.5l112 60q20 -49 63 -78.5t101 -29.5q62 0 98 22t36 59q0 34 -30 54t-100 40l-71 20q-96 29 -143 80t-47 129q0 58 32 104t90 71.5t133 25.5q91 0 159 -39t98 -112l-111 -54q-37 86 -145 86q-55 0 -86.5 -20t-31.5 -55q0 -36 26.5 -55.5
t83.5 -36.5l72 -20q105 -28 156.5 -79t51.5 -129q0 -63 -33 -110.5t-94 -73.5t-144 -26q-96 0 -169 42.5zM128 901h131l20 -24q29 -31 35 -43h3q3 4 29 37l26 30h131l-130 -139h-116zM258 966.5q-23 20.5 -23 55.5t23.5 56t58.5 21t58.5 -21t23.5 -56t-23.5 -55.5
t-58.5 -20.5q-36 0 -59 20.5z" />
    <glyph glyph-name="Scedilla" unicode="&#x15e;" horiz-adv-x="627" 
d="M228 -72h57q12 0 19 5.5t7 14.5q0 12 -12 27l-12 14q-85 6 -150.5 48.5t-96.5 117.5l112 60q20 -49 63 -78.5t101 -29.5q62 0 98 22t36 59q0 34 -30 54t-100 40l-71 20q-96 29 -143 80t-47 129q0 58 32 104t90 71.5t133 25.5q91 0 159 -39t98 -112l-111 -54
q-37 86 -145 86q-55 0 -86.5 -20t-31.5 -55q0 -36 26.5 -55.5t83.5 -36.5l72 -20q105 -28 156.5 -79t51.5 -129q0 -84 -57 -139t-158 -68l15 -13q38 -35 38 -76q0 -33 -26.5 -57t-71.5 -24h-99v107z" />
    <glyph glyph-name="Scircumflex" unicode="&#x15c;" horiz-adv-x="627" 
d="M147 30.5q-73 42.5 -107 124.5l112 60q20 -49 63 -78.5t101 -29.5q62 0 98 22t36 59q0 34 -30 54t-100 40l-71 20q-96 29 -143 80t-47 129q0 58 32 104t90 71.5t133 25.5q91 0 159 -39t98 -112l-111 -54q-37 86 -145 86q-55 0 -86.5 -20t-31.5 -55q0 -36 26.5 -55.5
t83.5 -36.5l72 -20q105 -28 156.5 -79t51.5 -129q0 -63 -33 -110.5t-94 -73.5t-144 -26q-96 0 -169 42.5zM259 923h116l129 -139h-131l-20 24q-29 31 -35 43h-3q-3 -4 -29 -37l-26 -30h-131z" />
    <glyph glyph-name="uni0218" unicode="&#x218;" horiz-adv-x="627" 
d="M147 30.5q-73 42.5 -107 124.5l112 60q20 -49 63 -78.5t101 -29.5q62 0 98 22t36 59q0 34 -30 54t-100 40l-71 20q-96 29 -143 80t-47 129q0 58 32 104t90 71.5t133 25.5q91 0 159 -39t98 -112l-111 -54q-37 86 -145 86q-55 0 -86.5 -20t-31.5 -55q0 -36 26.5 -55.5
t83.5 -36.5l72 -20q105 -28 156.5 -79t51.5 -129q0 -63 -33 -110.5t-94 -73.5t-144 -26q-96 0 -169 42.5zM246 -235l47 61q-24 5 -37.5 20t-13.5 36q0 27 21 43.5t55 16.5t55 -17t21 -45q0 -33 -29 -72l-56 -78z" />
    <glyph glyph-name="uni1E60" unicode="&#x1e60;" horiz-adv-x="627" 
d="M147 30.5q-73 42.5 -107 124.5l112 60q20 -49 63 -78.5t101 -29.5q62 0 98 22t36 59q0 34 -30 54t-100 40l-71 20q-96 29 -143 80t-47 129q0 58 32 104t90 71.5t133 25.5q91 0 159 -39t98 -112l-111 -54q-37 86 -145 86q-55 0 -86.5 -20t-31.5 -55q0 -36 26.5 -55.5
t83.5 -36.5l72 -20q105 -28 156.5 -79t51.5 -129q0 -63 -33 -110.5t-94 -73.5t-144 -26q-96 0 -169 42.5zM257 800.5q-23 20.5 -23 55.5t23.5 56.5t58.5 21.5t58.5 -21.5t23.5 -56.5t-23 -55.5t-59 -20.5t-59 20.5z" />
    <glyph glyph-name="uni1E62" unicode="&#x1e62;" horiz-adv-x="627" 
d="M147 30.5q-73 42.5 -107 124.5l112 60q20 -49 63 -78.5t101 -29.5q62 0 98 22t36 59q0 34 -30 54t-100 40l-71 20q-96 29 -143 80t-47 129q0 58 32 104t90 71.5t133 25.5q91 0 159 -39t98 -112l-111 -54q-37 86 -145 86q-55 0 -86.5 -20t-31.5 -55q0 -36 26.5 -55.5
t83.5 -36.5l72 -20q105 -28 156.5 -79t51.5 -129q0 -63 -33 -110.5t-94 -73.5t-144 -26q-96 0 -169 42.5zM259 -190.5q-23 20.5 -23 55.5t23.5 56t58.5 21t58.5 -21t23.5 -56t-23.5 -55.5t-58.5 -20.5q-36 0 -59 20.5z" />
    <glyph glyph-name="uni1E68" unicode="&#x1e68;" horiz-adv-x="627" 
d="M147 30.5q-73 42.5 -107 124.5l112 60q20 -49 63 -78.5t101 -29.5q62 0 98 22t36 59q0 34 -30 54t-100 40l-71 20q-96 29 -143 80t-47 129q0 58 32 104t90 71.5t133 25.5q91 0 159 -39t98 -112l-111 -54q-37 86 -145 86q-55 0 -86.5 -20t-31.5 -55q0 -36 26.5 -55.5
t83.5 -36.5l72 -20q105 -28 156.5 -79t51.5 -129q0 -63 -33 -110.5t-94 -73.5t-144 -26q-96 0 -169 42.5zM259 -190.5q-23 20.5 -23 55.5t23.5 56t58.5 21t58.5 -21t23.5 -56t-23.5 -55.5t-58.5 -20.5q-36 0 -59 20.5zM257 800.5q-23 20.5 -23 55.5t23.5 56.5t58.5 21.5
t58.5 -21.5t23.5 -56.5t-23 -55.5t-59 -20.5t-59 20.5z" />
    <glyph glyph-name="uni1E9E" unicode="&#x1e9e;" horiz-adv-x="724" 
d="M104.5 588.5q32.5 57.5 97 90.5t155.5 33q103 0 172.5 -45t109.5 -121l-147 -152q86 -15 137.5 -66t51.5 -128q0 -65 -31.5 -113t-87 -73.5t-128.5 -25.5q-92 0 -148 37l51 112q41 -30 92 -30t81 26t30 72q0 45 -35.5 70.5t-105.5 25.5h-63v82l140 155q-18 27 -50 41.5
t-75 14.5q-69 0 -106.5 -39t-37.5 -105v-450h-135v457q0 74 32.5 131.5z" />
    <glyph glyph-name="uniA7A8" unicode="&#xa7a8;" horiz-adv-x="627" 
d="M147 30.5q-73 42.5 -107 124.5l112 60q20 -49 63 -78.5t101 -29.5q62 0 98 22t36 59q0 39 -29.5 64t-95.5 44l-93 -94l-75 75l53 53q-77 29 -114 75t-37 113q0 56 32 100t90 69t133 25q91 0 159 -39t98 -112l-111 -54q-37 86 -145 86q-55 0 -86.5 -20t-31.5 -55
q0 -40 24.5 -64t73.5 -39l98 98l74 -73l-57 -57q90 -29 133.5 -76t43.5 -116q0 -61 -33 -107t-94 -71t-144 -25q-96 0 -169 42.5z" />
    <glyph glyph-name="T" unicode="T" horiz-adv-x="613" 
d="M582 579h-208v-579h-135v579h-208v121h551v-121z" />
    <glyph glyph-name="Tbar" unicode="&#x166;" horiz-adv-x="614" 
d="M482 272h-108v-272h-135v272h-108v107h108v200h-208v121h551v-121h-208v-200h108v-107z" />
    <glyph glyph-name="Tcaron" unicode="&#x164;" horiz-adv-x="613" 
d="M582 579h-208v-579h-135v579h-208v121h551v-121zM123 922h131l20 -24q29 -31 35 -43h3q3 4 29 37l26 30h131l-130 -139h-116z" />
    <glyph glyph-name="uni0162" unicode="&#x162;" horiz-adv-x="613" 
d="M582 579h-208v-579h-24l26 -22q38 -35 38 -76q0 -33 -26.5 -57t-71.5 -24h-99v107h57q12 0 19 5.5t7 14.5q0 12 -12 27l-22 25h-27v579h-208v121h551v-121z" />
    <glyph glyph-name="uni1E70" unicode="&#x1e70;" horiz-adv-x="613" 
d="M582 579h-208v-579h-135v579h-208v121h551v-121zM494 -214h-131l-26 30q-26 33 -29 37h-3q-4 -8 -31 -39l-23 -28h-131l129 139h116z" />
    <glyph glyph-name="uni021A" unicode="&#x21a;" horiz-adv-x="613" 
d="M582 579h-208v-579h-135v579h-208v121h551v-121zM235 -235l47 61q-24 5 -37.5 20t-13.5 36q0 27 21 43.5t55 16.5t55 -17t21 -45q0 -33 -29 -72l-56 -78z" />
    <glyph glyph-name="uni023E" unicode="&#x23e;" horiz-adv-x="619" 
d="M250 134q-7 -48 -21 -108l-42 -181h-106l164 572v162h-208v121h310l42 150h106l-42 -150h135v-121h-208v-579h-135v52q0 30 5 82z" />
    <glyph glyph-name="uni1E6A" unicode="&#x1e6a;" horiz-adv-x="613" 
d="M582 579h-208v-579h-135v579h-208v121h551v-121zM251 800.5q-23 20.5 -23 55.5t23.5 56.5t58.5 21.5t58.5 -21.5t23.5 -56.5t-23 -55.5t-59 -20.5t-59 20.5z" />
    <glyph glyph-name="uni1E6C" unicode="&#x1e6c;" horiz-adv-x="613" 
d="M582 579h-208v-579h-135v579h-208v121h551v-121zM248 -190.5q-23 20.5 -23 55.5t23.5 56t58.5 21t58.5 -21t23.5 -56t-23.5 -55.5t-58.5 -20.5q-36 0 -59 20.5z" />
    <glyph glyph-name="uni01AC" unicode="&#x1ac;" horiz-adv-x="681" 
d="M650 579h-208v-579h-135v579h-68q-31 0 -50 -16.5t-19 -44.5t27 -58l-101 -71q-62 69 -62 137q0 80 52 127t140 47h424v-121z" />
    <glyph glyph-name="uni1E6E" unicode="&#x1e6e;" horiz-adv-x="613" 
d="M582 579h-208v-579h-135v579h-208v121h551v-121zM145 -58h325v-103h-325v103z" />
    <glyph glyph-name="uni01AE" unicode="&#x1ae;" horiz-adv-x="613" 
d="M287.5 -144.5q-47.5 45.5 -48.5 134.5v589h-208v121h551v-121h-208v-584q0 -32 14.5 -46.5t36.5 -14.5q31 0 53 23l70 -90q-52 -57 -136 -57q-77 0 -124.5 45.5z" />
    <glyph glyph-name="U" unicode="U" horiz-adv-x="709" 
d="M205.5 22.5q-64.5 34.5 -99.5 100.5t-35 159v418h135v-412q0 -87 40 -131.5t109 -44.5q68 0 108 44.5t40 131.5v412h136v-418q0 -93 -35 -159t-99.5 -100.5t-149.5 -34.5t-149.5 34.5z" />
    <glyph glyph-name="Uacute" unicode="&#xda;" horiz-adv-x="709" 
d="M205.5 22.5q-64.5 34.5 -99.5 100.5t-35 159v418h135v-412q0 -87 40 -131.5t109 -44.5q68 0 108 44.5t40 131.5v412h136v-418q0 -93 -35 -159t-99.5 -100.5t-149.5 -34.5t-149.5 34.5zM262 783l117 139h143l-135 -139h-125z" />
    <glyph glyph-name="uni0244" unicode="&#x244;" horiz-adv-x="779" 
d="M240 22.5q-64 34.5 -99.5 100.5t-35.5 159v37h-70v107h70v274h136v-274h297v274h135v-274h71v-107h-71v-37q0 -93 -35 -159t-99 -100.5t-149 -34.5q-86 0 -150 34.5zM281 156.5q40 -44.5 109 -44.5q68 0 108 44.5t40 131.5v31h-297v-31q0 -87 40 -131.5z" />
    <glyph glyph-name="Ubreve" unicode="&#x16c;" horiz-adv-x="709" 
d="M205.5 22.5q-64.5 34.5 -99.5 100.5t-35 159v418h135v-412q0 -87 40 -131.5t109 -44.5q68 0 108 44.5t40 131.5v412h136v-418q0 -93 -35 -159t-99.5 -100.5t-149.5 -34.5t-149.5 34.5zM232 816.5q-47 37.5 -53 105.5h108q4 -30 21 -43t47 -13q29 0 46 13t21 43h108
q-6 -68 -53 -105.5t-122 -37.5q-76 0 -123 37.5z" />
    <glyph glyph-name="uni01D3" unicode="&#x1d3;" horiz-adv-x="709" 
d="M205.5 22.5q-64.5 34.5 -99.5 100.5t-35 159v418h135v-412q0 -87 40 -131.5t109 -44.5q68 0 108 44.5t40 131.5v412h136v-418q0 -93 -35 -159t-99.5 -100.5t-149.5 -34.5t-149.5 34.5zM168 922h131l20 -24q29 -31 35 -43h3q3 4 29 37l26 30h131l-130 -139h-116z" />
    <glyph glyph-name="Ucircumflex" unicode="&#xdb;" horiz-adv-x="709" 
d="M205.5 22.5q-64.5 34.5 -99.5 100.5t-35 159v418h135v-412q0 -87 40 -131.5t109 -44.5q68 0 108 44.5t40 131.5v412h136v-418q0 -93 -35 -159t-99.5 -100.5t-149.5 -34.5t-149.5 34.5zM298 923h116l129 -139h-131l-20 24q-29 31 -35 43h-3q-3 -4 -29 -37l-26 -30h-131z
" />
    <glyph glyph-name="uni1E76" unicode="&#x1e76;" horiz-adv-x="709" 
d="M205.5 22.5q-64.5 34.5 -99.5 100.5t-35 159v418h135v-412q0 -87 40 -131.5t109 -44.5q68 0 108 44.5t40 131.5v412h136v-418q0 -93 -35 -159t-99.5 -100.5t-149.5 -34.5t-149.5 34.5zM541 -214h-131l-26 30q-26 33 -29 37h-3q-4 -8 -31 -39l-23 -28h-131l129 139h116z
" />
    <glyph glyph-name="uni0214" unicode="&#x214;" horiz-adv-x="709" 
d="M205.5 22.5q-64.5 34.5 -99.5 100.5t-35 159v418h135v-412q0 -87 40 -131.5t109 -44.5q68 0 108 44.5t40 131.5v412h136v-418q0 -93 -35 -159t-99.5 -100.5t-149.5 -34.5t-149.5 34.5zM72 922h142l120 -139h-120zM284 922h134l114 -139h-121z" />
    <glyph glyph-name="Udieresis" unicode="&#xdc;" horiz-adv-x="709" 
d="M205.5 22.5q-64.5 34.5 -99.5 100.5t-35 159v418h135v-412q0 -87 40 -131.5t109 -44.5q68 0 108 44.5t40 131.5v412h136v-418q0 -93 -35 -159t-99.5 -100.5t-149.5 -34.5t-149.5 34.5zM188 800q-22 20 -22 55q0 34 22 54.5t55 20.5t54.5 -20.5t21.5 -54.5
q0 -35 -21.5 -55t-54.5 -20t-55 20zM413 800q-22 20 -22 55q0 34 22 54.5t55 20.5t54.5 -20.5t21.5 -54.5q0 -35 -21.5 -55t-54.5 -20t-55 20z" />
    <glyph glyph-name="uni01D7" unicode="&#x1d7;" horiz-adv-x="709" 
d="M205.5 22.5q-64.5 34.5 -99.5 100.5t-35 159v418h135v-412q0 -87 40 -131.5t109 -44.5q68 0 108 44.5t40 131.5v412h136v-418q0 -93 -35 -159t-99.5 -100.5t-149.5 -34.5t-149.5 34.5zM372 1093h143l-105 -139h-124zM188 779.5q-22 20.5 -22 54.5t22 54.5t55 20.5
t54.5 -20.5t21.5 -54.5t-21.5 -54.5t-54.5 -20.5t-55 20.5zM413 779.5q-22 20.5 -22 54.5t22 54.5t55 20.5t54.5 -20.5t21.5 -54.5t-21.5 -54.5t-54.5 -20.5t-55 20.5z" />
    <glyph glyph-name="uni1E72" unicode="&#x1e72;" horiz-adv-x="709" 
d="M205.5 22.5q-64.5 34.5 -99.5 100.5t-35 159v418h135v-412q0 -87 40 -131.5t109 -44.5q68 0 108 44.5t40 131.5v412h136v-418q0 -93 -35 -159t-99.5 -100.5t-149.5 -34.5t-149.5 34.5zM187 -188.5q-22 20.5 -22 54.5q0 35 22 55.5t55 20.5t54.5 -20.5t21.5 -55.5
q0 -34 -21.5 -54.5t-54.5 -20.5t-55 20.5zM412 -188.5q-22 20.5 -22 54.5q0 35 22 55.5t55 20.5t54.5 -20.5t21.5 -55.5q0 -34 -21.5 -54.5t-54.5 -20.5t-55 20.5z" />
    <glyph glyph-name="uni01D9" unicode="&#x1d9;" horiz-adv-x="709" 
d="M205.5 22.5q-64.5 34.5 -99.5 100.5t-35 159v418h135v-412q0 -87 40 -131.5t109 -44.5q68 0 108 44.5t40 131.5v412h136v-418q0 -93 -35 -159t-99.5 -100.5t-149.5 -34.5t-149.5 34.5zM169 1093h131l26 -30q26 -33 29 -37h3q3 4 29 37l26 30h131l-130 -139h-116z
M188 779.5q-22 20.5 -22 54.5t22 54.5t55 20.5t55 -20.5t22 -54.5t-22 -54.5t-55 -20.5t-55 20.5zM414 779.5q-22 20.5 -22 54.5t22 54.5t55 20.5t54.5 -20.5t21.5 -54.5t-21.5 -54.5t-54.5 -20.5t-55 20.5z" />
    <glyph glyph-name="uni01DB" unicode="&#x1db;" horiz-adv-x="709" 
d="M205.5 22.5q-64.5 34.5 -99.5 100.5t-35 159v418h135v-412q0 -87 40 -131.5t109 -44.5q68 0 108 44.5t40 131.5v412h136v-418q0 -93 -35 -159t-99.5 -100.5t-149.5 -34.5t-149.5 34.5zM204 1093h144l86 -139h-124zM188 779.5q-22 20.5 -22 54.5t22 54.5t55 20.5
t54.5 -20.5t21.5 -54.5t-21.5 -54.5t-54.5 -20.5t-55 20.5zM413 779.5q-22 20.5 -22 54.5t22 54.5t55 20.5t54.5 -20.5t21.5 -54.5t-21.5 -54.5t-54.5 -20.5t-55 20.5z" />
    <glyph glyph-name="uni01D5" unicode="&#x1d5;" horiz-adv-x="709" 
d="M205.5 22.5q-64.5 34.5 -99.5 100.5t-35 159v418h135v-412q0 -87 40 -131.5t109 -44.5q68 0 108 44.5t40 131.5v412h136v-418q0 -93 -35 -159t-99.5 -100.5t-149.5 -34.5t-149.5 34.5zM187 779.5q-22 20.5 -22 54.5t22 54.5t55 20.5t55 -20.5t22 -54.5t-22 -54.5
t-55 -20.5t-55 20.5zM413 779.5q-22 20.5 -22 54.5t22 54.5t55 20.5t54.5 -20.5t21.5 -54.5t-21.5 -54.5t-54.5 -20.5t-55 20.5zM186 1056h339v-99h-339v99z" />
    <glyph glyph-name="uni1EE4" unicode="&#x1ee4;" horiz-adv-x="709" 
d="M205.5 22.5q-64.5 34.5 -99.5 100.5t-35 159v418h135v-412q0 -87 40 -131.5t109 -44.5q68 0 108 44.5t40 131.5v412h136v-418q0 -93 -35 -159t-99.5 -100.5t-149.5 -34.5t-149.5 34.5zM295 -190.5q-23 20.5 -23 55.5t23.5 56t58.5 21t58.5 -21t23.5 -56t-23.5 -55.5
t-58.5 -20.5q-36 0 -59 20.5z" />
    <glyph glyph-name="Ugrave" unicode="&#xd9;" horiz-adv-x="709" 
d="M205.5 22.5q-64.5 34.5 -99.5 100.5t-35 159v418h135v-412q0 -87 40 -131.5t109 -44.5q68 0 108 44.5t40 131.5v412h136v-418q0 -93 -35 -159t-99.5 -100.5t-149.5 -34.5t-149.5 34.5zM188 922h143l117 -139h-124z" />
    <glyph glyph-name="uni1EE6" unicode="&#x1ee6;" horiz-adv-x="709" 
d="M205.5 22.5q-64.5 34.5 -99.5 100.5t-35 159v418h135v-412q0 -87 40 -131.5t109 -44.5q68 0 108 44.5t40 131.5v412h136v-418q0 -93 -35 -159t-99.5 -100.5t-149.5 -34.5t-149.5 34.5zM356.5 796.5q8.5 14.5 8.5 26.5q0 11 -7.5 18t-20.5 7q-10 0 -20 -6t-18 -16l-67 54
q39 58 115 58q51 0 85 -26.5t34 -64.5q0 -42 -40 -89h-97q19 24 27.5 38.5z" />
    <glyph glyph-name="Uhorn" unicode="&#x1af;" horiz-adv-x="790" 
d="M205.5 22.5q-64.5 34.5 -99.5 100.5t-35 159v418h135v-412q0 -87 40 -131.5t109 -44.5q68 0 108 44.5t40 131.5v412h86q59 0 59 64v23h129v-41q0 -68 -36 -108.5t-102 -47.5v-308q0 -93 -35 -159t-99.5 -100.5t-149.5 -34.5t-149.5 34.5z" />
    <glyph glyph-name="uni1EE8" unicode="&#x1ee8;" horiz-adv-x="790" 
d="M205.5 22.5q-64.5 34.5 -99.5 100.5t-35 159v418h135v-412q0 -87 40 -131.5t109 -44.5q68 0 108 44.5t40 131.5v412h86q59 0 59 64v23h129v-41q0 -68 -36 -108.5t-102 -47.5v-308q0 -93 -35 -159t-99.5 -100.5t-149.5 -34.5t-149.5 34.5zM262 783l117 139h143l-135 -139
h-125z" />
    <glyph glyph-name="uni1EF0" unicode="&#x1ef0;" horiz-adv-x="790" 
d="M205.5 22.5q-64.5 34.5 -99.5 100.5t-35 159v418h135v-412q0 -87 40 -131.5t109 -44.5q68 0 108 44.5t40 131.5v412h86q59 0 59 64v23h129v-41q0 -68 -36 -108.5t-102 -47.5v-308q0 -93 -35 -159t-99.5 -100.5t-149.5 -34.5t-149.5 34.5zM295 -190.5q-23 20.5 -23 55.5
t23.5 56t58.5 21t58.5 -21t23.5 -56t-23.5 -55.5t-58.5 -20.5q-36 0 -59 20.5z" />
    <glyph glyph-name="uni1EEA" unicode="&#x1eea;" horiz-adv-x="790" 
d="M205.5 22.5q-64.5 34.5 -99.5 100.5t-35 159v418h135v-412q0 -87 40 -131.5t109 -44.5q68 0 108 44.5t40 131.5v412h86q59 0 59 64v23h129v-41q0 -68 -36 -108.5t-102 -47.5v-308q0 -93 -35 -159t-99.5 -100.5t-149.5 -34.5t-149.5 34.5zM188 922h143l117 -139h-124z" />
    <glyph glyph-name="uni1EEC" unicode="&#x1eec;" horiz-adv-x="790" 
d="M205.5 22.5q-64.5 34.5 -99.5 100.5t-35 159v418h135v-412q0 -87 40 -131.5t109 -44.5q68 0 108 44.5t40 131.5v412h86q59 0 59 64v23h129v-41q0 -68 -36 -108.5t-102 -47.5v-308q0 -93 -35 -159t-99.5 -100.5t-149.5 -34.5t-149.5 34.5zM356.5 796.5q8.5 14.5 8.5 26.5
q0 11 -7.5 18t-20.5 7q-10 0 -20 -6t-18 -16l-67 54q39 58 115 58q51 0 85 -26.5t34 -64.5q0 -42 -40 -89h-97q19 24 27.5 38.5z" />
    <glyph glyph-name="uni1EEE" unicode="&#x1eee;" horiz-adv-x="790" 
d="M205.5 22.5q-64.5 34.5 -99.5 100.5t-35 159v418h135v-412q0 -87 40 -131.5t109 -44.5q68 0 108 44.5t40 131.5v412h86q59 0 59 64v23h129v-41q0 -68 -36 -108.5t-102 -47.5v-308q0 -93 -35 -159t-99.5 -100.5t-149.5 -34.5t-149.5 34.5zM383 789q-20 8 -42 21
q-27 16 -40 16t-20 -11.5t-7 -29.5h-102q0 39 16.5 70.5t44.5 49.5t59 18q27 0 46.5 -7.5t42.5 -20.5q27 -16 40 -16t20.5 11t7.5 29h101q0 -39 -16.5 -70.5t-44.5 -49.5t-59 -18q-27 0 -47 8z" />
    <glyph glyph-name="Uhungarumlaut" unicode="&#x170;" horiz-adv-x="709" 
d="M205.5 22.5q-64.5 34.5 -99.5 100.5t-35 159v418h135v-412q0 -87 40 -131.5t109 -44.5q68 0 108 44.5t40 131.5v412h136v-418q0 -93 -35 -159t-99.5 -100.5t-149.5 -34.5t-149.5 34.5zM178 783l114 139h134l-127 -139h-121zM376 783l120 139h142l-141 -139h-121z" />
    <glyph glyph-name="uni0216" unicode="&#x216;" horiz-adv-x="709" 
d="M205.5 22.5q-64.5 34.5 -99.5 100.5t-35 159v418h135v-412q0 -87 40 -131.5t109 -44.5q68 0 108 44.5t40 131.5v412h136v-418q0 -93 -35 -159t-99.5 -100.5t-149.5 -34.5t-149.5 34.5zM471.5 890.5q45.5 -37.5 51.5 -105.5h-108q-8 53 -60 53t-60 -53h-109q6 68 52 105.5
t117 37.5t116.5 -37.5z" />
    <glyph glyph-name="Umacron" unicode="&#x16a;" horiz-adv-x="709" 
d="M205.5 22.5q-64.5 34.5 -99.5 100.5t-35 159v418h135v-412q0 -87 40 -131.5t109 -44.5q68 0 108 44.5t40 131.5v412h136v-418q0 -93 -35 -159t-99.5 -100.5t-149.5 -34.5t-149.5 34.5zM186 903h339v-100h-339v100z" />
    <glyph glyph-name="uni1E7A" unicode="&#x1e7a;" horiz-adv-x="709" 
d="M205.5 22.5q-64.5 34.5 -99.5 100.5t-35 159v418h135v-412q0 -87 40 -131.5t109 -44.5q68 0 108 44.5t40 131.5v412h136v-418q0 -93 -35 -159t-99.5 -100.5t-149.5 -34.5t-149.5 34.5zM185 866h339v-99h-339v99zM187 937.5q-22 20.5 -22 54.5q0 35 22 55.5t55 20.5
t54.5 -20.5t21.5 -55.5q0 -34 -21.5 -54.5t-54.5 -20.5t-55 20.5zM412 937.5q-22 20.5 -22 54.5q0 35 22 55.5t55 20.5t55 -20.5t22 -55.5q0 -34 -22 -54.5t-55 -20.5t-55 20.5z" />
    <glyph glyph-name="Uogonek" unicode="&#x172;" horiz-adv-x="709" 
d="M323.5 -155q-26.5 24 -26.5 57q0 19 10 39t28 37l12 10q-83 2 -145 36.5t-96.5 100.5t-34.5 157v418h135v-412q0 -87 40 -131.5t109 -44.5q68 0 108 44.5t40 131.5v412h136v-418q0 -113 -52 -186t-143 -97l-20 -24q-13 -14 -13 -27q0 -9 7.5 -14.5t19.5 -5.5h28v-107h-71
q-45 0 -71.5 24z" />
    <glyph glyph-name="uni01B1" unicode="&#x1b1;" horiz-adv-x="752" 
d="M53 700h250v-107q-44 -48 -70 -116t-26 -145q0 -68 21.5 -117.5t60 -76t87.5 -26.5q50 0 88.5 26.5t60 76t21.5 117.5q0 76 -26 144t-71 117v107h251v-120h-111q46 -50 72 -119.5t26 -146.5q0 -95 -39.5 -169.5t-110.5 -115.5t-161 -41t-160.5 41.5t-110.5 115.5t-40 169
q0 77 26 146.5t72 119.5h-110v120z" />
    <glyph glyph-name="Uring" unicode="&#x16e;" horiz-adv-x="709" 
d="M205.5 22.5q-64.5 34.5 -99.5 100.5t-35 159v418h135v-412q0 -87 40 -131.5t109 -44.5q68 0 108 44.5t40 131.5v412h136v-418q0 -93 -35 -159t-99.5 -100.5t-149.5 -34.5t-149.5 34.5zM254 798q-38 32 -38 81q0 48 38 80t101 32t101 -32t38 -80q0 -49 -38 -81t-101 -32
t-101 32zM398 848q14 12 14 31t-14.5 30.5t-42.5 11.5t-42 -11.5t-14 -30.5t14 -31t42 -12q29 0 43 12z" />
    <glyph glyph-name="Utilde" unicode="&#x168;" horiz-adv-x="709" 
d="M205.5 22.5q-64.5 34.5 -99.5 100.5t-35 159v418h135v-412q0 -87 40 -131.5t109 -44.5q68 0 108 44.5t40 131.5v412h136v-418q0 -93 -35 -159t-99.5 -100.5t-149.5 -34.5t-149.5 34.5zM383 789q-20 8 -42 21q-27 16 -40 16t-20 -11.5t-7 -29.5h-102q0 39 16.5 70.5
t44.5 49.5t59 18q27 0 46.5 -7.5t42.5 -20.5q27 -16 40 -16t20.5 11t7.5 29h101q0 -39 -16.5 -70.5t-44.5 -49.5t-59 -18q-27 0 -47 8z" />
    <glyph glyph-name="uni1E78" unicode="&#x1e78;" horiz-adv-x="709" 
d="M205.5 22.5q-64.5 34.5 -99.5 100.5t-35 159v418h135v-412q0 -87 40 -131.5t109 -44.5q68 0 108 44.5t40 131.5v412h136v-418q0 -93 -35 -159t-99.5 -100.5t-149.5 -34.5t-149.5 34.5zM385 767q-19 7 -44 21q-27 16 -40 16q-12 0 -19.5 -11t-7.5 -29h-102q0 39 16.5 70.5
t44.5 49.5t59 18q27 0 47 -7.5t43 -21.5q27 -16 40 -16q12 0 19.5 11t7.5 29h102q0 -39 -17 -70.5t-44.5 -49t-58.5 -17.5q-27 0 -46 7zM269 950l117 139h143l-135 -139h-125z" />
    <glyph glyph-name="uni1E74" unicode="&#x1e74;" horiz-adv-x="709" 
d="M205.5 22.5q-64.5 34.5 -99.5 100.5t-35 159v418h135v-412q0 -87 40 -131.5t109 -44.5q68 0 108 44.5t40 131.5v412h136v-418q0 -93 -35 -159t-99.5 -100.5t-149.5 -34.5t-149.5 34.5zM376.5 -194.5q-19.5 7.5 -42.5 20.5q-27 16 -40 16t-20 -11t-7 -29h-102
q0 39 16.5 70.5t44.5 49.5t59 18q27 0 47 -8t42 -21q27 -16 40 -16t20.5 11.5t7.5 28.5h101q0 -39 -16.5 -70.5t-44 -49t-59.5 -17.5q-27 0 -46.5 7.5z" />
    <glyph glyph-name="V" unicode="V" horiz-adv-x="686" 
d="M20 700h145l152 -438q26 -74 26 -95h4q0 24 25 95l153 438h141l-256 -700h-133z" />
    <glyph glyph-name="uni0194" unicode="&#x194;" horiz-adv-x="673" 
d="M249 252l-233 448h146l133 -258q16 -30 26.5 -57.5t10.5 -38.5h4q0 11 11.5 38t27.5 58l139 258h143l-239 -448l150 -252h-474zM315 96h35q33 0 45 -5l1 3q-9 6 -28 35q-34 56 -34 72h-4q0 -9 -9.5 -29t-23.5 -43q-18 -28 -28 -35l1 -3q12 5 45 5z" />
    <glyph glyph-name="uni1E7E" unicode="&#x1e7e;" horiz-adv-x="686" 
d="M20 700h145l152 -438q26 -74 26 -95h4q0 24 25 95l153 438h141l-256 -700h-133zM284 -190.5q-23 20.5 -23 55.5t23.5 56t58.5 21t58.5 -21t23.5 -56t-23.5 -55.5t-58.5 -20.5q-36 0 -59 20.5z" />
    <glyph glyph-name="uni01B2" unicode="&#x1b2;" horiz-adv-x="705" 
d="M533 681.5q51 -27.5 86 -91t35 -163.5q0 -130 -45 -230t-121 -154.5t-164 -54.5q-69 0 -126.5 29.5t-91.5 88t-34 140.5v454h136v-449q0 -68 33 -103.5t84 -35.5q52 0 95 39t68 109.5t25 163.5q0 58 -17 94.5t-42.5 52t-51.5 15.5q-29 0 -62 -15v122q35 16 91 16
q51 0 102 -27.5z" />
    <glyph glyph-name="uni1E7C" unicode="&#x1e7c;" horiz-adv-x="686" 
d="M20 700h145l152 -438q26 -74 26 -95h4q0 24 25 95l153 438h141l-256 -700h-133zM371 789q-20 8 -42 21q-27 16 -40 16t-20 -11.5t-7 -28.5h-102q0 39 16.5 70.5t44.5 49t59 17.5q27 0 46.5 -7.5t42.5 -20.5q27 -16 40 -16t20.5 11t7.5 29h101q0 -39 -16.5 -70.5
t-44.5 -49.5t-59 -18q-27 0 -47 8z" />
    <glyph glyph-name="uni0245" unicode="&#x245;" horiz-adv-x="702" 
d="M285 700h133l267 -700h-145l-163 456q-25 71 -25 94h-4q0 -20 -26 -94l-163 -456h-140z" />
    <glyph glyph-name="W" unicode="W" horiz-adv-x="998" 
d="M699 247q9 -34 10 -50h3q0 31 23 119l103 384h135l-197 -700h-125l-124 383q-26 81 -26 111h-4q-2 -37 -26 -111l-124 -383h-126l-198 700h139l102 -385q10 -38 16.5 -72t6.5 -47h4q1 15 8.5 48t19.5 70l122 386h118l121 -385q10 -34 19 -68z" />
    <glyph glyph-name="Wacute" unicode="&#x1e82;" horiz-adv-x="998" 
d="M699 247q9 -34 10 -50h3q0 31 23 119l103 384h135l-197 -700h-125l-124 383q-26 81 -26 111h-4q-2 -37 -26 -111l-124 -383h-126l-198 700h139l102 -385q10 -38 16.5 -72t6.5 -47h4q1 15 8.5 48t19.5 70l122 386h118l121 -385q10 -34 19 -68zM406 783l117 139h143
l-135 -139h-125z" />
    <glyph glyph-name="Wcircumflex" unicode="&#x174;" horiz-adv-x="998" 
d="M699 247q9 -34 10 -50h3q0 31 23 119l103 384h135l-197 -700h-125l-124 383q-26 81 -26 111h-4q-2 -37 -26 -111l-124 -383h-126l-198 700h139l102 -385q10 -38 16.5 -72t6.5 -47h4q1 15 8.5 48t19.5 70l122 386h118l121 -385q10 -34 19 -68zM442 923h116l129 -139h-131
l-20 24q-29 31 -35 43h-3q-3 -4 -29 -37l-26 -30h-131z" />
    <glyph glyph-name="Wdieresis" unicode="&#x1e84;" horiz-adv-x="998" 
d="M699 247q9 -34 10 -50h3q0 31 23 119l103 384h135l-197 -700h-125l-124 383q-26 81 -26 111h-4q-2 -37 -26 -111l-124 -383h-126l-198 700h139l102 -385q10 -38 16.5 -72t6.5 -47h4q1 15 8.5 48t19.5 70l122 386h118l121 -385q10 -34 19 -68zM332 800q-22 20 -22 55
q0 34 22 54.5t55 20.5t54.5 -20.5t21.5 -54.5q0 -35 -21.5 -55t-54.5 -20t-55 20zM557 800q-22 20 -22 55q0 34 22 54.5t55 20.5t54.5 -20.5t21.5 -54.5q0 -35 -21.5 -55t-54.5 -20t-55 20z" />
    <glyph glyph-name="uni1E86" unicode="&#x1e86;" horiz-adv-x="998" 
d="M699 247q9 -34 10 -50h3q0 31 23 119l103 384h135l-197 -700h-125l-124 383q-26 81 -26 111h-4q-2 -37 -26 -111l-124 -383h-126l-198 700h139l102 -385q10 -38 16.5 -72t6.5 -47h4q1 15 8.5 48t19.5 70l122 386h118l121 -385q10 -34 19 -68zM440 800.5
q-23 20.5 -23 55.5t23.5 56.5t58.5 21.5t58.5 -21.5t23.5 -56.5t-23 -55.5t-59 -20.5t-59 20.5z" />
    <glyph glyph-name="uni1E88" unicode="&#x1e88;" horiz-adv-x="998" 
d="M699 247q9 -34 10 -50h3q0 31 23 119l103 384h135l-197 -700h-125l-124 383q-26 81 -26 111h-4q-2 -37 -26 -111l-124 -383h-126l-198 700h139l102 -385q10 -38 16.5 -72t6.5 -47h4q1 15 8.5 48t19.5 70l122 386h118l121 -385q10 -34 19 -68zM440 -190.5
q-23 20.5 -23 55.5t23.5 56t58.5 21t58.5 -21t23.5 -56t-23.5 -55.5t-58.5 -20.5q-36 0 -59 20.5z" />
    <glyph glyph-name="Wgrave" unicode="&#x1e80;" horiz-adv-x="998" 
d="M699 247q9 -34 10 -50h3q0 31 23 119l103 384h135l-197 -700h-125l-124 383q-26 81 -26 111h-4q-2 -37 -26 -111l-124 -383h-126l-198 700h139l102 -385q10 -38 16.5 -72t6.5 -47h4q1 15 8.5 48t19.5 70l122 386h118l121 -385q10 -34 19 -68zM332 922h143l117 -139h-124z
" />
    <glyph glyph-name="uni2C72" unicode="&#x2c72;" horiz-adv-x="1083" 
d="M23 700h139l99 -385q20 -80 22 -119h3q1 15 8.5 50t17.5 68l119 386h118l119 -385q12 -38 19 -71t8 -47h3q0 14 6 48t15 71l71 273q16 64 53.5 93.5t87.5 29.5q74 0 120 -41l-58 -95q-19 16 -38 16q-17 0 -27 -11t-16 -34l-150 -547h-125l-120 383q-11 34 -17.5 64.5
t-7.5 46.5h-4q0 -14 -6.5 -46t-17.5 -65l-122 -383h-126z" />
    <glyph glyph-name="X" unicode="X" horiz-adv-x="673" 
d="M258 353l-240 347h155l109 -153q26 -39 40 -61.5t15 -33.5h4q3 20 53 95l109 153h153l-240 -346l245 -354h-156l-111 158q-10 15 -11 17q-44 63 -46 78h-4q-1 -11 -15 -34.5t-40 -60.5l-112 -158h-154z" />
    <glyph glyph-name="uni1E8C" unicode="&#x1e8c;" horiz-adv-x="673" 
d="M258 353l-240 347h155l109 -153q26 -39 40 -61.5t15 -33.5h4q3 20 53 95l109 153h153l-240 -346l245 -354h-156l-111 158q-10 15 -11 17q-44 63 -46 78h-4q-1 -11 -15 -34.5t-40 -60.5l-112 -158h-154zM170 799.5q-22 20.5 -22 54.5q0 35 22 55t55 20t54.5 -20t21.5 -55
q0 -34 -21.5 -54.5t-54.5 -20.5t-55 20.5zM395 799.5q-22 20.5 -22 54.5q0 35 22 55t55 20t54.5 -20t21.5 -55q0 -34 -21.5 -54.5t-54.5 -20.5t-55 20.5z" />
    <glyph glyph-name="uni1E8A" unicode="&#x1e8a;" horiz-adv-x="673" 
d="M258 353l-240 347h155l109 -153q26 -39 40 -61.5t15 -33.5h4q3 20 53 95l109 153h153l-240 -346l245 -354h-156l-111 158q-10 15 -11 17q-44 63 -46 78h-4q-1 -11 -15 -34.5t-40 -60.5l-112 -158h-154zM278 800.5q-23 20.5 -23 55.5t23.5 56.5t58.5 21.5t58.5 -21.5
t23.5 -56.5t-23 -55.5t-59 -20.5t-59 20.5z" />
    <glyph glyph-name="Y" unicode="Y" horiz-adv-x="668" 
d="M267 324l-264 376h158l116 -163q36 -53 56 -90h4q20 37 56 90l116 163h153l-260 -376v-324h-135v324z" />
    <glyph glyph-name="Yacute" unicode="&#xdd;" horiz-adv-x="668" 
d="M267 324l-264 376h158l116 -163q36 -53 56 -90h4q20 37 56 90l116 163h153l-260 -376v-324h-135v324zM242 783l117 139h143l-135 -139h-125z" />
    <glyph glyph-name="Ycircumflex" unicode="&#x176;" horiz-adv-x="668" 
d="M267 324l-264 376h158l116 -163q36 -53 56 -90h4q20 37 56 90l116 163h153l-260 -376v-324h-135v324zM278 923h116l129 -139h-131l-20 24q-29 31 -35 43h-3q-3 -4 -29 -37l-26 -30h-131z" />
    <glyph glyph-name="Ydieresis" unicode="&#x178;" horiz-adv-x="668" 
d="M267 324l-264 376h158l116 -163q36 -53 56 -90h4q20 37 56 90l116 163h153l-260 -376v-324h-135v324zM168 800q-22 20 -22 55q0 34 22 54.5t55 20.5t54.5 -20.5t21.5 -54.5q0 -35 -21.5 -55t-54.5 -20t-55 20zM393 800q-22 20 -22 55q0 34 22 54.5t55 20.5t54.5 -20.5
t21.5 -54.5q0 -35 -21.5 -55t-54.5 -20t-55 20z" />
    <glyph glyph-name="uni1E8E" unicode="&#x1e8e;" horiz-adv-x="668" 
d="M267 324l-264 376h158l116 -163q36 -53 56 -90h4q20 37 56 90l116 163h153l-260 -376v-324h-135v324zM276 800.5q-23 20.5 -23 55.5t23.5 56.5t58.5 21.5t58.5 -21.5t23.5 -56.5t-23 -55.5t-59 -20.5t-59 20.5z" />
    <glyph glyph-name="uni1EF4" unicode="&#x1ef4;" horiz-adv-x="668" 
d="M267 324l-264 376h158l116 -163q36 -53 56 -90h4q20 37 56 90l116 163h153l-260 -376v-324h-135v324zM276 -190.5q-23 20.5 -23 55.5t23.5 56t58.5 21t58.5 -21t23.5 -56t-23.5 -55.5t-58.5 -20.5q-36 0 -59 20.5z" />
    <glyph glyph-name="Ygrave" unicode="&#x1ef2;" horiz-adv-x="668" 
d="M267 324l-264 376h158l116 -163q36 -53 56 -90h4q20 37 56 90l116 163h153l-260 -376v-324h-135v324zM168 922h143l117 -139h-124z" />
    <glyph glyph-name="uni01B3" unicode="&#x1b3;" horiz-adv-x="722" 
d="M283 322l-263 378h157l174 -246l103 169q26 44 58.5 66.5t77.5 22.5q72 0 116 -41l-60 -95q-18 15 -39 15q-15 0 -25 -9t-22 -28l-141 -226v-328h-136v322z" />
    <glyph glyph-name="uni1EF6" unicode="&#x1ef6;" horiz-adv-x="668" 
d="M267 324l-264 376h158l116 -163q36 -53 56 -90h4q20 37 56 90l116 163h153l-260 -376v-324h-135v324zM336.5 796.5q8.5 14.5 8.5 26.5q0 11 -7.5 18t-20.5 7q-10 0 -20 -6t-18 -16l-67 54q39 58 115 58q51 0 85 -26.5t34 -64.5q0 -42 -40 -89h-97q19 24 27.5 38.5z" />
    <glyph glyph-name="uni0232" unicode="&#x232;" horiz-adv-x="668" 
d="M267 324l-264 376h158l116 -163q36 -53 56 -90h4q20 37 56 90l116 163h153l-260 -376v-324h-135v324zM166 903h339v-100h-339v100z" />
    <glyph glyph-name="uni01A6" unicode="&#x1a6;" horiz-adv-x="673" 
d="M78 700h135v-74h137q117 0 185 -60t68 -165q0 -65 -30.5 -114t-86.5 -76l157 -211h-161l-128 183h-2h-139v-183h-135v700zM343 297q57 0 87.5 26.5t30.5 77.5q0 52 -30.5 78t-87.5 26h-130v-208h130z" />
    <glyph glyph-name="uni024E" unicode="&#x24e;" horiz-adv-x="773" 
d="M320 324l-120 170h-156v107h20q57 0 76 -8l1 4q-8 4 -23 20.5t-29 35.5l-33 47h157l71 -99h209l69 99h152l-32 -47q-33 -45 -52 -56l1 -4q19 8 76 8h19v-107h-153l-118 -170v-324h-135v324zM467 509l-1 3q-16 -5 -71 -5h-13q-55 0 -71 5l-1 -3q13 -8 46 -52l33 -45l32 45
q33 43 46 52z" />
    <glyph glyph-name="uni1EF8" unicode="&#x1ef8;" horiz-adv-x="668" 
d="M267 324l-264 376h158l116 -163q36 -53 56 -90h4q20 37 56 90l116 163h153l-260 -376v-324h-135v324zM363 789q-20 8 -42 21q-27 16 -40 16t-20 -11.5t-7 -29.5h-102q0 39 16.5 70.5t44.5 49.5t59 18q27 0 46.5 -7.5t42.5 -20.5q27 -16 40 -16t20.5 11t7.5 29h101
q0 -39 -16.5 -70.5t-44.5 -49.5t-59 -18q-27 0 -47 8z" />
    <glyph glyph-name="Z" unicode="Z" horiz-adv-x="602" 
d="M44 105l299 422q32 46 50 58l-1 2q-17 -7 -76 -7h-264v120h500v-105l-299 -422q-32 -46 -50 -58l1 -2q16 7 76 7h276v-120h-512v105z" />
    <glyph glyph-name="Zacute" unicode="&#x179;" horiz-adv-x="602" 
d="M44 105l299 422q32 46 50 58l-1 2q-17 -7 -76 -7h-264v120h500v-105l-299 -422q-32 -46 -50 -58l1 -2q16 7 76 7h276v-120h-512v105zM207 783l117 139h143l-135 -139h-125z" />
    <glyph glyph-name="Zcaron" unicode="&#x17d;" horiz-adv-x="602" 
d="M44 105l299 422q32 46 50 58l-1 2q-17 -7 -76 -7h-264v120h500v-105l-299 -422q-32 -46 -50 -58l1 -2q16 7 76 7h276v-120h-512v105zM113 922h131l20 -24q29 -31 35 -43h3q3 4 29 37l26 30h131l-130 -139h-116z" />
    <glyph glyph-name="uni1E90" unicode="&#x1e90;" horiz-adv-x="602" 
d="M44 105l299 422q32 46 50 58l-1 2q-17 -7 -76 -7h-264v120h500v-105l-299 -422q-32 -46 -50 -58l1 -2q16 7 76 7h276v-120h-512v105zM243 923h116l129 -139h-131l-20 24q-29 31 -35 43h-3q-3 -4 -29 -37l-26 -30h-131z" />
    <glyph glyph-name="Zdotaccent" unicode="&#x17b;" horiz-adv-x="602" 
d="M44 105l299 422q32 46 50 58l-1 2q-17 -7 -76 -7h-264v120h500v-105l-299 -422q-32 -46 -50 -58l1 -2q16 7 76 7h276v-120h-512v105zM241 800.5q-23 20.5 -23 55.5t23.5 56.5t58.5 21.5t58.5 -21.5t23.5 -56.5t-23 -55.5t-59 -20.5t-59 20.5z" />
    <glyph glyph-name="uni1E92" unicode="&#x1e92;" horiz-adv-x="602" 
d="M44 105l299 422q32 46 50 58l-1 2q-17 -7 -76 -7h-264v120h500v-105l-299 -422q-32 -46 -50 -58l1 -2q16 7 76 7h276v-120h-512v105zM241 -190.5q-23 20.5 -23 55.5t23.5 56t58.5 21t58.5 -21t23.5 -56t-23.5 -55.5t-58.5 -20.5q-36 0 -59 20.5z" />
    <glyph glyph-name="uni1E94" unicode="&#x1e94;" horiz-adv-x="602" 
d="M44 105l299 422q32 46 50 58l-1 2q-17 -7 -76 -7h-264v120h500v-105l-299 -422q-32 -46 -50 -58l1 -2q16 7 76 7h276v-120h-512v105zM131 -74h339v-99h-339v99z" />
    <glyph glyph-name="uni01B5" unicode="&#x1b5;" horiz-adv-x="607" 
d="M95 407h166l85 120q32 46 50 58l-1 2q-16 -7 -76 -7h-264v120h500v-105l-133 -188h87v-107h-163l-90 -127q-32 -46 -50 -58l1 -2q16 7 76 7h276v-120h-512v105l138 195h-90v107z" />
    <glyph glyph-name="uniA78B" unicode="&#xa78b;" horiz-adv-x="264" 
d="M195 700v-183l-16 -260h-94l-16 260v183h126z" />
    <glyph glyph-name="uniA7B8" unicode="&#xa7b8;" horiz-adv-x="709" 
d="M279 -4l-32 -114h-105l43 153q-55 37 -84.5 99.5t-29.5 147.5v418h135v-412q0 -62 21 -104l177 629h106l-197 -696q22 -5 42 -5q68 0 108 44.5t40 131.5v412h136v-418q0 -93 -35 -159t-99.5 -100.5t-149.5 -34.5q-39 0 -76 8z" />
    <glyph glyph-name="uniA7AE" unicode="&#xa7ae;" horiz-adv-x="479" 
d="M430 579h-123v-458h123v-121h-381v121h123v458h-123v121h381v-121z" />
    <glyph glyph-name="uni0295.case" horiz-adv-x="575" 
d="M211.5 240.5q-19.5 31.5 -59.5 65.5q-46 39 -65.5 58t-37 55.5t-17.5 87.5q0 94 67 149.5t184 55.5q104 0 171.5 -52.5t99.5 -142.5l-111 -47q-23 61 -64.5 91.5t-94.5 30.5q-52 0 -81.5 -22.5t-29.5 -63.5q0 -32 19 -54.5t60 -55.5q35 -29 58.5 -55t39.5 -66.5t16 -94.5
v-180h-135v161q0 48 -19.5 79.5z" />
    <glyph glyph-name="uni1E96.case" horiz-adv-x="724" 
d="M511 293h-298v-293h-135v700h135v-286h298v286h135v-700h-135v293zM193 -74h339v-99h-339v99z" />
    <glyph glyph-name="uni01F0.case" horiz-adv-x="535" 
d="M17 140l110 55q13 -37 38 -60t64 -23q46 0 72 29.5t26 84.5v474h135v-480q0 -112 -63 -172t-167 -60q-155 0 -215 152zM207 922h131l20 -24q29 -31 35 -43h3q3 4 29 37l26 30h131l-130 -139h-116z" />
    <glyph glyph-name="uni02A7.case" horiz-adv-x="1102" 
d="M1054 580h-308l171 -210v-32l-180 -218h318v-120h-495v106l209 247l-188 226h-207v-579h-135v579h-208v121h1023v-120z" />
    <glyph glyph-name="uni0262" unicode="&#x262;" horiz-adv-x="601" 
d="M176 23.5q-60 33.5 -94.5 94.5t-34.5 139q0 79 33 139.5t92.5 94t134.5 33.5q70 0 131 -32.5t91 -92.5l-106 -54q-20 35 -48 51.5t-68 16.5q-59 0 -95.5 -41.5t-36.5 -114.5q0 -48 18 -83.5t48.5 -54.5t66.5 -19q111 0 123 100h-124v91h245q3 -24 3 -49q0 -80 -33.5 -137
t-89.5 -86t-124 -29q-72 0 -132 33.5z" />
    <glyph glyph-name="uni026A" unicode="&#x26a;" horiz-adv-x="429" 
d="M49 101h102v312h-102v102h331v-102h-102v-312h102v-101h-331v101z" />
    <glyph glyph-name="uni1D7B" unicode="&#x1d7b;" horiz-adv-x="321" 
d="M38 342h59v173h127v-173h59v-90h-59v-252h-127v252h-59v90z" />
    <glyph glyph-name="uni0280" unicode="&#x280;" horiz-adv-x="547" 
d="M69 515h215q94 0 148 -46t54 -125q0 -54 -29.5 -92.5t-83.5 -56.5l149 -195h-152l-129 182h-45v-182h-127v515zM278 287q35 0 54.5 14t19.5 43q0 59 -74 59h-82v-116h82z" />
    <glyph glyph-name="a" unicode="a" horiz-adv-x="564" 
d="M381 49q-22 -30 -60 -45.5t-88 -15.5q-88 0 -140 43t-52 118q0 73 55 116.5t147 43.5q42 0 75.5 -12t54.5 -33v49q0 49 -29 74.5t-82 25.5q-76 0 -111 -60l-90 70q31 53 84.5 78.5t120.5 25.5q64 0 117.5 -23t85 -69t31.5 -112v-323h-119v49zM348 99.5q28 18.5 28 50.5
t-28 50.5t-74 18.5t-74 -18t-28 -51q0 -32 28 -50.5t74 -18.5t74 18.5z" />
    <glyph glyph-name="a.ss02" horiz-adv-x="622" 
d="M156.5 23q-51.5 35 -80.5 97t-29 138t29 137.5t80.5 96.5t114.5 35q102 0 155 -86v74h127v-515h-127v74q-53 -86 -155 -86q-63 0 -114.5 35zM393.5 142.5q34.5 41.5 34.5 115.5t-34.5 114.5t-90.5 40.5q-57 0 -91 -40.5t-34 -114.5t34 -115.5t91 -41.5q56 0 90.5 41.5z
" />
    <glyph glyph-name="aacute" unicode="&#xe1;" horiz-adv-x="564" 
d="M381 49q-22 -30 -60 -45.5t-88 -15.5q-88 0 -140 43t-52 118q0 73 55 116.5t147 43.5q42 0 75.5 -12t54.5 -33v49q0 49 -29 74.5t-82 25.5q-76 0 -111 -60l-90 70q31 53 84.5 78.5t120.5 25.5q64 0 117.5 -23t85 -69t31.5 -112v-323h-119v49zM348 99.5q28 18.5 28 50.5
t-28 50.5t-74 18.5t-74 -18t-28 -51q0 -32 28 -50.5t74 -18.5t74 18.5zM185 598l117 139h143l-135 -139h-125z" />
    <glyph glyph-name="abreve" unicode="&#x103;" horiz-adv-x="564" 
d="M381 49q-22 -30 -60 -45.5t-88 -15.5q-88 0 -140 43t-52 118q0 73 55 116.5t147 43.5q42 0 75.5 -12t54.5 -33v49q0 49 -29 74.5t-82 25.5q-76 0 -111 -60l-90 70q31 53 84.5 78.5t120.5 25.5q64 0 117.5 -23t85 -69t31.5 -112v-323h-119v49zM348 99.5q28 18.5 28 50.5
t-28 50.5t-74 18.5t-74 -18t-28 -51q0 -32 28 -50.5t74 -18.5t74 18.5zM155 631.5q-47 37.5 -53 105.5h108q4 -30 21 -43t47 -13q29 0 46 13t21 43h108q-6 -68 -53 -105.5t-122 -37.5q-76 0 -123 37.5z" />
    <glyph glyph-name="uni1EAF" unicode="&#x1eaf;" horiz-adv-x="564" 
d="M381 49q-22 -30 -60 -45.5t-88 -15.5q-88 0 -140 43t-52 118q0 73 55 116.5t147 43.5q42 0 75.5 -12t54.5 -33v49q0 49 -29 74.5t-82 25.5q-76 0 -111 -60l-90 70q31 53 84.5 78.5t120.5 25.5q64 0 117.5 -23t85 -69t31.5 -112v-323h-119v49zM348 99.5q28 18.5 28 50.5
t-28 50.5t-74 18.5t-74 -18t-28 -51q0 -32 28 -50.5t74 -18.5t74 18.5zM154.5 617.5q-47.5 37.5 -53.5 105.5h109q4 -30 20.5 -43t46.5 -13q29 0 46 13t21 43h109q-6 -68 -53.5 -105.5t-122.5 -37.5t-122.5 37.5zM269 872h143l-95 -115h-120z" />
    <glyph glyph-name="uni1EB7" unicode="&#x1eb7;" horiz-adv-x="564" 
d="M381 49q-22 -30 -60 -45.5t-88 -15.5q-88 0 -140 43t-52 118q0 73 55 116.5t147 43.5q42 0 75.5 -12t54.5 -33v49q0 49 -29 74.5t-82 25.5q-76 0 -111 -60l-90 70q31 53 84.5 78.5t120.5 25.5q64 0 117.5 -23t85 -69t31.5 -112v-323h-119v49zM348 99.5q28 18.5 28 50.5
t-28 50.5t-74 18.5t-74 -18t-28 -51q0 -32 28 -50.5t74 -18.5t74 18.5zM221 -190.5q-23 20.5 -23 55.5t23.5 56t58.5 21t58.5 -21t23.5 -56t-23.5 -55.5t-58.5 -20.5q-36 0 -59 20.5zM155 631.5q-47 37.5 -53 105.5h108q4 -30 21 -43t47 -13q29 0 46 13t21 43h108
q-6 -68 -53 -105.5t-122 -37.5q-76 0 -123 37.5z" />
    <glyph glyph-name="uni1EB1" unicode="&#x1eb1;" horiz-adv-x="564" 
d="M381 49q-22 -30 -60 -45.5t-88 -15.5q-88 0 -140 43t-52 118q0 73 55 116.5t147 43.5q42 0 75.5 -12t54.5 -33v49q0 49 -29 74.5t-82 25.5q-76 0 -111 -60l-90 70q31 53 84.5 78.5t120.5 25.5q64 0 117.5 -23t85 -69t31.5 -112v-323h-119v49zM348 99.5q28 18.5 28 50.5
t-28 50.5t-74 18.5t-74 -18t-28 -51q0 -32 28 -50.5t74 -18.5t74 18.5zM154.5 617.5q-47.5 37.5 -53.5 105.5h109q4 -30 20.5 -43t46.5 -13q29 0 46 13t21 43h109q-6 -68 -53.5 -105.5t-122.5 -37.5t-122.5 37.5zM145 872h143l72 -115h-120z" />
    <glyph glyph-name="uni1EB3" unicode="&#x1eb3;" horiz-adv-x="564" 
d="M381 49q-22 -30 -60 -45.5t-88 -15.5q-88 0 -140 43t-52 118q0 73 55 116.5t147 43.5q42 0 75.5 -12t54.5 -33v49q0 49 -29 74.5t-82 25.5q-76 0 -111 -60l-90 70q31 53 84.5 78.5t120.5 25.5q64 0 117.5 -23t85 -69t31.5 -112v-323h-119v49zM348 99.5q28 18.5 28 50.5
t-28 50.5t-74 18.5t-74 -18t-28 -51q0 -32 28 -50.5t74 -18.5t74 18.5zM155.5 617.5q-47.5 37.5 -53.5 105.5h109q4 -30 20.5 -43t46.5 -13q29 0 46 13t21 43h109q-6 -68 -53.5 -105.5t-122.5 -37.5t-122.5 37.5zM274 799.5q8 14.5 8 26.5q0 11 -7 18t-20 7q-22 0 -39 -22
l-66 54q39 58 115 58q51 0 84.5 -27t33.5 -65q0 -42 -39 -88h-97q19 24 27 38.5z" />
    <glyph glyph-name="uni1EB5" unicode="&#x1eb5;" horiz-adv-x="564" 
d="M381 49q-22 -30 -60 -45.5t-88 -15.5q-88 0 -140 43t-52 118q0 73 55 116.5t147 43.5q42 0 75.5 -12t54.5 -33v49q0 49 -29 74.5t-82 25.5q-76 0 -111 -60l-90 70q31 53 84.5 78.5t120.5 25.5q64 0 117.5 -23t85 -69t31.5 -112v-323h-119v49zM348 99.5q28 18.5 28 50.5
t-28 50.5t-74 18.5t-74 -18t-28 -51q0 -32 28 -50.5t74 -18.5t74 18.5zM303 771.5q-20 6.5 -42 18.5q-26 14 -40 14q-12 0 -19.5 -10t-7.5 -25h-101q0 35 15.5 64t42 45.5t55.5 16.5q27 0 47 -6.5t42 -18.5q26 -14 40 -14q13 0 20.5 10t7.5 24h101q0 -35 -16 -63.5t-42 -45
t-56 -16.5q-27 0 -47 6.5zM156 617.5q-47 37.5 -53 105.5h108q4 -30 21 -43t46 -13q60 0 67 56h109q-6 -68 -53.5 -105.5t-122.5 -37.5t-122 37.5z" />
    <glyph glyph-name="uni01CE" unicode="&#x1ce;" horiz-adv-x="564" 
d="M381 49q-22 -30 -60 -45.5t-88 -15.5q-88 0 -140 43t-52 118q0 73 55 116.5t147 43.5q42 0 75.5 -12t54.5 -33v49q0 49 -29 74.5t-82 25.5q-76 0 -111 -60l-90 70q31 53 84.5 78.5t120.5 25.5q64 0 117.5 -23t85 -69t31.5 -112v-323h-119v49zM348 99.5q28 18.5 28 50.5
t-28 50.5t-74 18.5t-74 -18t-28 -51q0 -32 28 -50.5t74 -18.5t74 18.5zM91 737h131l20 -24q29 -31 35 -43h3q3 4 29 37l26 30h131l-130 -139h-116z" />
    <glyph glyph-name="acircumflex" unicode="&#xe2;" horiz-adv-x="564" 
d="M381 49q-22 -30 -60 -45.5t-88 -15.5q-88 0 -140 43t-52 118q0 73 55 116.5t147 43.5q42 0 75.5 -12t54.5 -33v49q0 49 -29 74.5t-82 25.5q-76 0 -111 -60l-90 70q31 53 84.5 78.5t120.5 25.5q64 0 117.5 -23t85 -69t31.5 -112v-323h-119v49zM348 99.5q28 18.5 28 50.5
t-28 50.5t-74 18.5t-74 -18t-28 -51q0 -32 28 -50.5t74 -18.5t74 18.5zM221 738h116l129 -139h-131l-20 24q-29 31 -35 43h-3q-3 -4 -29 -37l-26 -30h-131z" />
    <glyph glyph-name="uni1EA5" unicode="&#x1ea5;" horiz-adv-x="564" 
d="M381 49q-22 -30 -60 -45.5t-88 -15.5q-88 0 -140 43t-52 118q0 73 55 116.5t147 43.5q42 0 75.5 -12t54.5 -33v49q0 49 -29 74.5t-82 25.5q-76 0 -111 -60l-90 70q31 53 84.5 78.5t120.5 25.5q64 0 117.5 -23t85 -69t31.5 -112v-323h-119v49zM348 99.5q28 18.5 28 50.5
t-28 50.5t-74 18.5t-74 -18t-28 -51q0 -32 28 -50.5t74 -18.5t74 18.5zM223 722h115l129 -139h-131l-23 27q-28 34 -31 40h-4q-4 -8 -31 -39l-23 -28h-131zM481 813h136l-96 -131h-112z" />
    <glyph glyph-name="uni1EAD" unicode="&#x1ead;" horiz-adv-x="564" 
d="M381 49q-22 -30 -60 -45.5t-88 -15.5q-88 0 -140 43t-52 118q0 73 55 116.5t147 43.5q42 0 75.5 -12t54.5 -33v49q0 49 -29 74.5t-82 25.5q-76 0 -111 -60l-90 70q31 53 84.5 78.5t120.5 25.5q64 0 117.5 -23t85 -69t31.5 -112v-323h-119v49zM348 99.5q28 18.5 28 50.5
t-28 50.5t-74 18.5t-74 -18t-28 -51q0 -32 28 -50.5t74 -18.5t74 18.5zM221 -190.5q-23 20.5 -23 55.5t23.5 56t58.5 21t58.5 -21t23.5 -56t-23.5 -55.5t-58.5 -20.5q-36 0 -59 20.5zM221 738h116l129 -139h-131l-20 24q-29 31 -35 43h-3q-3 -4 -29 -37l-26 -30h-131z" />
    <glyph glyph-name="uni1EA7" unicode="&#x1ea7;" horiz-adv-x="564" 
d="M381 49q-22 -30 -60 -45.5t-88 -15.5q-88 0 -140 43t-52 118q0 73 55 116.5t147 43.5q42 0 75.5 -12t54.5 -33v49q0 49 -29 74.5t-82 25.5q-76 0 -111 -60l-90 70q31 53 84.5 78.5t120.5 25.5q64 0 117.5 -23t85 -69t31.5 -112v-323h-119v49zM348 99.5q28 18.5 28 50.5
t-28 50.5t-74 18.5t-74 -18t-28 -51q0 -32 28 -50.5t74 -18.5t74 18.5zM221 722h115l129 -139h-131l-23 27q-28 34 -31 40h-4q-4 -8 -31 -39l-23 -28h-131zM347 813h135l73 -131h-113z" />
    <glyph glyph-name="uni1EA9" unicode="&#x1ea9;" horiz-adv-x="564" 
d="M381 49q-22 -30 -60 -45.5t-88 -15.5q-88 0 -140 43t-52 118q0 73 55 116.5t147 43.5q42 0 75.5 -12t54.5 -33v49q0 49 -29 74.5t-82 25.5q-76 0 -111 -60l-90 70q31 53 84.5 78.5t120.5 25.5q64 0 117.5 -23t85 -69t31.5 -112v-323h-119v49zM348 99.5q28 18.5 28 50.5
t-28 50.5t-74 18.5t-74 -18t-28 -51q0 -32 28 -50.5t74 -18.5t74 18.5zM220 722h116l129 -139h-131l-26 30q-26 33 -29 37h-3q-6 -12 -35 -43l-20 -24h-131zM424 730.5q8 14.5 8 26.5q0 11 -7 17.5t-20 6.5q-10 0 -20.5 -5.5t-17.5 -15.5l-67 54q39 58 115 58q52 0 85.5 -27
t33.5 -65q0 -41 -40 -88h-97q19 24 27 38.5z" />
    <glyph glyph-name="uni1EAB" unicode="&#x1eab;" horiz-adv-x="564" 
d="M381 49q-22 -30 -60 -45.5t-88 -15.5q-88 0 -140 43t-52 118q0 73 55 116.5t147 43.5q42 0 75.5 -12t54.5 -33v49q0 49 -29 74.5t-82 25.5q-76 0 -111 -60l-90 70q31 53 84.5 78.5t120.5 25.5q64 0 117.5 -23t85 -69t31.5 -112v-323h-119v49zM348 99.5q28 18.5 28 50.5
t-28 50.5t-74 18.5t-74 -18t-28 -51q0 -32 28 -50.5t74 -18.5t74 18.5zM220 722h116l129 -139h-131l-26 30q-26 33 -29 37h-3q-4 -8 -31 -39l-23 -28h-131zM305 770.5q-20 6.5 -42 18.5q-26 14 -40 14q-13 0 -20 -10t-7 -25h-102q0 35 16 64t42.5 45.5t55.5 16.5
q27 0 46.5 -6.5t43.5 -18.5q11 -5 21 -9t18 -4q13 0 20.5 9.5t7.5 24.5h101q0 -35 -16 -64t-42 -45.5t-56 -16.5q-27 0 -47 6.5z" />
    <glyph glyph-name="uni0201" unicode="&#x201;" horiz-adv-x="564" 
d="M381 49q-22 -30 -60 -45.5t-88 -15.5q-88 0 -140 43t-52 118q0 73 55 116.5t147 43.5q42 0 75.5 -12t54.5 -33v49q0 49 -29 74.5t-82 25.5q-76 0 -111 -60l-90 70q31 53 84.5 78.5t120.5 25.5q64 0 117.5 -23t85 -69t31.5 -112v-323h-119v49zM348 99.5q28 18.5 28 50.5
t-28 50.5t-74 18.5t-74 -18t-28 -51q0 -32 28 -50.5t74 -18.5t74 18.5zM-5 737h142l120 -139h-120zM207 737h134l114 -139h-121z" />
    <glyph glyph-name="adieresis" unicode="&#xe4;" horiz-adv-x="564" 
d="M381 49q-22 -30 -60 -45.5t-88 -15.5q-88 0 -140 43t-52 118q0 73 55 116.5t147 43.5q42 0 75.5 -12t54.5 -33v49q0 49 -29 74.5t-82 25.5q-76 0 -111 -60l-90 70q31 53 84.5 78.5t120.5 25.5q64 0 117.5 -23t85 -69t31.5 -112v-323h-119v49zM348 99.5q28 18.5 28 50.5
t-28 50.5t-74 18.5t-74 -18t-28 -51q0 -32 28 -50.5t74 -18.5t74 18.5zM111 614.5q-22 20.5 -22 54.5q0 35 22 55t55 20t54.5 -20t21.5 -55q0 -34 -21.5 -54.5t-54.5 -20.5t-55 20.5zM336 614.5q-22 20.5 -22 54.5q0 35 22 55t55 20t54.5 -20t21.5 -55q0 -34 -21.5 -54.5
t-54.5 -20.5t-55 20.5z" />
    <glyph glyph-name="uni01DF" unicode="&#x1df;" horiz-adv-x="564" 
d="M381 49q-22 -30 -60 -45.5t-88 -15.5q-88 0 -140 43t-52 118q0 73 55 116.5t147 43.5q42 0 75.5 -12t54.5 -33v49q0 49 -29 74.5t-82 25.5q-76 0 -111 -60l-90 70q31 53 84.5 78.5t120.5 25.5q64 0 117.5 -23t85 -69t31.5 -112v-323h-119v49zM348 99.5q28 18.5 28 50.5
t-28 50.5t-74 18.5t-74 -18t-28 -51q0 -32 28 -50.5t74 -18.5t74 18.5zM110 594.5q-22 20.5 -22 54.5q0 35 22 55t55 20t55 -20t22 -55q0 -34 -22 -54.5t-55 -20.5t-55 20.5zM336 594.5q-22 20.5 -22 54.5q0 35 22 55t55 20t54.5 -20t21.5 -55q0 -34 -21.5 -54.5
t-54.5 -20.5t-55 20.5zM109 872h339v-100h-339v100z" />
    <glyph glyph-name="uni0227" unicode="&#x227;" horiz-adv-x="564" 
d="M381 49q-22 -30 -60 -45.5t-88 -15.5q-88 0 -140 43t-52 118q0 73 55 116.5t147 43.5q42 0 75.5 -12t54.5 -33v49q0 49 -29 74.5t-82 25.5q-76 0 -111 -60l-90 70q31 53 84.5 78.5t120.5 25.5q64 0 117.5 -23t85 -69t31.5 -112v-323h-119v49zM348 99.5q28 18.5 28 50.5
t-28 50.5t-74 18.5t-74 -18t-28 -51q0 -32 28 -50.5t74 -18.5t74 18.5zM219 615.5q-23 20.5 -23 55.5t23.5 56.5t58.5 21.5t58.5 -21.5t23.5 -56.5t-23 -55.5t-59 -20.5t-59 20.5z" />
    <glyph glyph-name="uni1EA1" unicode="&#x1ea1;" horiz-adv-x="564" 
d="M381 49q-22 -30 -60 -45.5t-88 -15.5q-88 0 -140 43t-52 118q0 73 55 116.5t147 43.5q42 0 75.5 -12t54.5 -33v49q0 49 -29 74.5t-82 25.5q-76 0 -111 -60l-90 70q31 53 84.5 78.5t120.5 25.5q64 0 117.5 -23t85 -69t31.5 -112v-323h-119v49zM348 99.5q28 18.5 28 50.5
t-28 50.5t-74 18.5t-74 -18t-28 -51q0 -32 28 -50.5t74 -18.5t74 18.5zM221 -190.5q-23 20.5 -23 55.5t23.5 56t58.5 21t58.5 -21t23.5 -56t-23.5 -55.5t-58.5 -20.5q-36 0 -59 20.5z" />
    <glyph glyph-name="uni01E1" unicode="&#x1e1;" horiz-adv-x="564" 
d="M381 49q-22 -30 -60 -45.5t-88 -15.5q-88 0 -140 43t-52 118q0 73 55 116.5t147 43.5q42 0 75.5 -12t54.5 -33v49q0 49 -29 74.5t-82 25.5q-76 0 -111 -60l-90 70q31 53 84.5 78.5t120.5 25.5q64 0 117.5 -23t85 -69t31.5 -112v-323h-119v49zM348 99.5q28 18.5 28 50.5
t-28 50.5t-74 18.5t-74 -18t-28 -51q0 -32 28 -50.5t74 -18.5t74 18.5zM219.5 594q-23.5 21 -23.5 56t23.5 56t58.5 21t58.5 -21t23.5 -56t-23.5 -56t-58.5 -21t-58.5 21zM109 871h339v-100h-339v100z" />
    <glyph glyph-name="agrave" unicode="&#xe0;" horiz-adv-x="564" 
d="M381 49q-22 -30 -60 -45.5t-88 -15.5q-88 0 -140 43t-52 118q0 73 55 116.5t147 43.5q42 0 75.5 -12t54.5 -33v49q0 49 -29 74.5t-82 25.5q-76 0 -111 -60l-90 70q31 53 84.5 78.5t120.5 25.5q64 0 117.5 -23t85 -69t31.5 -112v-323h-119v49zM348 99.5q28 18.5 28 50.5
t-28 50.5t-74 18.5t-74 -18t-28 -51q0 -32 28 -50.5t74 -18.5t74 18.5zM111 737h143l117 -139h-124z" />
    <glyph glyph-name="uni1EA3" unicode="&#x1ea3;" horiz-adv-x="564" 
d="M381 49q-22 -30 -60 -45.5t-88 -15.5q-88 0 -140 43t-52 118q0 73 55 116.5t147 43.5q42 0 75.5 -12t54.5 -33v49q0 49 -29 74.5t-82 25.5q-76 0 -111 -60l-90 70q31 53 84.5 78.5t120.5 25.5q64 0 117.5 -23t85 -69t31.5 -112v-323h-119v49zM348 99.5q28 18.5 28 50.5
t-28 50.5t-74 18.5t-74 -18t-28 -51q0 -32 28 -50.5t74 -18.5t74 18.5zM279.5 620.5q8.5 14.5 8.5 26.5q0 11 -7.5 17.5t-20.5 6.5q-10 0 -20.5 -5.5t-17.5 -15.5l-67 54q39 58 115 58q51 0 85 -27t34 -65q0 -41 -40 -88h-97q19 24 27.5 38.5z" />
    <glyph glyph-name="uni0203" unicode="&#x203;" horiz-adv-x="564" 
d="M381 49q-22 -30 -60 -45.5t-88 -15.5q-88 0 -140 43t-52 118q0 73 55 116.5t147 43.5q42 0 75.5 -12t54.5 -33v49q0 49 -29 74.5t-82 25.5q-76 0 -111 -60l-90 70q31 53 84.5 78.5t120.5 25.5q64 0 117.5 -23t85 -69t31.5 -112v-323h-119v49zM348 99.5q28 18.5 28 50.5
t-28 50.5t-74 18.5t-74 -18t-28 -51q0 -32 28 -50.5t74 -18.5t74 18.5zM394.5 705.5q45.5 -37.5 51.5 -105.5h-108q-8 53 -60 53t-60 -53h-109q6 68 52 105.5t117 37.5t116.5 -37.5z" />
    <glyph glyph-name="uni0251" unicode="&#x251;" horiz-adv-x="622" 
d="M156.5 23q-51.5 35 -80.5 97t-29 138t29 137.5t80.5 96.5t114.5 35q102 0 155 -86v74h127v-515h-127v74q-53 -86 -155 -86q-63 0 -114.5 35zM393.5 142.5q34.5 41.5 34.5 115.5t-34.5 114.5t-90.5 40.5q-57 0 -91 -40.5t-34 -114.5t34 -115.5t91 -41.5q56 0 90.5 41.5z
" />
    <glyph glyph-name="uni0252" unicode="&#x252;" horiz-adv-x="622" 
d="M196 74v-74h-127v515h127v-74q53 86 155 86q64 0 114.5 -35t79.5 -96t29 -138t-29 -138.5t-79.5 -96.5t-114.5 -35q-102 0 -155 86zM409.5 142.5q34.5 41.5 34.5 115.5t-34.5 114.5t-90.5 40.5q-57 0 -91 -40.5t-34 -114.5t34 -115.5t91 -41.5q56 0 90.5 41.5z" />
    <glyph glyph-name="amacron" unicode="&#x101;" horiz-adv-x="564" 
d="M381 49q-22 -30 -60 -45.5t-88 -15.5q-88 0 -140 43t-52 118q0 73 55 116.5t147 43.5q42 0 75.5 -12t54.5 -33v49q0 49 -29 74.5t-82 25.5q-76 0 -111 -60l-90 70q31 53 84.5 78.5t120.5 25.5q64 0 117.5 -23t85 -69t31.5 -112v-323h-119v49zM348 99.5q28 18.5 28 50.5
t-28 50.5t-74 18.5t-74 -18t-28 -51q0 -32 28 -50.5t74 -18.5t74 18.5zM109 718h339v-100h-339v100z" />
    <glyph glyph-name="aogonek" unicode="&#x105;" horiz-adv-x="564" 
d="M381 49q-22 -30 -60 -45.5t-88 -15.5q-88 0 -140 43t-52 118q0 73 55 116.5t147 43.5q42 0 75.5 -12t54.5 -33v49q0 49 -29 74.5t-82 25.5q-76 0 -111 -60l-90 70q31 53 84.5 78.5t120.5 25.5q64 0 117.5 -23t85 -69t31.5 -112v-323h-1l-21 -25q-13 -14 -13 -27
q0 -9 7.5 -14.5t19.5 -5.5h28v-107h-71q-45 0 -71.5 24t-26.5 57q0 19 10 39t28 37l26 22h-34v49zM348 99.5q28 18.5 28 50.5t-28 50.5t-74 18.5t-74 -18t-28 -51q0 -32 28 -50.5t74 -18.5t74 18.5z" />
    <glyph glyph-name="uni1E9A" unicode="&#x1e9a;" horiz-adv-x="567" 
d="M279 643q13 12 13 31t-13 30.5t-36 11.5v71q58 0 94.5 -32.5t36.5 -80.5t-36.5 -80.5t-94.5 -32.5v70q23 0 36 12zM385 49q-22 -30 -60 -45.5t-88 -15.5q-88 0 -140.5 43.5t-52.5 117.5q0 73 55 116.5t147 43.5q83 0 130 -45v49q0 49 -29 74.5t-82 25.5q-37 0 -65 -15.5
t-45 -44.5l-91 70q31 53 84.5 78.5t121.5 25.5q64 0 117 -23t85 -69t32 -112v-323h-119v49zM351 99.5q28 18.5 28 50.5t-28 50.5t-74 18.5t-74 -18t-28 -51q0 -32 28 -50.5t74 -18.5t74 18.5z" />
    <glyph glyph-name="aring" unicode="&#xe5;" horiz-adv-x="564" 
d="M381 49q-22 -30 -60 -45.5t-88 -15.5q-88 0 -140 43t-52 118q0 73 55 116.5t147 43.5q42 0 75.5 -12t54.5 -33v49q0 49 -29 74.5t-82 25.5q-76 0 -111 -60l-90 70q31 53 84.5 78.5t120.5 25.5q64 0 117.5 -23t85 -69t31.5 -112v-323h-119v49zM348 99.5q28 18.5 28 50.5
t-28 50.5t-74 18.5t-74 -18t-28 -51q0 -32 28 -50.5t74 -18.5t74 18.5zM177 613q-38 32 -38 81q0 48 38.5 80.5t100.5 32.5q63 0 101 -32t38 -81t-38 -81t-101 -32t-101 32zM321 663q14 12 14 31t-14.5 30.5t-42.5 11.5t-42 -11.5t-14 -30.5t14 -31t42 -12q29 0 43 12z" />
    <glyph glyph-name="aringacute" unicode="&#x1fb;" horiz-adv-x="564" 
d="M381 49q-22 -30 -60 -45.5t-88 -15.5q-88 0 -140 43t-52 118q0 73 55 116.5t147 43.5q42 0 75.5 -12t54.5 -33v49q0 49 -29 74.5t-82 25.5q-76 0 -111 -60l-90 70q31 53 84.5 78.5t120.5 25.5q64 0 117.5 -23t85 -69t31.5 -112v-323h-119v49zM348 99.5q28 18.5 28 50.5
t-28 50.5t-74 18.5t-74 -18t-28 -51q0 -32 28 -50.5t74 -18.5t74 18.5zM178 601q-38 32 -38 80q0 49 37.5 81t100.5 32t101 -32t38 -81q0 -48 -38 -80t-101 -32q-62 0 -100 32zM320.5 651q14.5 12 14.5 30q0 19 -14 31t-43 12q-28 0 -42 -12t-14 -31q0 -18 14 -30t42 -12
t42.5 12zM191 819l117 139h143l-136 -139h-124z" />
    <glyph glyph-name="uni1E01" unicode="&#x1e01;" horiz-adv-x="564" 
d="M381 49q-22 -30 -60 -45.5t-88 -15.5q-88 0 -140 43t-52 118q0 73 55 116.5t147 43.5q42 0 75.5 -12t54.5 -33v49q0 49 -29 74.5t-82 25.5q-76 0 -111 -60l-90 70q31 53 84.5 78.5t120.5 25.5q64 0 117.5 -23t85 -69t31.5 -112v-323h-119v49zM348 99.5q28 18.5 28 50.5
t-28 50.5t-74 18.5t-74 -18t-28 -51q0 -32 28 -50.5t74 -18.5t74 18.5zM179 -252q-38 32 -38 80q0 49 38 81t101 32t101 -32t38 -81q0 -48 -38 -80t-101 -32t-101 32zM322.5 -202q14.5 12 14.5 30q0 19 -14.5 31t-42.5 12t-42 -12t-14 -31q0 -18 14 -30t42 -12t42.5 12z" />
    <glyph glyph-name="uni2C65" unicode="&#x2c65;" horiz-adv-x="564" 
d="M162 -3q-56 15 -88.5 54.5t-32.5 97.5q0 73 55 116.5t147 43.5q42 0 75.5 -12t54.5 -33v49q0 49 -29 74.5t-82 25.5q-76 0 -111 -60l-90 70q31 53 84.5 78.5t120.5 25.5q33 0 63 -6l49 152h88l-58 -181q44 -26 68 -68.5t24 -100.5v-323h-119v49q-43 -56 -133 -61
l-47 -146h-88zM348 99.5q28 18.5 28 50.5t-28 50.5t-74 18.5t-74 -18t-28 -51q0 -32 28 -50.5t74 -18.5t74 18.5z" />
    <glyph glyph-name="atilde" unicode="&#xe3;" horiz-adv-x="564" 
d="M381 49q-22 -30 -60 -45.5t-88 -15.5q-88 0 -140 43t-52 118q0 73 55 116.5t147 43.5q42 0 75.5 -12t54.5 -33v49q0 49 -29 74.5t-82 25.5q-76 0 -111 -60l-90 70q31 53 84.5 78.5t120.5 25.5q64 0 117.5 -23t85 -69t31.5 -112v-323h-119v49zM348 99.5q28 18.5 28 50.5
t-28 50.5t-74 18.5t-74 -18t-28 -51q0 -32 28 -50.5t74 -18.5t74 18.5zM306 604q-20 8 -42 21q-27 16 -40 16t-20 -11.5t-7 -28.5h-102q0 39 16.5 70.5t44.5 49t59 17.5q27 0 46.5 -7.5t42.5 -20.5q27 -16 40 -16t20.5 11t7.5 29h101q0 -39 -16.5 -70.5t-44.5 -49.5t-59 -18
q-27 0 -47 8z" />
    <glyph glyph-name="uni0250" unicode="&#x250;" horiz-adv-x="564" 
d="M183 466q22 30 60 45.5t88 15.5q88 0 140 -43t52 -118q0 -73 -55 -116.5t-147 -43.5q-42 0 -75.5 12t-54.5 33v-49q0 -49 29 -74.5t82 -25.5q76 0 111 60l90 -70q-31 -53 -84.5 -78.5t-120.5 -25.5q-64 0 -117.5 23t-85 69t-31.5 112v323h119v-49zM216 415.5
q-28 -18.5 -28 -50.5t28 -50.5t74 -18.5t74 18t28 51q0 32 -28 50.5t-74 18.5t-74 -18.5z" />
    <glyph glyph-name="ae" unicode="&#xe6;" horiz-adv-x="900" 
d="M521.5 9.5q-47.5 21.5 -80.5 61.5q-26 -40 -75 -61.5t-110 -21.5q-99 0 -157 43t-58 118q0 73 55 116.5t147 43.5q42 0 75.5 -12t54.5 -33v49q0 49 -29 74.5t-82 25.5q-37 0 -65 -16t-45 -45l-91 70q31 52 83.5 78.5t117.5 26.5q56 0 102.5 -21t75.5 -61q31 40 76 61
t101 21q70 0 123.5 -33.5t83.5 -94t30 -140.5q0 -23 -1 -33h-352q7 -65 40 -96.5t88 -31.5q40 0 70.5 15t52.5 49l90 -70q-36 -53 -91.5 -78.5t-122.5 -25.5q-59 0 -106.5 21.5zM348 99.5q28 18.5 28 50.5t-28 50.5t-74 18.5t-74 -18t-28 -51q0 -32 28 -50.5t74 -18.5
t74 18.5zM726 314q-19 110 -109 110q-94 0 -113 -110h222z" />
    <glyph glyph-name="aeacute" unicode="&#x1fd;" horiz-adv-x="900" 
d="M521.5 9.5q-47.5 21.5 -80.5 61.5q-26 -40 -75 -61.5t-110 -21.5q-99 0 -157 43t-58 118q0 73 55 116.5t147 43.5q42 0 75.5 -12t54.5 -33v49q0 49 -29 74.5t-82 25.5q-37 0 -65 -16t-45 -45l-91 70q31 52 83.5 78.5t117.5 26.5q56 0 102.5 -21t75.5 -61q31 40 76 61
t101 21q70 0 123.5 -33.5t83.5 -94t30 -140.5q0 -23 -1 -33h-352q7 -65 40 -96.5t88 -31.5q40 0 70.5 15t52.5 49l90 -70q-36 -53 -91.5 -78.5t-122.5 -25.5q-59 0 -106.5 21.5zM348 99.5q28 18.5 28 50.5t-28 50.5t-74 18.5t-74 -18t-28 -51q0 -32 28 -50.5t74 -18.5
t74 18.5zM726 314q-19 110 -109 110q-94 0 -113 -110h222zM351 598l117 139h143l-135 -139h-125z" />
    <glyph glyph-name="uni01E3" unicode="&#x1e3;" horiz-adv-x="900" 
d="M521.5 9.5q-47.5 21.5 -80.5 61.5q-26 -40 -75 -61.5t-110 -21.5q-99 0 -157 43t-58 118q0 73 55 116.5t147 43.5q42 0 75.5 -12t54.5 -33v49q0 49 -29 74.5t-82 25.5q-37 0 -65 -16t-45 -45l-91 70q31 52 83.5 78.5t117.5 26.5q56 0 102.5 -21t75.5 -61q31 40 76 61
t101 21q70 0 123.5 -33.5t83.5 -94t30 -140.5q0 -23 -1 -33h-352q7 -65 40 -96.5t88 -31.5q40 0 70.5 15t52.5 49l90 -70q-36 -53 -91.5 -78.5t-122.5 -25.5q-59 0 -106.5 21.5zM348 99.5q28 18.5 28 50.5t-28 50.5t-74 18.5t-74 -18t-28 -51q0 -32 28 -50.5t74 -18.5
t74 18.5zM726 314q-19 110 -109 110q-94 0 -113 -110h222zM275 718h339v-100h-339v100z" />
    <glyph glyph-name="b" unicode="b" horiz-adv-x="622" 
d="M196 74v-74h-127v750h127v-309q53 86 155 86q64 0 114.5 -35t79.5 -96t29 -138t-29 -138.5t-79.5 -96.5t-114.5 -35q-102 0 -155 86zM409.5 142.5q34.5 41.5 34.5 115.5t-34.5 114.5t-90.5 40.5q-57 0 -91 -40.5t-34 -114.5t34 -115.5t91 -41.5q56 0 90.5 41.5z" />
    <glyph glyph-name="uni1E03" unicode="&#x1e03;" horiz-adv-x="622" 
d="M196 74v-74h-127v750h127v-309q53 86 155 86q64 0 114.5 -35t79.5 -96t29 -138t-29 -138.5t-79.5 -96.5t-114.5 -35q-102 0 -155 86zM409.5 142.5q34.5 41.5 34.5 115.5t-34.5 114.5t-90.5 40.5q-57 0 -91 -40.5t-34 -114.5t34 -115.5t91 -41.5q56 0 90.5 41.5z
M279 850.5q-23 20.5 -23 55.5t23.5 56.5t58.5 21.5t58.5 -21.5t23.5 -56.5t-23 -55.5t-59 -20.5t-59 20.5z" />
    <glyph glyph-name="uni1E05" unicode="&#x1e05;" horiz-adv-x="622" 
d="M196 74v-74h-127v750h127v-309q53 86 155 86q64 0 114.5 -35t79.5 -96t29 -138t-29 -138.5t-79.5 -96.5t-114.5 -35q-102 0 -155 86zM409.5 142.5q34.5 41.5 34.5 115.5t-34.5 114.5t-90.5 40.5q-57 0 -91 -40.5t-34 -114.5t34 -115.5t91 -41.5q56 0 90.5 41.5z
M252 -190.5q-23 20.5 -23 55.5t23.5 56t58.5 21t58.5 -21t23.5 -56t-23.5 -55.5t-58.5 -20.5q-36 0 -59 20.5z" />
    <glyph glyph-name="uniA7B5" unicode="&#xa7b5;" horiz-adv-x="609" 
d="M92.5 646.5q24.5 51.5 76 83.5t128.5 32q66 0 118 -28.5t81 -77.5t29 -108q0 -61 -24 -103t-64 -59q53 -14 89.5 -63.5t36.5 -114.5q0 -66 -26.5 -116t-74.5 -77t-111 -27q-105 0 -156 86v-284h-127v743q0 62 24.5 113.5zM401 131.5q32 29.5 32 83.5t-32 83t-87 29h-50
v110h31q43 0 71.5 29t28.5 76t-28.5 76.5t-71.5 29.5q-48 0 -74 -30.5t-26 -81.5v-294q0 -65 31 -102.5t88 -37.5q55 0 87 29.5z" />
    <glyph glyph-name="uni0253" unicode="&#x253;" horiz-adv-x="622" 
d="M120.5 713.5q51.5 48.5 134.5 48.5q91 0 147 -58l-64 -84q-31 30 -72 30q-31 0 -50.5 -20t-19.5 -62v-127q53 86 155 86q64 0 114.5 -35t79.5 -96t29 -138t-29 -138.5t-79.5 -96.5t-114.5 -35q-102 0 -155 86v-74h-127v574q0 91 51.5 139.5zM409.5 142.5
q34.5 41.5 34.5 115.5t-34.5 114.5t-90.5 40.5q-57 0 -91 -40.5t-34 -114.5t34 -115.5t91 -41.5q56 0 90.5 41.5z" />
    <glyph glyph-name="uni0298" unicode="&#x298;" horiz-adv-x="792" 
d="M216.5 35.5q-78.5 47.5 -122 135t-43.5 204.5t43.5 204.5t122 135t179.5 47.5q102 0 180.5 -47.5t122 -135t43.5 -204.5t-43.5 -204.5t-122 -135t-180.5 -47.5q-101 0 -179.5 47.5zM507.5 135q48.5 32 76 93.5t27.5 146.5q0 86 -27.5 147t-76 93t-111.5 32t-111.5 -32
t-76 -93.5t-27.5 -146.5t27.5 -146.5t76.5 -93.5t111 -32q63 0 111.5 32zM345 322.5q-20 20.5 -20 52.5t20 53t51 21q32 0 52 -21t20 -53t-20 -52.5t-52 -20.5q-31 0 -51 20.5z" />
    <glyph glyph-name="uni1E07" unicode="&#x1e07;" horiz-adv-x="622" 
d="M196 74v-74h-127v750h127v-309q53 86 155 86q64 0 114.5 -35t79.5 -96t29 -138t-29 -138.5t-79.5 -96.5t-114.5 -35q-102 0 -155 86zM409.5 142.5q34.5 41.5 34.5 115.5t-34.5 114.5t-90.5 40.5q-57 0 -91 -40.5t-34 -114.5t34 -115.5t91 -41.5q56 0 90.5 41.5zM142 -74
h339v-99h-339v99z" />
    <glyph glyph-name="uni0180" unicode="&#x180;" horiz-adv-x="622" 
d="M69 573h-60v90h60v87h127v-87h118v-90h-118v-132q53 86 155 86q64 0 114.5 -35t79.5 -96t29 -138t-29 -138.5t-79.5 -96.5t-114.5 -35q-102 0 -155 86v-74h-127v573zM409.5 142.5q34.5 41.5 34.5 115.5t-34.5 114.5t-90.5 40.5q-57 0 -91 -40.5t-34 -114.5t34 -115.5
t91 -41.5q56 0 90.5 41.5z" />
    <glyph glyph-name="c" unicode="c" horiz-adv-x="563" 
d="M173 21.5q-59 33.5 -92.5 95t-33.5 141.5t33.5 141t92.5 94.5t131 33.5q79 0 138 -33.5t89 -102.5l-107 -58q-18 43 -48 62t-72 19q-53 0 -89.5 -40.5t-36.5 -115.5q0 -76 36.5 -116t89.5 -40q42 0 72 19t48 62l107 -59q-30 -68 -89.5 -102t-137.5 -34q-72 0 -131 33.5z
" />
    <glyph glyph-name="cacute" unicode="&#x107;" horiz-adv-x="563" 
d="M173 21.5q-59 33.5 -92.5 95t-33.5 141.5t33.5 141t92.5 94.5t131 33.5q79 0 138 -33.5t89 -102.5l-107 -58q-18 43 -48 62t-72 19q-53 0 -89.5 -40.5t-36.5 -115.5q0 -76 36.5 -116t89.5 -40q42 0 72 19t48 62l107 -59q-30 -68 -89.5 -102t-137.5 -34q-72 0 -131 33.5z
M206 598l117 139h143l-135 -139h-125z" />
    <glyph glyph-name="ccaron" unicode="&#x10d;" horiz-adv-x="563" 
d="M173 21.5q-59 33.5 -92.5 95t-33.5 141.5t33.5 141t92.5 94.5t131 33.5q79 0 138 -33.5t89 -102.5l-107 -58q-18 43 -48 62t-72 19q-53 0 -89.5 -40.5t-36.5 -115.5q0 -76 36.5 -116t89.5 -40q42 0 72 19t48 62l107 -59q-30 -68 -89.5 -102t-137.5 -34q-72 0 -131 33.5z
M112 737h131l20 -24q29 -31 35 -43h3q3 4 29 37l26 30h131l-130 -139h-116z" />
    <glyph glyph-name="ccedilla" unicode="&#xe7;" horiz-adv-x="563" 
d="M202 -72h57q12 0 19 5.5t7 14.5q0 12 -12 27l-15 17q-61 10 -109 45.5t-75 92.5t-27 128q0 80 33.5 141t92.5 94.5t131 33.5q79 0 138 -33.5t89 -102.5l-107 -58q-18 43 -48 62t-72 19q-53 0 -89.5 -40.5t-36.5 -115.5q0 -76 36.5 -116t89.5 -40q42 0 72 19t48 62
l107 -59q-26 -58 -74 -91.5t-111 -41.5l15 -13q38 -35 38 -76q0 -33 -26.5 -57t-71.5 -24h-99v107z" />
    <glyph glyph-name="uni1E09" unicode="&#x1e09;" horiz-adv-x="563" 
d="M202 -72h57q12 0 19 5.5t7 14.5q0 12 -12 27l-15 17q-61 10 -109 45.5t-75 92.5t-27 128q0 80 33.5 141t92.5 94.5t131 33.5q79 0 138 -33.5t89 -102.5l-107 -58q-18 43 -48 62t-72 19q-53 0 -89.5 -40.5t-36.5 -115.5q0 -76 36.5 -116t89.5 -40q42 0 72 19t48 62
l107 -59q-26 -58 -74 -91.5t-111 -41.5l15 -13q38 -35 38 -76q0 -33 -26.5 -57t-71.5 -24h-99v107zM206 598l117 139h143l-135 -139h-125z" />
    <glyph glyph-name="ccircumflex" unicode="&#x109;" horiz-adv-x="563" 
d="M173 21.5q-59 33.5 -92.5 95t-33.5 141.5t33.5 141t92.5 94.5t131 33.5q79 0 138 -33.5t89 -102.5l-107 -58q-18 43 -48 62t-72 19q-53 0 -89.5 -40.5t-36.5 -115.5q0 -76 36.5 -116t89.5 -40q42 0 72 19t48 62l107 -59q-30 -68 -89.5 -102t-137.5 -34q-72 0 -131 33.5z
M242 738h116l129 -139h-131l-20 24q-29 31 -35 43h-3q-3 -4 -29 -37l-26 -30h-131z" />
    <glyph glyph-name="cdotaccent" unicode="&#x10b;" horiz-adv-x="563" 
d="M173 21.5q-59 33.5 -92.5 95t-33.5 141.5t33.5 141t92.5 94.5t131 33.5q79 0 138 -33.5t89 -102.5l-107 -58q-18 43 -48 62t-72 19q-53 0 -89.5 -40.5t-36.5 -115.5q0 -76 36.5 -116t89.5 -40q42 0 72 19t48 62l107 -59q-30 -68 -89.5 -102t-137.5 -34q-72 0 -131 33.5z
M240 615.5q-23 20.5 -23 55.5t23.5 56.5t58.5 21.5t58.5 -21.5t23.5 -56.5t-23 -55.5t-59 -20.5t-59 20.5z" />
    <glyph glyph-name="uniAB53" unicode="&#xab53;" horiz-adv-x="549" 
d="M202 159l-182 356h144l75 -160q32 -69 35 -98h3q2 26 35 98l75 160h142l-181 -353l195 -372h-144l-86 176q-33 68 -37 99h-3q-1 -15 -10.5 -37.5t-28.5 -61.5l-86 -176h-142z" />
    <glyph glyph-name="uni0188" unicode="&#x188;" horiz-adv-x="564" 
d="M173 21.5q-59 33.5 -92.5 95t-33.5 141.5t29.5 141t82 94.5t117.5 33.5q61 0 95 -23q-27 53 -27 105q0 71 41 110t106 39q87 0 141 -56l-64 -83q-12 15 -24.5 21t-27.5 6q-23 0 -38 -15.5t-15 -45.5q0 -31 11 -65.5t35 -83.5l21 -45l-107 -58q-16 40 -46 60.5t-73 20.5
q-54 0 -90 -40t-36 -116t36.5 -116t89.5 -40q42 0 72 19t48 62l107 -59q-30 -68 -89.5 -102t-137.5 -34q-72 0 -131 33.5z" />
    <glyph glyph-name="uni023C" unicode="&#x23c;" horiz-adv-x="563" 
d="M180 18q-61 32 -97 95t-36 145q0 80 33.5 141t92.5 94.5t131 33.5q14 0 38 -2l47 148h88l-54 -170q73 -33 108 -112l-107 -58q-18 43 -48 62t-72 19q-53 0 -89.5 -40.5t-36.5 -115.5q0 -76 36.5 -116t89.5 -40q42 0 72 19t48 62l107 -59q-30 -68 -89.5 -102t-137.5 -34
q-23 0 -44 3l-48 -149h-88z" />
    <glyph glyph-name="d" unicode="d" horiz-adv-x="622" 
d="M156.5 23q-51.5 35 -80.5 97t-29 138t29 137.5t80.5 96.5t114.5 35q102 0 155 -86v309h127v-750h-127v74q-53 -86 -155 -86q-63 0 -114.5 35zM393.5 142.5q34.5 41.5 34.5 115.5t-34.5 114.5t-90.5 40.5q-57 0 -91 -40.5t-34 -114.5t34 -115.5t91 -41.5q56 0 90.5 41.5z
" />
    <glyph glyph-name="uni0238" unicode="&#x238;" horiz-adv-x="979" 
d="M553 75v-75h-127v74q-53 -86 -155 -86q-63 0 -114.5 35t-80.5 97t-29 138t29 137.5t80.5 96.5t114.5 35q102 0 155 -86v309h127v-310q53 87 155 87q64 0 115 -35t80 -96.5t29 -137.5t-29 -138t-80 -97t-115 -35q-102 0 -155 87zM393.5 142.5q34.5 41.5 34.5 115.5
t-34.5 114.5t-90.5 40.5q-57 0 -91 -40.5t-34 -114.5t34 -115.5t91 -41.5q56 0 90.5 41.5zM767.5 142.5q34.5 41.5 34.5 115.5t-34.5 114.5t-90.5 40.5q-57 0 -91 -40.5t-34 -114.5t34 -115.5t91 -41.5q56 0 90.5 41.5z" />
    <glyph glyph-name="dcaron" unicode="&#x10f;" horiz-adv-x="695" 
d="M156.5 23q-51.5 35 -80.5 97t-29 138t29 137.5t80.5 96.5t114.5 35q102 0 155 -86v309h127v-750h-127v74q-53 -86 -155 -86q-63 0 -114.5 35zM393.5 142.5q34.5 41.5 34.5 115.5t-34.5 114.5t-90.5 40.5q-57 0 -91 -40.5t-34 -114.5t34 -115.5t91 -41.5q56 0 90.5 41.5z
M733 750v-119l-30 -115h-75v234h105z" />
    <glyph glyph-name="uni1E11" unicode="&#x1e11;" horiz-adv-x="622" 
d="M156.5 23q-51.5 35 -80.5 97t-29 138t29 137.5t80.5 96.5t114.5 35q102 0 155 -86v309h127v-750h-127v74q-53 -86 -155 -86q-63 0 -114.5 35zM393.5 142.5q34.5 41.5 34.5 115.5t-34.5 114.5t-90.5 40.5q-57 0 -91 -40.5t-34 -114.5t34 -115.5t91 -41.5q56 0 90.5 41.5z
M253 -235l47 61q-24 5 -37.5 20t-13.5 36q0 27 21 43.5t55 16.5t55 -17t21 -45q0 -33 -29 -72l-56 -78z" />
    <glyph glyph-name="uni1E13" unicode="&#x1e13;" horiz-adv-x="622" 
d="M156.5 23q-51.5 35 -80.5 97t-29 138t29 137.5t80.5 96.5t114.5 35q102 0 155 -86v309h127v-750h-127v74q-53 -86 -155 -86q-63 0 -114.5 35zM393.5 142.5q34.5 41.5 34.5 115.5t-34.5 114.5t-90.5 40.5q-57 0 -91 -40.5t-34 -114.5t34 -115.5t91 -41.5q56 0 90.5 41.5z
M512 -214h-131l-26 30q-26 33 -29 37h-3q-4 -8 -31 -39l-23 -28h-131l129 139h116z" />
    <glyph glyph-name="dcroat" unicode="&#x111;" horiz-adv-x="620" 
d="M156.5 23q-51.5 35 -80.5 97t-29 138t29 137.5t80.5 96.5t114.5 35q102 0 155 -86v132h-120v90h120v87h127v-87h58v-90h-58v-573h-127v74q-53 -86 -155 -86q-63 0 -114.5 35zM393.5 142.5q34.5 41.5 34.5 115.5t-34.5 114.5t-90.5 40.5q-57 0 -91 -40.5t-34 -114.5
t34 -115.5t91 -41.5q56 0 90.5 41.5z" />
    <glyph glyph-name="uni1E0B" unicode="&#x1e0b;" horiz-adv-x="622" 
d="M156.5 23q-51.5 35 -80.5 97t-29 138t29 137.5t80.5 96.5t114.5 35q102 0 155 -86v309h127v-750h-127v74q-53 -86 -155 -86q-63 0 -114.5 35zM393.5 142.5q34.5 41.5 34.5 115.5t-34.5 114.5t-90.5 40.5q-57 0 -91 -40.5t-34 -114.5t34 -115.5t91 -41.5q56 0 90.5 41.5z
M251 850.5q-23 20.5 -23 55.5t23.5 56.5t58.5 21.5t58.5 -21.5t23.5 -56.5t-23 -55.5t-59 -20.5t-59 20.5z" />
    <glyph glyph-name="uni1E0D" unicode="&#x1e0d;" horiz-adv-x="622" 
d="M156.5 23q-51.5 35 -80.5 97t-29 138t29 137.5t80.5 96.5t114.5 35q102 0 155 -86v309h127v-750h-127v74q-53 -86 -155 -86q-63 0 -114.5 35zM393.5 142.5q34.5 41.5 34.5 115.5t-34.5 114.5t-90.5 40.5q-57 0 -91 -40.5t-34 -114.5t34 -115.5t91 -41.5q56 0 90.5 41.5z
M266 -190.5q-23 20.5 -23 55.5t23.5 56t58.5 21t58.5 -21t23.5 -56t-23.5 -55.5t-58.5 -20.5q-36 0 -59 20.5z" />
    <glyph glyph-name="uni0257" unicode="&#x257;" horiz-adv-x="622" 
d="M426 74q-53 -86 -155 -86q-63 0 -114.5 35t-80.5 97t-29 138t29 137.5t80.5 96.5t114.5 35q102 0 155 -86v141q0 88 46.5 134t122.5 46q84 0 135 -56l-64 -83q-25 29 -58 29q-24 0 -39.5 -15.5t-15.5 -46.5v-590h-127v74zM393.5 142.5q34.5 41.5 34.5 115.5t-34.5 114.5
t-90.5 40.5q-57 0 -91 -40.5t-34 -114.5t34 -115.5t91 -41.5q56 0 90.5 41.5z" />
    <glyph glyph-name="uni1E0F" unicode="&#x1e0f;" horiz-adv-x="622" 
d="M156.5 23q-51.5 35 -80.5 97t-29 138t29 137.5t80.5 96.5t114.5 35q102 0 155 -86v309h127v-750h-127v74q-53 -86 -155 -86q-63 0 -114.5 35zM393.5 142.5q34.5 41.5 34.5 115.5t-34.5 114.5t-90.5 40.5q-57 0 -91 -40.5t-34 -114.5t34 -115.5t91 -41.5q56 0 90.5 41.5z
M156 -74h339v-99h-339v99z" />
    <glyph glyph-name="uni0256" unicode="&#x256;" horiz-adv-x="622" 
d="M156.5 23q-51.5 35 -80.5 97t-29 138t29 137.5t80.5 96.5t114.5 35q102 0 155 -86v309h127v-803q0 -32 15.5 -47t39.5 -15q33 0 58 29l65 -83q-53 -56 -136 -56q-76 0 -122.5 46t-46.5 134v119q-53 -86 -155 -86q-63 0 -114.5 35zM393.5 142.5q34.5 41.5 34.5 115.5
t-34.5 114.5t-90.5 40.5q-57 0 -91 -40.5t-34 -114.5t34 -115.5t91 -41.5q56 0 90.5 41.5z" />
    <glyph glyph-name="uni01F3" unicode="&#x1f3;" horiz-adv-x="1132" 
d="M156.5 23q-51.5 35 -80.5 97t-29 138t29 137.5t80.5 96.5t114.5 35q102 0 155 -86v309h127v-750h-127v74q-53 -86 -155 -86q-63 0 -114.5 35zM393.5 142.5q34.5 41.5 34.5 115.5t-34.5 114.5t-90.5 40.5q-57 0 -91 -40.5t-34 -114.5t34 -115.5t91 -41.5q56 0 90.5 41.5z
M666 93l210 261q39 47 54 55l-1 3q-18 -7 -78 -7h-175v110h404v-95l-204 -259q-39 -46 -55 -55l1 -3q18 7 77 7h186v-110h-419v93z" />
    <glyph glyph-name="uni01C6" unicode="&#x1c6;" horiz-adv-x="1132" 
d="M156.5 23q-51.5 35 -80.5 97t-29 138t29 137.5t80.5 96.5t114.5 35q102 0 155 -86v309h127v-750h-127v74q-53 -86 -155 -86q-63 0 -114.5 35zM393.5 142.5q34.5 41.5 34.5 115.5t-34.5 114.5t-90.5 40.5q-57 0 -91 -40.5t-34 -114.5t34 -115.5t91 -41.5q56 0 90.5 41.5z
M666 93l210 261q39 47 54 55l-1 3q-18 -7 -78 -7h-175v110h404v-95l-204 -259q-39 -46 -55 -55l1 -3q18 7 77 7h186v-110h-419v93zM692 737h131l20 -24q29 -31 35 -43h3q3 4 29 37l26 30h131l-130 -139h-116z" />
    <glyph glyph-name="eth" unicode="&#xf0;" horiz-adv-x="598" 
d="M170.5 21.5q-57.5 33.5 -90.5 92.5t-33 133q0 71 29 127t81.5 87.5t121.5 31.5q20 0 44 -6l-42 69h-163v84h112l-68 110h148l64 -110h151v-84h-102l69 -119q59 -98 59 -191q0 -74 -33 -133t-90.5 -92t-128.5 -33t-128.5 33.5zM387.5 139q33.5 37 33.5 104t-33.5 104.5
t-88.5 37.5q-54 0 -88 -37.5t-34 -104.5q0 -66 34 -103.5t88 -37.5q55 0 88.5 37z" />
    <glyph glyph-name="e" unicode="e" horiz-adv-x="575" 
d="M170 21.5q-58 33.5 -90.5 94.5t-32.5 142q0 80 31.5 141t87 94.5t127.5 33.5q69 0 123 -33.5t84 -94t30 -140.5q0 -23 -1 -33h-351q7 -64 40 -96t87 -32q40 0 70.5 15t52.5 49l89 -70q-36 -52 -91 -78t-122 -26q-76 0 -134 33.5zM401 314q-9 55 -37.5 82.5t-71.5 27.5
q-45 0 -74 -28t-38 -82h221z" />
    <glyph glyph-name="eacute" unicode="&#xe9;" horiz-adv-x="575" 
d="M170 21.5q-58 33.5 -90.5 94.5t-32.5 142q0 80 31.5 141t87 94.5t127.5 33.5q69 0 123 -33.5t84 -94t30 -140.5q0 -23 -1 -33h-351q7 -64 40 -96t87 -32q40 0 70.5 15t52.5 49l89 -70q-36 -52 -91 -78t-122 -26q-76 0 -134 33.5zM401 314q-9 55 -37.5 82.5t-71.5 27.5
q-45 0 -74 -28t-38 -82h221zM200 598l117 139h143l-135 -139h-125z" />
    <glyph glyph-name="ebreve" unicode="&#x115;" horiz-adv-x="575" 
d="M170 21.5q-58 33.5 -90.5 94.5t-32.5 142q0 80 31.5 141t87 94.5t127.5 33.5q69 0 123 -33.5t84 -94t30 -140.5q0 -23 -1 -33h-351q7 -64 40 -96t87 -32q40 0 70.5 15t52.5 49l89 -70q-36 -52 -91 -78t-122 -26q-76 0 -134 33.5zM401 314q-9 55 -37.5 82.5t-71.5 27.5
q-45 0 -74 -28t-38 -82h221zM170 631.5q-47 37.5 -53 105.5h108q4 -30 21 -43t47 -13q29 0 46 13t21 43h108q-6 -68 -53 -105.5t-122 -37.5q-76 0 -123 37.5z" />
    <glyph glyph-name="ecaron" unicode="&#x11b;" horiz-adv-x="575" 
d="M170 21.5q-58 33.5 -90.5 94.5t-32.5 142q0 80 31.5 141t87 94.5t127.5 33.5q69 0 123 -33.5t84 -94t30 -140.5q0 -23 -1 -33h-351q7 -64 40 -96t87 -32q40 0 70.5 15t52.5 49l89 -70q-36 -52 -91 -78t-122 -26q-76 0 -134 33.5zM401 314q-9 55 -37.5 82.5t-71.5 27.5
q-45 0 -74 -28t-38 -82h221zM106 737h131l20 -24q29 -31 35 -43h3q3 4 29 37l26 30h131l-130 -139h-116z" />
    <glyph glyph-name="uni0229" unicode="&#x229;" horiz-adv-x="575" 
d="M198 -72h57q12 0 19 5.5t7 14.5q0 12 -12 27l-15 17q-95 16 -151 87t-56 179q0 80 31.5 141t87 94.5t127.5 33.5q69 0 123 -33.5t84 -94t30 -140.5q0 -23 -1 -33h-351q7 -64 40 -96t87 -32q40 0 70.5 15t52.5 49l89 -70q-30 -44 -74.5 -69.5t-99.5 -32.5l14 -12
q38 -35 38 -76q0 -33 -26.5 -57t-71.5 -24h-99v107zM401 314q-9 55 -37.5 82.5t-71.5 27.5q-45 0 -74 -28t-38 -82h221z" />
    <glyph glyph-name="uni1E1D" unicode="&#x1e1d;" horiz-adv-x="575" 
d="M198 -72h57q12 0 19 5.5t7 14.5q0 12 -12 27l-15 17q-95 16 -151 87t-56 179q0 80 31.5 141t87 94.5t127.5 33.5q69 0 123 -33.5t84 -94t30 -140.5q0 -23 -1 -33h-351q7 -64 40 -96t87 -32q40 0 70.5 15t52.5 49l89 -70q-30 -44 -74.5 -69.5t-99.5 -32.5l14 -12
q38 -35 38 -76q0 -33 -26.5 -57t-71.5 -24h-99v107zM170 631.5q-47 37.5 -53 105.5h108q4 -30 21 -43t47 -13q29 0 46 13t21 43h108q-6 -68 -53 -105.5t-122 -37.5q-76 0 -123 37.5zM401 314q-9 55 -37.5 82.5t-71.5 27.5q-45 0 -74 -28t-38 -82h221z" />
    <glyph glyph-name="ecircumflex" unicode="&#xea;" horiz-adv-x="575" 
d="M170 21.5q-58 33.5 -90.5 94.5t-32.5 142q0 80 31.5 141t87 94.5t127.5 33.5q69 0 123 -33.5t84 -94t30 -140.5q0 -23 -1 -33h-351q7 -64 40 -96t87 -32q40 0 70.5 15t52.5 49l89 -70q-36 -52 -91 -78t-122 -26q-76 0 -134 33.5zM401 314q-9 55 -37.5 82.5t-71.5 27.5
q-45 0 -74 -28t-38 -82h221zM236 738h116l129 -139h-131l-20 24q-29 31 -35 43h-3q-3 -4 -29 -37l-26 -30h-131z" />
    <glyph glyph-name="uni1EBF" unicode="&#x1ebf;" horiz-adv-x="575" 
d="M170 21.5q-58 33.5 -90.5 94.5t-32.5 142q0 80 31.5 141t87 94.5t127.5 33.5q69 0 123 -33.5t84 -94t30 -140.5q0 -23 -1 -33h-351q7 -64 40 -96t87 -32q40 0 70.5 15t52.5 49l89 -70q-36 -52 -91 -78t-122 -26q-76 0 -134 33.5zM401 314q-9 55 -37.5 82.5t-71.5 27.5
q-45 0 -74 -28t-38 -82h221zM238 722h115l129 -139h-131l-23 27q-28 34 -31 40h-4q-4 -8 -31 -39l-23 -28h-131zM496 813h136l-96 -131h-112z" />
    <glyph glyph-name="uni1E19" unicode="&#x1e19;" horiz-adv-x="575" 
d="M170 21.5q-58 33.5 -90.5 94.5t-32.5 142q0 80 31.5 141t87 94.5t127.5 33.5q69 0 123 -33.5t84 -94t30 -140.5q0 -23 -1 -33h-351q7 -64 40 -96t87 -32q40 0 70.5 15t52.5 49l89 -70q-36 -52 -91 -78t-122 -26q-76 0 -134 33.5zM401 314q-9 55 -37.5 82.5t-71.5 27.5
q-45 0 -74 -28t-38 -82h221zM475 -214h-131l-26 30q-26 33 -29 37h-3q-4 -8 -31 -39l-23 -28h-131l129 139h116z" />
    <glyph glyph-name="uni1EC7" unicode="&#x1ec7;" horiz-adv-x="575" 
d="M170 21.5q-58 33.5 -90.5 94.5t-32.5 142q0 80 31.5 141t87 94.5t127.5 33.5q69 0 123 -33.5t84 -94t30 -140.5q0 -23 -1 -33h-351q7 -64 40 -96t87 -32q40 0 70.5 15t52.5 49l89 -70q-36 -52 -91 -78t-122 -26q-76 0 -134 33.5zM401 314q-9 55 -37.5 82.5t-71.5 27.5
q-45 0 -74 -28t-38 -82h221zM229 -190.5q-23 20.5 -23 55.5t23.5 56t58.5 21t58.5 -21t23.5 -56t-23.5 -55.5t-58.5 -20.5q-36 0 -59 20.5zM236 738h116l129 -139h-131l-20 24q-29 31 -35 43h-3q-3 -4 -29 -37l-26 -30h-131z" />
    <glyph glyph-name="uni1EC1" unicode="&#x1ec1;" horiz-adv-x="575" 
d="M170 21.5q-58 33.5 -90.5 94.5t-32.5 142q0 80 31.5 141t87 94.5t127.5 33.5q69 0 123 -33.5t84 -94t30 -140.5q0 -23 -1 -33h-351q7 -64 40 -96t87 -32q40 0 70.5 15t52.5 49l89 -70q-36 -52 -91 -78t-122 -26q-76 0 -134 33.5zM401 314q-9 55 -37.5 82.5t-71.5 27.5
q-45 0 -74 -28t-38 -82h221zM236 722h115l129 -139h-131l-23 27q-28 34 -31 40h-4q-4 -8 -31 -39l-23 -28h-131zM362 813h135l73 -131h-113z" />
    <glyph glyph-name="uni1EC3" unicode="&#x1ec3;" horiz-adv-x="575" 
d="M170 21.5q-58 33.5 -90.5 94.5t-32.5 142q0 80 31.5 141t87 94.5t127.5 33.5q69 0 123 -33.5t84 -94t30 -140.5q0 -23 -1 -33h-351q7 -64 40 -96t87 -32q40 0 70.5 15t52.5 49l89 -70q-36 -52 -91 -78t-122 -26q-76 0 -134 33.5zM401 314q-9 55 -37.5 82.5t-71.5 27.5
q-45 0 -74 -28t-38 -82h221zM235 722h116l129 -139h-131l-26 30q-26 33 -29 37h-3q-6 -12 -35 -43l-20 -24h-131zM439 730.5q8 14.5 8 26.5q0 11 -7 17.5t-20 6.5q-10 0 -20.5 -5.5t-17.5 -15.5l-67 54q39 58 115 58q52 0 85.5 -27t33.5 -65q0 -41 -40 -88h-97
q19 24 27 38.5z" />
    <glyph glyph-name="uni1EC5" unicode="&#x1ec5;" horiz-adv-x="575" 
d="M170 21.5q-58 33.5 -90.5 94.5t-32.5 142q0 80 31.5 141t87 94.5t127.5 33.5q69 0 123 -33.5t84 -94t30 -140.5q0 -23 -1 -33h-351q7 -64 40 -96t87 -32q40 0 70.5 15t52.5 49l89 -70q-36 -52 -91 -78t-122 -26q-76 0 -134 33.5zM401 314q-9 55 -37.5 82.5t-71.5 27.5
q-45 0 -74 -28t-38 -82h221zM235 722h116l129 -139h-131l-26 30q-26 33 -29 37h-3q-4 -8 -31 -39l-23 -28h-131zM320 770.5q-20 6.5 -42 18.5q-26 14 -40 14q-13 0 -20 -10t-7 -25h-102q0 35 16 64t42.5 45.5t55.5 16.5q27 0 46.5 -6.5t43.5 -18.5q11 -5 21 -9t18 -4
q13 0 20.5 9.5t7.5 24.5h101q0 -35 -16 -64t-42 -45.5t-56 -16.5q-27 0 -47 6.5z" />
    <glyph glyph-name="uni0205" unicode="&#x205;" horiz-adv-x="575" 
d="M170 21.5q-58 33.5 -90.5 94.5t-32.5 142q0 80 31.5 141t87 94.5t127.5 33.5q69 0 123 -33.5t84 -94t30 -140.5q0 -23 -1 -33h-351q7 -64 40 -96t87 -32q40 0 70.5 15t52.5 49l89 -70q-36 -52 -91 -78t-122 -26q-76 0 -134 33.5zM401 314q-9 55 -37.5 82.5t-71.5 27.5
q-45 0 -74 -28t-38 -82h221zM10 737h142l120 -139h-120zM222 737h134l114 -139h-121z" />
    <glyph glyph-name="edieresis" unicode="&#xeb;" horiz-adv-x="575" 
d="M170 21.5q-58 33.5 -90.5 94.5t-32.5 142q0 80 31.5 141t87 94.5t127.5 33.5q69 0 123 -33.5t84 -94t30 -140.5q0 -23 -1 -33h-351q7 -64 40 -96t87 -32q40 0 70.5 15t52.5 49l89 -70q-36 -52 -91 -78t-122 -26q-76 0 -134 33.5zM401 314q-9 55 -37.5 82.5t-71.5 27.5
q-45 0 -74 -28t-38 -82h221zM126 614.5q-22 20.5 -22 54.5q0 35 22 55t55 20t54.5 -20t21.5 -55q0 -34 -21.5 -54.5t-54.5 -20.5t-55 20.5zM351 614.5q-22 20.5 -22 54.5q0 35 22 55t55 20t54.5 -20t21.5 -55q0 -34 -21.5 -54.5t-54.5 -20.5t-55 20.5z" />
    <glyph glyph-name="edotaccent" unicode="&#x117;" horiz-adv-x="575" 
d="M170 21.5q-58 33.5 -90.5 94.5t-32.5 142q0 80 31.5 141t87 94.5t127.5 33.5q69 0 123 -33.5t84 -94t30 -140.5q0 -23 -1 -33h-351q7 -64 40 -96t87 -32q40 0 70.5 15t52.5 49l89 -70q-36 -52 -91 -78t-122 -26q-76 0 -134 33.5zM401 314q-9 55 -37.5 82.5t-71.5 27.5
q-45 0 -74 -28t-38 -82h221zM234 615.5q-23 20.5 -23 55.5t23.5 56.5t58.5 21.5t58.5 -21.5t23.5 -56.5t-23 -55.5t-59 -20.5t-59 20.5z" />
    <glyph glyph-name="uni1EB9" unicode="&#x1eb9;" horiz-adv-x="575" 
d="M170 21.5q-58 33.5 -90.5 94.5t-32.5 142q0 80 31.5 141t87 94.5t127.5 33.5q69 0 123 -33.5t84 -94t30 -140.5q0 -23 -1 -33h-351q7 -64 40 -96t87 -32q40 0 70.5 15t52.5 49l89 -70q-36 -52 -91 -78t-122 -26q-76 0 -134 33.5zM401 314q-9 55 -37.5 82.5t-71.5 27.5
q-45 0 -74 -28t-38 -82h221zM229 -190.5q-23 20.5 -23 55.5t23.5 56t58.5 21t58.5 -21t23.5 -56t-23.5 -55.5t-58.5 -20.5q-36 0 -59 20.5z" />
    <glyph glyph-name="egrave" unicode="&#xe8;" horiz-adv-x="575" 
d="M170 21.5q-58 33.5 -90.5 94.5t-32.5 142q0 80 31.5 141t87 94.5t127.5 33.5q69 0 123 -33.5t84 -94t30 -140.5q0 -23 -1 -33h-351q7 -64 40 -96t87 -32q40 0 70.5 15t52.5 49l89 -70q-36 -52 -91 -78t-122 -26q-76 0 -134 33.5zM401 314q-9 55 -37.5 82.5t-71.5 27.5
q-45 0 -74 -28t-38 -82h221zM126 737h143l117 -139h-124z" />
    <glyph glyph-name="uni1EBB" unicode="&#x1ebb;" horiz-adv-x="575" 
d="M170 21.5q-58 33.5 -90.5 94.5t-32.5 142q0 80 31.5 141t87 94.5t127.5 33.5q69 0 123 -33.5t84 -94t30 -140.5q0 -23 -1 -33h-351q7 -64 40 -96t87 -32q40 0 70.5 15t52.5 49l89 -70q-36 -52 -91 -78t-122 -26q-76 0 -134 33.5zM401 314q-9 55 -37.5 82.5t-71.5 27.5
q-45 0 -74 -28t-38 -82h221zM294.5 620.5q8.5 14.5 8.5 26.5q0 11 -7.5 17.5t-20.5 6.5q-10 0 -20.5 -5.5t-17.5 -15.5l-67 54q39 58 115 58q51 0 85 -27t34 -65q0 -41 -40 -88h-97q19 24 27.5 38.5z" />
    <glyph glyph-name="uni0207" unicode="&#x207;" horiz-adv-x="575" 
d="M170 21.5q-58 33.5 -90.5 94.5t-32.5 142q0 80 31.5 141t87 94.5t127.5 33.5q69 0 123 -33.5t84 -94t30 -140.5q0 -23 -1 -33h-351q7 -64 40 -96t87 -32q40 0 70.5 15t52.5 49l89 -70q-36 -52 -91 -78t-122 -26q-76 0 -134 33.5zM401 314q-9 55 -37.5 82.5t-71.5 27.5
q-45 0 -74 -28t-38 -82h221zM409.5 705.5q45.5 -37.5 51.5 -105.5h-108q-8 53 -60 53t-60 -53h-109q6 68 52 105.5t117 37.5t116.5 -37.5z" />
    <glyph glyph-name="emacron" unicode="&#x113;" horiz-adv-x="575" 
d="M170 21.5q-58 33.5 -90.5 94.5t-32.5 142q0 80 31.5 141t87 94.5t127.5 33.5q69 0 123 -33.5t84 -94t30 -140.5q0 -23 -1 -33h-351q7 -64 40 -96t87 -32q40 0 70.5 15t52.5 49l89 -70q-36 -52 -91 -78t-122 -26q-76 0 -134 33.5zM401 314q-9 55 -37.5 82.5t-71.5 27.5
q-45 0 -74 -28t-38 -82h221zM124 718h339v-100h-339v100z" />
    <glyph glyph-name="uni1E17" unicode="&#x1e17;" horiz-adv-x="575" 
d="M170 21.5q-58 33.5 -90.5 94.5t-32.5 142q0 80 31.5 141t87 94.5t127.5 33.5q69 0 123 -33.5t84 -94t30 -140.5q0 -23 -1 -33h-351q7 -64 40 -96t87 -32q40 0 70.5 15t52.5 49l89 -70q-36 -52 -91 -78t-122 -26q-76 0 -134 33.5zM401 314q-9 55 -37.5 82.5t-71.5 27.5
q-45 0 -74 -28t-38 -82h221zM124 679h339v-100h-339v100zM200 734l116 139h144l-136 -139h-124z" />
    <glyph glyph-name="uni1E15" unicode="&#x1e15;" horiz-adv-x="575" 
d="M170 21.5q-58 33.5 -90.5 94.5t-32.5 142q0 80 31.5 141t87 94.5t127.5 33.5q69 0 123 -33.5t84 -94t30 -140.5q0 -23 -1 -33h-351q7 -64 40 -96t87 -32q40 0 70.5 15t52.5 49l89 -70q-36 -52 -91 -78t-122 -26q-76 0 -134 33.5zM401 314q-9 55 -37.5 82.5t-71.5 27.5
q-45 0 -74 -28t-38 -82h221zM124 679h339v-99h-339v99zM135 872h143l116 -139h-124z" />
    <glyph glyph-name="eogonek" unicode="&#x119;" horiz-adv-x="575" 
d="M170 21.5q-58 33.5 -90.5 94.5t-32.5 142q0 80 31.5 141t87 94.5t127.5 33.5q69 0 123 -33.5t84 -94t30 -140.5q0 -23 -1 -33h-351q7 -64 40 -96t87 -32q40 0 70.5 15t52.5 49l89 -70q-19 -28 -45 -49l-33 -45q-13 -18 -20.5 -30t-7.5 -20q0 -9 7 -14.5t19 -5.5h28v-107
h-71q-45 0 -71.5 23t-26.5 55q0 20 10.5 39.5t37.5 49.5l2 3q-21 -3 -42 -3q-76 0 -134 33.5zM401 314q-9 55 -37.5 82.5t-71.5 27.5q-45 0 -74 -28t-38 -82h221z" />
    <glyph glyph-name="uni025B" unicode="&#xa72b;" horiz-adv-x="531" 
d="M159 6.5q-51 18.5 -81.5 55t-30.5 87.5q0 43 26 74t72 49q-39 17 -61 44t-22 61q0 68 58.5 109t152.5 41q70 0 127.5 -28.5t85.5 -79.5l-99 -55q-36 56 -106 56q-41 0 -65 -14.5t-24 -44.5q0 -26 25 -39t65 -13h70v-89h-74q-101 0 -101 -60q0 -34 28.5 -49.5t74.5 -15.5
q42 0 74 19.5t49 51.5l100 -55q-30 -57 -91 -90t-142 -33q-60 0 -111 18.5z" />
    <glyph glyph-name="uni025B" unicode="&#x511;" horiz-adv-x="531" 
d="M159 6.5q-51 18.5 -81.5 55t-30.5 87.5q0 43 26 74t72 49q-39 17 -61 44t-22 61q0 68 58.5 109t152.5 41q70 0 127.5 -28.5t85.5 -79.5l-99 -55q-36 56 -106 56q-41 0 -65 -14.5t-24 -44.5q0 -26 25 -39t65 -13h70v-89h-74q-101 0 -101 -60q0 -34 28.5 -49.5t74.5 -15.5
q42 0 74 19.5t49 51.5l100 -55q-30 -57 -91 -90t-142 -33q-60 0 -111 18.5z" />
    <glyph glyph-name="uni025B" unicode="&#x25b;" horiz-adv-x="531" 
d="M159 6.5q-51 18.5 -81.5 55t-30.5 87.5q0 43 26 74t72 49q-39 17 -61 44t-22 61q0 68 58.5 109t152.5 41q70 0 127.5 -28.5t85.5 -79.5l-99 -55q-36 56 -106 56q-41 0 -65 -14.5t-24 -44.5q0 -26 25 -39t65 -13h70v-89h-74q-101 0 -101 -60q0 -34 28.5 -49.5t74.5 -15.5
q42 0 74 19.5t49 51.5l100 -55q-30 -57 -91 -90t-142 -33q-60 0 -111 18.5z" />
    <glyph glyph-name="uni0283" unicode="&#x283;" horiz-adv-x="301" 
d="M-90 -169l64 83q26 -30 58 -30q24 0 39.5 15.5t15.5 47.5v635q0 88 46.5 134t122.5 46q85 0 136 -56l-64 -83q-26 29 -59 29q-24 0 -39.5 -15.5t-15.5 -46.5v-635q0 -89 -46.5 -134.5t-122.5 -45.5q-84 0 -135 56z" />
    <glyph glyph-name="uni01AA" unicode="&#x1aa;" horiz-adv-x="391" 
d="M232.5 -179.5q-46.5 45.5 -46.5 134.5v537q-37 -27 -79 -27q-31 0 -64.5 13t-57.5 45.5t-24 86.5t28 88t67.5 49t74.5 15q81 0 131.5 -45.5t50.5 -134.5v-635q0 -32 15.5 -47.5t39.5 -15.5q33 0 59 30l64 -83q-51 -56 -136 -56q-76 0 -122.5 45.5zM169 576q17 12 17 35
t-16.5 34.5t-37.5 11.5q-22 0 -38.5 -11.5t-16.5 -34.5t16.5 -35t38.5 -12q20 0 37 12z" />
    <glyph glyph-name="uni0247" unicode="&#x247;" horiz-adv-x="578" 
d="M166 24q-56 34 -87.5 94t-31.5 140t31.5 141t87 94.5t127.5 33.5q14 0 32 -2l48 148h88l-55 -173q58 -32 91 -94.5t33 -146.5q0 -23 -1 -33h-351q7 -64 40 -96t87 -32q40 0 70.5 15t52.5 49l89 -70q-36 -52 -91 -78t-122 -26q-30 0 -60 6l-48 -152h-88zM401 314
q-9 55 -37.5 82.5t-71.5 27.5q-45 0 -74 -28t-38 -82h221z" />
    <glyph glyph-name="uni1EBD" unicode="&#x1ebd;" horiz-adv-x="575" 
d="M170 21.5q-58 33.5 -90.5 94.5t-32.5 142q0 80 31.5 141t87 94.5t127.5 33.5q69 0 123 -33.5t84 -94t30 -140.5q0 -23 -1 -33h-351q7 -64 40 -96t87 -32q40 0 70.5 15t52.5 49l89 -70q-36 -52 -91 -78t-122 -26q-76 0 -134 33.5zM401 314q-9 55 -37.5 82.5t-71.5 27.5
q-45 0 -74 -28t-38 -82h221zM321 604q-20 8 -42 21q-27 16 -40 16t-20 -11.5t-7 -28.5h-102q0 39 16.5 70.5t44.5 49t59 17.5q27 0 46.5 -7.5t42.5 -20.5q27 -16 40 -16t20.5 11t7.5 29h101q0 -39 -16.5 -70.5t-44.5 -49.5t-59 -18q-27 0 -47 8z" />
    <glyph glyph-name="uni1E1B" unicode="&#x1e1b;" horiz-adv-x="575" 
d="M170 21.5q-58 33.5 -90.5 94.5t-32.5 142q0 80 31.5 141t87 94.5t127.5 33.5q69 0 123 -33.5t84 -94t30 -140.5q0 -23 -1 -33h-351q7 -64 40 -96t87 -32q40 0 70.5 15t52.5 49l89 -70q-36 -52 -91 -78t-122 -26q-76 0 -134 33.5zM401 314q-9 55 -37.5 82.5t-71.5 27.5
q-45 0 -74 -28t-38 -82h221zM310.5 -194.5q-19.5 7.5 -42.5 20.5q-27 16 -40 16t-20 -11t-7 -29h-102q0 39 16.5 70.5t44.5 49.5t59 18q27 0 47 -8t42 -21q27 -16 40 -16t20.5 11.5t7.5 28.5h101q0 -39 -16.5 -70.5t-44 -49t-59.5 -17.5q-27 0 -46.5 7.5z" />
    <glyph glyph-name="uni01DD" unicode="&#x1dd;" horiz-adv-x="575" 
d="M405 493.5q58 -33.5 90.5 -94.5t32.5 -142q0 -80 -31.5 -141t-87 -94.5t-127.5 -33.5q-69 0 -123 33.5t-84 94t-30 140.5q0 23 1 33h351q-7 64 -40 96t-87 32q-40 0 -70.5 -15t-52.5 -49l-89 70q36 52 91 78t122 26q76 0 134 -33.5zM211.5 118.5q28.5 -27.5 71.5 -27.5
q45 0 74 28t38 82h-221q9 -55 37.5 -82.5z" />
    <glyph glyph-name="uni0259" unicode="&#x259;" horiz-adv-x="575" 
d="M405 493.5q58 -33.5 90.5 -94.5t32.5 -142q0 -80 -31.5 -141t-87 -94.5t-127.5 -33.5q-69 0 -123 33.5t-84 94t-30 140.5q0 23 1 33h351q-7 64 -40 96t-87 32q-40 0 -70.5 -15t-52.5 -49l-89 70q36 52 91 78t122 26q76 0 134 -33.5zM211.5 118.5q28.5 -27.5 71.5 -27.5
q45 0 74 28t38 82h-221q9 -55 37.5 -82.5z" />
    <glyph glyph-name="uni0292" unicode="&#x292;" horiz-adv-x="512" 
d="M94 -187.5q-60 37.5 -86 114.5l95 57q16 -48 49.5 -72.5t74.5 -24.5q51 0 82.5 30t31.5 85q0 57 -35.5 87t-88.5 30h-77v87l117 152q36 47 54 56l-1 4q-19 -6 -78 -6h-186v103h395v-94l-165 -209q91 -9 143 -66.5t52 -143.5q0 -70 -31 -121.5t-86 -78.5t-126 -27
q-74 0 -134 37.5z" />
    <glyph glyph-name="uni01EF" unicode="&#x1ef;" horiz-adv-x="512" 
d="M94 -187.5q-60 37.5 -86 114.5l95 57q16 -48 49.5 -72.5t74.5 -24.5q51 0 82.5 30t31.5 85q0 57 -35.5 87t-88.5 30h-77v87l117 152q36 47 54 56l-1 4q-19 -6 -78 -6h-186v103h395v-94l-165 -209q91 -9 143 -66.5t52 -143.5q0 -70 -31 -121.5t-86 -78.5t-126 -27
q-74 0 -134 37.5zM59 737h131l20 -24q29 -31 35 -43h3q3 4 29 37l26 30h131l-130 -139h-116z" />
    <glyph glyph-name="uni01B9" unicode="&#x1b9;" horiz-adv-x="512" 
d="M154 -198q-55 27 -85.5 78.5t-30.5 121.5q0 86 52 143.5t143 66.5l-165 209v94h394v-103h-185q-58 0 -78 6l-1 -4q16 -8 53 -56l118 -152v-87h-77q-53 0 -89 -30t-36 -87q0 -55 32 -85t83 -30q41 0 74.5 24.5t49.5 72.5l95 -57q-25 -76 -86 -114t-134 -38q-72 0 -127 27z
" />
    <glyph glyph-name="f" unicode="f" horiz-adv-x="385" 
d="M160.5 712q44.5 47 126.5 47h68v-109h-53q-58 0 -58 -72v-63h111v-102h-111v-413h-128v413h-78v102h78v67q0 83 44.5 130z" />
    <glyph glyph-name="f.text" horiz-adv-x="385" 
d="M160.5 663.5q44.5 47.5 126.5 47.5h68v-110h-53q-59 0 -59 -71v-15h112v-102h-112v-413h-127v413h-78v102h78v18q0 83 44.5 130.5z" />
    <glyph glyph-name="uniA799" unicode="&#xa799;" horiz-adv-x="398" 
d="M41 329h78v84h-78v102h78v67q0 82 45 129.5t126 47.5h69v-109h-53q-59 0 -59 -72v-63h112v-102h-112v-84h112v-90h-112v-239h-128v239h-78v90z" />
    <glyph glyph-name="uni1E1F" unicode="&#x1e1f;" horiz-adv-x="385" 
d="M160.5 712q44.5 47 126.5 47h68v-109h-53q-58 0 -58 -72v-63h111v-102h-111v-413h-128v413h-78v102h78v67q0 83 44.5 130zM179 850.5q-23 20.5 -23 55.5t23.5 56.5t58.5 21.5t58.5 -21.5t23.5 -56.5t-23 -55.5t-59 -20.5t-59 20.5z" />
    <glyph glyph-name="g" unicode="g" horiz-adv-x="602" 
d="M145 -148q-64 36 -97 109l97 60q21 -44 56.5 -68.5t79.5 -24.5q55 0 90.5 33t35.5 94v65q-49 -80 -146 -80q-61 0 -110 32t-77 88t-28 124t28 123.5t77 87.5t110 32q97 0 146 -80v68h127v-452q0 -77 -32 -133t-90 -85t-134 -29q-69 0 -133 36zM376 188.5q32 35.5 32 95.5
q0 59 -31.5 94.5t-83.5 35.5t-84 -35.5t-32 -94.5t32 -95t84 -36q51 0 83 35.5z" />
    <glyph glyph-name="g.ss01" horiz-adv-x="593" 
d="M148.5 -172.5q-59.5 17.5 -86.5 46t-27 62.5t21.5 60t62.5 42q-35 14 -54.5 38.5t-19.5 58.5q0 38 25.5 65t70.5 38q-67 43 -67 118q0 52 29 90.5t80.5 59.5t116.5 21q81 0 132 5.5t94 27.5l38 -97q-44 -19 -96 -28q52 -34 52 -94q0 -69 -63.5 -110.5t-167.5 -41.5
q-62 0 -93.5 -6t-31.5 -30q0 -21 35.5 -26.5t96.5 -5.5h28q117 0 178.5 -41.5t61.5 -111.5q0 -73 -65.5 -115.5t-198.5 -42.5q-92 0 -151.5 17.5zM397.5 -82.5q29.5 13.5 29.5 39.5t-29.5 39.5t-97.5 13.5q-129 0 -129 -53t129 -53q68 0 97.5 13.5zM370.5 304.5
q25.5 18.5 25.5 51.5t-25.5 52t-71.5 19q-48 0 -74 -19t-26 -52t26 -51.5t74 -18.5q46 0 71.5 18.5z" />
    <glyph glyph-name="uni01F5" unicode="&#x1f5;" horiz-adv-x="602" 
d="M145 -148q-64 36 -97 109l97 60q21 -44 56.5 -68.5t79.5 -24.5q55 0 90.5 33t35.5 94v65q-49 -80 -146 -80q-61 0 -110 32t-77 88t-28 124t28 123.5t77 87.5t110 32q97 0 146 -80v68h127v-452q0 -77 -32 -133t-90 -85t-134 -29q-69 0 -133 36zM376 188.5q32 35.5 32 95.5
q0 59 -31.5 94.5t-83.5 35.5t-84 -35.5t-32 -94.5t32 -95t84 -36q51 0 83 35.5zM209 598l117 139h143l-135 -139h-125z" />
    <glyph glyph-name="uni01F5.ss01" horiz-adv-x="593" 
d="M148.5 -172.5q-59.5 17.5 -86.5 46t-27 62.5t21.5 60t62.5 42q-35 14 -54.5 38.5t-19.5 58.5q0 38 25.5 65t70.5 38q-67 43 -67 118q0 52 29 90.5t80.5 59.5t116.5 21q81 0 132 5.5t94 27.5l38 -97q-44 -19 -96 -28q52 -34 52 -94q0 -69 -63.5 -110.5t-167.5 -41.5
q-62 0 -93.5 -6t-31.5 -30q0 -21 35.5 -26.5t96.5 -5.5h28q117 0 178.5 -41.5t61.5 -111.5q0 -73 -65.5 -115.5t-198.5 -42.5q-92 0 -151.5 17.5zM397.5 -82.5q29.5 13.5 29.5 39.5t-29.5 39.5t-97.5 13.5q-129 0 -129 -53t129 -53q68 0 97.5 13.5zM370.5 304.5
q25.5 18.5 25.5 51.5t-25.5 52t-71.5 19q-48 0 -74 -19t-26 -52t26 -51.5t74 -18.5q46 0 71.5 18.5zM204 598l117 139h143l-135 -139h-125z" />
    <glyph glyph-name="uni0263" unicode="&#x263;" horiz-adv-x="552" 
d="M177.5 -187.5q-32.5 37.5 -32.5 87.5q0 52 52 154l-184 461h140l98 -260q12 -34 18 -61t6 -41h4q2 35 25 102l98 260h135l-183 -461q25 -49 39 -87t14 -67q0 -50 -32.5 -87.5t-98.5 -37.5t-98.5 37.5zM299 -126q8 11 8 30q0 20 -15 58q-14 38 -14 55h-3q0 -18 -15 -52
q-16 -42 -16 -62q0 -18 8.5 -29t23.5 -11t23 11z" />
    <glyph glyph-name="gbreve" unicode="&#x11f;" horiz-adv-x="602" 
d="M145 -148q-64 36 -97 109l97 60q21 -44 56.5 -68.5t79.5 -24.5q55 0 90.5 33t35.5 94v65q-49 -80 -146 -80q-61 0 -110 32t-77 88t-28 124t28 123.5t77 87.5t110 32q97 0 146 -80v68h127v-452q0 -77 -32 -133t-90 -85t-134 -29q-69 0 -133 36zM376 188.5q32 35.5 32 95.5
q0 59 -31.5 94.5t-83.5 35.5t-84 -35.5t-32 -94.5t32 -95t84 -36q51 0 83 35.5zM179 631.5q-47 37.5 -53 105.5h108q4 -30 21 -43t47 -13q29 0 46 13t21 43h108q-6 -68 -53 -105.5t-122 -37.5q-76 0 -123 37.5z" />
    <glyph glyph-name="gbreve.ss01" horiz-adv-x="593" 
d="M148.5 -172.5q-59.5 17.5 -86.5 46t-27 62.5t21.5 60t62.5 42q-35 14 -54.5 38.5t-19.5 58.5q0 38 25.5 65t70.5 38q-67 43 -67 118q0 52 29 90.5t80.5 59.5t116.5 21q81 0 132 5.5t94 27.5l38 -97q-44 -19 -96 -28q52 -34 52 -94q0 -69 -63.5 -110.5t-167.5 -41.5
q-62 0 -93.5 -6t-31.5 -30q0 -21 35.5 -26.5t96.5 -5.5h28q117 0 178.5 -41.5t61.5 -111.5q0 -73 -65.5 -115.5t-198.5 -42.5q-92 0 -151.5 17.5zM397.5 -82.5q29.5 13.5 29.5 39.5t-29.5 39.5t-97.5 13.5q-129 0 -129 -53t129 -53q68 0 97.5 13.5zM370.5 304.5
q25.5 18.5 25.5 51.5t-25.5 52t-71.5 19q-48 0 -74 -19t-26 -52t26 -51.5t74 -18.5q46 0 71.5 18.5zM174 631.5q-47 37.5 -53 105.5h108q4 -30 21 -43t47 -13q29 0 46 13t21 43h108q-6 -68 -53 -105.5t-122 -37.5q-76 0 -123 37.5z" />
    <glyph glyph-name="gcaron" unicode="&#x1e7;" horiz-adv-x="602" 
d="M145 -148q-64 36 -97 109l97 60q21 -44 56.5 -68.5t79.5 -24.5q55 0 90.5 33t35.5 94v65q-49 -80 -146 -80q-61 0 -110 32t-77 88t-28 124t28 123.5t77 87.5t110 32q97 0 146 -80v68h127v-452q0 -77 -32 -133t-90 -85t-134 -29q-69 0 -133 36zM376 188.5q32 35.5 32 95.5
q0 59 -31.5 94.5t-83.5 35.5t-84 -35.5t-32 -94.5t32 -95t84 -36q51 0 83 35.5zM115 737h131l20 -24q29 -31 35 -43h3q3 4 29 37l26 30h131l-130 -139h-116z" />
    <glyph glyph-name="gcaron.ss01" horiz-adv-x="593" 
d="M148.5 -172.5q-59.5 17.5 -86.5 46t-27 62.5t21.5 60t62.5 42q-35 14 -54.5 38.5t-19.5 58.5q0 38 25.5 65t70.5 38q-67 43 -67 118q0 52 29 90.5t80.5 59.5t116.5 21q81 0 132 5.5t94 27.5l38 -97q-44 -19 -96 -28q52 -34 52 -94q0 -69 -63.5 -110.5t-167.5 -41.5
q-62 0 -93.5 -6t-31.5 -30q0 -21 35.5 -26.5t96.5 -5.5h28q117 0 178.5 -41.5t61.5 -111.5q0 -73 -65.5 -115.5t-198.5 -42.5q-92 0 -151.5 17.5zM397.5 -82.5q29.5 13.5 29.5 39.5t-29.5 39.5t-97.5 13.5q-129 0 -129 -53t129 -53q68 0 97.5 13.5zM370.5 304.5
q25.5 18.5 25.5 51.5t-25.5 52t-71.5 19q-48 0 -74 -19t-26 -52t26 -51.5t74 -18.5q46 0 71.5 18.5zM110 737h131l20 -24q29 -31 35 -43h3q3 4 29 37l26 30h131l-130 -139h-116z" />
    <glyph glyph-name="gcircumflex" unicode="&#x11d;" horiz-adv-x="602" 
d="M145 -148q-64 36 -97 109l97 60q21 -44 56.5 -68.5t79.5 -24.5q55 0 90.5 33t35.5 94v65q-49 -80 -146 -80q-61 0 -110 32t-77 88t-28 124t28 123.5t77 87.5t110 32q97 0 146 -80v68h127v-452q0 -77 -32 -133t-90 -85t-134 -29q-69 0 -133 36zM376 188.5q32 35.5 32 95.5
q0 59 -31.5 94.5t-83.5 35.5t-84 -35.5t-32 -94.5t32 -95t84 -36q51 0 83 35.5zM245 738h116l129 -139h-131l-20 24q-29 31 -35 43h-3q-3 -4 -29 -37l-26 -30h-131z" />
    <glyph glyph-name="gcircumflex.ss01" horiz-adv-x="593" 
d="M148.5 -172.5q-59.5 17.5 -86.5 46t-27 62.5t21.5 60t62.5 42q-35 14 -54.5 38.5t-19.5 58.5q0 38 25.5 65t70.5 38q-67 43 -67 118q0 52 29 90.5t80.5 59.5t116.5 21q81 0 132 5.5t94 27.5l38 -97q-44 -19 -96 -28q52 -34 52 -94q0 -69 -63.5 -110.5t-167.5 -41.5
q-62 0 -93.5 -6t-31.5 -30q0 -21 35.5 -26.5t96.5 -5.5h28q117 0 178.5 -41.5t61.5 -111.5q0 -73 -65.5 -115.5t-198.5 -42.5q-92 0 -151.5 17.5zM397.5 -82.5q29.5 13.5 29.5 39.5t-29.5 39.5t-97.5 13.5q-129 0 -129 -53t129 -53q68 0 97.5 13.5zM370.5 304.5
q25.5 18.5 25.5 51.5t-25.5 52t-71.5 19q-48 0 -74 -19t-26 -52t26 -51.5t74 -18.5q46 0 71.5 18.5zM240 738h116l129 -139h-131l-20 24q-29 31 -35 43h-3q-3 -4 -29 -37l-26 -30h-131z" />
    <glyph glyph-name="uni0123" unicode="&#x123;" horiz-adv-x="602" 
d="M145 -148q-64 36 -97 109l97 60q21 -44 56.5 -68.5t79.5 -24.5q55 0 90.5 33t35.5 94v65q-49 -80 -146 -80q-61 0 -110 32t-77 88t-28 124t28 123.5t77 87.5t110 32q97 0 146 -80v68h127v-452q0 -77 -32 -133t-90 -85t-134 -29q-69 0 -133 36zM376 188.5q32 35.5 32 95.5
q0 59 -31.5 94.5t-83.5 35.5t-84 -35.5t-32 -94.5t32 -95t84 -36q51 0 83 35.5zM375 767l-48 -62q24 -5 37.5 -20t13.5 -36q0 -27 -21 -43.5t-55 -16.5t-55 17t-21 45q0 32 29 72l57 79z" />
    <glyph glyph-name="uni0123.ss01" horiz-adv-x="593" 
d="M148.5 -172.5q-59.5 17.5 -86.5 46t-27 62.5t21.5 60t62.5 42q-35 14 -54.5 38.5t-19.5 58.5q0 38 25.5 65t70.5 38q-67 43 -67 118q0 52 29 90.5t80.5 59.5t116.5 21q81 0 132 5.5t94 27.5l38 -97q-44 -19 -96 -28q52 -34 52 -94q0 -69 -63.5 -110.5t-167.5 -41.5
q-62 0 -93.5 -6t-31.5 -30q0 -21 35.5 -26.5t96.5 -5.5h28q117 0 178.5 -41.5t61.5 -111.5q0 -73 -65.5 -115.5t-198.5 -42.5q-92 0 -151.5 17.5zM397.5 -82.5q29.5 13.5 29.5 39.5t-29.5 39.5t-97.5 13.5q-129 0 -129 -53t129 -53q68 0 97.5 13.5zM370.5 304.5
q25.5 18.5 25.5 51.5t-25.5 52t-71.5 19q-48 0 -74 -19t-26 -52t26 -51.5t74 -18.5q46 0 71.5 18.5zM370 767l-48 -62q24 -5 37.5 -20t13.5 -36q0 -27 -21 -43.5t-55 -16.5t-55 17t-21 45q0 32 29 72l57 79z" />
    <glyph glyph-name="gdotaccent" unicode="&#x121;" horiz-adv-x="602" 
d="M145 -148q-64 36 -97 109l97 60q21 -44 56.5 -68.5t79.5 -24.5q55 0 90.5 33t35.5 94v65q-49 -80 -146 -80q-61 0 -110 32t-77 88t-28 124t28 123.5t77 87.5t110 32q97 0 146 -80v68h127v-452q0 -77 -32 -133t-90 -85t-134 -29q-69 0 -133 36zM376 188.5q32 35.5 32 95.5
q0 59 -31.5 94.5t-83.5 35.5t-84 -35.5t-32 -94.5t32 -95t84 -36q51 0 83 35.5zM243 615.5q-23 20.5 -23 55.5t23.5 56.5t58.5 21.5t58.5 -21.5t23.5 -56.5t-23 -55.5t-59 -20.5t-59 20.5z" />
    <glyph glyph-name="gdotaccent.ss01" horiz-adv-x="593" 
d="M148.5 -172.5q-59.5 17.5 -86.5 46t-27 62.5t21.5 60t62.5 42q-35 14 -54.5 38.5t-19.5 58.5q0 38 25.5 65t70.5 38q-67 43 -67 118q0 52 29 90.5t80.5 59.5t116.5 21q81 0 132 5.5t94 27.5l38 -97q-44 -19 -96 -28q52 -34 52 -94q0 -69 -63.5 -110.5t-167.5 -41.5
q-62 0 -93.5 -6t-31.5 -30q0 -21 35.5 -26.5t96.5 -5.5h28q117 0 178.5 -41.5t61.5 -111.5q0 -73 -65.5 -115.5t-198.5 -42.5q-92 0 -151.5 17.5zM397.5 -82.5q29.5 13.5 29.5 39.5t-29.5 39.5t-97.5 13.5q-129 0 -129 -53t129 -53q68 0 97.5 13.5zM370.5 304.5
q25.5 18.5 25.5 51.5t-25.5 52t-71.5 19q-48 0 -74 -19t-26 -52t26 -51.5t74 -18.5q46 0 71.5 18.5zM238 615.5q-23 20.5 -23 55.5t23.5 56.5t58.5 21.5t58.5 -21.5t23.5 -56.5t-23 -55.5t-59 -20.5t-59 20.5z" />
    <glyph glyph-name="uni01A3" unicode="&#x1a3;" horiz-adv-x="888" 
d="M172.5 22q-58.5 34 -92 95t-33.5 141q0 79 33.5 140t92 95t132.5 34q68 0 123 -28t90 -79q17 55 59.5 81t93.5 26q67 0 110 -46t43 -125v-566h-127v545q0 39 -16.5 60t-45.5 21q-31 0 -50.5 -26.5t-19.5 -73.5v-64q-1 -78 -35 -138t-92.5 -93t-132.5 -33t-132.5 34z
M398 142.5q36 41.5 36 115.5t-36 114.5t-93 40.5t-92 -40.5t-35 -114.5t35 -115.5t92 -41.5t93 41.5z" />
    <glyph glyph-name="uni0260" unicode="&#x260;" horiz-adv-x="608" 
d="M162.5 -198.5q-58.5 26.5 -95.5 84.5l88 72q48 -71 132 -71q54 0 90 33t36 94v83q-23 -36 -60 -57.5t-88 -21.5q-63 0 -112.5 33t-77 91t-27.5 130t27.5 130.5t77 91.5t112.5 33q97 0 148 -80v135q0 88 47 134t123 46q84 0 135 -56l-64 -83q-25 29 -59 29
q-24 0 -39 -15.5t-15 -46.5v-569q0 -77 -32 -132.5t-90 -84.5t-135 -29q-63 0 -121.5 26.5zM382 169.5q33 38.5 33 102.5q0 65 -33 103.5t-85 38.5q-53 0 -86 -38t-33 -104t33 -103.5t86 -37.5q52 0 85 38.5z" />
    <glyph glyph-name="uni0294" unicode="&#x294;" horiz-adv-x="521" 
d="M197 337q15 38 36.5 63.5t53.5 53.5q18 17 36 34.5t27.5 35.5t9.5 40q0 39 -27 61t-74 22q-48 0 -85.5 -29.5t-58.5 -88.5l-105 45q64 188 250 188q108 0 169.5 -53t61.5 -144q0 -49 -16 -84.5t-34 -54.5t-59 -55q-37 -34 -55 -64t-18 -79v-228h-127v248q0 51 15 89z" />
    <glyph glyph-name="uni0295" unicode="&#x295;" horiz-adv-x="527" 
d="M197 307q-18 30 -55 64q-42 38 -60 56t-34 53.5t-16 84.5q0 91 62 144t170 53q186 0 250 -188l-106 -45q-20 59 -58 88.5t-85 29.5t-74.5 -22t-27.5 -61q0 -22 10 -40t28 -35.5t36 -34.5q32 -28 53.5 -53.5t36.5 -63.5t15 -89v-248h-127v228q0 49 -18 79z" />
    <glyph glyph-name="uni0242" unicode="&#x242;" horiz-adv-x="535" 
d="M215 165q28 41 78 77q30 23 42 33t21.5 25.5t9.5 34.5q0 36 -26.5 56.5t-72.5 20.5q-48 0 -86.5 -29.5t-59.5 -88.5l-105 46q64 187 252 187q107 0 168 -51t61 -138q0 -46 -16.5 -79t-37.5 -53.5t-56 -46.5q-37 -28 -55 -56t-18 -71v-32h-127v59q0 65 28 106z" />
    <glyph glyph-name="uni1E21" unicode="&#x1e21;" horiz-adv-x="602" 
d="M145 -148q-64 36 -97 109l97 60q21 -44 56.5 -68.5t79.5 -24.5q55 0 90.5 33t35.5 94v65q-49 -80 -146 -80q-61 0 -110 32t-77 88t-28 124t28 123.5t77 87.5t110 32q97 0 146 -80v68h127v-452q0 -77 -32 -133t-90 -85t-134 -29q-69 0 -133 36zM376 188.5q32 35.5 32 95.5
q0 59 -31.5 94.5t-83.5 35.5t-84 -35.5t-32 -94.5t32 -95t84 -36q51 0 83 35.5zM133 718h339v-100h-339v100z" />
    <glyph glyph-name="uni1E21.ss01" horiz-adv-x="593" 
d="M148.5 -172.5q-59.5 17.5 -86.5 46t-27 62.5t21.5 60t62.5 42q-35 14 -54.5 38.5t-19.5 58.5q0 38 25.5 65t70.5 38q-67 43 -67 118q0 52 29 90.5t80.5 59.5t116.5 21q81 0 132 5.5t94 27.5l38 -97q-44 -19 -96 -28q52 -34 52 -94q0 -69 -63.5 -110.5t-167.5 -41.5
q-62 0 -93.5 -6t-31.5 -30q0 -21 35.5 -26.5t96.5 -5.5h28q117 0 178.5 -41.5t61.5 -111.5q0 -73 -65.5 -115.5t-198.5 -42.5q-92 0 -151.5 17.5zM397.5 -82.5q29.5 13.5 29.5 39.5t-29.5 39.5t-97.5 13.5q-129 0 -129 -53t129 -53q68 0 97.5 13.5zM370.5 304.5
q25.5 18.5 25.5 51.5t-25.5 52t-71.5 19q-48 0 -74 -19t-26 -52t26 -51.5t74 -18.5q46 0 71.5 18.5zM128 718h339v-100h-339v100z" />
    <glyph glyph-name="uni0261" unicode="&#x261;" horiz-adv-x="602" 
d="M145 -148q-64 36 -97 109l97 60q21 -44 56.5 -68.5t79.5 -24.5q55 0 90.5 33t35.5 94v65q-49 -80 -146 -80q-61 0 -110 32t-77 88t-28 124t28 123.5t77 87.5t110 32q97 0 146 -80v68h127v-452q0 -77 -32 -133t-90 -85t-134 -29q-69 0 -133 36zM376 188.5q32 35.5 32 95.5
q0 59 -31.5 94.5t-83.5 35.5t-84 -35.5t-32 -94.5t32 -95t84 -36q51 0 83 35.5z" />
    <glyph glyph-name="uni01E5" unicode="&#x1e5;" horiz-adv-x="627" 
d="M144 -148q-64 36 -97 109l92 57q22 -45 58.5 -71t82.5 -26q33 0 60 12.5t44 37.5h-182v83h204v99q-49 -70 -145 -70q-62 0 -111 28t-76.5 77.5t-27.5 110.5q0 64 27.5 116t76.5 82t111 30q50 0 86.5 -20t58.5 -55v63h127v-452v-6h54v-90h-69q-25 -72 -88.5 -111.5
t-152.5 -39.5q-69 0 -133 36zM375 221q32 32 32 83q0 52 -32 83.5t-83 31.5t-83.5 -31.5t-32.5 -83.5q0 -51 32.5 -83t83.5 -32t83 32z" />
    <glyph glyph-name="uni01E5.ss01" horiz-adv-x="601" 
d="M126.5 -161.5q-62.5 28.5 -75.5 72.5h-39v90h58q21 24 53 37q-34 14 -54 38.5t-20 58.5q0 38 25.5 64.5t70.5 38.5q-66 42 -66 118q0 52 28.5 90.5t80 59.5t116.5 21q82 0 133 5.5t94 27.5l38 -97q-43 -19 -96 -28q51 -34 51 -94q0 -46 -28.5 -80.5t-79 -53t-114.5 -18.5
q-68 0 -101 -6t-33 -30q0 -21 35.5 -26.5t96.5 -5.5h28q99 0 157.5 -32.5t71.5 -87.5h43v-90h-50q-22 -48 -82.5 -74.5t-162.5 -26.5q-116 0 -178.5 28.5zM438 -76h-271q27 -38 137 -38q107 0 134 38zM375 304.5q25 18.5 25 51.5t-25 52t-72 19q-48 0 -73.5 -19t-25.5 -52
t25.5 -51.5t73.5 -18.5q47 0 72 18.5zM438 -10q-27 38 -134 38q-109 0 -137 -38h271z" />
    <glyph glyph-name="uni021D" unicode="&#x21d;" horiz-adv-x="512" 
d="M94 -187.5q-60 37.5 -86 114.5l95 57q16 -48 49.5 -72.5t74.5 -24.5q51 0 82.5 30t31.5 85q0 57 -35.5 87t-88.5 30h-77v87l117 152q36 47 54 56l-1 4q-19 -6 -78 -6h-186v103h395v-94l-165 -209q91 -9 143 -66.5t52 -143.5q0 -70 -31 -121.5t-86 -78.5t-126 -27
q-74 0 -134 37.5z" />
    <glyph glyph-name="h" unicode="h" horiz-adv-x="575" 
d="M69 750h127v-302q43 79 138 79q51 0 91 -23.5t63 -67.5t23 -101v-335h-127v313q0 48 -24 75.5t-63 27.5q-45 0 -73 -29t-28 -80v-307h-127v750z" />
    <glyph glyph-name="hbar" unicode="&#x127;" horiz-adv-x="575" 
d="M69 573h-61v90h61v87h127v-87h117v-90h-117v-125q43 79 138 79q51 0 91 -23.5t63 -67.5t23 -101v-335h-127v313q0 48 -24 75.5t-63 27.5q-45 0 -73 -29t-28 -80v-307h-127v573z" />
    <glyph glyph-name="uni1E2B" unicode="&#x1e2b;" horiz-adv-x="575" 
d="M69 750h127v-302q43 79 138 79q51 0 91 -23.5t63 -67.5t23 -101v-335h-127v313q0 48 -24 75.5t-63 27.5q-45 0 -73 -29t-28 -80v-307h-127v750zM167 -176q-47 37 -53 106h108q4 -30 21 -43t47 -13q29 0 46 13t21 43h108q-6 -69 -52.5 -106t-122.5 -37t-123 37z" />
    <glyph glyph-name="uni021F" unicode="&#x21f;" horiz-adv-x="575" 
d="M69 750h127v-302q43 79 138 79q51 0 91 -23.5t63 -67.5t23 -101v-335h-127v313q0 48 -24 75.5t-63 27.5q-45 0 -73 -29t-28 -80v-307h-127v750zM103 962h131l20 -24q29 -31 35 -43h3q3 4 29 37l26 30h131l-130 -139h-116z" />
    <glyph glyph-name="uni1E29" unicode="&#x1e29;" horiz-adv-x="575" 
d="M69 750h127v-302q43 79 138 79q51 0 91 -23.5t63 -67.5t23 -101v-335h-127v313q0 48 -24 75.5t-63 27.5q-45 0 -73 -29t-28 -80v-307h-43l26 -22q38 -35 38 -76q0 -33 -26.5 -57t-71.5 -24h-99v107h57q12 0 19 5.5t7 14.5q0 12 -12 27l-22 25v750z" />
    <glyph glyph-name="hcircumflex" unicode="&#x125;" horiz-adv-x="575" 
d="M69 750h127v-302q43 79 138 79q51 0 91 -23.5t63 -67.5t23 -101v-335h-127v313q0 48 -24 75.5t-63 27.5q-45 0 -73 -29t-28 -80v-307h-127v750zM233 963h116l129 -139h-131l-20 24q-29 31 -35 43h-3q-3 -4 -29 -37l-26 -30h-131z" />
    <glyph glyph-name="uni1E27" unicode="&#x1e27;" horiz-adv-x="575" 
d="M69 750h127v-302q43 79 138 79q51 0 91 -23.5t63 -67.5t23 -101v-335h-127v313q0 48 -24 75.5t-63 27.5q-45 0 -73 -29t-28 -80v-307h-127v750zM123 839.5q-22 20.5 -22 54.5q0 35 22 55t55 20t54.5 -20t21.5 -55q0 -34 -21.5 -54.5t-54.5 -20.5t-55 20.5zM348 839.5
q-22 20.5 -22 54.5q0 35 22 55t55 20t54.5 -20t21.5 -55q0 -34 -21.5 -54.5t-54.5 -20.5t-55 20.5z" />
    <glyph glyph-name="uni1E23" unicode="&#x1e23;" horiz-adv-x="575" 
d="M69 750h127v-302q43 79 138 79q51 0 91 -23.5t63 -67.5t23 -101v-335h-127v313q0 48 -24 75.5t-63 27.5q-45 0 -73 -29t-28 -80v-307h-127v750zM231 840.5q-23 20.5 -23 55.5t23.5 56.5t58.5 21.5t58.5 -21.5t23.5 -56.5t-23 -55.5t-59 -20.5t-59 20.5z" />
    <glyph glyph-name="uni1E25" unicode="&#x1e25;" horiz-adv-x="575" 
d="M69 750h127v-302q43 79 138 79q51 0 91 -23.5t63 -67.5t23 -101v-335h-127v313q0 48 -24 75.5t-63 27.5q-45 0 -73 -29t-28 -80v-307h-127v750zM231 -190.5q-23 20.5 -23 55.5t23.5 56t58.5 21t58.5 -21t23.5 -56t-23.5 -55.5t-58.5 -20.5q-36 0 -59 20.5z" />
    <glyph glyph-name="uniA727" unicode="&#xa727;" horiz-adv-x="575" 
d="M206 -169l65 83q25 -29 58 -29q24 0 39.5 15t15.5 47v366q0 48 -24 75.5t-63 27.5q-45 0 -73 -29t-28 -80v-307h-127v750h127v-300q22 39 57.5 58t80.5 19q51 0 91 -23.5t63 -67.5t23 -101v-380q0 -88 -46.5 -134t-122.5 -46q-83 0 -136 56z" />
    <glyph glyph-name="uni0267" unicode="&#x267;" horiz-adv-x="575" 
d="M206 -169l65 83q25 -29 58 -29q24 0 39.5 15t15.5 47v366q0 48 -24 75.5t-63 27.5q-45 0 -73 -29t-28 -80v-307h-127v574q0 91 51.5 139.5t134.5 48.5q91 0 147 -58l-64 -84q-31 30 -72 30q-31 0 -50.5 -20t-19.5 -62v-118q22 39 57.5 58t80.5 19q51 0 91 -23.5t63 -67.5
t23 -101v-380q0 -88 -46.5 -134t-122.5 -46q-83 0 -136 56z" />
    <glyph glyph-name="uni0266" unicode="&#x266;" horiz-adv-x="575" 
d="M120.5 713.5q51.5 48.5 134.5 48.5q91 0 147 -58l-64 -84q-31 30 -72 30q-31 0 -50.5 -20t-19.5 -62v-116q22 38 57.5 56.5t80.5 18.5q51 0 91 -23t63 -65t23 -97v-342h-127v320q0 45 -24.5 70.5t-62.5 25.5q-45 0 -73 -27.5t-28 -74.5v-314h-127v574q0 91 51.5 139.5z
" />
    <glyph glyph-name="uni1E96" unicode="&#x1e96;" horiz-adv-x="575" 
d="M69 750h127v-302q43 79 138 79q51 0 91 -23.5t63 -67.5t23 -101v-335h-127v313q0 48 -24 75.5t-63 27.5q-45 0 -73 -29t-28 -80v-307h-127v750zM121 -74h339v-99h-339v99z" />
    <glyph glyph-name="uni0265" unicode="&#x265;" horiz-adv-x="575" 
d="M379 67q-43 -79 -138 -79q-51 0 -91 23.5t-63 67.5t-23 101v335h127v-313q0 -48 24 -75t63 -27q45 0 73 28.5t28 79.5v307h127v-725h-127v277z" />
    <glyph glyph-name="i" unicode="i" horiz-adv-x="265" 
d="M196 0h-127v515h127v-515zM75 615.5q-23 20.5 -23 55.5t23.5 56.5t58.5 21.5t58.5 -21.5t23.5 -56.5t-23.5 -55.5t-58.5 -20.5q-36 0 -59 20.5z" />
    <glyph glyph-name="i.ss02" horiz-adv-x="265" 
d="M196 0h-127v515h127v-515zM68 597q-26 24 -26 63q0 40 26 63.5t64 23.5q39 0 65 -23.5t26 -63.5q0 -39 -26 -63t-64 -24q-39 0 -65 24z" />
    <glyph glyph-name="i.text" horiz-adv-x="265" 
d="M196 0h-127v515h127v-515zM74 595.5q-23 20.5 -23 55.5t23.5 56.5t58.5 21.5t58.5 -21.5t23.5 -56.5t-23.5 -55.5t-58.5 -20.5q-36 0 -59 20.5z" />
    </font>
</defs>
</svg>
